<?xml version="1.0" encoding="utf-8"?>
<!-- Generator: Adobe Illustrator 21.0.0, SVG Export Plug-In . SVG Version: 6.00 Build 0)  -->
<svg version="1.1" id="Layer_1" xmlns="http://www.w3.org/2000/svg" xmlns:xlink="http://www.w3.org/1999/xlink" x="0px" y="0px"
	 viewBox="0 0 552 210.9" style="enable-background:new 0 0 552 210.9;" xml:space="preserve">
<style type="text/css">
	.st0{fill:#FFFFFF;}
</style>
<path class="st0" d="M344.7,98c0.2,1.6-1.1,0.7-1.9,1c-0.7,1-1.3,2.1-2.2,2.9c-0.9,0.8-2.1,1.2-3.2,1.9c-0.2-0.2-0.6-0.5-1.1-0.9
	c0,1.1,0,1.9,0,2.5c-0.8,0.8-1.4,1.4-2.1,2.1c0,1.8,0,3.8,0,5.4c-0.9,1.8-1.7,3.4-2.5,5c-0.4,0.2-1,0.4-1.9,0.7
	c0.4,0.8,0.8,1.5,1.1,2.1c-1.5,0.4-3.1,0.8-4.8,1.2c0,1.6,0,2.7,0,3.8c2.7,1.1,5.9,1.7,8,3.5c2.1,1.9,4.8,2.4,6.8,4.4
	c0,0.5,0,1.1,0,2.2c2,0.6,4,1.2,6.2,1.8c-0.7,0.2-1.2,0.4-2.6,0.9c1.4,0.3,2.4,0.5,3.4,0.7c-0.3,0.4-0.7,0.8-1,1.2c0,1,0,1.9,0,2.7
	c-1.7,1.7-3.3,3.3-5.1,5.1c-0.3-0.2-0.8-0.5-1.3-0.9c-0.4,0.3-1,0.6-2.7,0.3c-0.5,0.2-0.3,0.6-0.2,0.5c0.5-0.1,0.9-0.3,1.4-0.4
	c-0.6-0.2-1.2-0.3-1.2-0.1c1.2,2.1,1.2,3.6,1.2,5.1c1.3,1.1,2.1,3.1,4.4,2.5c0.7,1,1.3,2.1,2.2,3.5c0.2-1.4,0.4-2.3,0.7-4.4
	c0.5,1.4,0.8,2.2,1.1,2.9c0.2-0.2-0.1,0.1-0.8,0.8c1.1,0.1,1.8,0.1,2.3,0.1c1.1,1.1,2,2,2.9,3c1.3,2.2,2.5,4.3,3.6,6.1
	c2.2,1.1,4.1,1.8,5.7,3c1.5,1.2,3.9,0.6,4.9,2.6c2.4-0.5,3.4,2.7,5.5,2.2c2.5-0.6,2.9,2.8,5.4,2c0.4,2.6,0.8,5,1.2,7.5
	c-1.1,0.7-2,1.4-3.6,2.5c-0.7,0-2.3,0-4.2,0c-0.6-0.6-1.5-1.3-2.4-2.2c-0.6,0.5-1.1,0.8-1.6,1.2c-4.4-3.4-9.7-4.5-15.2-6.3
	c-0.2,1.6-0.3,2.9-0.4,4.3c-3.3,0.5-6.7,1-9.6,1.4c-3.5-2-6.2-4.6-9.9-5.4c-1.2-0.2-2.5-0.7-3.4-1.4c-1.2-1-2-2.5-3.1-3.6
	c-2.2-2.3-4.4-4.7-6.9-6.8c-1-0.8-2.6-1-3.9-1.4c-0.1-0.4-0.2-0.9-0.4-1.5c-1.1,0-2.2,0-3.4,0c-0.3-0.7-0.5-1.3-0.5-1.4
	c-2.7-1.4-5-2.7-7.5-4.1c-0.6-0.8-1.4-1.9-2.3-3.1c-0.7,0.5-1.1,0.8-1.2,0.8c-0.8-0.8-1.7-1.7-2.6-2.6c-0.2,0.2-0.4,0.5-0.6,0.7
	c-1.5-0.8-3-1.5-5.2-2.6c-2.1,0-5.1,0.1-7.9-0.8c-0.8,0.3-1.6,0.7-2.4,1c-0.4,0.9-0.9,1.9-1.2,2.5c1,3.4,1.8,6.6,2.9,9.6
	c0.7,1.9,0.7,3.9,2.2,5.6c1,1,1.4,2.7,1.9,4.2c0.9,2.5,0.6,5.3,1.7,7.8c0.5,1.2-0.4,3-0.7,4.4c-5.4,2.6-6.6,2.3-10.2-2.7
	c-1.1-1.6-2.8-2.7-4.2-4.1c-2.5-2.6-4-5.8-6.2-8.5c-0.6-0.8-0.2-2.2-0.6-3.2c-1.4-3.3-3-6.6-4.9-10.6c-0.7,1.2-1,1.8-1.5,2.6
	c-1.2,0-2.6,0-3.8,0c-0.7-0.5-1.4-0.9-2.2-1.4c0.6-0.8,0.9-1.4,1.3-1.9c-0.2-0.3-0.6-0.6-0.8-0.9c1.3-2,2.5-4,3.6-5.7
	c-0.4-1.3-0.7-2.5-1-3.6c-0.5-1.8-0.8-3.7-1.8-5.2c-1.1-1.9-0.6-3.8-1-5.6c-0.6-2.4-1.7-4.6-2.9-7.7c-0.5-4.9-1.1-10.6-3.8-16
	c-0.9-1.8,0.3-4.2-1.2-6c0.6-3.3-0.9-6.2-2-9.2c-1.3-3.5-1.4-7.3-3-10.7c0.8-2.7-2.7-3.9-2.4-6.6c0-0.3-1.2-0.8-1.9-1.2
	c-1.1-0.6-2.2-1.2-3.9-2c-1,0-2.7,0.1-4.3,0c-1.6-0.1-3.1,0.4-4.8-0.5c-0.7-0.4-2.2,0.8-3.5-0.4c-1-0.9-2.7,1.7-4.3-0.3
	c-1.7,1.1-3.4,2.3-5.1,3.5c2,2.1,3.3-0.7,5.8-0.1c0.4,0.4,1.3,1.3,2.3,2.2c0,1.3,0,2.6,0,4.2c-0.6,0.4-1.4,0.8-2.1,1.4
	c-0.5,0.5-0.8,1.2-1.4,2c-2.3-0.3-4.5,0.4-6.2,2.3c-1.3,1.4-2.1,3.6-3.6,4.4c-1.7,0.9-2.8,2.1-4.1,3.4c-1,1-1.7,2.3-2.5,3.4
	c0,1.3,0,2.7,0,4.1c0.4,0.1,0.8,0.3,1.3,0.4c0.9,0.2,1.8,0.4,2.8,0.5c1.4,0.2,3.3,1,4.2,0.3c2.1-1.5,4.2-0.5,6.3-1
	c0.9-0.9,1.9-1.8,3.2-3c0.2,1.2,0.3,2.1,0.5,3.4c5.2-3.2,7.9,1.8,12.1,2.9c-0.6,0.6-0.8,0.8-1.1,1.1c0.3,1,0.6,1.9,1,3.3
	c-1,0.6-2,1.2-3,1.7c0.1,0.8-4.5,1-5.5,0.6c-0.7,0.6-1.5,1.4-2.5,2.3c-1.2-0.2-2.5-0.4-4.2-0.6c-1.1,1.3-3.1,1.5-5.3,1.6
	c-2.2,0.1-4.3,0.7-6.5,1c-0.6,1.7-1.1,3.3-1.7,5.1c-1.7-0.4-3.3-0.9-5.5-1.4c0,1.7,0.6,3.6-0.1,4.5c-1.1,1.4,0.3,2.2,0.2,3.3
	c-0.2,1.3,0,2.7-0.1,4c-0.1,1.1,0,2.4-0.4,3.3c-0.6,1.3,0.9,2.1,0.5,3.4c-0.6,1.6-0.9,3.3-1.3,5.2c1,0.8,1.9,1.5,3.2,2.5
	c1.7,0,4,0,6.6,0c3.5-4.3,9.6-6,13.1-10.9c0.5,0,1.2,0,2.3,0c0-0.8-0.2-1.7,0.1-2.3c0.2-0.6,0.9-1.1,1.4-1.6
	c0.4,0.4,0.7,0.7,0.8,0.8c1.3-0.9,2.6-1.7,3.9-2.6c1.7,1,3.4,1.2,5.3,0c0.6,0.3,1.4,0.7,2.3,1.1c1.5,3.7,1.5,3.7,0.2,6.9
	c-2.8,2.1-5.3,3.8-8,5.8c-0.2,0-0.9,0-1.8,0c-0.1,0.6-0.1,1.1-0.2,1.6c3.5-0.7,6.9-1.3,10.6-2c0.7-0.4,2-0.9,2.9-1.7
	c0.9-0.8,1.3-2,1.9-3c1.1,0.1,1.8,0.1,3,0.2c-0.6,1.4-1.1,2.3-1.5,3.3c3.1,2.1,5.7-1.2,8.9-0.2c1.2,1.3,2.7,2.8,4.5,4.7
	c-0.3,1.7-0.7,3.7-1.1,5.8c-4.2,0.4-8,1.6-11.7,3.3c-3.5,1.6-8.1,0.4-10.6,3.6c-2.7,0.5-5.1,0.7-7.3,1.5c-2.2,0.7-4.1,2.4-6.3,2.7
	c-2.4,0.4-4.8,0.2-6.6,2.1c-0.4-0.3-0.7-0.7-1.2-1.2c-1.2,0.6-2.4,1.2-4.2,2.1c-2.7,0.5-6.2-0.9-9.4,1.1c-0.4-0.4-0.8-0.7-1.1-1
	c-0.7,0.4-1.3,0.7-2.3,1.3c-1.7,4.8-1.6,10.8-5.4,15.3c-1.2,0.3-2.3,0.7-3.4,1c0.2-1.6-2.4-1.2-2.6-3.1c-0.1-1.2-1.3-2.4-2.2-3.8
	c1.1-0.9,2-1.7,3-2.5c0.2,0.5,0.4,1,0.8,2.2c0.5-0.9,0.9-1.6,1.4-2.6c-0.1-0.2-0.5-0.8-0.7-1.2c0.4-2.3,0.7-4.3,0.9-5.6
	c-2.3-2.1-4.2-3.7-5.9-5.2c0.3-1,0.5-1.8,0.8-2.7c0.3-0.9,0.3-2,0.9-2.6c2-2.1,2.2-4.5,2-7.4c-0.8-0.2-1.8-0.3-2.6-0.5
	c0.4-2.1,0.8-4.1,1.3-6.7c-0.5-0.3-1.5-0.8-2.6-1.5c-0.2,0.3-0.9,1.3-1.6,2.4c-0.9-1-1.8-2.1-2.7-3.2c1.4-2.7,2.8-5.1,4.1-7.5
	c-0.3-0.3-0.6-0.6-1.2-1.2c-1,0.8-2.1,1.6-3.3,2.6c0-0.1-0.2-0.8-0.4-1.5c-0.2,0.2-0.5,0.4-0.7,0.5c0.4-0.9,0.9-1.8,1.3-2.7
	c0.7,0,1.4,0,2,0c1.9-3.1-1.4-5.8-0.7-8.9c-1.2,1.3-0.4,4-3.3,3.9c-0.7-1.3-1.3-2.6-2.3-4.5c-0.6,1.7-1.1,3-1.7,4.6
	c-1-1.5-2.7-1.8-4.2-2.4c-1.2-0.5-1.9-2.1-3.2-3.7c0,0,0-0.6,0-1.6c0.4-0.1,0.9-0.3,1.7-0.6c0-0.9,0-2.1,0-3.1
	c2.7-2.5,6.7-3,8.3-6.8c-1-0.8-2.1-1.6-3.4-2.5c0.5-0.7,0.9-1.4,1.3-2.1c-0.4-0.9-0.8-1.9-1.2-3c1.3-0.2,2.2-0.3,3.6-0.5
	c-0.7-1.1-1.3-1.9-1.9-2.8c-0.4,0.4-0.7,0.7-1,1c-0.4-0.4-0.9-0.8-1.6-1.5c2.3-1.7,5.2-3.1,5-7.1c-0.6-0.2-1.6-0.4-1.8-0.5
	c0.4-2,0.5-2.9,0.7-4c-2.5,0.4-3.1,1.8-2.9,3.6c-0.8,0.4-1.6,0.8-2.7,1.4c0-1.6-2.3-2.8-0.8-4.9c0.3,0.3,0.5,0.5,1,1
	c0.5-0.8,0.9-1.7,1.5-2.6c-0.5-0.2-1-0.3-1.8-0.6c0.3-0.6,0.6-1.2,1.1-2.2c-0.8-0.3-1.4-0.6-2-0.8c0.4-1.3,0.8-2.5,1.2-3.7
	c0.4,0.4,0.8,0.7,1.5,1.2c0.3-2.4-1.1-3-3-3.6c1.1-0.7,2-1.3,3-1.9c0.1-1.2,0.1-2.4,0.2-3.5c0.6-0.1,1-0.2,1.8-0.4c0-2.5,0-5,0-7.6
	c0.2,0,0.5-0.1,0.7-0.1c0.2,0.9,0.4,1.9,0.7,2.8c0.2,0,0.3,0,0.5,0c0.1-1.5,0.2-3,0.3-4.3c0.7-1.1,1.3-2.2,1.9-3.1
	c2.2-1.2,3.9,0.1,5.9,0.8c0.1,0.7,0.2,1.6,0.4,2.5c0.5,0.1,1,0.3,1.6,0.4c0,1.1,0,2.2,0,3.6c1.1,0.5,2.3,1.1,3.3,1.5
	c1.4-2.3,2.7-4.3,3.7-5.9c2.7-1.1,4.5,0.2,6.1,1.1c0.1,0.5,0.3,1,0.3,1.1c1.2-0.2,2.5-0.1,3.2-0.6c1.9-1.4,4.5-0.6,6.2-2.1
	c1.9-1.7,4.3-0.1,6.1-1c3-1.3,6.1-0.8,9.1-0.9c2.1,0,4.2-0.4,6.1,0.9c0.5,0.3,1.7-0.4,2.7-0.6c0.5,0.2,1.3,0.5,2.1,0.8
	c-0.4-2.8-0.7-5.1-1-7.5c1.9-1.3,3.5-2.5,5.4-3.8c0.5,0.4,1,0.8,1.5,1.2c2.6-0.8,5.3-1.7,8.2-2.6c-0.1-0.1,0.3,0.2,0.9,0.7
	c0.8-0.5,1.7-1.1,2.9-1.9c2.6-0.6,5.6-1.3,8.8-2.1c0.5,0.8,1.2,1.8,1.8,2.6c7.1-2.9,14.3-1.4,20.7-1.9c1.8,0.8,3,1.4,4.3,2
	c0,0,6.7,3,6.7,3c1.7,1.2,3.4,2.3,5,3.5c0.1,0.1,0,0.3,0,0.5c0.1,0.3,0.2,0.6,0.4,1.1c2.7-0.3,5.2,0.5,7.7,1.5
	c2.3,0.9,4.7,1.8,7.4,1.5c2-0.2,4,0,6,0c0.2,0.2,0.5,0.5,0.9,0.9c0.6-0.9,1.2-1.9,2.1-3.2c0.6,0.7,1,1.3,1.5,1.8
	c-0.3,0.3-0.5,0.5-1,1c1.7,1.9,4.3,2.3,6.2,3.6c2.2,1.4,3.9,3.5,5.1,4.6c0.8,2.1,1.3,3.2,1.7,4.2c1.1-0.4,1.9-0.7,2.7-1
	c0.1,0.2,0.2,0.4,0.3,0.5c-0.7,0.8-1.4,1.6-2,2.2c0.8,3.8,5.2,2.6,6.5,5.2c0.6-0.7,1.3-1.5,2.5-3c0,0.1,0.1-0.8,0.3-1.9
	c1,0.1,1.9,0.2,3.3,0.3c-1.1,1.6-1.9,2.7-2.7,3.9c0.4,0.5,0.7,0.9,1.2,1.6c-0.7,0.4-1.5,0.9-2.5,1.5c2.9,1.3,3.5,4.1,5.3,5.1
	c0.2,1.1,0.3,1.9,0.4,2.6c0.5-2,2.2-2.1,4-3.2c-0.9,2.3-1.8,4-2.2,5.9c-0.3,1.9-0.1,3.9-0.1,6.3C347,98,346,98,344.7,98
	c-0.1,0,0.2,0,0.5,0c-0.1-0.7-0.3-1.3-0.4-2c-0.2,0-0.4,0.1-0.6,0.1C344.2,96.8,344.2,97.4,344.7,98z M314.2,87.4
	c-0.2-2.4-1.1-4-2.9-5.1c0.2,2,0.8,3.7,3.2,3.7c-1.3,4.8,1.3,7.6,2,11.2c0.6-0.2,1.2-0.3,1.9-0.5C317.1,93.2,316,90.1,314.2,87.4z
	 M295.9,73.3c-5.5-1.5-11-4.6-16.5-0.3c-3.1,0.1-6-0.4-8.8,1c-1.9,1-4,1.1-6.1,1c-1.8-0.1-3.6,0-5.5,0c1.1,4.1,2.1,7.8,3,11.4
	c-0.4,0.5-0.8,1-0.7,0.9c0.4,2.5,0.7,4.4,1,6.4c0.5,0.5,1,1,1.9,1.9c-0.4,1.2-0.7,2.5-1.1,3.5c1.4,2.5,3.3,4.7,3.8,7.1
	c0.5,2.9,2.7,4.9,3.2,7.7c0.4,2.6,0.9,5.3,1.4,8.4c2.2-2.6,4.1-5,5.7-7c2.3-0.4,4.3-0.8,5.5-1c1.8,0.3,2.9,0.5,3.9,0.7
	c1,0.2,2.1,0.4,3.4,0.6c4.3-2.8,10.1-2.6,15-4.9c0.1-0.8,0.2-1.6,0.3-2.5c0.8-0.1,1.6-0.1,1.9-0.1c1.5-1.3,2.7-2.4,3.9-3.4
	c-1.1-1.6-2-3-3-4.5c0.3-3.1-0.1-6-2.6-8.3c-0.7-0.7-0.9-1.9-1.3-2.9c-0.7-1.9-1-3.8-2.2-5.6c-1.1-1.8-1.4-4-2.1-6.1
	C297.1,77.2,297.5,74.3,295.9,73.3z M281,56.1c-2.8-0.5-5.3,0-8-1c-2.3-0.9-5.3-0.2-7.9-0.2c-2.8,0-5.7,0.4-8.5-0.1
	c-2.5-0.5-4.7,2.7-7.1,0.2c-0.6,0.6-1.2,1.2-1.6,1.6c-1.4,0.3-2.6,0.5-3.8,0.9c-1.2,0.4-2.8,0.6-3.3,1.5c-1,1.5-2.5,0.5-3.6,1.4
	c0,0.4,0,0.9,0.1,1.7c1-0.2,1.9-0.3,2.8-0.5c4.4-1.1,8.8-2.3,13.4-2.7c1.4-0.1,2.3,1.2,3.9,0.6c1.3-0.5,2.9-0.2,4.3-0.5
	c1.4-0.2,2.7-0.6,4.1-0.9c1,2.3,3.2-0.9,4.3,1c3.7-0.5,7.5-0.9,11.2-1.4C281,57,281,56.7,281,56.1z M337.6,92.3
	c-0.7-1.3-1.2-2.4-1.6-3.1c-1.5,0-2.6,0-3.7,0c0,2.1,0,3.9,0,5.7C333.9,94.1,335.4,93.3,337.6,92.3z M297.4,144.1
	c1.7-2.5,5.2,0.4,6.4-2.6c-0.8-0.7-1.7-1.5-2.4-2.1c-1.8,0.7-3.6,1.5-5.6,2.3C296.3,142.4,296.7,143.1,297.4,144.1z M197.2,91.9
	c1.8-1.8,2.9-2.9,4.2-4.1c-1.2-1.4-2.3-2.5-4.2-1.4C197.2,87.8,197.2,89.2,197.2,91.9z M294,139c1.9-0.9,3.5-1.7,5.3-2.6
	c-0.4-0.7-0.6-1.1-1.1-1.8C297,136.2,294.1,135.7,294,139z M315.1,133.5c1.7,1.4,1.7,1.4,4.3,1c-0.6-0.9-1.2-1.7-1.6-2.3
	C316.7,132.7,315.9,133.1,315.1,133.5z M274.3,132.6c0.7-0.4,1.4-0.8,2-1.2c-0.7-1.4-1.2-2.4-2-4
	C274.3,129.6,274.3,131.1,274.3,132.6z M264.4,106.7c0.1,2.2,0.1,2.2,2.2,3C265.8,108.5,265.2,107.8,264.4,106.7z M251.1,78.7
	c0.7,0,1.3,0,2.1,0c-0.1-0.7-0.2-1.2-0.4-1.8c-0.7,0.1-1.2,0.3-1.8,0.4C251.1,77.8,251.1,78.2,251.1,78.7z M266.3,115.8
	c0.3,0,0.6,0,0.9-0.1c-0.1-1.2-0.2-2.4-0.2-3.6c-0.2,0-0.4,0-0.6,0C266.3,113.4,266.3,114.6,266.3,115.8z M340,174.4
	c-0.5-0.5-1-1-2-2c0.1,1.8,0.2,2.7,0.3,4C339,175.6,339.4,175.1,340,174.4z M167.8,107.5c2.7,1.1,2.4-0.1,2.1-1.3
	C169.2,106.6,168.6,107,167.8,107.5z M268.8,167.3c0.8,0.8,1.3,1.2,2.5,2.5c-0.4-1.7-0.5-2.2-0.6-2.8
	C270.1,167,269.7,167.1,268.8,167.3z M176.3,142c0.2,0,0.3,0,0.5,0c0-0.7,0-1.3,0-2c-0.2,0-0.3,0-0.5,0
	C176.3,140.7,176.3,141.3,176.3,142z M262.2,137.8c0.3,0,0.6,0,0.9,0c-0.1-0.6-0.2-1.1-0.4-1.7c-0.2,0-0.3,0-0.5,0.1
	C262.2,136.7,262.2,137.3,262.2,137.8z M253.3,98c0.2,0,0.3,0,0.5,0c0-0.7,0-1.3,0-2c-0.2,0-0.3,0-0.5,0
	C253.3,96.7,253.3,97.3,253.3,98z M209.3,79c0.2,0,0.3,0,0.5,0c0-0.7,0-1.3,0-2c-0.2,0-0.3,0-0.5,0C209.3,77.7,209.3,78.3,209.3,79z
	"/>
<path class="st0" d="M497,25.8c1.4-0.1,2.8-0.4,4.1-0.8c0.9-0.2,1.7-0.6,2.5-0.9c0.1,0,0.2,0.3,0.3,0.3c1,0.3,2,0.7,3.4,1.1
	c-0.6,0.9-1.1,1.7-1.6,2.4c-1.3,0.1-2.4,0.1-4.1,0.2c0.6,0.9,1,1.5,1.4,2.1c0.2-0.1,0.4-0.2,0.7-0.3c0.3,1.5,0.5,2.9,0.9,4.8
	c0.5,0.4,1.4,1.2,2.4,2.1c-0.2-1.3-0.6-2.5-0.6-3.7c0-1.2,0.5-2.4,0.8-3.9c1,0,2.1,0,3.7,0c0.4,1,1,2.4,1.8,4.1
	c0.2-1.3,0.3-2.2,0.6-3.8c0.9,1.8,1.5,3.1,2.2,4.6c0.9-0.4,1.9-0.8,3.5-1.6c-0.7,1.5-1.1,2.5-1.6,3.7c-0.7-0.3-1.2-0.6-2.1-1
	c-0.9,0.5-2,1.2-3.3,1.9c-0.3,2.7-0.2,5.2,3.4,6.6c-1.6,0.2-2.5,0.4-4,0.6c1.2,0.5,1.8,0.8,2.4,1.1c-0.6,0.9-1.3,1.7-1.9,2.6
	c-1.9,0.6-3.8,1.2-5.7,1.8c-0.5-0.5-1.1-1.1-1.7-1.7c-0.2,0.2-0.6,0.4-0.6,0.5c0,1.7,0,3.3,0,5.5c-1.3-0.4-2.4-0.8-3.7-1.2
	c-0.9,2.6,0.6,4.3,2.1,6.1c1.3-0.4,2.6-0.8,4-1.2c0.8,1,1.6,1.9,2.3,2.7c-0.7,0.5-1.6,0.9-2.3,1.7c-0.6,0.7-0.8,1.6-1.3,2.6
	c1.1,0.9,2.4,1.8,3.7,2.7c-1.4,1.4,1.1,2.9,0.3,4.5c-0.6,0-1.2,0.1-2,0.1c0.1,0.7,0.1,1.3,0.2,1.9c0.7-0.1,1.1-0.1,1.7-0.1
	c0.1-0.7,0.1-1.3,0.1-1.9c0.5,0,1,0,1.8,0c0.1-1.2,0.2-2.5,0.4-3.8c0.5-0.1,1-0.3,1.4-0.1c1,0.3,2,0.7,3.1,1.1
	c0.2-0.7,0.3-1.1,0.4-1.6c-0.7-0.3-1.4-0.7-2.1-1c0.5-0.5,1-1,1.5-1.5c1.3,0,2.6,0,4,0c0.5,1,1.1,2.1,1.7,3.4
	c-0.8,0.4-1.4,0.7-2.4,1.1c0.7,1.4,1.3,2.7,2,4.2c-1.4,0.5-3.1,1-4.8,1.6c0,0.7,0,1.5,0,2.8c1-0.4,1.7-0.6,2.6-1
	c0.2,0.2,0.5,0.5,1.1,0.9c0.2-1.1,0.3-2,0.4-2.9c0.2,0,0.3,0,0.5-0.1c0.1,1.1,0.3,2.3,0.4,3.1c-0.9,0.8-1.6,1.4-3.1,2.6
	c1.8,0.1,2.6,0.1,3.5,0.2c0.3-0.7,0.6-1.3,1.1-2.2c1,0.5,2,0.9,2.9,1.3c0.5-1.5,1-2.8,1.7-4.7c1.5,1.8,2.5,3.1,3.7,4.6
	c1.7,0,3.7,0,6,0c0.1-1.4,0.2-2.8,0.2-4.4c1.1-1.1,1.9-2.9,4.5-2.5c0.1,0.3,0.4,0.9,0.7,1.6c0.6,0.3,1.5,0.7,3,1.5
	c-0.4-1.2-0.7-1.9-1-2.7c1.5-1,3.3-2.2,5-3.3c0.8,0.4,1.6,0.8,2.5,1.2c-1.9,2.8-3.8,5.6-5.8,8.7c0.5,2.2,1,4.8,1.6,7.5
	c-1,0.3,0.2,3.1-2.6,2.2c0-1.2,0-2.4,0-3.6c-0.2-0.1-0.4-0.1-0.6-0.2c-1.3,2.3-2.5,4.7-3.9,7.1c-0.6-1.2-1-2.1-1.5-3.5
	c0-0.1,0,0.2,0,0.5c0.7-0.1,1.3-0.3,2-0.4c0-0.2-0.1-0.4-0.1-0.6c-0.6,0.1-1.3,0.1-1.9,0.6c-4-0.2-6.7,2.7-10,3.8c0,0.8,0,1.5,0,2.3
	c0.6,0.2,1.1,0.4,2.2,0.8c-1.2,0.6-2.2,1.2-3.3,1.7c-0.5-0.4-1-0.7-1.5-1.1c-0.3,1.5-0.6,3-1,4.9c0,0.1,0.4,0.6,0.6,1.2
	c0.1,0.2-0.2,0.5-0.4,0.9c-2.6,0.1-3.4-2.2-5-3.9c-1,0-2.1-0.1-3.2-0.2c-0.3-0.6-0.6-1.2-1.2-2.5c0,2.1,0,3.6,0,4.8
	c-1.4,1.2-2.6,2.2-4.2,3.4c0.8,0.2,1.8,0.5,1.9,0.5c0,1.9,0,2.7,0,3.7c-0.9,0.1-1.7,0.1-2.2,0.2c-1,1.4-2,2.7-2.9,4
	c-2.3-2-4.9-0.3-6.9-1.2c-2.2,1.7-4.1,3.1-5.9,4.5c0,1.2,0,2.2,0,3.3c-0.4,0.1-0.9,0.3-1.7,0.5c0-2.1,0-3.9,0-6
	c0.3-0.3,0.7-0.8,1.1-1.2c0.4,0.3,0.7,0.7,1.2,1.1c0.2-0.6,0.3-1,0.5-1.8c-0.9-0.1-1.7-0.1-2.4-0.3c-0.5-0.1-1-0.6-1.5-0.9
	c-0.9,2.2,0.6,4.7-1.2,6.6c1.8,1.8,0.7,4.1,0.9,6.1c0.2,2,0.2,4,0,6c-0.2,1.9,0.8,4-0.8,5.6c1.9,1.8,0.1,3.4-0.1,5.1
	c-0.1,1.1-0.1,2.3,0.9,3.1c-1.3,0.7-1,2-0.9,3.1c0.1,1.5,0.4,2.9,0.4,4.4c0,1.4-0.4,2.9-0.4,4.3c-0.1,1.7-0.1,3.3,0,5
	c0.1,1.4-0.7,3,0.9,4.1c-1.2,0.9-1,2.3-0.9,3.6c0.2,2.2,0.1,4.7,1.2,6.5c1,1.8,0.5,3.4,0.8,5.2c-2.8,1.9-5.5,3.9-9.3,3.3
	c-3.1-2.9-3.6-4-3.9-9.5c-0.6-0.4-1.6-0.7-1.8-1.3c-1-2.5-2.5-4.9-2-7.6c0.6-3.6-1.1-7-1-10.6c0.1-3.7,0.6-7.4-0.1-11
	c-1.9-9.7-0.1-19.4-1.1-29.8c-0.5-0.3-1.6-1-2.7-1.7c-0.1,0.1-0.5,0.5-1.1,1.1c0.6,0.2,1.2,0.4,1.9,0.7c0,2.1,0,4.2,0,6.4
	c-0.7,0.7-1.6,1.6-2.4,2.4c-2,0-4,0-6,0c-0.4,0.8-0.8,1.6-1.3,2.5c0.3,0.5,0.7,1.2,1.3,2.3c-1.7,0.1-2.9,0.2-4,0.2
	c-0.8-0.8-1.4-1.4-1.9-1.9c-1.4,1-2.9,2-4.4,3.1c0,0.7,0,1.5,0,2.4c-1.1,0.2-2,0.4-2.9,0.6c-1,2.5,0.6,4.4,1.6,6.6
	c-0.5,0.1-0.9,0.2-1.4,0.3c-1.2,2.8-1.8,5.7-1.4,8.8c0.3,2.6-0.2,5.1-1.3,7.9c-0.5,0.5-1.3,1.3-2.2,2.1c-0.9,0-1.9,0-3.2,0
	c-1-1.4-2.1-2.9-3.4-4.7c0-4.2,0-8.7,0-14.1c-1.1,1.8-1.5,3-2.3,3.8c-0.9,0.8-2.1,1.3-3.2,1.9c-0.1-0.1-0.4-0.4-0.6-0.6
	c-0.4,0.2-0.9,0.4-1.5,0.7c-0.1-0.5-0.2-1-0.3-1.7c-1,0-2.1,0-3.5,0c-1.5,1.7-2.6,4.5-6.3,4.3c0,0.1-0.1,0.5-0.2,0.9
	c-2.8,1.3-5.6,2.7-9.4,4.5c-0.3,0-1.7,0-3.2,0c-0.3,0.7-0.5,1.3-0.8,2.2c-0.7-0.3-1.3-0.5-2.2-0.9c-0.8,0.8-1.9,1.8-2.9,2.8
	c-1.6,0-3.3,0-4.9,0c-0.6,0.6-1.2,1.2-1.9,1.9c-0.3-0.2-0.6-0.5-1.2-1c-2.6,1.7-5.7,0.9-8.8,1.1c-0.7,0.6-1.4,1.3-2.1,2
	c-0.6-1-1.1-1.9-1.7-2.9c-2.1,0-4.1,0-6.4,0c-0.4-0.7-0.9-1.6-1.1-2.1c-2.1,0-3.4,0-4.7,0c-0.6-2.2-3.1-2.5-4.3-4.1
	c-1.1-1.6-3.1-2.4-4.2-4.2c-1.1-1.8-2.8-3.1-3.8-5c-1.2-2.3-2.5-4.7-2.4-7.5c0-1.3,0-2.6,0-3.8c-0.7-0.7-1.3-1.3-2.1-2.1
	c0.6-0.5,1.3-0.9,1.7-1.2c0.6-7,0.6-7.1-0.6-9.8c0.6-0.2,1.2-0.4,2-0.7c-0.4-1.1-0.8-2.1-1.4-3.9c1.1,0.7,1.5,0.9,2.4,1.4
	c0-1.2-0.1-2.1,0-3.1c0.1-0.7,0.7-1.4,1.1-2.2c-0.7-0.8-1.4-1.6-2.3-2.6c0.7-0.1,1.1-0.2,2-0.4c0.1-0.7,0.1-1.6,0.2-2.8
	c-1,0.4-1.8,0.7-2.7,1.1c-0.2-0.7-0.3-1.2-0.4-1.8c0.6-0.2,1.2-0.4,2-0.7c0-0.7,0-1.5,0-2.4c0.6-0.2,1-0.3,1.7-0.6
	c0.8-1.6,1.7-3.3,2.6-5.1c-0.4-0.5-0.7-0.8-1-1.2c5.9-10.9,3.4-7.6,14.2-18.3c3.2-0.7,3.4-0.8,5.2-4.2c0.2,0.2,0.5,0.4,0.8,0.8
	c1.3-0.8,3.2-0.8,3.7-2.8c0.8-0.2,1.9,0.5,2-1c0.9-0.3,1.7-0.8,2.6-1c1.7-0.3,2.5-1.2,2.5-3.2c0.6,0.5,1,0.8,1.3,1
	c4.1-2.2,8.2-4.6,12.7-6.2c-0.5-0.5-0.8-0.9-1.2-1.4c0.6-0.2,1-0.3,1.5-0.4c0.3,0.7,0.7,1.4,1,2.1c0.6-1,1.1-1.9,1.6-2.8
	c1.2,0.3,2.5,1,3.1,0.7c3.6-2.2,7.6-3.2,11.6-4.7c0.1,0.8,0.3,1.7,0.4,2.7c1.2-0.8,2.3-1.6,3.6-2.5c0.1-0.6,0.3-1.5,0.4-2.4
	c3-0.5,0.9,2.4,2.6,3.1c0.4-0.5,0.9-1.1,1.8-2.1c0.3,0,1.1-0.1,2.1-0.1c0-1.7,0-3.5,0-5.3c1-0.8,1.9-1.6,3-2.5c0.5,0,1.5,0,2.5,0
	c0.9-0.8,1.7-1.5,2-1.8c3.3,0.3,6,0.5,9.9,1.3c0.5-0.2,0.3-0.6,0.2-0.5c-0.5,0.1-0.9,0.3-1.4,0.4c0.6,0.2,1.2,0.3,1.2,0.1
	c-0.9-0.9-0.7-1.5-0.4-1.5c2-0.1,3.9,0,6,0c0.1,0.6,0.2,1.1,0.2,1.6c-0.6,0.2-1.2,0.4-2.1,0.7c1.1,0.7,2,1.3,3.1,2
	c0,1.5,0,2.9,0,3.7c1.1,1.1,1.8,1.8,2.9,2.9c0.9-0.2,2.3-0.5,4.3-1c-0.5,1.2-0.8,1.9-1.3,3c-1.3,0-2.5,0-3.9,0c0,0.8,0,1.3,0,1.6
	c1,1.5,2.2-1.5,3.2,0.2c1.1-0.6,2.1-0.4,2.9,0.5c0.8-0.8,1.4-1.3,1.9-1.7c-0.5-1.4-0.9-2.6-1.4-4c1.3-1,2.4-2,3.5-2.8
	c0-1.1,0-1.9,0-2.7c0.2,0,0.4,0,0.5-0.1c0.1,0.8,0.3,1.7,0.4,2.6c0.5,0.5,1.1,1.1,2,2c-0.6,0.3-1.1,0.6-2,1c0,0-0.5-0.2-2.2-0.8
	c1.9,2.4,3,3.8,4.4,5.2c0.8,2.4-1.7,3.4-2.6,4.9c1.4,1.6,1.4,1.6,2.9,1.8c0-2.2,0-4.5-0.4-6.7c0.4-3,1.5-6-0.3-9.2
	c-0.4-0.6,0.6-2,0.9-3.2c-0.4-0.4-0.8-0.9-1.3-1.5c-1.3,0-2.8,0-4.5,0c0.1,0.3,0.2,0.7,0.5,1.4c-0.2,0.6-0.6,1.4-1.3,2.9
	c-0.3-1.4-0.5-2.4-0.7-3.5c-0.9,1.3-1.7,2.4-2.5,3.7c0.3,0.3,0.7,0.7,1.1,1.2c0.8-0.3,1.5-0.6,3.1-1.2c-1.3,1.8-2,2.9-2.9,4.3
	c-0.9,0-2.1,0-3.6,0c0.5-0.6,0.8-0.9,1.1-1.3c-0.3-0.3-0.6-0.7-0.5-0.6c0.2-1.5,0.4-2.6,0.7-4.3c-1.6,0.7-2.5,1.1-3.8,1.7
	c-0.1-1-0.2-1.8-0.3-2.5c3.9-4.3,4.7-4.5,8.8-2.8c0.1-0.9,0.3-1.8,0.4-2.7c0.5-0.5,1.1-1.1,1.5-1.5c-0.3-1.3-0.5-2.4-0.8-3.7
	c1.2,0,1.9,0,3.1,0c-1.9,2.5-0.8,4.6,0.7,7.1c0.7-2.3,0.2-4.4,0.5-6.6c0.9-1.3,1.8-2.7,3-4.4c2.1-0.5,4.5-1.1,7-1.7
	c-0.8-0.4-1.5-0.7-2.8-1.3c3.8,0,6.9,0,10,0c0.4-0.8,0.7-1.5,1.1-2.2c0.4,0,0.7,0,1.1,0c0.3,0.6,0.6,1.3,0.9,2c0.3-0.3,0.5-0.5,1-1
	C496.1,24.7,496.6,25.3,497,25.8c-0.5,0.7-0.9,1.4-1.4,2.3c-0.1-0.1,0.4,0.5,1.3,1.6C496.9,27.9,496.9,26.9,497,25.8z M502.9,70
	c-0.3,0-0.6,0-0.9,0c0.1,0.7,0.3,1.3,0.4,2c0.2,0,0.4-0.1,0.6-0.1c-0.1-0.6-0.1-1.3-1.1-1.5c0-1.3,0-2.2,0-4.1
	c-0.9,1.1-1.3,1.7-1.8,2.3C500.6,69.1,501.1,69.5,502.9,70z M486.6,27.2c1,0.8,1.5,1.3,2.1,1.7c-0.3-0.4-0.7-0.7-1-1.1
	c0.9-0.1,1.7-0.2,2.6-0.3c-0.1-0.2-0.3-0.4-0.4-0.6c-0.9,0.1-1.8,0.1-2.6,1.8c0-0.3,0-0.6,0-0.9c-0.7,0.1-1.3,0.3-2,0.4
	c0,0.2,0.1,0.4,0.1,0.6C485.8,28.9,486.5,28.8,486.6,27.2z M376.9,117c-0.3,0-0.6,0-0.9,0c0.1,0.7,0.3,1.3,0.4,2
	c0.2,0,0.4-0.1,0.6-0.1c-0.1-0.6-0.1-1.3-0.9-1.9c0.2-1.6-0.4-2.6-4.4-4.2c0.7,0.8,0.9,1.1,1,1.1c0.5-0.1,0.9-0.3,1.4-0.4
	c-0.6-0.2-1.2-0.3,0,0.5c-0.3,0.5-0.6,1-1,1.9C374,116.2,375,116.6,376.9,117z M493.9,58c-0.3,0-0.6,0-0.9,0c0.1,0.7,0.3,1.3,0.4,2
	c0.2,0,0.4-0.1,0.6-0.1c-0.1-0.6-0.1-1.3-0.9-1.9c-0.4-0.8-0.8-1.6-1.2-2.5c0.9-0.4,1.5-0.7,2.8-1.3c-1.6,0-2.5,0-3.4,0
	c-0.3,1.3-0.6,2.5-1,3.8C491.4,58,492.3,58,493.9,58z M431.3,81c0.3,0,0.6,0,0.9,0c-0.1-0.7-0.3-1.3-0.4-2c-0.2,0-0.4,0.1-0.6,0.1
	c0.1,0.6,0.1,1.3,1,2c0.4,0.8,0.8,1.8,1.4,2.7c0.1,0.2,0.8,0,1.4,0c0-0.9,0-1.7,0-2.4c-0.3,0.3-0.7,0.7-1,1
	c-0.1-0.9-0.2-1.7-0.3-2.3C432.9,80.6,432.5,80.9,431.3,81z M525.2,99.8c-1.6-4.4-1.6-4.4-4-2.4c0.3,0.3,0.7,0.6,0.9,1
	c0.2,0.5,0.3,1.1,0.5,1.6c1.1-0.1,1.8-0.1,1.3-4.2c1.3,0,2.2,0,4.1,0c-1.1-0.9-1.7-1.3-2.3-1.8C525,94.6,524.5,95,525.2,99.8z
	 M434.3,87c0.3,0,0.6,0,0.9,0c-0.1-0.7-0.3-1.3-0.4-2c-0.2,0-0.4,0.1-0.6,0.1c0.1,0.6,0.1,1.3,1.8,1.7c-0.9,0.6-1.8,1.2-3.1,2
	c1.6,0,2.8,0,4.1,0c0-2.3,0-4.5,0-6.7c-0.2,0-0.4,0-0.6,0C436.2,83.6,436.1,85.1,434.3,87z M455.1,50.6c0-0.2,0-0.4,0-0.5
	c-0.6-0.1-1.2-0.1-1.9-0.2c0.4-0.8,0.7-1.5,1.1-2.1c-0.6-0.7-1.1-1.2-2.1-2.2c0,1.8,0,3,0,5c-0.4,0.3-1.2,0.7-2.8,1.8
	c2.6-0.8,4.1-1.3,5.8-2.2c0.6-0.1,1.3-0.3,2.4-0.5c-0.9-1.1-1.4-1.8-2.4-3.1C455.2,48.2,455.2,49.1,455.1,50.6z M428.1,127
	c0.3,0.4,0.6,0.8,1.2,1.5c1.1-1.4,2-2.5,2.8-3.5c2.4-2.2,4.8-4.3,6.7-6.1c0-3.1,0-5.5,0-7.9c-0.8,0-1.2,0-1.7,0
	c-0.3-0.3-0.7-0.7-1-1c0-0.6,0-1.2,0-1.8c-1.1-0.1-1.9-0.2-2.6-0.3c-0.5-1.4-0.9-2.7-1.3-4c0.7-1.6,1.4-3.3,2.6-6.1
	c0.3,2.5,0.4,3.9,0.7,6.1c0.7-2.7,1.2-4.5,1.5-5.8c-0.3-1.3-0.6-2.2-0.7-2.6c0.5-0.9,0.8-1.7,1.3-2.6c0.1,0.1-0.4-0.5-1.3-1.6
	c0,1.8,0,2.8-0.2,3.7c-0.6,0-1.2,0-1.8,0c-0.2-1.3-0.3-2.1-0.5-3c-0.6,0-1,0.1-1.3,0.1c0.2,1.5,0.4,3.1,0.8,5.8
	c-1.3-1.9-1.9-2.9-2.6-3.9c-0.4,0.4-0.8,0.7-1.1,1c-0.3-0.3-0.7-0.6-0.9-0.9c-1.8,1.3-3.9-1.4-5.8,0.6c0.7,0.9,1.4,1.9,2.1,2.9
	c-0.6,0.6-1.2,1.2-1.8,1.8c0.7,0.8,1.4,1.7,2,2.4c-0.6,1.2-1.1,2.1-1.7,3.3c-0.7-1.1-1.4-2.1-2-3.1c-0.8,1.2,0.1,3.4-2.3,3.8
	c-0.7-1.1-1.3-2.3-2-3.5c0.6-0.6,1.2-1.2,1.8-1.8c-0.6-0.9-1.2-1.9-2-2.9c-0.9,1.4-1.6,2.4-2.3,3.4c-0.8-0.7-1.5-1.4-2-1.9
	c-0.8,1.1-1.7,2.1-2.6,3.3c-1-1.4-1.7-2.5-1.9-2.8c-0.7,0.3-1.5,0.5-2.4,0.8c1.4,0.7,3.1,0.5,2,2.3c-2.9-0.1-2.9-0.1-3.8-2.8
	c-0.1-0.5-1-0.7-1.6-1.1c-0.4,1.9-0.7,3.4-1,5c0.8,0.7,1.1,1.5-0.3,2.4c-1.3-1.6-2.5-3-3.7-4.4c-1,0.5-1.6,0.9-2.4,1.3
	c-1.1-0.6-2.1-1.1-3.2-1.7c0.5-1.1,0.9-1.9,1.5-3c-1.1-0.6-2.1-1-3-1.6c-0.3-0.3-0.2-1.1-0.4-2.2c1.4,0.7,2.2,1,2.7,1.3
	c1.8-0.4,3.3-0.8,4.8-1.1c0.2,0.2,0.3,0.4,0.5,0.7c0.9-1.2,1.7-2.4,2.5-3.5c1.2,0.5,2.2,0.8,3.7,1.4c-0.4-1.8-0.6-2.9-0.8-3.7
	c0.7-0.9,1.3-1.8,2-2.7c0.8,0.8,1.4,1.4,2.3,2.3c0-3.1,2.3-3.1,4-4.1c0.8,2.2-1.7,1.4-1.7,2.3c-0.1,1-1.5,2-0.1,3.2
	c-1,0.6-1.9,1.2-2.9,1.8c-0.4,1-0.8,2-1.3,3.6c1.2-0.2,1.7-0.3,2.4-0.4c0-1,0-1.8,0-2.3c3.2-0.9,5.7-2.9,8.6-3.6
	c-0.7-0.7-1.4-1.4-2-2c0-1.8,0-3.2,0-4.5c-2-2-3.9-3.8-5.9-5.9c-0.5,0.8-0.7,1.2-0.9,1.6c-1,0-1.9,0-2.7,0c-0.3,0.9-0.5,1.5-0.7,2.2
	c-1.1-0.5-2.1-0.9-2.7-1.2c-1.3,1.6-2.3,2.9-3.7,4.5c-1.5-0.9-2.8-1.6-4.5-2.6c0.6,1.9,1,3.2,1.5,4.8c-1.5,1.1-3,2.2-4.6,3.3
	c-0.5-0.9-0.9-1.8-1.4-2.8c1-0.2,2-0.3,3.3-0.5c-1.5-0.7-2.5-1.3-3.7-1.8c-0.7,0.6-1.2,1.2-1.8,1.7c0,2.1,0,4.1,0,5.5
	c-1.5,1.4-2.6,2.6-4,4c-0.8,0-2.2,0-3.3,0c-0.9,0.9-1.8,1.7-2.4,2.2c0,1.1,0,1.8,0,2.4c2.3-0.6,4.6-1.1,6.8-1.7c0,1.2,0,2.3,0,3.5
	c0,0.1,0.4,0.2,0.8,0.4c0.1-1,0.3-1.9,0.4-2.7c0.9,0.3,1.7,0.6,3,1.2c-0.4-1.9-0.6-3.1-1-4.9c1.3,0.9,2,1.5,2.8,2.1
	c-0.5,0.5-0.8,0.8-1,1c0.7,0.3,1.4,0.6,2.1,1c-0.7,2.8-2.6,4.8-4.8,6.6c-1.6-1.2-3.2,1.3-5,0c-0.1,1-0.3,1.9-0.4,2.8
	c-1.3-0.1-0.5-3-2.7-1.5c0,1,0,2.1,0,2.8c0.8,0.9,1.6,1.4,1.8,2.1c0.5,1.2,1.3,0.6,2,0.8c1.9,1.7,3.3,4.3,6.4,4
	c0.1,0,0.3,0.4,0.5,0.6c-0.6,0.2-1.2,0.5-1.7,0.7c0.8,1.1,0.9,3,3.1,3.1c-1.5,1-2.8,1.8-4,2.7c-0.3,2.4-0.5,4.6-0.7,6.9
	c0.5,0,1,0,1.5,0c-0.5,2.3,2.4,2.9,2.5,5c0.1-0.1,0.2-0.2,0.4-0.3c0.2-0.6,0.4-1.1,0.6-1.8c0.4,0.4,0.8,0.7,1.1,1
	c0.4-0.3,0.7-0.6,1.1-0.9c0.8,1,1.9,1.6,2.6,3.4c-1.4-0.6-2.2-0.9-3-1.3c-0.1,0.5-0.1,0.8-0.2,1.1c2,1.9,4.4,2,7.2,1.5
	c-0.5-0.6-0.8-0.9-1.4-1.5c2.1,0,4,0,5.9,0c0.2,0.5,0.4,1.1,0.7,1.8c0.6-0.1,1.1-0.3,1.5-0.4c-0.4-0.9-0.7-1.6-1.1-2.5
	c1.3,0,2.2,0,3.1,0c0.2,0.7,0.4,1.3,0.7,2.1c1.1-1.5,2.1-2.7,3.2-4.2c2.4,0.8,3.4-3.1,6.1-2.2c0.6-1.8,1.2-3.4,1.7-4.9
	c0.7,0,1.4,0,2,0c1.1,1.7,2.1,3.3,3.4,5.3c0-1.7,0-2.8,0-3.9C426.1,128.6,427.1,127.8,428.1,127z M433.7,70.2
	c-1.2-1.9-2-3.6-1.7-5.7c0-0.1-0.4-0.2-1-0.5c0,1.5,0,2.7,0,4.2c-0.8-0.6-1.3-0.9-2-1.4c-0.5,0.4-1,0.8-1.5,1.2
	c-1.1-0.5-1.5-2.8-3.5-1.6c0.8,2.1,1.6,4.1,2.3,6c-1.2,0.6-2,1-3,1.5c-0.3-0.1-0.4-1.3-1.4-0.4c0.2,3,3.9,2.9,5.2,5.1
	c-0.3-1.5-0.5-2.9-0.8-4.4c1.8-0.9,3,0.9,4.5,1.3c0.2,0.9,0.3,1.7,0.5,2.4c0.1,0,0.3-0.1,0.4-0.1c0.1-0.9,0.3-1.8,0.5-3
	c1.2,0.3,2.3,0.6,3.4,0.9c0.3-0.5,0.7-1.3,1.1-2c-1.6-3.3-0.1-7-0.9-10.4c-0.3,0.2-0.6,0.5-0.8,0.7c-0.1-0.7-0.2-1.4-0.3-2.6
	c-0.9,1.6-1.3,2.3-1.8,3.2c0.9,0.3,1.5,0.6,1.8,0.7C434.4,66.8,434.1,68.2,433.7,70.2z M461.3,122.2c2.1-0.2,3.9-0.4,5.6-0.5
	c0-0.1,0-0.2,0-0.2c-0.8-0.6-1.4-1-2.7-2c2.8-0.8,4.9-1.4,8-2.3c-3.1-1-0.9-4.4-4-5.2c-0.9,0.5-1.9,1-2.9,1.5c0.4,0.5,0.7,0.9,1,1.3
	c-0.9,1.8-1.8,3.5-2.8,5.4c-1.7-0.4-3.4-0.7-4.8-1c-2.3,1.2-1.4,3-1,4.8c0.3-0.6,0.6-1.3,1-2c0.4,0.8,0.7,1.4,1,2.1
	c0.5-0.1,0.9-0.2,1.3-0.2C461,123.2,461.1,122.8,461.3,122.2z M469.3,57.7c-2.3,0.5-4.1,0.8-5.8,1.2c-0.3-0.3-0.6-0.6-0.8-0.7
	c-0.8,1.5-1.5,3-2.4,4.8c0,1.3,0,3.1,0,4.9c0.6,0,1.1,0,1.8,0c0-1.6,0-3.2,0-4.4C464.7,61.8,468.2,62.2,469.3,57.7z M459.1,74.8
	c-0.9-0.3-1.8-0.6-2.7-0.9c-0.2,1.3-0.3,2.2-0.5,3c-1.4,0.2-2.6,0.3-4,0.5c0.3,0.8,0.4,1.2,0.5,1.4c2.6,0.4,4.9,0.7,7.3,1.1
	c0.8-1.6,1.6-3.3,2.5-5.2c-1-0.5-2-0.9-3.1-1.4C459.1,73.8,459.1,74.2,459.1,74.8z M378.8,116.1c0.6,1.3,1.1,2.3,1.5,3.2
	c-0.5,0.5-0.8,0.9-1.3,1.4c1.6,1.1,3.1,2.2,4.5,3.2c1-0.5,1.8-0.9,2.7-1.4c0.3-1.9-0.4-3.2-2.4-3.6c-0.4,0.4-0.8,0.7-1.2,1
	c-0.7-1.3-1.3-2.7-2-4C380.1,116,379.8,116.1,378.8,116.1z M375.4,138.1c0.3-0.2,0.5-0.4,0.8-0.6c-0.4-1-0.9-2-1.1-3
	c-0.2-1.1,0-2.2,0-3.3c-0.3,0.2-0.5,0.3-0.8,0.5c-0.2-0.6-0.4-1.2-0.6-1.8c-0.8,0.9-1.2,1.3-1.8,2C373,133.9,374.2,136,375.4,138.1z
	 M449.6,60.1c3.3-0.5-0.1-2.3,1.2-3.2c0.7,0.3,1.4,0.6,2.4,1c-0.2-2.7-3-2.1-3.6-4.3c-0.5,1.8-0.8,2.9-1.1,4.2
	C448.7,58.4,449.1,59.2,449.6,60.1z M471.5,75c0,2.3,0.4,3,2.1,3c0.5-0.6,1.1-1.2,2.1-2.3c-1-0.5-1.8-0.9-2.4-1.2
	c-0.1,0.2-0.4,0.9-0.7,1.5C472.2,75.6,471.9,75.3,471.5,75z M495.8,35.3c0.9-1.7,1.3-2.5,1.7-3.4c-0.1-0.1-0.5-1-0.9-1.5
	c-0.9,0.7-1.8,1.4-1.8,1.4C495.2,32.7,495.4,33.6,495.8,35.3z M446.4,55.8c0-1.7,2.9-2.7,1.2-4.9c-0.8,0.1-1.7,0.1-2.2,0.2
	C445.8,52.9,446.1,54.4,446.4,55.8z M455.7,57.5c1.5,0.6,2.7,1.1,3.9,1.6c-0.2-1.7-0.4-3.2-0.6-4.6c0-0.1-0.4-0.2-0.8-0.4
	c-0.1,1-0.3,1.9-0.4,2.7C457.2,57,456.6,57.2,455.7,57.5z M435.7,58.8c0.3-3.3,0.5-2.8-2.6-3.8c0.4,0.8,0.7,1.3,0.9,2
	c0.2,0.7,0.3,1.4,0.4,2C435.1,58.9,435.4,58.9,435.7,58.8z M497.9,59.7c0.6,1.2,1.2,2.2,1.7,3.3c0.6-0.7,1-1.1,1.2-1.3
	c-0.4-1.4-0.8-2.6-1.2-3.8C499.1,58.5,498.6,59,497.9,59.7z M466,70.9c-0.9,0.2-1.3,0.3-1.7,0.3c-0.6,1.5-0.2,2.6,1,3.5
	c0.2,0.1,0.4,0,0.7,0C466,73.5,466,72.4,466,70.9z M458,117.9c-1.1-1-1.9-1.8-2.8-2.6c0,0.7,0,1.6,0,2.6
	C456.2,117.9,456.9,117.9,458,117.9z M461.4,81.5c1.1-0.8,1.9-1.4,3.2-2.3c-1.6,0-2.5,0-3.6,0C461.1,79.9,461.2,80.5,461.4,81.5z
	 M463,112.6c0-0.2-0.1-0.4-0.1-0.6c-1.2,0.1-2.4,0.2-3.7,0.2c0.6,0.8,1,1.3,1.3,1.7C461.4,113.4,462.2,113,463,112.6z M496.9,54.2
	c-0.8,1.8-1.2,2.7-1.7,3.7c0.7,0,1.1,0,1.7,0C496.9,56.9,496.9,56,496.9,54.2z M402.2,98.8c0.8-1.8,1.2-2.7,1.7-3.7
	c-0.7,0-1.1,0-1.7,0C402.2,96.1,402.2,97,402.2,98.8z M473.9,70.9c0-1,0-1.9,0-3.7c-0.8,1.8-1.2,2.7-1.7,3.7
	C472.9,70.9,473.3,70.9,473.9,70.9z M396,98.1c0.1,1,0.3,1.9,0.5,3.4c0.6-1.6,1-2.4,1.4-3.5C397.3,98.1,396.8,98.1,396,98.1z
	 M462.8,119c0-0.7,0-1.3,0-2.1c-0.7,0.1-1.2,0.2-1.8,0.4c0.1,0.7,0.3,1.2,0.4,1.8C461.9,119,462.3,119,462.8,119z M451.9,61.2
	c-0.3,0-0.6,0.1-0.9,0.1c0.1,1.2,0.2,2.4,0.2,3.6c0.2,0,0.4,0,0.6,0C451.9,63.6,451.9,62.4,451.9,61.2z M436.8,80.9c0-1.6,0-2.2,0-3
	c-0.7,0.1-1.2,0.2-2.1,0.4C435.4,79.1,435.8,79.7,436.8,80.9z M447.2,87.7c1.6,0,2.2,0,3,0c-0.1-0.7-0.2-1.2-0.4-2.1
	C448.9,86.3,448.4,86.7,447.2,87.7z M515.4,82.5c-2.6-1.1-2.5,0-2,1.3C514,83.4,514.6,83,515.4,82.5z M458.2,85.6
	c-1.8-0.6-2.6-0.3-2.1,0.7C456.7,86.1,457.5,85.9,458.2,85.6z M425.1,90.2c0,0.2,0,0.3,0,0.5c1,0,2,0,3,0c0-0.2,0-0.3,0-0.5
	C427.1,90.2,426.1,90.2,425.1,90.2z M377.3,139.2c0.8-0.8,1.2-1.3,2.5-2.5c-1.7,0.4-2.2,0.5-2.8,0.6
	C377.1,138,377.2,138.4,377.3,139.2z M411.6,58.2c-0.2,0-0.9,0-1.6,0c0.1,0.7,0.2,1.1,0.4,2.6C411,59.5,411.4,58.8,411.6,58.2z
	 M497.8,45c-0.2,0-0.3,0-0.5,0c0,0.7,0,1.3,0,2c0.2,0,0.3,0,0.5,0C497.8,46.3,497.8,45.7,497.8,45z M401.9,140.8
	c0-0.3-0.1-0.6-0.1-0.9c-0.5,0.1-1.1,0.3-1.6,0.4c0,0.2,0.1,0.3,0.1,0.5C400.8,140.8,401.4,140.8,401.9,140.8z M487.2,32.8
	c0.3,0,0.6-0.1,0.9-0.1c-0.1-0.5-0.3-1.1-0.4-1.6c-0.2,0-0.3,0.1-0.5,0.1C487.2,31.7,487.2,32.3,487.2,32.8z M509.8,32
	c-0.2,0-0.3,0-0.5,0c0,0.7,0,1.3,0,2c0.2,0,0.3,0,0.5,0C509.8,33.3,509.8,32.7,509.8,32z M507.2,102.8c0.3,0,0.6,0,0.9,0
	c-0.1-0.6-0.2-1.1-0.4-1.7c-0.2,0-0.3,0-0.5,0.1C507.2,101.7,507.2,102.3,507.2,102.8z M504.1,70.2c0,0.2,0,0.3,0,0.5
	c0.7,0,1.3,0,2,0c0-0.2,0-0.3,0-0.5C505.4,70.2,504.7,70.2,504.1,70.2z M430.2,88.2c0,0.3,0.1,0.6,0.1,0.9c0.5-0.1,1.1-0.3,1.6-0.4
	c0-0.2-0.1-0.3-0.1-0.5C431.3,88.2,430.8,88.2,430.2,88.2z M496.3,87.2c0,0.3,0,0.6,0.1,0.9c0.6-0.1,1.1-0.2,1.7-0.4
	c0-0.2,0-0.3-0.1-0.5C497.4,87.2,496.8,87.2,496.3,87.2z M465.3,78c0.2,0,0.3,0,0.5,0c0-0.7,0-1.3,0-2c-0.2,0-0.3,0-0.5,0
	C465.3,76.7,465.3,77.3,465.3,78z M428.2,83.8c0.3,0,0.6-0.1,0.9-0.1c-0.1-0.5-0.3-1.1-0.4-1.6c-0.2,0-0.3,0.1-0.5,0.1
	C428.2,82.7,428.2,83.3,428.2,83.8z M508.8,79c-0.2,0-0.3,0-0.5,0c0,0.7,0,1.3,0,2c0.2,0,0.3,0,0.5,0
	C508.8,80.3,508.8,79.7,508.8,79z M465.9,79.2c-0.3,0-0.6,0-0.9,0c0.1,0.6,0.2,1.1,0.4,1.7c0.2,0,0.3,0,0.5-0.1
	C465.9,80.3,465.9,79.7,465.9,79.2z M399.9,79.2c-0.3,0-0.6,0.1-0.9,0.1c0.1,0.5,0.3,1.1,0.4,1.6c0.2,0,0.3-0.1,0.5-0.1
	C399.9,80.3,399.9,79.7,399.9,79.2z M383.3,128c0.2,0,0.3,0,0.5,0c0-0.7,0-1.3,0-2c-0.2,0-0.3,0-0.5,0
	C383.3,126.7,383.3,127.3,383.3,128z M430.1,58.2c0,0.2,0,0.3,0,0.5c0.7,0,1.3,0,2,0c0-0.2,0-0.3,0-0.5
	C431.4,58.2,430.7,58.2,430.1,58.2z M450.9,115.2c-0.3,0-0.6,0.1-0.9,0.1c0.1,0.5,0.3,1.1,0.4,1.6c0.2,0,0.3-0.1,0.5-0.1
	C450.9,116.3,450.9,115.7,450.9,115.2z M376.2,113.8c0.3,0,0.6,0,0.9,0c-0.1-0.6-0.2-1.1-0.4-1.7c-0.2,0-0.3,0-0.5,0.1
	C376.2,112.7,376.2,113.3,376.2,113.8z M453.1,66.8c0-0.2,0-0.3,0-0.5c-0.7,0-1.3,0-2,0c0,0.2,0,0.3,0,0.5
	C451.7,66.8,452.4,66.8,453.1,66.8z M504.9,66.2c-0.3,0-0.6,0-0.9,0c0.1,0.6,0.2,1.1,0.4,1.7c0.2,0,0.3,0,0.5-0.1
	C504.9,67.3,504.9,66.7,504.9,66.2z M419.9,102.2c-0.3,0-0.6,0-0.9,0c0.1,0.6,0.2,1.1,0.4,1.7c0.2,0,0.3,0,0.5-0.1
	C419.9,103.3,419.9,102.7,419.9,102.2z M375.2,103.8c0.3,0,0.6,0,0.9,0c-0.1-0.6-0.2-1.1-0.4-1.7c-0.2,0-0.3,0-0.5,0.1
	C375.2,102.7,375.2,103.3,375.2,103.8z"/>
<path class="st0" d="M80.1,55c0,1.8,0,3.6,0,5.5c0.5,0.5,0.9,0.9,1.4,1.4c0.6-0.4,1.2-0.7,2-1.2c0.9,1.5,0.8,2.3-1,2.3
	c-0.1,0.1-0.2,0.2-0.4,0.4c1.5,1.2,0.1,3.5,1.2,4.3c2.3,1.7,1.4,4.4,2.5,6.5c0.9,1.7,0.9,3.9,1.3,5.8c0.9-0.5,1.5-0.8,2.3-1.2
	c0.2,0.7,0.4,1.2,0.5,1.7c-0.7,0.4-1.4,0.7-2.1,1c0.4,1.3,0.8,2.7,1.4,4.3c0.6,0.1,1.6,0.3,3.2,0.6c-1.2,0.4-1.8,0.6-2,0.7
	c0.2,2.2,0.4,4.4,0.6,6.6c2.6-2.3,2.3-6.1,5-8.6c-0.3-0.5-0.8-1-1-1.5c-0.2-0.4-0.2-0.9-0.3-1.4c1-1.8,2-3.5,3.1-5.2
	c0.5,0,1,0,1.7,0c0.2-1,0.4-2,0.6-3.2c0.4,0.4,0.6,0.7,1.3,1.4c0.1-0.7,0.2-1.3,0.2-1.9c0.3,0.2,0.6,0.4,1,0.6
	c-0.9-1.8-1.8-3.6-2.8-5.6c1.3-1,2.9-2.1,4.3-3.1c0.6,0.3,1.1,0.6,1.6,0.9c1.2,1.1,1.2,1.1,3-1c-0.8,0-1.4,0-2,0c0-1.5,0-3,0-4.5
	c0.5-0.5,0.9-0.9,1.5-1.5c0.4,0.4,0.9,0.8,1.6,1.5c-0.7,0.3-1.3,0.6-2,0.9c0.4,0.5,0.9,0.9,1.3,1.5c2.1-1,2-3.1,2.1-4.9
	c0.1-2.1-0.4-4.2-0.7-6.4c1.8-1.4,3.9-2.6,5.2-4.2c1.2-1.5,1.5-3.6,2.3-5.6c0.7,0.6,1,1,1.6,1.5c0.6-0.4,1.3-0.8,2.1-1.4
	c-0.6-1.2-1.2-2.3-1.9-3.7c1.1-0.5,2.3-0.9,3.7-1.5c0.3-0.7,0.6-2,1.3-2.9c0.6-0.9,1.7-1.4,3.2-2.5c0.6,0,2,0,3.7,0
	c0.7,1.5,1.3,3.1,1.9,4.5c-0.6,2.3-1.5,4.5-1.8,6.7c-0.4,2.6,2.7,3.4,3.3,5.5c0.9,0.1,1.8,0.3,3.5,0.5c-1.4,1.2-2.2,1.9-3.3,2.6
	c-0.1,0,0.2,0,0.5,0c-0.1-0.7-0.3-1.3-0.4-2c-0.2,0-0.4,0.1-0.6,0.1c0.1,0.6,0.1,1.3,0.6,1.9c0.7,1,1.1,2,1.4,3.1
	c0.2,0.6,0.1,1.5,0.5,1.8c2.4,1.6,0.9,4.6,2.6,6.5c-0.3,3.5,1.7,6.3,2.4,9.5c0.4,2,1,3.9,1.8,5.8c0.7,1.7,1.6,3.3,2.6,5.3
	c0,0,0.6,0.2,1.3,0.4c-0.4,0.4-0.7,0.8-1.2,1.3c1.7,2.4,0.9,5.2,1.1,7.4c1.7,3.6,3.2,6.6,5,10.5c0,0.7,0,2.3,0,4
	c0.6,0.6,1.2,1.2,1.9,1.9c-0.2,0.3-0.5,0.6-0.7,1c0.3,0.5,0.5,1,0.9,1.7c-0.3,0.4-0.6,0.9-1,1.5c2,1.9,2.9,4.2,3,7.2
	c0.1,3.6,0.8,7.1,3.1,10.2c1.2,1.5,1.8,3.6,1.8,5.7c-0.1,2.3-0.3,4.7,0.1,7c0.3,2.1,1.8,4.1,1.8,6.2c0,2.1,1.2,4,0.3,6.2
	c-0.5,1.2-0.2,3,0.7,4.6c0.8,1.5,0.2,3.9,0.2,5.7c-1.2,1.8-2.3,3.5-3.5,5.5c-1.1,0-2.6,0-4.3,0c-0.1-0.8-0.3-1.7-0.6-3.4
	c-0.5,1.2-0.7,1.8-1.1,2.6c-0.8-0.1-1.7-0.1-3.2-0.3c1-1.4,1.7-2.4,1.8-2.5c0.4-1.9,0.6-2.7,0.8-3.7c-0.6-0.7-1.3-1.4-2-2.1
	c0.3-0.3,0.6-0.7,0.9-1c-0.7-0.9-1.3-1.7-1.9-2.5c-0.3-0.5-0.6-1-0.7-1.3c0.3-1,0.5-1.8,0.8-2.9c-1.3,0-2.1,0-2.9,0c0-1,0-1.7,0-2.6
	c2-0.4,3.3-1.4,2.9-3.8c-1.5-0.9-3-1.8-5.5-3.3c1.4,4.8,1.4,8.6,0.4,12.1c1.2,1.3,2.6,2,2.1,3.7c-0.7-0.4-1.4-0.7-2.5-1.3
	c-0.6,1.1-1.3,2.3-1.9,3.4c-0.1-0.2-0.3-0.4-0.4-0.6c0,1.5,0,2.9,0,4.7c1.2-0.5,2.2-1,3.2-1.4c1.7,2.8-0.8,3.7-1.9,5.2
	c-0.5-0.8-1-1.5-2-3.2c-0.3,2-0.2,2.9-0.6,3.7c-0.3,0.7-1.1,1.2-2,2.1c0.5,3,1.2,6.2,1.6,9.4c0.1,1,0.4,2,0.5,3
	c0.1,2.9,0.4,5.6,1.8,8.3c0.5,1.1,0.4,2.6,0.3,3.8c-0.3,2.7,1,4.9,1.7,7.3c-0.2,0.9-0.5,1.9-1,3.4c-0.4,0.4-1.3,1.1-2.6,2.3
	c-1.3-0.3-3.1-0.8-4.7-1.2c-3-10.3-4.5-20.6-5.8-30.9c0-0.2,0.3-0.5,0.6-0.9c-0.5-1-1-2.1-1.7-3.3c-0.3,0.8-0.5,1.4-0.8,2.3
	c-1.6-2.6,1.8-4.9,0-7.1c-0.5,0.4-0.9,0.8-1.4,1.3c0.2,0.5,0.4,0.9,1,2.1c-1.5-0.7-2.3-1.2-3.2-1.6c0.5-0.9,0.9-1.5,1.2-2.2
	c-0.9-0.4-1.6-0.8-2.4-1.2c0.3-0.6,0.6-1.2,1.1-2.2c-0.6-0.3-1.4-0.7-2.2-1.2c0.1-0.3,0.2-0.5,0.4-0.8c0.8-0.1,1.7-0.3,3-0.5
	c-0.4-1.9-0.9-3.8-1.3-5.7c-0.9,0-1.7,0-2.4,0c-0.2,0.7-0.5,1.3-1,2.7c-0.2-1.7-0.3-2.6-0.4-3.3c0.7-0.7,1.3-1.3,1.9-1.9
	c-1.6-1.6,0.9-3.1,0.1-5c0-0.1,0,0.2,0,0.5c0.7-0.1,1.3-0.3,2-0.4c0-0.2-0.1-0.4-0.1-0.6c-0.6,0.1-1.3,0.1-1.9,0.6
	c-0.9,0.2-1.7-0.1-2.8-0.3c-0.5,1.4-1.1,3-1.8,4.9c-0.3-0.8-0.5-1.4-0.6-1.6c-1.7-0.3-3.1-0.5-4.7-0.8c0-1.2,0-2.3,0-3.2
	c-1.8-1.1-3.3-2-5.2-3.2c1.1-1.2,0.5-3.1,2.1-4.5c1.4-1.1,2.4-2.7,3.8-4.4c0.5,0.7,0.8,1.1,1.7,2.3c0.3,0.5,0.1,0.2-0.1,0.1
	c-0.4-0.2-0.4-1.7-1.1-0.5c-0.4,0.7-0.1,1.7-0.1,3c0.9-0.9,1.3-1.3,1.3-2.6c1.6-1.2-0.4-4.1,1.8-4.7c1.1-0.1,2.2-0.1,3.4-0.2
	c1-1.6,0.3-2.7-0.7-3.6c-1.3,0.3-2.5,0.5-3.6,0.7c-0.1-0.2-0.1-0.5-0.2-0.7c0.6-0.2,1.1-0.5,1.7-0.7c1.1-1.5-1.3-3,0-4.5
	c-0.8-0.1-1.6-0.2-2.8-0.3c0.5-2.8,1.1-5.7,1.7-8.7c-0.6-0.1-1.5-0.2-2.5-0.4c0-1.1,0-2.3,0-3.4c1.5-1.6,1.5-1.6,1.9-3.7
	c-1.8-2.2-4.3-1.6-6.7-1.7c-0.5-0.7-0.9-1.3-1.3-2c1.5-0.1,0.8-1.2,1-2c0.7-0.6,1.4-1.2,2-1.9c0.9-1,1.6-2.1,2.8-3.7
	c0.7,3.3-2,5.8-0.4,8.4c1.4,0,2.9,0,4.3,0c-0.3-2.3,3-1.8,3.2-4.3c-1.3,0.5-2,0.9-2.9,1.2c0-2.4,0.1-4.5,0-6.6c0-0.4-0.6-0.8-1-1.3
	c0-1.3,0-2.5,0-3.8c-1.5,0-2.7,0-3.9,0c-2.5,3.7-3.7,7.6-4.1,11.8c-1.5,0.1-0.8,1.2-1,2c-1.9,1.1-2,3-2,4.9c0,0.9-0.4,1.8-0.7,2.9
	c0.1,0.1,0.4,0.4,0.9,1c-2.6-0.1-3.8,2.3-3.8,3.6c0.1,2.4-3,4.7-0.3,7.3c-2.9,0.2-3.3,2.6-4.1,4.5c-1.1,2.5-2.1,5.1-3.3,7.6
	c-0.3,0.7-1.2,1.1-1.4,1.3c0.3,1.9,0.5,3.3,0.7,5.2c-1.1-0.4-1.9-0.7-2.5-0.9c-1.2,1.9-2.5,3.9-3.8,6c-1.3-0.4-2.3-0.7-3.5-1
	c-0.2,0.2-0.7,0.7-0.9,0.9c0.3,1.2,0.6,2.2,1,3.6c-1.2,0.1-2.1,0.1-3.2,0.2c0-1.7,0-3.2,0-4.6c0-0.2,0.4-0.5,0.7-0.8
	c-0.8-1.2-1.6-2.4-2.4-3.6c-0.9,1.5-0.9,3.6-3.2,4.3c-0.1,0.8-0.3,1.7-0.5,3.5c-0.9-2.5-1.5-4.2-2.2-5.8c-0.3,0.3-0.7,0.6-1.3,1.1
	c0-1.5,0-2.7,0-4.2c1.4,1.2,2.7,2.3,4,3.3c0.2-0.1,0.4-0.3,0.5-0.4c-0.9-2.3-1.8-4.6-2.7-6.9c1.2-1.5,1.1-3.2,0.8-5.7
	c-1.2,1.8-2,2.9-2.6,4c0.3,0.8,0.6,1.6,1.2,3c-1.9-1.3-3.1-2.1-4.4-3c0.6-0.2,1.2-0.4,2.3-0.8c-1.2-0.6-2.1-1-2.8-1.6
	c-0.6-0.5-0.8-1.4-1.5-2.6c-2.5,4.1-2.1,8.8-5.3,11.6c-0.6-1.2-1.1-2.5-1.9-3.6c-1.1-1.4-0.9-2.6,0.3-3.8c-0.4-0.4-0.7-0.7-1.3-1.3
	c-2.5,1.8-5.1,3.7-7.8,5.6c0.8,2.8,2.1,0.1,3.7,0.3c0.1,0.3,0.3,1.2,0.6,2c0.8,1.1,1.3,3-1.2,4c-0.4-0.2-0.9-0.6-1.5-0.9
	c-0.2,0.2-0.6,0.5-1,0.9c-0.7-0.9-1.4-1.7-2.2-2.7c0.1-0.1,0.4-0.5,0.7-0.8c-0.6-0.7-1.3-1.4-2.1-2.2c0.6-0.2,1.1-0.3,1.8-0.5
	c1.3-0.7-1-3.2,1.3-3.8c1.2,1.1,1.2,1.1,3-1c-0.8,0-1.4,0-2,0c0-0.8,0-1.6,0-2.8c2.5-0.3,4.9-0.7,7.2,1c0.5-0.4,0.9-0.7,1.2-1
	c0.8,0.3,1.5,0.6,2.4,0.9c0.2-0.7,0.4-1,0.3-1.3c-0.3-1.2-2.2-0.7-2.3-2.5c-0.1-0.8-1.9-1.4-2.8-2.1c-1.1,0.3-2,0.6-3,0.7
	c-0.6,0-1.3-0.3-2.7-0.7c0.1,0.2-0.1-0.3-0.4-1.1c-0.7,0-1.6-0.1-2.6-0.1c0,1,0,1.8,0,2.7c0.5,0.2,1.1,0.4,1.6,0.6
	c0.6,1.8,0.2,3.1-2.2,3.7c-0.1,0,0.2,0,0.5,0c-0.1-0.7-0.3-1.3-0.4-2c-0.2,0-0.4,0.1-0.6,0.1c0.1,0.6,0.1,1.3,0.6,1.9
	c0.4,0.5,0.4,1,0.4,1.6c-0.5,0.2-1.1,0.4-1.9,0.6c0,2.7,0,5.5,0,7.7c-3.1,5.1-2.9,10.4-4.4,15.3c1.3,0.8,2.3,1.5,3.5,2.3
	c-0.9,0.3-1.5,0.5-2.6,0.9c1,0.4,1.5,0.6,2.2,0.9c-1,0.7-2,1.3-2.8,1.9c-0.1,4.2-0.1,4.2-1.1,6.2c0.3,0.4,0.7,0.7,1.2,1.3
	c-2,3.2-2.4,6.8-2.2,10.5c0,0.7-1.9,7.1-1.9,7.7c0,1.3-1.2,0.8-1.7,1.3c-0.4,0.4-0.5,1.1-0.8,1.8c-1,0-2.2,0-3.3,0
	c-1.3,4.5-2.5,8.8-3.9,14c-0.9,0.8-2.5,2.2-4.2,3.8c-1-0.3-2.3-0.7-3.8-1.2c-1.8-3.7-1.3-7.9-1.3-11.7c0.8-0.6,1.4-1.1,1.8-1.4
	c0.1,0.2,0.3,0.8,0.8,2.1c0.9-2.8,1.7-5.1,2.4-7.4c-1.3-1.4,0.1-2.8,0.1-4.2c0-0.7,0.6-1.4,1-2.1c-0.3-0.5-0.7-1-1-1.6
	c0.6-0.2,1.2-0.4,1.8-0.6c-0.2-0.5-0.5-0.9-0.7-1.5c0.6-0.1,1-0.2,1.9-0.4c-0.3-1.7,0.9-3.7-1-5.3c0.9-0.5,1.9-1.1,2.8-1.6
	c0-1.4,0-2.6,0-4.1c-0.6,0.5-0.9,0.8-1.6,1.4c-0.1-1.2-0.1-2.1-0.2-3c1.1,0.3,2,0.5,3.5,0.9c-0.9-0.9-1.2-1.3-1.6-1.7
	c0.4-0.9,0.8-1.9,1.2-2.8c-0.1-0.1-0.3-0.3-0.4-0.4c-0.8,0.6-1.5,1.2-2.6,2.1c0-2.3-0.5-4.3,0.9-6.2c0.2,0.2,0.3,0.3,0.5,0.5
	c0.5-0.7,0.9-1.4,1.5-2.4c-0.7,0-1.2-0.1-1.9-0.1c-0.1,0.8-0.1,1.4-0.1,2c-1.5-0.5-2.9-1-4.8-1.6c0,0-0.4,0.3-1.2,0.8
	c-0.6-0.5-1.3-1.1-2-1.6c0-1,0-1.8,0-3.1c1.4-1,2.2-3.1,4.4-3.6c0.3,0.3,0.5,0.5,0.5,0.5c-0.6,1.1-1.2,2.1-1.9,3.1
	c0.5,0.5,0.9,0.9,1.5,1.5c0.4-0.5,0.8-1,1.4-1.7c0-2,0-4.3,0-7.2c0.3-0.3,1.6-0.8,1.6-1.2c-0.3-2.9,2.8-4.6,2.5-7.5
	c-1.9-0.5-3.6-1.1-6-1.8c-0.8-0.9-1.9-2.3-3-3.6c2.4-0.2,2.9-2.5,4.5-4c0.9,0,2,0,3.1,0c0.2-0.5,0.4-0.8,0.4-1
	c-0.5-1.5-1.1-2.9-1.7-4.4c0.6-1,1.3-2.1,2.2-3.5c-2.3-1.8-2.8-4.3-3.4-6.7c-0.2-0.7,0.8-1.6,1.2-2.5c0.4,0.4,0.6,0.7,0.9,1
	c0.7-0.3,1.5-0.6,2.5-1c0.2,1.2,0.3,2.1,0.5,3.1c0.6,0,1,0,1.5,0c0.9-3.3-0.8-6.9,1.5-10.4c-0.7-0.3-1.4-0.6-2.1-0.9
	c-0.1-0.8-0.2-1.5-0.3-2.4c-1.3-0.5-2.6-1-4.4-1.7c-0.3,0.7-0.7,1.5-1,2.3c-0.2-0.1-0.3-0.3-0.5-0.4c0,1,0,2,0,3.1
	c-1.5,1.1-3,2.2-4.6,3.3c-0.3-0.7-0.8-1.5-1.3-2.6c0.4-0.1,1-0.3,1.5-0.4c0.3-1.3,0.5-2.8,1.1-4c0.6-1.2,1.5-2.3,2.6-4
	c-1.7,0.3-2.8,0.5-4.1,0.7c-0.1-0.2-0.4-0.9-0.9-1.8c-2.3,1.2-3.9,3.6-6.8,3.3c-2.1,1.8-3.8,3.9-3.6,7.1c-1.7-1.1-3.1-2.1-4.7-3.2
	c-0.1,1.4-0.3,2.6-0.4,4c-1.8,0-3.6,0-5.5,0c-0.2,1.1-0.3,2-0.5,2.9c-0.2,0.1-0.3,0.1-0.4,0.2c-0.7-2.5-2.1-5-1.2-7.8
	c0.6,0,1,0,1.9,0c-0.3,0.9-0.5,1.6-0.7,2.2c-0.5,0.9,1,1.5,3.9,1.2c-0.8-1.2-1.5-2.2-2.1-3.1c0.7-1.1,1.5-2.3,2.3-3.4
	c0.2,0.2,0.4,0.4,0.9,0.8c1.1-0.6,2.2-1.3,3.4-2c0-1.2,0-2.3,0-3.7c1.6-0.9,3.2-1.9,5.1-3c0,0.1,0.1-0.4,0.2-0.9
	c2.1-0.5,4.2-1,6.7-1.6c0.3-2.8,5.4-2.6,4-7c1.3,0.5,1.8,0.7,2.9,1.1c0.3-0.3,0.9-0.9,1.5-1.5c0.5-0.5,1.1-0.8,1.7-1.2
	c1.1-0.9,2.2-1.8,3.2-2.6c-0.6-1.2-1-2-1.4-2.9c0.8-0.3,1.4-0.5,2.3-0.8c0-2.8,0-5.7,0-9.5c1.4,2.8,2.3,4.7,3.4,6.8
	c0.4-0.7,0.7-1.7,1.3-1.9c1.3-0.3,2-0.9,2.3-2.1c0.2-0.9,0.5-1.8,0.9-3.3c-0.4-0.6-1.2-1.6-1.9-2.7c0.5-1.3,0.9-2.5,1.5-4
	c0.5,1,1,2,0.9,4.2c0.2,0.5,0.6,0.3,0.6,0.2c-0.1-0.5-0.3-0.9-0.4-1.4c-0.2,0.6-0.3,1.2-0.1,1.2c2.8-1.9,0.8-3.9,1.9-5
	c3.6-1.5,3.6-1.5,6.4-0.4c0.5-2.3,1-4.6,1.7-7.7c0.6-0.6,1.7-1.7,2.9-2.9c-0.4-1.1-0.7-1.9-1.1-3c0.4-0.4,1-0.9,1.5-1.4
	c-0.7-2.1-1.4-4.1-2.2-6.2c1.2-0.9,2.2-1.5,3.8-2.7c-0.2,0,0.6,0,1.4,0c0.6,0,1.5-0.1,1.9,0.2c0.8,0.9,1.3,0.6,1.9-0.4
	c0.2,0.7,0.4,1.3,0.6,2c0.7,0,1.5,0,2.4,0c-0.7,2.7,1,4.1,2.4,5.8c1.3,1.7,2.3,3.7,3.2,5.2c2.1-0.4,3.7-0.7,6.1-1.2
	c-0.7,1.8-1.2,3-1.6,4.2c-0.9-0.3-1.6-0.6-2.4-0.9c0.8,2.3,0.1,4.9,2.6,6.2c0.5-0.3,1-0.6,1.6-1c0.5,0.9,1,2,1.6,3.2
	C80.8,54.6,80.4,54.8,80.1,55c0.2-0.2,0.3-0.3,0.5-0.5c-0.7-0.5-1.4-0.9-2.4-1.5c0,0.7-0.1,1.2-0.1,1.9C78.9,54.9,79.5,55,80.1,55z
	 M60.3,76c0.3,0,0.6,0,0.9,0c-0.1-0.7-0.3-1.3-0.4-2c-0.2,0-0.4,0.1-0.6,0.1c0.1,0.6,0.1,1.3,1.4,1.4c-0.2,0.2-0.4,0.3-0.5,0.5
	c0,0.6,0.1,1.2,0.1,2c0.7,0,1.2-0.1,1.9-0.1C62.5,76.9,62,76.2,60.3,76z M58.2,69c-0.7,0.1-1.3,0.1-1.9,0.1c0,1,0,1.9,0,3.4
	c0.8-1.5,1.3-2.5,3-5.9c-0.8,0.7-1.1,0.9-1.1,1c0.1,0.5,0.3,0.9,0.4,1.4C58.7,68.4,58.9,67.8,58.2,69z M28.8,90.1
	c0.3,2,0.4,3,0.6,4.3c0.9-0.4,1.3-0.7,2.2-1.1c-0.8-1-1.4-1.6-2.3-1.7c-0.2-1.9-0.3-3.3-0.4-4.6c-0.7,0-1,0-1.3,0.1
	C26.2,88.8,27.4,89.9,28.8,90.1z M126.1,138c-0.9-0.4-1.8-0.7-3-1.2c0,1.4,0.1,2.4,0,3.3c-0.2,1-0.6,2-0.9,3.6
	c-1.4-1.8-2.7-2.3-4.2-0.9c-1,0.9-1.1,2-0.5,3c0.6,1.1,1.7,1.6,2.9,1.2c2-0.6,1.9-2.3,1.8-4c2.2-1,2.5-3.5,5.2-7.5
	c-0.8,0.7-1.2,0.9-1.1,1.1c0.1,0.5,0.3,0.9,0.4,1.4C126.7,137.4,126.9,136.8,126.1,138z M90.9,128.9c-2.5,0.2-4.5-0.6-5.8,1.6
	c1.2,1.4,2.4,2.9,3.6,4.4c1.1-1.7-0.7-4,1.6-6c0.4,0.3,0.9,0.6,1.4,1c0.4-1.6,0.7-3.2,1.1-4.7c-1.2,0-2.4,0-3.3,0
	C89.8,126.6,90,127.8,90.9,128.9z M59.1,106c1.1,1.8,2.6,0.9,4.2,0.8c0-2.7,0-5.2,0-7.5c0.9-0.8,2.6,0.6,2.3-6.6
	c-0.4,4.1-0.4,4.1,1.6,5.1c-0.5-1.7-1-3.2-1.1,0.3c-2.6,0-5.3,0.5-7.4-2.6c1.4-0.3,2.4-0.5,3.5-0.8c-2.8-2.8,0.5-5.1,0-7.4
	c0.9-0.3,1.4-0.5,2.4-0.8c-1.1-0.4-1.6-0.6-2.2-0.8c-0.2-0.9-0.3-1.8-0.5-2.7c-0.5,0-0.9,0-1.4,0c-0.2,1-0.4,2-0.6,3
	c-0.1,0-0.3,0-0.4,0c-0.1-0.9-0.3-1.8-0.5-3c-0.9,0.1-1.8,0.1-2.6,0.1c0,2.1,0,3.9,0,5.7c1,0.6,1.9,1.2,2.6,1.6c0,1.2,0,2.3,0,3.6
	c-0.6-0.4-1.1-0.7-2.1-1.4c0.4,2.7,0.7,4.7,1.1,7c-0.8,1.2-1.8,2.8-3.1,4.7c0.6,0.9,1.3,1.8,1.9,2.8C57.7,106.7,58.4,106.4,59.1,106
	z M61.2,122.9c-1.7-1-2.6-1.4-2.9-1.6c0-2.4,0-4.2,0-5.9c0.7-0.7,1.3-1.2,1.9-1.8c-0.3-0.4-0.6-0.7-0.9-1c0.3-0.4,0.6-0.7,0.8-1
	c-0.5-0.6-0.9-1.1-1.5-1.8c-0.2,1.2-0.4,2.1-0.4,2.1c-1.4,1.8-2.3,2.9-3,3.8c0.8,2.7,1.5,5.1,2.2,7.2
	C58.3,122.9,59.1,122.9,61.2,122.9z M85.4,123.8c-0.3-0.6-0.5-1.2-0.8-2c-0.8,0.9-1.3,1.5-1.8,2c1.2,1.2,2.2,2.1,3.3,3.2
	c1.7-1,2.6-2.2,1.3-4.4C86.7,123.2,86.1,123.5,85.4,123.8z M123.8,115.8c0.4-2.5,0.4-3.9-0.7-3.8c-0.9,0.2-1.7,0.4-3.1,0.7
	C121.6,114,122.4,114.6,123.8,115.8z M56,110.2c-1,0-1.9,0-2.7,0c0,1.7,0,3.2,0,5.3C54.3,113.4,55.1,111.9,56,110.2z M122.2,126.2
	c1,0.8,1.7,1.4,2.5,2c0.4-1.6,0.7-2.8,1.3-4.8C124.6,124.4,123.7,125.1,122.2,126.2z M68.2,122.2c1-0.7,1.7-1.2,1.6-1.2
	c-0.6-1.4-0.9-2.3-1.6-4.1C68.2,119.4,68.2,120.6,68.2,122.2z M117.7,82.8c-0.6,0.6-1.1,1.1-1.6,1.6c0.8,0.8,1.2,2.2,3.1,1
	C118.7,84.6,118.3,83.8,117.7,82.8z M100,79.9c0.2,1.2,0.3,2.1,0.5,3.6c0.9-1.4,1.3-2.2,2-3.2C101.5,80.2,101,80.1,100,79.9z
	 M33.6,87.8c-1.7,0.8-2.6,1.2-3.5,1.7c0.6,0.6,1,1.1,1.6,1.8C32.3,90.2,32.7,89.4,33.6,87.8z M35.5,74.1c0.9,0.8,1.3,1.1,1.6,1.4
	c-0.4,0.4-0.7,0.8-1.4,1.6c1.2-0.1,1.7-0.1,2.2-0.1c0-1,0-1.8,0-2.8C37.3,74.1,36.9,74.1,35.5,74.1z M37.8,121c-0.2,0-0.3,0-0.5,0
	c0,1.3,0,2.7,0,4c0.2,0,0.3,0,0.5,0C37.8,123.7,37.8,122.3,37.8,121z M56.2,74.6c0.6,0.6,1,1,2,2c-0.1-1.8-0.2-2.7-0.3-4
	C57.1,73.4,56.7,73.9,56.2,74.6z M119.3,80.8c0.3,0,0.6,0,0.9-0.1c-0.1-1.2-0.2-2.4-0.2-3.6c-0.2,0-0.4,0-0.6,0
	C119.3,78.4,119.3,79.6,119.3,80.8z M90.3,123.7c0.7-0.3,1.3-0.7,2-1c-0.1-0.2-0.2-0.5-0.4-0.7c-0.9,0.1-1.8,0.2-2.9,0.4
	C89.7,123.1,90.1,123.5,90.3,123.7z M53.8,119c0-0.7,0-1.3,0-2.1c-0.7,0.1-1.2,0.2-1.8,0.4c0.1,0.7,0.3,1.2,0.4,1.8
	C52.9,119,53.3,119,53.8,119z M60.8,63.4c-1.5-0.3-1.5-0.3-1.3,2.1C60.1,64.5,60.5,63.9,60.8,63.4z M31.3,131.1
	c0.4,0.8,0.8,1.4,1.6,2.9c0-1.8,0-2.3,0-2.9C32.3,131.1,31.9,131.1,31.3,131.1z M148.2,138.8c0.3,0,0.6,0,0.9-0.1
	c-0.1-0.9-0.2-1.8-0.4-2.6c-0.2,0-0.3,0-0.5,0C148.2,137.1,148.2,137.9,148.2,138.8z M130.8,164c-0.2,0-0.3,0-0.5,0c0,1,0,2,0,3
	c0.2,0,0.3,0,0.5,0C130.8,166,130.8,165,130.8,164z M128.8,153c-0.2,0-0.3,0-0.5,0c0,1,0,2,0,3c0.2,0,0.3,0,0.5,0
	C128.8,155,128.8,154,128.8,153z M104,72.4c1.9,0.6,2.5,0.2,2.1-0.7C105.4,71.9,104.7,72.1,104,72.4z M55.9,96.2
	c-0.3,0-0.6,0.1-0.9,0.1c0.1,0.9,0.3,1.7,0.4,2.6c0.2,0,0.3,0,0.5-0.1C55.9,97.9,55.9,97,55.9,96.2z M73.3,133c0.2,0,0.3,0,0.5,0
	c0-0.7,0-1.3,0-2c-0.2,0-0.3,0-0.5,0C73.3,131.7,73.3,132.3,73.3,133z M148.8,130c-0.2,0-0.3,0-0.5,0c0,0.7,0,1.3,0,2
	c0.2,0,0.3,0,0.5,0C148.8,131.3,148.8,130.7,148.8,130z M126.8,129c-0.2,0-0.3,0-0.5,0c0,0.7,0,1.3,0,2c0.2,0,0.3,0,0.5,0
	C126.8,130.3,126.8,129.7,126.8,129z M128.8,157c-0.2,0-0.3,0-0.5,0c0,0.7,0,1.3,0,2c0.2,0,0.3,0,0.5,0
	C128.8,158.3,128.8,157.7,128.8,157z M118.2,149.8c0.3,0,0.6-0.1,0.9-0.1c-0.1-0.5-0.3-1.1-0.4-1.6c-0.2,0-0.3,0.1-0.5,0.1
	C118.2,148.7,118.2,149.3,118.2,149.8z M152.9,143.2c-0.3,0-0.6,0-0.9,0c0.1,0.6,0.2,1.1,0.4,1.7c0.2,0,0.3,0,0.5-0.1
	C152.9,144.3,152.9,143.7,152.9,143.2z M122.1,137.8c0-0.2,0-0.3,0-0.5c-0.7,0-1.3,0-2,0c0,0.2,0,0.3,0,0.5
	C120.7,137.8,121.4,137.8,122.1,137.8z M30.1,134.8c0-0.2,0-0.3,0-0.5c-0.7,0-1.3,0-2,0c0,0.2,0,0.3,0,0.5
	C28.7,134.8,29.4,134.8,30.1,134.8z M64.3,102c0.2,0,0.3,0,0.5,0c0-0.7,0-1.3,0-2c-0.2,0-0.3,0-0.5,0
	C64.3,100.7,64.3,101.3,64.3,102z M121.2,94.8c0.3,0,0.6-0.1,0.9-0.1c-0.1-0.5-0.3-1.1-0.4-1.6c-0.2,0-0.3,0.1-0.5,0.1
	C121.2,93.7,121.2,94.3,121.2,94.8z M121.8,87c-0.2,0-0.3,0-0.5,0c0,0.7,0,1.3,0,2c0.2,0,0.3,0,0.5,0
	C121.8,88.3,121.8,87.7,121.8,87z M30.8,86c-0.2,0-0.3,0-0.5,0c0,0.7,0,1.3,0,2c0.2,0,0.3,0,0.5,0C30.8,87.3,30.8,86.7,30.8,86z
	 M56.9,79.2c-0.3,0-0.6,0-0.9,0.1c0.1,0.6,0.2,1.1,0.4,1.7c0.2,0,0.3,0,0.5-0.1C56.9,80.3,56.9,79.7,56.9,79.2z M52.2,121.8
	c0.3,0,0.6-0.1,0.9-0.1c-0.1-0.5-0.3-1.1-0.4-1.6c-0.2,0-0.3,0.1-0.5,0.1C52.2,120.7,52.2,121.3,52.2,121.8z M61.2,118.2
	c0,0.3,0.1,0.6,0.1,0.9c0.5-0.1,1.1-0.3,1.6-0.4c0-0.2-0.1-0.3-0.1-0.5C62.3,118.2,61.8,118.2,61.2,118.2z M54.8,107
	c-0.2,0-0.3,0-0.5,0c0,0.7,0,1.3,0,2c0.2,0,0.3,0,0.5,0C54.8,108.3,54.8,107.7,54.8,107z M104.3,70c0.2,0,0.3,0,0.5,0
	c0-0.7,0-1.3,0-2c-0.2,0-0.3,0-0.5,0C104.3,68.7,104.3,69.3,104.3,70z"/>
<path class="st0" d="M527.1,67c0.2,1.5-0.5,2.4-2.2,3.2c-1.2-1.6-2.5-3.2-3.9-5c0.5-1.1,1.1-2.1,1.7-3.4c0.7,0.4,1.3,0.8,2,1.1
	c0.3-0.3,0.7-0.6,1.3-1.1c0.7,0.5,1.5,1.1,1.9,1.4c-0.3,1.1-0.5,1.9-0.8,2.8c-0.6,0.1-1.3,0.2-1.9,0.3c0,0.2,0,0.4,0.1,0.7
	C525.9,67,526.5,67,527.1,67z"/>
<path class="st0" d="M29.1,142.3c-0.7,2.6-1.4,5-2.3,8.3c-1.2-2.8-2.1-4.9-3.1-7.1C25.8,143,27.3,142.7,29.1,142.3z"/>
<path class="st0" d="M357.8,95.1c-2.7-1.4-3.3-2.7-3.6-6.8c1.6-0.8,2.7-0.2,3.7,1.1c-0.3,0.3-0.5,0.6-0.9,1.1
	c0.7,0.6,1.5,1.1,1.9,1.5C358.6,93.3,358.2,94.1,357.8,95.1z"/>
<path class="st0" d="M359.2,82.2c2-0.5,3.3-0.1,3.9,1.8c-0.7,1.9-2,2.3-3.9,1.9C359.2,84.7,359.2,83.6,359.2,82.2z"/>
<path class="st0" d="M24.1,133c-0.8,0-1.6,0-2.5,0c-0.4-0.8-0.8-1.6-1.3-2.5c0.4-0.8,0.9-1.7,1.6-2.9c0.9,1,1.5,1.8,2.2,2.5
	C24.1,131,24.1,132,24.1,133z"/>
<path class="st0" d="M71.1,143.4c-0.2,0.5-0.7,1.6-1.3,2.9c-2.1-2.6-2.1-2.6-0.2-5.5C70.1,141.5,70.5,142.2,71.1,143.4z"/>
<path class="st0" d="M50.9,149.6c-1,0.5-1.7,0.8-2.5,1.2c-0.1-0.3-0.4-0.6-0.3-0.8c0.4-1.3,0.9-2.5,1.4-3.9c0.3,0,0.8,0,1.4,0
	C50.9,147.3,50.9,148.4,50.9,149.6z"/>
<path class="st0" d="M428.2,148.8c0.9-1.7,1.6-3.3,2.7-5.3c0,2.1,0,3.6,0,5.3C430,148.8,429.1,148.8,428.2,148.8z"/>
<path class="st0" d="M56.2,160.4c-0.5,0.5-1,1-1.5,1.5c-1-0.2-1.4-1.3-1.3-3.8C55.3,157.9,55.8,159,56.2,160.4z"/>
<path class="st0" d="M532.6,73.9c0.6,1.1,1.1,2.2,1.7,3.5c-0.6,0.5-1.3,0.9-1.9,1.4c-0.4-1.4-0.9-2.9-1.4-4.6
	C531.7,74.1,532.1,74,532.6,73.9z"/>
<path class="st0" d="M162.4,102.3c-0.4-2.2-0.8-3.9,1-5.1C164.3,99.9,164.3,99.9,162.4,102.3z"/>
<path class="st0" d="M150.1,160c0-0.6,0-1.2,0-2c0.8,0,1.4,0,2,0c0,1.3,0,2.6,0,3.9c-0.8,0-1.2,0-2,0
	C150.1,161.2,150.1,160.6,150.1,160z"/>
<path class="st0" d="M536.6,69.1c-0.2-0.5-0.5-1-0.7-1.6c0.8-0.4,1.5-0.7,2.2-1c-0.4-0.4-0.7-0.7-1.2-1.3c0.7-0.1,1.3-0.2,1.9-0.3
	C539.5,67.1,538.9,68.4,536.6,69.1z"/>
<path class="st0" d="M347.5,78.6c0.3,2.9,0,3.2-3.7,3C345.2,80.5,346,79.3,347.5,78.6z"/>
<path class="st0" d="M104.6,118.1c2.3,0,3.7,0,5.2,0C107.8,120.6,107.8,120.6,104.6,118.1z"/>
<path class="st0" d="M515,61.2c0,0.6,0,1.1,0,1.7c-1,0-1.9,0-2.8,0c0-0.6,0-1.1,0-1.7C513.1,61.2,514,61.2,515,61.2z"/>
<path class="st0" d="M511.6,48.2c2.1,0,3.7,0,6,0c-1.4,0.7-2.1,1.1-3.1,1.6C513.8,49.4,512.8,48.8,511.6,48.2z"/>
<path class="st0" d="M454,39.3c1.3-0.7,2.5-1.5,4.6-2.7c-0.7,1.3-0.8,2.1-1.3,2.4c-0.8,0.5-1.8,0.8-2.7,1.2
	C454.3,39.8,454.2,39.6,454,39.3z"/>
<path class="st0" d="M123.7,163.9c-1.7,0-2.5,0-3.7,0c0.2-0.8,0.3-1.4,0.6-2.5C121.7,162.3,122.4,162.9,123.7,163.9z"/>
<path class="st0" d="M519.4,107.5c-0.2-1-0.3-1.6-0.4-2.3c1.1,0,2,0,3.6,0C521.3,106.1,520.5,106.7,519.4,107.5z"/>
<path class="st0" d="M154,102.1c0.1-1,0.2-1.5,0.4-2.5c1.1,0.7,1.8,1.1,3.2,2C156.1,101.8,155.2,101.9,154,102.1z"/>
<path class="st0" d="M154.7,95.5c0.2,1,0.3,1.5,0.5,2.3c-1.1,0-2,0-3.6,0C152.9,96.9,153.6,96.3,154.7,95.5z"/>
<path class="st0" d="M358,95c0.7,0.1,1.3,0.1,2.4,0.2c-0.6,1.2-1,2-1.9,3.7C358.2,97,358.1,96,358,95z"/>
<path class="st0" d="M531.6,48.6c-1,0.2-1.6,0.3-2.3,0.4c0-1.1,0-2,0-3.6C530.2,46.8,530.8,47.6,531.6,48.6z"/>
<path class="st0" d="M515.6,30.2c1.6,0,2.5,0,3.6,0c-0.1,0.8-0.2,1.3-0.4,2.3C517.6,31.7,516.9,31.1,515.6,30.2z"/>
<path class="st0" d="M166.3,95c0.6,0,0.9,0,1.4,0c0.1,0.5,0.2,1.1,0.4,1.8c-0.6,0.1-1.1,0.2-1.8,0.4C166.3,96.3,166.3,95.7,166.3,95
	z"/>
<path class="st0" d="M502.3,17c0.6,0,0.9,0,1.4,0c0.1,0.5,0.2,1.1,0.4,1.8c-0.6,0.1-1.1,0.2-1.8,0.4C502.3,18.3,502.3,17.7,502.3,17
	z"/>
<path class="st0" d="M526.4,58.1c0.8,0,1.5,0,2.4,0c0.1,0.5,0.2,0.9,0.4,1.9c-1.3-0.5-2.2-1-3.2-1.4
	C526.2,58.4,526.3,58.2,526.4,58.1z"/>
<path class="st0" d="M99.2,141.9c1,1.8,1.5,2.7,2,3.6c-0.2,0.2-0.4,0.4-0.6,0.5c-0.5-0.5-1.1-0.9-1.3-1.4
	C99.1,144.2,99.2,143.6,99.2,141.9z"/>
<path class="st0" d="M346.9,99c0,2.1,0,3,0,3.8c-0.1,0.1-0.3,0.2-0.4,0.3c-0.2-0.8-0.4-1.5-0.6-2.1
	C345.7,101.2,346.1,100.5,346.9,99z"/>
<path class="st0" d="M518.1,105.1c0,0.7,0,1.1,0,1.6c-1,0-2,0-3.7,0C516,106,517,105.6,518.1,105.1z"/>
<path class="st0" d="M174.1,133.9c-0.8,0-1.2,0-1.8,0c-0.1-0.5-0.2-1-0.3-1.5C173.3,131.7,174.2,131.7,174.1,133.9z"/>
<path class="st0" d="M334.2,113.7c1.2-1,1.8-1.4,2.6-2.1c0.2,1,0.3,1.4,0.4,2.1C336.4,113.7,335.7,113.7,334.2,113.7z"/>
<path class="st0" d="M387,60.3c-1.2,1-1.8,1.4-2.6,2.1c-0.2-1-0.3-1.4-0.4-2.1C384.7,60.3,385.4,60.3,387,60.3z"/>
<path class="st0" d="M352.8,85.4c0.1,1.5,0.2,2.4,0.3,3.4c-0.7,0-1.3,0-2,0C351.7,87.8,352.1,86.9,352.8,85.4z"/>
<path class="st0" d="M357.1,75.7c0-0.6,0-0.9,0-1.5c0.5-0.1,1.1-0.2,1.8-0.4c0.1,0.6,0.2,1.1,0.4,1.8
	C358.4,75.7,357.7,75.7,357.1,75.7z"/>
<path class="st0" d="M127.2,182.7c1.2-1,1.8-1.4,2.6-2.1c0.2,1,0.3,1.4,0.4,2.1C129.4,182.7,128.7,182.7,127.2,182.7z"/>
<path class="st0" d="M156,107.4c0.7-0.3,1.5-0.5,2.1-0.7C158.4,107.6,157.9,108,156,107.4z"/>
<path class="st0" d="M162.6,106.2c-0.2,0.5-0.6,1.2-1.2,2.6c-0.2-1.4-0.3-1.9-0.4-2.6C161.8,106.2,162.4,106.2,162.6,106.2z"/>
<path class="st0" d="M42.1,60c0,0.6-0.1,1.2-0.1,2c-0.7,0-1.2-0.1-1.9-0.1c0.6-0.9,1.1-1.6,1.5-2.4C41.8,59.7,41.9,59.8,42.1,60z"/>
<path class="st0" d="M519.3,44.5c0.4,0.4,0.9,0.9,1.3,1.3c-0.2,0-0.6,0.1-1.3,0.2C519.3,45.3,519.3,44.7,519.3,44.5z"/>
<path class="st0" d="M164.8,112c0,1,0,2,0,3c-0.2,0-0.3,0-0.5,0c0-1,0-2,0-3C164.5,112,164.7,112,164.8,112z"/>
<path class="st0" d="M385.1,68c0.5-0.7,1-1.3,2-2.7c0,1.5,0,2.1,0,2.7C386.4,68,385.7,68,385.1,68z"/>
<path class="st0" d="M159.8,108c0,1,0,2,0,3c-0.2,0-0.3,0-0.5,0c0-1,0-2,0-3C159.5,108,159.7,108,159.8,108z"/>
<path class="st0" d="M24.2,129.8c0-0.8,0-1.7,0-2.8C25.1,128.7,25.1,128.7,24.2,129.8z"/>
<path class="st0" d="M530.8,50.3c0.8-0.2,1.3-0.2,1.9-0.4c0.1,0.6,0.2,1.2,0.6,2.8C532.1,51.5,531.6,51,530.8,50.3z"/>
<path class="st0" d="M514.9,51.2c0,0.9,0,1.8,0,2.7c-0.2,0-0.3,0-0.5,0c-0.1-0.9-0.2-1.8-0.4-2.6C514.3,51.2,514.6,51.2,514.9,51.2z
	"/>
<path class="st0" d="M368.2,77.1c0-0.9,0-1.4,0-1.6c0.5,0.4,1.1,0.8,1.9,1.3C369.5,76.9,369,77,368.2,77.1z"/>
<path class="st0" d="M104.8,152.3c0.8-0.2,1.3-0.2,1.9-0.4c0.1,0.6,0.2,1.2,0.6,2.8C106.1,153.5,105.6,153,104.8,152.3z"/>
<path class="st0" d="M27.3,123.7c-0.8,0.2-1.3,0.2-1.9,0.4c-0.1-0.6-0.2-1.2-0.6-2.8C26,122.5,26.6,123,27.3,123.7z"/>
<path class="st0" d="M527.6,72.6c0.4,0.9,0.8,1.6,1.1,2.2C527.7,75.1,526.5,75.5,527.6,72.6z"/>
<path class="st0" d="M510.6,26.2c-0.2,0.5-0.6,1.2-1.2,2.6c-0.2-1.4-0.3-1.9-0.4-2.6C509.8,26.2,510.4,26.2,510.6,26.2z"/>
<path class="st0" d="M22.1,138.2c1,0,2,0,3,0c0,0.2,0,0.3,0,0.5c-1,0-2,0-3,0C22.1,138.6,22.1,138.4,22.1,138.2z"/>
<path class="st0" d="M523.1,49.8c-0.7,0-1.3,0-2,0c0-0.2,0-0.3,0-0.5c0.7,0,1.3,0,2,0C523.1,49.4,523.1,49.6,523.1,49.8z"/>
<path class="st0" d="M23.2,192.2c0.6,0,1.1,0,1.7,0c0,0.2,0.1,0.3,0.1,0.5c-0.5,0.1-1.1,0.3-1.6,0.4
	C23.3,192.7,23.3,192.5,23.2,192.2z"/>
<path class="st0" d="M127.3,180c0-0.7,0-1.3,0-2c0.2,0,0.3,0,0.5,0c0,0.7,0,1.3,0,2C127.7,180,127.5,180,127.3,180z"/>
<path class="st0" d="M96.9,161.8c-0.6,0-1.1,0-1.7,0c0-0.2-0.1-0.3-0.1-0.5c0.5-0.1,1.1-0.3,1.6-0.4
	C96.9,161.3,96.9,161.5,96.9,161.8z"/>
<path class="st0" d="M353.2,158.6c-0.3,1.2-0.5,1.8-0.7,2.4c-0.2-0.5-0.4-0.9-0.4-1.4C352.1,159.5,352.5,159.3,353.2,158.6z"/>
<path class="st0" d="M244.8,0c0,0.7,0,1.3,0,2c-0.2,0-0.3,0-0.5,0c0-0.7,0-1.3,0-2C244.5,0,244.7,0,244.8,0z"/>
<path class="st0" d="M72.8,146c0,0.7,0,1.3,0,2c-0.2,0-0.3,0-0.5,0c0-0.7,0-1.3,0-2C72.5,146,72.7,146,72.8,146z"/>
<path class="st0" d="M524.3,45c0-0.7,0-1.3,0-2c0.2,0,0.3,0,0.5,0c0,0.7,0,1.3,0,2C524.7,45,524.5,45,524.3,45z"/>
<path class="st0" d="M12.9,134.2c0,0.6,0,1.1,0,1.7c-0.2,0-0.3,0.1-0.5,0.1c-0.1-0.5-0.3-1.1-0.4-1.6
	C12.3,134.2,12.6,134.2,12.9,134.2z"/>
<path class="st0" d="M352.1,93.8c-0.7,0-1.3,0-2,0c0-0.2,0-0.3,0-0.5c0.7,0,1.3,0,2,0C352.1,93.4,352.1,93.6,352.1,93.8z"/>
<path class="st0" d="M345.2,74.2c0.6,0,1.1,0,1.7,0c0,0.2,0.1,0.3,0.1,0.5c-0.5,0.1-1.1,0.3-1.6,0.4
	C345.3,74.7,345.3,74.5,345.2,74.2z"/>
<path class="st0" d="M97.3,77c-0.1-0.6-0.1-1.3-0.2-1.9c0.2,0,0.4-0.1,0.6-0.1c0.1,0.7,0.3,1.3,0.4,2C97.9,77,97.6,77,97.3,77z"/>
<path class="st0" d="M160.9,84.2c0,0.6,0,1.1,0,1.7c-0.2,0-0.3,0-0.5,0.1c-0.1-0.6-0.2-1.1-0.4-1.7
	C160.3,84.2,160.6,84.2,160.9,84.2z"/>
<path class="st0" d="M29.7,77.8c1.2,0.3,1.8,0.5,2.4,0.7c-0.5,0.2-0.9,0.4-1.4,0.4C30.5,79,30.3,78.6,29.7,77.8z"/>
<path class="st0" d="M337.1,127.8c-0.7,0-1.3,0-2,0c0-0.2,0-0.3,0-0.5c0.7,0,1.3,0,2,0C337.1,127.4,337.1,127.6,337.1,127.8z"/>
<path class="st0" d="M28.9,120.2c0,0.6,0,1.1,0,1.7c-0.2,0-0.3,0-0.5,0.1c-0.1-0.6-0.2-1.1-0.4-1.7
	C28.3,120.2,28.6,120.2,28.9,120.2z"/>
<path class="st0" d="M514.9,57.2c0,0.6,0,1.1,0,1.7c-0.2,0-0.3,0-0.5,0.1c-0.1-0.6-0.2-1.1-0.4-1.7
	C514.3,57.2,514.6,57.2,514.9,57.2z"/>
<path class="st0" d="M159.9,116.2c0,0.6,0,1.1,0,1.7c-0.2,0-0.3,0.1-0.5,0.1c-0.1-0.5-0.3-1.1-0.4-1.6
	C159.3,116.2,159.6,116.2,159.9,116.2z"/>
<path class="st0" d="M108.8,115c0,0.7,0,1.3,0,2c-0.2,0-0.3,0-0.5,0c0-0.7,0-1.3,0-2C108.5,115,108.7,115,108.8,115z"/>
<path class="st0" d="M392.2,62.8c0-0.6,0-1.1,0-1.7c0.2,0,0.3-0.1,0.5-0.1c0.1,0.5,0.3,1.1,0.4,1.6
	C392.8,62.8,392.5,62.8,392.2,62.8z"/>
<path class="st0" d="M354.9,109.8c-0.6,0-1.1,0-1.7,0c0-0.2,0-0.3-0.1-0.5c0.6-0.1,1.1-0.2,1.7-0.4
	C354.9,109.3,354.9,109.5,354.9,109.8z"/>
<path class="st0" d="M344.9,104.2c0,0.6,0,1.1,0,1.7c-0.2,0-0.3,0.1-0.5,0.1c-0.1-0.5-0.3-1.1-0.4-1.6
	C344.3,104.2,344.6,104.2,344.9,104.2z"/>
<path class="st0" d="M437.1,111c0,0.6,0,1.2,0,2c-2.1-1.7-2.1-1.7-1-3C436.4,110.3,436.7,110.7,437.1,111z"/>
<path class="st0" d="M419.9,106.4c0.1,1.9,0.2,3.1,0.2,4.1c0.6,0.6,1.2,1.2,1.8,1.8c0,0.8,0,1.5,0,2.5c-0.9,0-1.7,0-2.8,0
	c0-1.8,0-3.7,0-6.3c-1.4,0.8-2.3,1.2-2.7,1.4c0.2,1.6,0.4,2.7,0.6,4.4c-0.9-0.8-1.2-1.1-1.6-1.4c-0.3,0.3-0.7,0.6-1.6,1.4
	c0.5-2,0.9-3.4,1.4-5.4C416.4,108.5,417.9,107.6,419.9,106.4z"/>
<path class="st0" d="M404.9,118.4c1.5-0.6,3-1.1,4.3-1.6c0.7,0.7,1.2,1.1,1.6,1.6c-1.7,0.9-3.4,1.8-5.4,2.9
	C405.3,120.2,405.1,119.4,404.9,118.4z"/>
<path class="st0" d="M432.4,125c-0.8,0-1.3,0-1.8,0c-0.4-0.8-0.8-1.6-1.3-2.7c0.8-0.8,1.8-1.7,3.3-3.1c0.3,1.4,0.5,2.3,0.7,3.2
	c-0.8,0.4-1.4,0.7-2.1,1C431.5,123.9,431.9,124.4,432.4,125z"/>
<path class="st0" d="M382.1,114.2c0-0.7,0-1.2,0-1.7c1.4-0.5,2.9-1,4.7-1.6c0.1,0.9,0.3,1.8,0.5,3.2c-1.1-0.3-1.9-0.6-2.7-0.8
	C383.8,113.5,383,113.9,382.1,114.2z"/>
<path class="st0" d="M402.7,113c0.3,1.6,0.4,2.1,0.5,2.6c-1.6,0.5-3.1,1-4.8,1.5C398.8,114.6,401.1,115.1,402.7,113z"/>
<path class="st0" d="M392.8,120.5c1.9-1.4,2.8-2.1,4.6-3.4c-0.9,2-1.2,2.9-1.7,3.9C395.1,120.9,394.6,120.8,392.8,120.5z"/>
<path class="st0" d="M386.9,132c0.2-1,0.3-1.4,0.4-1.8c2.8-1.1,0.9,2.5,2.6,2.8C388.9,132.7,388,132.4,386.9,132z"/>
<path class="st0" d="M394.3,108c0.6,0,0.9,0,1.4,0c0.1,0.5,0.2,1.1,0.4,1.8c-0.6,0.1-1.1,0.2-1.8,0.4
	C394.3,109.3,394.3,108.7,394.3,108z"/>
<path class="st0" d="M427.2,107.6c-0.1-0.1-0.5-0.5-1.3-1.3c1.1-0.2,2-0.3,2.9-0.4c0.1,0.2,0.3,0.5,0.4,0.7
	C428.6,107,427.9,107.3,427.2,107.6z"/>
<path class="st0" d="M392.7,128.8c0.6,0.4,1.1,0.9,2.1,1.7c-1.2,0.2-1.8,0.3-2.5,0.5c-0.1-0.7-0.2-1.1-0.3-1.5
	C392.2,129.3,392.5,129.1,392.7,128.8z"/>
<path class="st0" d="M426.9,124.6c1.5,0.3,2.9,0.8,1.6,2.8C427.8,126.3,427.4,125.4,426.9,124.6z"/>
<path class="st0" d="M407.8,113c-0.6,0-0.9,0-1.5,0c-0.1-0.5-0.2-1.1-0.4-1.8c0.7-0.1,1.1-0.2,1.8-0.4
	C407.8,111.7,407.8,112.3,407.8,113z"/>
<path class="st0" d="M393.3,111.7c-0.8,0.2-1.3,0.2-1.9,0.4c-0.1-0.6-0.2-1.2-0.6-2.8C392,110.5,392.6,111,393.3,111.7z"/>
<path class="st0" d="M405.3,107.2c0.9,0,1.8,0,2.7,0c0,0.2,0,0.3,0,0.5c-0.9,0.1-1.8,0.2-2.6,0.4
	C405.3,107.8,405.3,107.5,405.3,107.2z"/>
<path class="st0" d="M408.2,130.6c-0.3,1.2-0.5,1.8-0.7,2.4c-0.2-0.5-0.4-0.9-0.4-1.4C407.1,131.5,407.5,131.3,408.2,130.6z"/>
<path class="st0" d="M397.2,129.2c0.6,0,1.1,0,1.7,0c0,0.2,0.1,0.3,0.1,0.5c-0.5,0.1-1.1,0.3-1.6,0.4
	C397.3,129.7,397.3,129.5,397.2,129.2z"/>
<path class="st0" d="M405.9,135.4c0.3-1.2,0.5-1.8,0.7-2.4c0.2,0.5,0.4,0.9,0.4,1.4C407.1,134.5,406.7,134.7,405.9,135.4z"/>
<path class="st0" d="M429.9,100.2c0,0.6,0,1.1,0,1.7c-0.2,0-0.3,0-0.5,0.1c-0.1-0.6-0.2-1.1-0.4-1.7
	C429.3,100.2,429.6,100.2,429.9,100.2z"/>
<path class="st0" d="M384.1,98.2c0.6-0.1,1.3-0.1,1.9-0.2c0,0.2,0.1,0.4,0.1,0.6c-0.7,0.1-1.3,0.3-2,0.4
	C384.1,98.8,384.1,98.5,384.1,98.2z"/>
<path class="st0" d="M408.9,79c0.1,0.6,0.1,1.3,0.2,1.9c-0.2,0-0.4,0.1-0.6,0.1c-0.1-0.7-0.3-1.3-0.4-2C408.3,79,408.6,79,408.9,79z
	"/>
<path class="st0" d="M406.3,123.2c0.6,0,1.1,0,1.7,0c0,0.2,0,0.3,0.1,0.5c-0.6,0.1-1.1,0.2-1.7,0.4
	C406.3,123.7,406.3,123.5,406.3,123.2z"/>
<path class="st0" d="M437.3,118c0-0.7,0-1.3,0-2c0.2,0,0.3,0,0.5,0c0,0.7,0,1.3,0,2C437.7,118,437.5,118,437.3,118z"/>
<path class="st0" d="M391.8,105c0,0.7,0,1.3,0,2c-0.2,0-0.3,0-0.5,0c0-0.7,0-1.3,0-2C391.5,105,391.7,105,391.8,105z"/>
<path class="st0" d="M59.1,105.2c0.6-0.1,1.3-0.1,1.9-0.2c0,0.2,0.1,0.4,0.1,0.6c-0.7,0.1-1.3,0.3-2,0.4
	C59.1,105.8,59.1,105.5,59.1,105.2z"/>
<path class="st0" d="M119.6,94.9c-0.7,1.2-1.3,2.2-2.3,4c0-1.9,0-2.7,0-3.8C117.9,95.1,118.5,95,119.6,94.9z"/>
</svg>
