<?xml version="1.0" encoding="utf-8"?>
<!-- Generator: Adobe Illustrator 21.0.0, SVG Export Plug-In . SVG Version: 6.00 Build 0)  -->
<svg version="1.1" id="Layer_1" xmlns="http://www.w3.org/2000/svg" xmlns:xlink="http://www.w3.org/1999/xlink" x="0px" y="0px"
	 viewBox="0 0 476.8 278.3" style="enable-background:new 0 0 476.8 278.3;" xml:space="preserve">
<style type="text/css">
	.st0{fill:#FFFFFF;}
</style>
<path class="st0" d="M241.9,195.3c0-3.2,0-6.3,0-9.8c-0.5-0.5-1.2-1.2-2.1-2.1c0.2-0.4,0.5-0.9,0.8-1.4c-0.3-1.1-0.6-2.3-1-3.8
	c-1.1,0.2-2.2,0.4-3.5,0.7c0-0.6,0-1.4,0-2.2c-2,0.4-3.3-0.5-4.6-1.3c-1.9,2.3-3.9,4.7-5.9,7c-0.8-0.8-1.4-1.4-2-2
	c-1.1,0.5-2.1,1.1-3.6,1.8c-2.1,0-4.7-0.6-7,0.2c-2.3,0.7-4.4,0.7-6.6,0.9c-0.6,0.6-1.2,1.2-1.7,1.7c-2.2-0.4-4.2-0.8-6.8-1.3
	c-0.4,1-1,2.3-1.6,3.7c-0.3,0-0.6,0-1.1,0c-0.6,3.7-1.2,7.4-4.3,10.5c0,1.9,0,4,0,6.9c-0.8-0.7-1.2-1-1.5-1.3
	c-0.8,0.4-1.4,0.7-2.6,1.3c-0.2,1.3,0.2,3.2-1,4.6c-0.5,0-1,0-2.1,0c0.4,0.7,0.6,1.1,0.9,1.5c-0.3,0.5-0.7,1.2-1,1.7
	c0.5,0.6,0.8,0.9,1.4,1.6c-1.5,0.6-2.9,1.2-4.4,1.9c0.8,0.9,1.6,1.8,2.4,2.7c-0.1,0.1-0.3,0.3-0.4,0.4c-0.8-0.3-1.5-0.6-2.6-1.1
	c0,1.5,0,2.6,0,3.6c-1.1,0.7-2.1,1.2-3.1,1.9c0.7,1.4,1.4,2.7,2.1,4.2c-0.5,1.2-1.1,2.5-1.7,3.9c-0.8-0.5-1.5-0.8-2.2-1.2
	c-0.8,2.4,0.3,3.6,2.5,4.2c-0.4,1.9-1.9,2.9-3.1,3.5c-2.2-0.4-4.2-0.7-6.6-1.1c0,1.1,0,1.7,0,2.3c-0.3,0.4-0.8,0.8-1,1.3
	c-0.2,0.7,0.3,1.7-1,1.7c0-1.2-1-1.3-1.5-0.9c-0.8,0.7-0.9,1.6,0.5,1.9c0.4,1.9-0.7,3.4-1.6,5.3c-0.2-0.9-0.4-1.4-0.6-2.1
	c-0.7,0-1.5,0-2.6,0c-1.2-1.7-2.2-3.5-3.7-5c-1.8-1.8,0.4-3.7-0.2-5.6c0.7-0.7,2.4-1.6,2.4-2.5c0.1-1.8,1.3-2.5,2.7-4.3
	c-1.7,0.5-2.6,0.8-4.3,1.4c-0.3-0.4-0.8-1.1-1.7-2.3c2.5-1.1,2-4.4,5.1-5.1c0.4,1.2,0.7,2.2,1.2,4.2c2.1-4.1,3.8-7.2,5.7-11
	c-1.4,0.6-2.2,0.9-3.1,1.3c-0.5,0.8-1.1,1.8-1.9,2.9c-0.7-1.5-1.3-2.8-1.9-4.1c-0.9,0-1.9,0-2.9,0c-0.7,1-1.5,2.1-2.9,4
	c-0.4-1.5-0.6-2.4-0.9-3.2c-0.3,0.2-0.5,0.5-0.8,0.7c0.3-0.5,0.7-1,1.3-1.9c-1.2-0.7-2.3-1.4-3.5-2.1c0.1-0.2-0.3,0.4-0.9,1.1
	c0.6,0.4,1.4,0.9,2.3,1.5c-0.8,0.7-1.3,1.2-1.8,1.6c-1.5-0.3-3.2-0.7-4.7-1.1c-0.9,0.8-1.6,1.5-2.4,2.2c-0.2-0.7-0.4-1.2-0.8-2.2
	c-0.7,0.3-1.3,0.8-1.9,0.9c-0.7,0.2-1.6,0.2-2.8-0.4c1-0.2,2-0.4,3-0.6c-0.3-0.5-0.6-0.9-1-1.4c-0.6-0.3-1.2-0.5-1.8-0.8
	c0-0.8,0-1.6,0-2.7c1.3,0,2.6,0,4.4,0c-0.8-1.3-1.2-2.1-1.5-2.6c-1.7,0.3-3.2,0.6-5.1,1c0.2,1.8,0.4,3.6,0.6,5.7
	c-0.6-0.2-1.4-0.6-2.5-1c-0.6,0.3-1.6,0.7-2.6,1.1c-0.3-0.8-0.6-1.4-1-2.5c-0.3,0.9-0.5,1.5-0.8,2.6c-0.4-0.5-0.1-0.2,0.4,0.5
	c-1.3,0.2-2.4,0.3-3.8,0.5c-0.1,0.8-0.3,1.7-0.6,3.1c-0.9-1.2-1.6-2.1-2.4-3.3c-0.7,0.3-1.6,0.7-3,1.2c-0.2-1.1-0.3-2-0.4-2.9
	c-0.8-0.4-1.6-0.8-2.5-1.2c-1.3,1.6-3.3,0.6-4.5,0.8c-1.3-0.8-2.3-1.5-3.3-2.1c-0.1,0.2-0.3,0.3-0.4,0.5c0.3,0.4,0.5,0.9,1,1.7
	c-3.2-0.2-6.3,0.6-9-1.4c-0.5-0.3-1.2-0.7-1.7-0.6c-1.3,0.4-2.4,0.4-3.7,0.1c-1-0.3-2.4,0.6-3.6,0.9c-1.4,0.4-2.9,0.4-4,1.1
	c-1.3,0.8-2.1,2.3-3.7,2.8c-0.3-0.6-0.6-1.3-1.1-2.3c-1.1,0.9-1.9,1.6-2.8,2.3c-0.4-0.3-0.9-0.6-1.7-1.2c-0.9,1.2-1.6,2.2-2.5,3.3
	c-0.2-0.6-0.4-1.2-0.8-2.1c-1.4,0.6-2.7,1.3-3.9,1.8c-3.1-1.2-6.2-1-9.3,0.4c-0.2-0.7-0.4-1.2-0.6-1.8c-2.1,0.6-4.3,1.1-6.6,1.7
	c-0.1-0.7-0.1-1.1-0.1-1.2c0.9-0.8,1.5-1.5,2.2-2.1c-0.2-0.3-0.3-0.5-0.5-0.8c-1.1,0.4-2.2,0.9-3.3,1c-1.3,0.2-2.6,0-4.1,0
	c-0.6-0.9-1.1-1.8-1.8-2.8c-1.5,0.3-3.1,0.7-4.9,1c-1.1-1.3-2.1-2.5-3.6-4.1c-4.2-0.8-7.4-5.9-13.4-5.1c0.7-0.8,1-1.2,1.5-1.8
	c-1.1-0.6-2.1-1.1-3.2-1.6c-0.2,0.2-0.3,0.4-0.5,0.6c-1.6-2-2.8-4.5-4.8-5.9c-1.9-1.3-2.5-4-4.9-4c-0.8-1.6-1.1-3.3-2-3.9
	c-1.1-0.7-1.7-1.5-2.4-2.4C8.9,187,8,187.1,8,186.8c-0.9-4.3-4.4-7.6-4.2-12.3c0.1-2.3-0.8-4.6-1.3-7c-0.4-0.1-0.8-0.2-1.3-0.3
	c-0.1-0.3-0.4-0.6-0.4-0.8c0-2.5,0-5-0.1-7.5c0-0.7-0.5-1.4-0.8-2.2c0.2-0.2,0.5-0.6,1-1.2c-0.4-0.6-0.8-1.3-1.1-1.7
	c1.8-5.6,0.4-11.2,1-17.2c0.5-0.4,1.3-1,1.9-1.4c-0.2-3.3,0.3-6,1.9-8.5c1.6-2.5,2.3-5.4,3.8-8c1.3-2.4,2.6-5.2,3.6-8
	c0.7-1.9,2.7-3.4,2.7-5.9c0-0.2,0.4-0.5,0.7-0.7c2.2-1.3,3.6-3.2,3.5-6.2c0.6,0.6,0.8,0.8,1.1,1.1c0.2-0.1,0.4-0.1,0.7-0.2
	c1.9-0.7,0.4-2.8,1.7-3.8c1-0.8,2.4-0.9,2.9-2.7c0.7-2.1,3.2-3.2,4.4-5.1c0.7-0.6,1.6-1.1,1.9-1.9c0.8-1.7,1.9-2.9,3.7-3.3
	c0.7-1.4,1.4-2.8,2-4.1c-0.4-1.7-0.9-3.4-1.4-5.6c1.3-0.6,3-1.3,4.6-2.1c1.2,0.4,2.3,0.8,3.1,1.1c1.2-1.2,2.2-2.2,3.1-3.1
	c1-0.9,2-1.6,3-2.4c-0.4-0.4-0.7-0.8-1.2-1.3c0.7-1.3,1.3-2.6,2-3.8c-0.9-0.6-1.9-1.2-2.9-1.8c1-0.5,1.8-0.9,2.6-1.4
	c0.7,0.4,1.6,0.8,2.4,1.2c-0.4,1.8-0.7,3.4-1.1,5.1c0.2,0.1,0.5,0.2,0.7,0.3c0.2-0.4,0.3-0.8,0.5-1.1c0.4-0.5,0.7-1.1,1.2-1.5
	c0.5-0.3,1.1-0.4,2-0.7c-0.3-1.1-0.6-2.1-1-3.5c1,0.3,2.1,0.6,3.4,1c0.2-1,0.4-2,0.7-3c0.5,0,0.8-0.1,1.2-0.1c0.3,0.7,0.6,1.3,1,2
	c0.4-0.3,0.7-0.7,1.1-1c0.2,0.2,0.5,0.5,0.8,0.8c0.8-0.3,1.5-0.6,2.5-1.1c0-0.7,0-1.5,0-2.1c1-1,1.8-1.8,2.5-2.5
	c2.4-0.4,4.5-0.8,6.7-1.2c0.4,0.7,0.9,1.3,1.3,1.9c1.3-0.7,2.5-1.4,3.7-2c0.8,0.4,1.4,0.8,2.5,1.4c0.5-0.8,1-1.7,1.2-2
	c1.7,0.3,3.1,1,3.6,0.6c1.2-0.9,2.4-1.1,3.7-0.9c3.2,0.6,6-1.1,9.1-1c3.1,0,6-0.8,8.9-1.6c1.2-0.3,1.2,0.5,1.9,0.6
	c2.5,0.3,5.1,0.5,7.6,1c1.6,0.4,3.2,1.1,4.7,2c1.4,0.8,2.5,2,4,3.1c0.5-0.3,1-0.6,1.6-1c0.6,1.8,1.5,3.5,3.9,2.8c1,1,2,2,3,3
	c0.9,0,1.9,0,3.1,0c1,1.3,2.1,2.6,3.2,4c2.3-0.6,4.8-1.4,7.8-2.2c0.5,0.8,1,1.6,1.8,2.9c0.8-1.3,1.3-2.1,2-3.2
	c0.6,1.3,0.9,1.9,1.4,2.8c0.7-0.4,1.4-0.8,2-1.1c0.6,0.6,1.2,1.2,1.8,1.8c1.6,0,3.2,0,5.1,0c0.2,0.5,0.4,1.1,0.6,1.7
	c4.6,1.3,8.4,3.8,11.7,8.2c1.3,0.4,3.2,1,5.2,1.6c-0.7,0.7-1.3,1.4-2,2.1c1.6,0.6,3.2,1.1,4.6,1.6c0.6,1.8,1.2,3.4,1.9,5.3
	c1.3-0.9,2.2-1.6,3.2-2.3c0.4,0.4,0.8,0.8,1.1,1.1c0,1.5,0,3.1,0,5.4c-0.6-1.3-0.9-2-1-2.1c-0.6,0.3-1.3,0.8-1.8,1.1
	c0.3,1.9,1.4,2.3,2.7,2.6c0.6,0.2-0.1,3,1.8,0.9c0.9,1.3,2.3,0.9,3.6,0.9c1.2,0,2.3,0,3.4,0c3,1.9,2.1,5.5,4,8.6
	c-0.6,0.5-1.2,1.1-2.1,2c-1.1-1.5-1.9-2.5-3-4.1c0,1.8,0,3,0,4.2c0.6,0.2,1.2,0.4,1.8,0.6c-0.5,1.6-1,3-1.4,4.6
	c-0.4-0.3-0.7-0.6-1.3-1.1c-0.1,1.1-0.2,1.9-0.3,2.7c1.8,0.6,3.4,1.2,4.7,1.6c-0.8,1.6-1.5,3.1-2.4,4.8c-0.1,0-0.6,0.2-1.3,0.3
	c0.3,0.4,0.5,0.7,0.6,0.8c-1,1-2,2-2.6,2.6c0,3.5,0,6.2,0,8.9c-0.6,0.5-1.2,1.1-1.8,1.6c-0.5,6.2-3,11.7-5.4,17.6
	c1.4,2,1.6,4.8,4.5,6.8c0.7-2.4,1.4-4.4,2-6.4c0.4-0.1,0.9-0.2,1.1-0.3c1.5-4.9,3-9.6,4.5-14.4c-0.2-0.3-0.5-0.6-1.2-1.4
	c1.1-0.8,2.2-1.7,3.3-2.5c-0.5-0.7-0.8-1-1.2-1.5c0.8-1.5,1.5-3.1,2.3-4.5c-0.5-0.5-0.8-0.9-1.3-1.4c1.4-1,2.8-2.1,4.4-3.4
	c-1.2-0.8-2.2-1.6-3.5-2.5c0.5-1.1,1-2.2,1.7-3.7c0.7,1.1,1.4,2.1,2.1,3.2c0.4-0.1,0.8-0.1,1.4-0.3c-0.4-1.5-0.8-2.8-1.2-4
	c1.3-1.1,3.3-1.1,3.1-3.8c-0.6,0.4-1,0.6-1.4,0.9c-0.1-0.1-0.5-0.3-0.5-0.5c-0.1-1.1,0-2.2,0-4.5c0.8,1.8,1.2,2.5,1.5,3.1
	c0.4,0,0.7,0,1.1,0c-0.4-1.5-0.3-3.1,0.5-6c0.5,0,1,0,1.5,0c0.1-0.1,0.3-0.2,0.3-0.4c0.1-1.1,0.2-2.2,0.3-3.3c0.7-0.2,1.2-0.5,2-0.7
	c-0.8-0.4-1.5-0.7-2.4-1.1c0.4-0.7,0.7-1.4,1.1-2c-0.2-0.3-0.5-0.6-0.8-1c0.5-0.5,1-1,1.4-1.4c0.3,0.3,0.7,0.6,1.2,1.1
	c0.2-1.1,0.3-2,0.5-3.1c0.5,0.3,1,0.5,1.9,1c-0.2-1.4-0.4-2.6-0.6-3.7c1-0.7,2.3-1.7,3.5-2.6c0-1.2,0-2.2,0-3.2
	c2.7-3.5,6.5-3.7,10.8-3.6c1,1.4,2.1,2.9,3.3,4.5c-0.7,4.1,0.7,7.5,3.8,9.8c0.2,1.2,0.3,1.9,0.4,2.9c0.5-0.5,0.8-0.8,1.1-1.1
	c0.9,0.4,1.8,0.9,2.8,1.4c-0.7,0.3-1.3,0.5-2.3,0.8c0.5,1.2,1,2.4,1.5,3.8c0.9,0,1.7,0,2.8,0c-0.9,1.1-1.6,1.8-2.6,2.9
	c3.2,1.1,2.7,4.8,5.3,6.2c0,1.4,0,2.7,0,4.3c0.6,0.4,1.2,0.8,1.8,1.2c0.2,1.2,0.3,2.1,0.5,3.1c0.9,0.1,1.7,0.2,2.6,0.3
	c0,0.8,0,1.6,0,2.5c1.1,0.2,2,0.4,2.9,0.5c-0.2,1.8-1.3,2.7-3.1,3.6c1,1.1,1.8,2.1,3,3.4c0.5-0.9,1-1.7,1.4-2.6c2.6,0.6,4.7,1,7,1.6
	c-0.4,0.5-0.7,0.8-1.3,1.7c1.3-0.2,2.1-0.4,3.1-0.6c0,0.2,0.3,0.8,0.1,1.1c-0.4,1-0.9,1.9-1.5,3.3c-2,0.4-4.3,1.2-5.8,4.3
	c3.3-1.3,6-2.3,8.8-3.4c0.9-1.1,1.9-2.4,2.8-3.6c2,0.4,3.6,0.8,5.7,1.2c0-1,0-1.7,0-2.4c1,0.2,1.9,0.5,3.2,0.9c-0.4-1-0.7-1.8-1-2.5
	c0.3-0.4,0.5-0.7,0.9-1.2c-0.8,0-1.3-0.1-1.7-0.1c-0.5,0.9-0.9,1.7-1.4,2.9c-0.5,0.1-1,0.1-1.6,0.1c0.2-1.1,0.5-2.2,0.6-3.4
	c0-0.6-0.3-1.2-0.6-1.7c-0.9-1.5-1.9-2.9-3.1-4.7c1.1-1.8,2.4-4,3.8-6.2c1-0.8,2-1.6,3.2-2.5c-0.6-0.2-0.9-0.3-1.2-0.5c0-1,0-2,0-3
	c1.8-0.5,2.4,1.2,3.5,2c0.6-1,1.1-1.9,1.7-2.9c1.1,0,2.1,0,2.8,0c0.4-0.1,0.5-0.2,0.6-0.3c2.1-1.7,4.2-3.5,6.7-5.5
	c-1.2-0.2-2.1-0.3-3.1-0.5c-0.1-0.8-0.3-1.7-0.4-2.7c-0.9-0.1-1.6-0.2-2.6-0.3c-0.1-0.4-0.2-0.9-0.4-1.7c1.9,1.2,4-1.5,5.4,0.6
	c1-0.3,1.8-0.5,2.7-0.7c0.2,0.8-0.5,1.9,2.3,1c0,0.2-1.1,1.3-1.7,3.2c1.5-0.8,3-1.7,4.6-2.6c-0.7-0.7-1.2-1.2-2.9-0.7
	c-1.4,0.2-0.8-0.9-2.3-1c-0.5-0.4-1-0.9-1.8-1.5c1-1.4,2.1-3,3.1-4.5c0.8,0,1.4,0,2.4,0c0.1,1.2,0.2,2.4,0.3,3.7
	c0.6,0.4,1.2,0.8,1.9,1.2c0,1.4,1.1,1.1,1.8,0.9c1.2-0.4,2.3-1,3.3-1.6c0.6-0.3,1-1.3,1.4-1.3c5.5,0.1,8.7-4.7,13.5-6.1
	c1-0.3,1.8-1.3,2.7-1.9c0.1,0,0.4-0.1,0.5,0c1.8,1.5,3.2-0.7,5.1-1c-1.1-0.8-2.1-1.6-3.5-2.6c1.8-0.6,3.2-1.2,5.7-2.1
	c-0.6,1.7-0.9,2.5-1.2,3.3c0.3,0.3,0.8,0.8,1.4,1.4c0.2-0.6,0.4-1.2,0.6-1.7c3.9-1.4,8.2-1.8,11.9-3.8c1.6-0.9,3.6-1.5,5.4-1.4
	c3.1,0.1,5.9-1,8.7-2.1c1-0.4,2-0.9,3.1-1c1.5-0.2,3-0.2,4.5,0c1.5,0.2,3.3,1.3,4.5,0.8c1.4-0.6,2.7-0.7,4.2-0.8
	c3.7-0.3,5.6,0,8.6,1.4c0.8,0.4,1.8,0.6,3.1,1c0,0.6-0.1,1.6,0,2.5c0.1,0.9,0.4,1.8,0.7,2.7c-0.6,1.1-1.3,2.5-2.1,4.1
	c-0.5,0-1.3,0-2.1,0c-2.2,3.1-5.3,4.7-8.5,6.2c-1.1,0.5-2.2,1.2-3.3,1.7c-3.6,1.8-7.3,3.3-11.2,4.3c-0.9,0.2-1.7,0.7-2.6,1.1
	c1.8,2.6,3.1-0.9,5,0.2c-0.2,0.3-0.4,0.6-0.9,1.3c1.2,1,2.3,2,3.7,2.9c1.4,0.8,2,2.8,3,4.1c0.3,1,0.6,2.1,1.1,3.5
	c-0.5,1.1-0.8,3-2,4.1c-1.3,1.1-2.3,2.2-3,3.8c-2,0.5-6.4,4.9-5.4,6.1c0.7-0.3,1.4-0.6,2.7-1.1c-0.4,1.1-0.7,1.9-1,2.6
	c0.4,0.8,0.8,1.6,1.3,2.5c0.5-0.5,0.9-1,1.6-1.6c0-1.2,0-2.7,0-4.7c0.6-0.3,1.5-0.8,2.3-1.2c-0.7-1.2-1.1-1.8-1.4-2.5
	c0.9,0,1.7,0,2.9,0c1-2.3,2.1-4.7,3.2-7c0.4-1,0.7-2.3,1.5-2.8c3.3-2.1,5-6,8.6-7.7c0.7-0.3,1.6-0.2,2.3-0.4
	c0.7-0.2,1.4-0.5,2.2-0.8c1,0.6,2,1.2,3,1.8c0.2,0.5,0.4,0.8,0.4,1c0.4,3.4-0.8,6.6-1.5,9.9c-0.3,1.3,1.1,2.6-0.4,4.1
	c-0.7,0.6,0,2.6-0.1,3.9c-0.2,1.2-0.6,2.4-1,3.6c-0.3,1.2-1.2,2.5-0.9,3.5c0.4,1.3-1.9,2.1-0.4,3.3c-0.8,1.5-1.7,3-2.7,5
	c3.8-1.4,7.2-2.6,10.7-3.9c0.2,0.4,0.6,1.1,1.4,2.6c0.6-1.5,0.9-2.1,1.1-2.7c0.9,0.2,1.9,0.9,2.5,0.6c2.3-1.3,4.7-1,7.1-0.9
	c2.3,0.1,3.6-2,5.7-2.1c1.5-5.1,2.5-10.3,3.5-15.5c0.7-3.6,0.9-7.4,2.7-10.9c0.4-0.8,0.1-1.9,0.2-2.9c0.1-3,0.1-3,2-6.2c0-2,0-4,0-6
	c0.6-0.6,1.2-1.2,1.3-1.3c0.7-3.9,1.4-7.3,2.1-11c0.3-0.3,1-1.1,1.6-1.7c0.4-1.2-1.7-2-0.1-3.4c0.6-0.6,0.1-2.5,0.1-3.6
	c0.8-0.8,1.4-1.4,1.9-1.9c0.2-6.1,2.5-11.6,4.3-17.1c-1-0.4-1.6-0.6-2.4-0.9c0.7-1.6,0.9-3.5,2-4.5c1.7-1.5,2.7-3.4,3-5.3
	c0.7-3.8,2.6-6.9,3.8-10.5c-0.1-0.1-0.4-0.4-0.6-0.7c2.1-3.6,3.5-7.3,5-11.1c1.5-3.7,3.4-7.2,5.5-11.4c1.1-0.3,2.9-0.9,4.7-1.4
	c1,1.1,1.7,2,2.7,3.1c0.7,1.9-0.9,4.4,0.8,6.7c1.3,1.7-2.6,4.1,0.1,6c-0.3,1.3-1,2.5-0.9,3.7c0.6,5.1-1.4,10-1.1,15.1
	c-2.3,3.6,0.1,7.9-1.9,11.7c-0.7,1.4-0.1,3.6-0.1,5.4c-0.7,0.7-1.3,1.4-2,2.1c0.3,0.3,0.5,0.5,0.8,0.8c0.2,2.9-3.6,5.4-0.8,8.6
	c-0.3,0.9-1,1.7-1,2.6c0,3.9-0.6,7.6-2,11.2c-0.2,0.6-0.1,1.3,0,2c0.5,4.3-0.7,8.2-2,12.2c-2.3,7.4-2.1,7.4-1.4,15.4
	c0.2,1.9-0.8,3.8-1.1,5.8c-0.5,3.1-1.8,6.1-1.5,9.4c0,0.1,0.2,0.3,0.5,0.7c5.7-1.6,11.8-1.8,17.5-4.1c6.2,0.6,11.9-2.9,18.7-1.8
	c0.5,0.6,1.3,1.5,2.2,2.6c-0.4,1.3-0.9,2.7-1.4,4.3c-2.6,1.6-5.3,3.2-8.1,4.9c-4.1-0.5-7.9,0.9-11,2.8c-3-0.5-5.2,0.2-7.4,1.2
	c-0.5-0.3-1.2-0.5-2.8-1.3c1.3,1.9,2,2.9,2.8,4.1c0,0.7,0,1.7,0,2.7c-2,2.2-4.2,4.1-7.4,3.5c-0.7,0.7-1.3,1.3-1.7,1.7
	c-2.4,0.5-4.5,0.9-6.8,1.3c0,1.7,0,3.2,0,4.5c-0.8,0.8-1.4,1.4-2.1,2.1c-0.1,4.1,0.7,8.7-2.7,11.7c-1.5,8.5-4.1,16.3-6.8,23.5
	c-0.3,0.6-0.5,0.8-0.5,0.8c0.6,0.6,1.2,1.2,1.8,1.9c0,0.9,0,1.9,0,3.2c-0.6,0.5-1.5,1.1-2.5,1.8c-2.2,4-4.5,8.2-6.8,12.4
	c-0.7,1.4-1,2.9-1.7,4.3c-1.1,2-2.4,4-3.7,5.9c-0.2,0.3-0.9,0.3-1.6,0.4c0.5,0.8,0.8,1.5,1.2,2.1c-1.5,1.6-1.7,4.8-4.9,4.4
	c-1.8-2.1-3.6-4.1-5.4-6.2c-1.2,0-2.3,0-3.5,0c0.6-2.3,1.2-4.3,1.6-6c-0.4-1.7-0.7-3.2-1-5c-0.4,0.9-0.7,1.5-0.9,1.9
	c-0.6-0.4-1.3-0.8-2.3-1.4c1.4-1.5,2.5-2.7,3.6-3.8c0-1,0-2,0-3c-1.3,0.2-2.5,0.4-3.9,0.6c0-0.9,0-1.3,0-1.9c1.5,0,3,0,4.4,0
	c1.7-4.3,1.7-8.7,1.4-13.1c-0.1-1.3,1.9-2.4,0.2-3.6c1.6-1.1,0.8-2.7,0.9-4.1c0.1-1.4-0.3-3,1-4.1c-0.8-4.2,2-7.5,2.7-11.4
	c0.1-0.5,0.4-0.9,0.3-1.4c-0.4-4.1,1.7-7.5,2.8-11.5c-3.9-0.1-6.6,3.5-10.4,3c-0.3,0.8-0.5,1.4-0.8,2.2c-0.4-0.9-0.7-1.5-1-2.2
	c-2.5,0-4.3,3.9-7.3,0.9c-0.2,0.7-0.2,1.2-0.4,2.1c-1.8,0-3.7-0.2-5.6,0c-1.7,0.2-3.3,0.8-5.2,1.3c0.3,0.4,0.6,0.7,0.8,1.1
	c-0.9,0.6-1.9,1.3-3,2c1.4,0.6,2.7,1,4.1,1.6c-2.1,3.4-4,6.5-5.9,9.6c0.4,0.4,0.7,0.7,1.4,1.4c1.2,0,2.8,0,5.3,0
	c-1.2,1.1-1.8,1.6-2.5,2.2c-0.6-0.4-1.2-0.7-2-1.1c-0.2,0.4-0.4,0.9-0.8,1.8c0.3,0.4,1.1,1.4,1.7,2.2c-0.4,0.5-0.6,0.8-0.8,0.9
	c-2,0.3-4.2-0.6-6.4,1.2c0-1.3,0-2.2,0-3.2c0.6,0,1.2-0.1,1.9-0.1c0-1,0-1.9,0-3.4c-0.8,1.5-1.3,2.5-1.9,3.5c-0.5,0-1,0-1.8,0
	c-0.1,1.2-0.1,2.4-0.2,3.9c1,0,1.8,0,2.6,0c0.2,0.6,0.4,1,0.6,1.7c-2.7,0.5-5.2,1-7.8,1.6c-0.5,1-0.9,1.9-1.4,2.9
	c-0.7,0.4-1.3,0.9-2.4,1.6c1.3,1,2.5,1.8,3.7,2.8c-0.7,0.4-1,0.7-1.3,0.6c-0.6-0.2-1.1-0.5-2-1c-1.3,0.3-2.9,2.3-4.9-0.3
	c0,1.9,0,3.3,0,5.1c-2,0.3-3.8,0.5-6.4,0.9c-0.9,0.7-1.5,3.1-4.1,3.7c1.1,0.6,1.9,1,2.8,1.4c0.6-0.2,1.4-0.5,2.8-1.1
	c-0.3,1.5-0.3,2.5-0.7,3.3c-0.5,1-1.5,1.2-2.5,1.1c0.3-0.5,0.6-1,0.9-1.6c-1.5-0.4-3.1-0.7-5-1.2c-0.3,0.8-0.6,1.7-1.1,3
	c1.2-0.7,1.9-1.1,2.4-1.4c0.7,0.9,1.2,1.5,1.7,2.2c1.2,2.1,2,4.1-0.7,6.1c-0.9-1.1-1.8-2.2-2.5-3.1c-1.2-0.1-2-0.1-3.6-0.2
	c1.5-0.7,2.1-1,3-1.4c-0.4-0.7-0.8-1.4-1.2-2c-1.6,0.3-3,0.5-4.5,0.8c-0.7-0.8-1.3-1.5-2.3-2.8c1.5,0,2.2,0,2.9,0c0,0.1,0,0.2,0,0.4
	c1.3-0.4,2.5-0.8,3.7-1.1c-0.4-0.7-0.7-1.4-1.3-2.5c1.2-0.1,2-0.2,2.9-0.2c0.5-0.8,0.9-1.7,1.5-2.6c-0.6-0.2-1.1-0.4-2.1-0.8
	c2.6-0.7,4.9-1.2,7.8-2c-1-0.9-1.7-1.6-2.6-2.4c0.3-0.6,0.7-1.4,1-2.1c-0.4-1-0.7-1.9-1.3-3.7c1.1,1,1.5,1.3,1.8,1.6
	c0.5-0.6,1-1.3,1.6-2.1c0.1,1.4,0.1,2.7,0.1,3.9c2.6,1.1,3.5-1.1,4.9-2.3c-0.8-0.6-1.5-1.1-2.3-1.6c-0.6,0.5-0.9,0.8-1.3,1.2
	c-0.3-0.3-0.7-0.6-1.4-1.1c0.2-1.8,1.9-0.3,2.8-1.2c0-0.6,0-1.4,0-2.7c-1,0.5-1.6,1.4-2.6,2.2c-1-0.5-2.1-1-3.5-1.7
	c0.4-0.7,0.7-1.4,1.1-2.1c-1.2-0.6-2.5-1.3-4-2c0.8-0.3,1.4-0.5,2-0.7c-0.2-0.5-0.4-0.9-1-2c1.3,0.5,2,0.8,2.8,1.1
	c0.4-1.2,0.8-2.5,1.5-4.4c-0.5-0.2-1.2-0.5-2.1-0.9c-0.3,0.1-1.2,0.3-2,1c0-1.3,0-2.1,0-3.2c0.6-0.5,1.3-1.1,2.2-1.8
	c-1.1-0.5-2-1-2.9-1.4c-0.3,1.3-0.6,2.4-0.9,3.6c0.3,0.7,0.7,1.5,1.7,2.8c-0.9,0.3-1.8,1-2.9,1.9c0.2,0.3,0.5,0.6,1,1.3
	c-1.2,2-0.7,5.1-4,6.8c0,0.8,0.3,2.1-0.1,2.9c-0.4,0.9-1.1,1.6-0.9,2.6c-0.3,0.3-0.7,0.7-1,1c-2.1,1.4-0.5,3.2-1.1,5.1
	c2.5-0.1,3.2-1.2,3.1-3.1c0.7,0.4,1.3,0.9,2.2,1.5c-0.9,0.7-1.7,1.2-2.7,2c1,0.4,1.6,0.6,3,1c-1.1,0.4-1.9,0.6-2.6,0.9
	c0.2,0.2,0.4,0.4,0.6,0.6c-1.3-0.4-2.6-0.8-3.6-1.1c-1,1.1-1.8,1.9-2.7,3c-0.4,3.4-0.8,7.1-1.3,10.9c0.3,0.1,0.5,0.1,0.8,0.2
	c0.2-0.6,0.5-1.2,0.9-2.2c0.5,0.8,0.9,1.5,1.4,2.4c-0.3,0.6-0.9,1.7-1.5,3.1c-0.7-0.4-1.4-0.8-2.2-1.2c-0.5,0.9-1.1,1.8-1.9,3.1
	c-0.7,0.6-2.7-1.2-3.3,0.9c-1,0-2,0-3,0c0-0.7,0-1.3-0.2-2.2c0,0,0.3,0.3,0.5,0.6c0.9-0.6,1.7-1.3,2.6-1.7c1-0.5,2.1-0.8,4-1.4
	c-1.5-0.8-2.2-1.3-2.8-1.6c0.7-1.4,1.3-2.7,2-4.2c-0.9-0.3-1.5-0.4-2-0.8c-0.4-0.3-0.5-1-0.9-1.7c-0.6,3.2-1.1,6-1.7,9.6
	c-0.3,0.1-1.2,0.6-1.9,1.2c-1.8,0.4-1.8,0.4-1.2,2.2c0.5,0,1,0,1.5,0c-0.3,0.3-0.5,1-0.8,1c-1.7,0-1.2,1.2-1.2,2.4
	c0,0.1,0-0.2,0-0.5c-1,0.1-2,0.3-2.9,0.4c0,0.2,0,0.4,0.1,0.7c1,0,1.9-0.1,2.9-0.5c1.4-1.7,3.4-1.1,5-1.7c0-0.7,0-1.2,0-1.7
	c0.5,0,1,0,1.7,0c0.2,0.9,0.3,1.8,0.5,2.7c0.8,0.6,0.8,0.6,7.2-3.6c0.6,0.4,1.3,0.7,2.1,1.2c0.3-0.8,0.5-1.4,0.7-2.2
	c1.2,0,2.4,0,4.4,0c-1.3,0.6-1.9,0.9-2.6,1.2c0.4,0.6,0.8,1.3,1.1,1.9c-0.1,0.2-0.3,0.4-0.4,0.6c-0.5-0.3-1.1-0.6-1.8-1
	c-0.4,0.3-0.9,0.6-1.5,1c-0.3-0.2-0.6-0.6-0.9-0.8c-0.7,0.4-1.4,0.7-2.5,1.3c0,0.4-0.1,1.2-0.1,2.2c-0.7,0.6-1.6,1.4-2.7,2.3
	c-0.6,0-1.6,0-2.9,0c-0.5-0.8-1.2-1.9-2-3.2c-0.6,2.1-1.1,4.1-1.7,6c-1.3-0.4-2.2-1.2-3.1-2.5c-1.3-1.7-3.7-2.1-6.1-2.3
	c-0.2,0.6-0.4,1.2-0.7,2.2c-0.8-0.3-1.5-0.6-2.3-0.9c-0.4,0.7-0.8,1.5-1.2,2.4c0.3,0.4,0.7,0.9,0.9,1.3c-1.7,1.9-3.2,3.5-4.5,5.1
	c-1,0.1-1.8,0.1-3,0.2c0.6,1.1,1,1.7,1.3,2.4c-0.4,0.4-0.9,1.3-1.3,1.3c-2.4,0-3.8,0.8-3.6,3.4c-1.8,0.6-2,2.9-3.7,3.6
	c-0.2-0.6-0.5-1.2-0.6-1.6c-0.9,0.9-1.8,1.8-2.7,2.7c-0.4-0.6-0.9-1.3-1.3-1.9c-1.6,1.2-3.1,2.4-4.9,3.9c1.3,0,2.3,0,3.2,0
	c0,0.8,0,1.7,0,2.5c-2.6,1.3-5,2.9-5.3,6.7c-1.8-0.3-3.6-0.7-5.4-1c-0.3,1.5-0.6,3-0.9,4.7c0.7,0.5,1.8,1.3,3.7,2.6
	c-2.2,0.3-3.4,0.4-4.2,0.5c-0.9-0.9-1.5-1.6-2.7-2.9c0,1.7,0,2.5,0,3.2c-1.1,0.6-2.1,1.1-3.1,1.7c-0.6-0.3-1.3-0.7-2.3-1.2
	c-0.6,0.6-1.3,1.2-2.4,2.2c-2.6-0.3-5.7-1.4-8.5-0.9c-3.1,0.6-5.5-1.4-8.6-1.2c-0.1,0.8-0.3,1.7-0.4,3c-0.6,0-1.2,0-1.8,0
	c0-0.6-0.1-1.2-0.1-2c-0.7,0.1-1.3,0.1-1.9,0.2c0.1,0.7,0.1,1.1,0.1,1.7c0.7,0.1,1.3,0.1,1.9,0.1c-0.6,2.1-1.2,4.2-1.8,6.2
	c-0.1,0.3-0.5,0.5-0.9,1c-0.2-1.5-0.3-2.7-0.4-3.6c-1.9-1.9-3.7-3.7-5.8-5.7c-0.6,0.2-1.6,0.4-2.9,0.8c-2.2-1.1-0.7-3.6-1.4-5.5
	c-0.5-0.1-0.9-0.2-1.6-0.4c0.3-0.6,0.6-1.2,0.8-1.9c0.1-0.6,0-1.2,0-2.5c1.3,1.7,1.4,3.7,3.6,3.5c0.6-2,1.2-4,1.9-6.4
	c1.2,0.9,2.2,1.7,3.5,2.7c1.8-1.3,3.7-2.6,5.6-4c0.5,0.5,1.1,1.1,1.9,1.9c0.2-1.1,0.3-1.9,0.4-2.9c-1.1-0.2-2-0.3-3.3-0.5
	c0.3-0.8,0.5-1.5,0.9-2.3c-0.9-1.1-2-2.4-3-3.7c0.1-0.2,0.3-0.4,0.4-0.7c1.5,0.4,3.1,0.8,4.7,1.2c0.1,0.5,0.2,0.9,0.4,1.6
	c0.6-0.3,1.2-0.7,1.9-0.8c0.6-0.1,1.2,0,2.3,0c-2.8-2.4-2.2-6.4-6-7.4c1.2-1.5,1.6-3.1,3.7-2.3c-0.5,0.5-0.8,0.9-1.1,1.3
	c1.7,1.2,2.2-0.4,3.3-1.5c-0.9-1-1.8-2.1-2.8-3.2c-0.3,0.8-0.5,1.4-0.7,2c-0.8-0.4-1.6-0.7-2.5-1.2c0-0.7,0-1.4,0-2.5
	c0.4,0.2,0.7,0.3,1.4,0.6c0.6-0.3,1.5-0.7,2.1-1c-0.7-3.3-1.3-6.5-2.1-10.3c-0.3,1.5-0.5,2.5-0.7,3.5c-1.5-0.9-2.1-2.1-1.5-3.7
	c0.6-0.2,1.2-0.4,1.7-0.6c-0.4-1.7-0.8-3.4-1.2-5.3c-0.4-0.2-1-0.5-1.9-0.9c0.8-0.3,1.4-0.5,2.5-0.9c-1-0.5-1.8-1-2.2-1.1
	c0.5-1.8,0.8-2.8,1.1-3.7c-0.8-0.9-1.5-1.6-2.1-2.3C244.2,199.2,244.2,199.2,241.9,195.3z M256.4,183.8c-0.2-0.2-0.3-0.4-0.5-0.5
	c-0.6,0-1.2,0.1-2,0.1c0,0.7,0.1,1.2,0.1,1.9c0.9-0.6,1.6-1.1,3-4.5c-0.8,0.7-1.2,0.9-1.1,1.1c0.1,0.5,0.3,0.9,0.4,1.4
	C256.5,182.7,256.7,182.1,256.4,183.8z M163.4,183.8c0.2,0.2,0.3,0.4,0.5,0.5c0.6,0,1.2-0.1,2-0.1c0-0.7-0.1-1.2-0.1-1.9
	c-0.9,0.6-1.6,1.1-1.9,2c-0.7-0.3-1.3-0.7-5-0.5c0.2,0.2,0.4,0.4,0.6,0.7c1.4-0.8,2.7-1.6,4.1-2.4c0.1-0.1,0-0.4,0-0.7
	c-0.6,0-1.3,0-2.2,0c-0.7,0.7-1.6,1.6,0.6,1.9c0,0.6,0,1.2,0,2.6C162.9,185.1,163.4,184.7,163.4,183.8z M26,148.6
	c1.6-1.1,0.6-2.6,0.8-3.8c0,0-0.4-0.1-0.8-0.3c0,1.3,0,2.6-0.2,4c-0.9,1.2-0.9,1.2,0,2.8C25.8,150.2,25.8,149.2,26,148.6z
	 M273.5,224.1c1.5-0.3,2.8-0.8,2-3.1c-0.8,1.3-1.4,2.2-1.6,3.3c-0.3,0-0.7,0-1,0c-0.5-2.8-4-3.6-4.4-6.1c-0.5-3.1-3.5-4-4.5-6.7
	c0.7-0.5,1.5-1,2.6-1.7c0.3,1.4,0.5,2.5,0.8,4c2.1-1,3.9-1.9,5.6-2.7c-0.5-1-0.9-1.7-1.2-2.3c0.9-0.5,1.6-0.8,2.3-1.1
	c-0.2-0.5-0.3-1-0.5-1.4c-0.4,0.4-0.8,0.7-1.1,1c-0.8-1.3-1.7-2.6-2.5-3.9c2.4-0.2,4.9,0.7,7-1c0.2,0.9,0.5,1.9,0.7,2.8
	c-0.6,0.2-1.1,0.4-1.8,0.6c1.3,0.9,2.6,1.6,4.1,2.6c0-0.8,0-1.4,0-2c1.9-1.6,2.1-4.4,4.1-5.6c-0.6-1.7-1-3-1.5-4.3
	c-0.5-0.1-0.9-0.2-1.5-0.3c0-1.5,0-3,0-4.4c1-0.5,2-0.9,2.9-1.4c0.8,0.4,1.6,0.8,2.6,1.3c0.2-0.8,0.3-1.2,0.4-1.7
	c-0.7-0.3-1.4-0.7-2.3-1.1c1.8-3.8,4.5-6.9,7.1-10c-0.3-0.3-0.6-0.7-0.7-0.9c0.4-0.7,0.7-1.2,1-1.6c-0.9-1.2-1.6-2.2-2.3-3.1
	c0.6-0.7,0.9-1,1.8-2c-3.5,0-6,0-8.6,0c1.7-2,3.2-3.8,4.6-5.5c0.5,0.3,1,0.6,1.7,1c0.6-1.2,1-2.1,1.8-3.8c-1.7,0.8-2.7,1.2-4,1.9
	c-0.1-1.3-0.1-2.2-0.2-3c0.8-0.3,1.4-0.5,2.2-0.8c-0.6-0.5-1.1-0.9-1.6-1.3c-0.7,0.3-1.5,0.6-3,1.2c0.7-1.8,1.1-2.7,1.5-4
	c-0.5-0.5-1-1-1.5-1.5c-0.7,0.6-1.1,1-1.6,1.5c0.4,0.4,0.7,0.8,1.2,1.3c-1,1.9-1.9,3.8-3,5.8c0.2,0.2,0.5,0.5,0.7,0.8
	c-0.8,0.7-1.7,1.4-2.6,2.2c-0.2-0.1-0.6-0.4-1.2-0.8c-0.7,0.4-1.4,0.8-2,1.2c-1.6-1-3.1-2-4.9-3.2c0,1.5,0,2.7,0,3.9
	c0.7,0.2,1.3,0.4,1.8,0.5c-0.4,1.6-0.7,3-1.2,4.3c-0.1,0.2-0.5,0.3-1.5,0.7c-0.4-0.5-1-1.2-1.5-1.9c0.5-1.1,0.9-1.9,1.4-2.8
	c-0.6-0.3-1-0.5-1.4-0.6c-1.6,1.2-1.2,4-4.1,4.4c0.5,2.9,1,5.8,1.6,9.2c1.6-2.4,2.9-4.4,4.3-6.5c1.4,3.1-2.5,5.9,0,8.5
	c-0.8,1.2-1.6,2.3-2.3,3.3c-0.4-0.3-0.7-0.5-1.1-0.8c-0.5,1.3-1,2.4-1.7,4.1c2.1-0.3,3.6-0.5,5.2-0.7c0.5,1.1,1.6,2.6,1.2,4.5
	c-0.8,0-1.7,0-2.6,0c-0.5,0.7-1.1,1.4-1.6,2.1c0.5,0.7,0.8,1.1,1.7,2.4c-1.5-0.6-2.1-0.7-2.5-1c-0.5-0.6-0.7-1.4-1.1-2
	c-0.1-0.2-0.4-0.1-0.7-0.2c-0.8,1.7,0.1,2.8,1.6,4c1.3-0.4,2.8-0.8,4.3-1.2c0.2-0.1,0.5,0.3,0.8,0.4c0,0.3,0,0.7,0.1,1.1
	c-0.7,0.3-1.3,0.6-2,0.9c0,0.9,0,1.7,0,2.5c-0.5,0.6-1,1.3-1.5,1.9c-0.5-0.3-1-0.6-1.5-0.9c0.2-1.4-0.3-2.3-1.7-2.8
	c-0.4,0.9-0.9,1.9-1.3,2.8c-1.9,1.4-3.9,1.1-6,0.7c0-0.8,0-1.3,0-1.7c0.3-0.3,0.7-0.5,1-0.8c-0.3-0.4-0.7-0.8-1-1.2
	c0.2-0.9,0.5-1.7,0.7-2.8c-2.6-0.5,0.3-2-0.1-3.2c-0.5-1.5-0.5-3.1-0.6-4.7c-0.1-1.4,0-2.8,0-4.7c-0.8,0.7-1.2,1.1-1.5,1.4
	c-0.3-0.3-0.7-0.6-1-0.9c-0.4,0.9-0.9,1.7-1.3,2.5c1.2,0.8,0.8,2.2,0.8,3.4c-0.9,0-1.9,0-3,0c0.5,2.7,0.9,5.2,1.4,7.9
	c0.4,0.2,1,0.7,1.7,1.1c0.3,0.3,0.5,0.7,0.8,1c0.4-0.3,0.8-0.7,1.2-1c0.3,0,0.7,0,1,0c0,0.7,0,1.3,0,2c-0.5,0.3-1,0.6-1.6,0.9
	c-0.3-0.3-0.7-0.6-1.5-1.3c0.5,3.4,1,6.3,1.4,9.2c0.5,0.2,1.1,0.3,1.7,0.5c-0.5,0.5-0.8,0.9-0.8,0.9c0.4,2.7,0.7,5,1,7.5
	c0.3,0.3,0.8,0.7,1.4,1.4c0.2-1.5,0.4-2.9,0.7-4.8c2.1,1.5,2.7,3.4,3.2,4.9c0.9,2.7,0.7,5.6-0.7,8.2c1.8,1.8,4.9,2.2,4.7,5.4
	c-0.5,0.1-0.9,0.2-1.2,0.3c-1.8,2.5,1.3,3.3,1.8,5.3c-0.7,1-1.4,2.1-2.4,3.8c3.4-0.9,4.6-3.7,6.5-5c1,0,1.8,0,2.2,0
	c-0.2,1.6-0.4,3.1-0.6,4.4c2.2,0.5,4,0.9,5.7,1.3c-0.1-1-0.1-1.9-0.2-2.9c-1.1,0.3-2.2,0.7-3.6,1.1c0.5-2.2-0.7-4.2,0.7-5.2
	c-0.7-1-1.5-2.1-2.3-3.2c-1.3,0.5-2.3,0.9-3.3,1.4c0-0.5,0-1,0-1.5c-0.7-0.3-1.3-0.6-2-0.9c0-0.9,0-1.7,0-2.5c1.6-0.4,2.2-1.4,2-3
	c0-0.3,0-0.7,0-1c-0.1-1.7,0.7-3,2-4c0.1,1,0.2,1.9,0.3,2.9c0.2,0,0.5,0,0.7-0.1C273.9,226.2,273.9,225.3,273.5,224.1z M146.6,165.5
	c1.4,1.3,2.1,3,4.2,2.4c-1.3-0.7-1.4-3-2.9-0.6c-0.6,0-1.2,0-2,0c0,0.8,0,1.4,0,2c-0.5,0-1,0-1.7,0c-0.2-1-0.4-2-0.6-3.1
	c-1-0.5-1.8-0.9-2.6-1.4c-0.7-0.4-1.5-0.8-2.5-1.4c1.3-1.8,3.1-0.6,4.6-1.6c-0.3-1.6-0.7-3.4-1.1-5.5c1.3,0,2.5,0,3.8,0
	c0.2-1.6,0.3-2.8,0.4-3.8c1.2,0.4,2.3,0.6,2.7,0.8c2.7-1.9,4.9-3.5,7.2-5.1c0,1,0,1.9,0,4c1.3-2.1,2-3.4,3.3-5.6
	c-1.8,0.9-2.6,1.3-3.5,1.7c-0.4-0.3-0.8-0.8-1.3-1c-3-0.8-5.7-2-7.8-4.8c2.2-0.4,4.1-0.8,6.2-1.1c0,1.2,0,2.4,0,3.7
	c0.3-0.2,0.6-0.5,0.9-0.7c0.1,0.7,0.2,1.4,0.3,2.1c0.2-0.2,0.5-0.3,0.7-0.5c-0.4-0.9-0.7-1.8-1-2.5c0.3-1.2,0.6-2.1,1-3.6
	c-1.1,0.8-1.5,1.2-2.1,1.4c0-1.3,0-2.6,0-4c-0.8,0.4-1.2,0.7-1.7,0.9c-0.7-2-0.3-3.3,1.7-3.9c0,0.6,0.1,1.2,0.2,2.1
	c0.7-0.1,1.3-0.1,1.9-0.2c-0.1-0.7-0.1-1.1-0.1-1.7c-0.7-0.1-1.3-0.1-1.9-0.1c-0.3-0.5-0.6-1-0.9-1.6c0.3-0.3,0.6-0.7,0.8-1
	c-0.9-0.5-1.7-0.9-2.6-1.3c-0.9,0.9-1.9,1.8-2.5-0.4c1.1-0.7,2.2-1.4,3.5-2.3c-1.8-1-3.3-1.8-5-2.8c-0.7,0.9-1.2,1.7-1.9,2.5
	c-1.8-2.9,1.8-5.4,0.1-8c-1.5-0.1-3.1-0.2-4.8-0.3c0-1.4,0-2.6,0-3.9c-0.6,0.5-0.9,0.8-1.3,1c-0.6-1-1.3-2-1.8-2.7
	c-1,0.3-1.8,0.6-2.6,0.8c0.4-1.4,0.7-2.4,0.7-2.4c-0.6-1.4-0.9-2.1-1.2-2.7c-0.7,0.5-1,0.8-1.4,1c-1-1.5-1.9-2.8-2.7-4
	c-1.4,1.2-2.5,2-3.6,0c0.3-0.3,0.7-0.5,1-0.8c-0.3-0.4-0.7-0.8-1-1.2c-0.4-0.3-0.8-0.9-1.3-1c-2.1-0.1-4-0.2-4.9-2.6
	c-0.2-0.5-1.3-1-2-1c-2.7,0-4.6-1.9-6.8-2.8c-1.8-0.7-3.7-1.8-5.8-1.6c-2.2,0.2-4.1-0.4-5.6-1.9c-4.9-0.5-9.5,0.6-14.1,1.9
	c-0.4-0.3-0.7-0.6-0.9-0.7c-2.8,1.2-5.3,2.3-8.1,2.9c-2,0.4-4.3,0.7-5.9,2.7c-0.8,0.9-2,1.5-3.1,2.1c-3.5,1.9-7.1,3.6-9.7,6.7
	c-0.8,0.9-1.9,1.4-2.8,2.1c-0.1,0.8-0.1,1.5-0.1,1.9c-4.1,1.6-5.7,5.4-7.8,8.4c-1.3,1.9-3.8,3.4-4,5.7c-0.2,2.2-1.6,3.1-2.7,4.3
	c-0.8,0-1.6,0.1-2.8,0.1c0.6,1.1,0.9,1.8,1.3,2.5c-2.7,2.4-1.6,5.9-1.9,8.7c-2.9,4.1-2.3,8.2-1.2,12.6c-0.5,0.5-1.1,1-2,1.8
	c1.2,0.2,2.1,0.4,3,0.5c1.1,1.1,2.2,2.2,3.2,3.2c0.1,1.1,0.1,2.2,0.2,3.4c2.9-0.1,2.6,3.1,4.4,4.1c0.6,0,1.3,0,2.3,0
	c0.8,0.9,1.7,2.1,2.4,3c0.7,0,1.1-0.1,1.4,0c1.1,0.4,2.3,0.9,3.2,1.3c0.2,0.7,0.3,1.1,0.4,1.7c2.4-0.3,4.3,0.6,6.3,1.8
	c2,1.1,4.6,1,7.4,1.5c1,0.6,2.4,1.5,3.8,2.4c1.4-1.8,2.2,1.1,3.8,0.4c1.2-0.5,3,0.7,4.5,0.8c1.5,0.1,3.2,0.5,4.5-0.9
	c4.6,2.2,9.4,0.2,14.2,1.1c0.5-1,0.9-1.9,1.2-2.7c0.3-0.8,0.5-1.6,0.6-1.9c-0.7-0.9-1.2-1.4-2.2-2.6c2.4,0,4.1,0,5.7,0
	c-0.7,0.5-1.3,1.1-2.3,1.8c0.5,1.4,1,2.8,1.6,4.2c1.8,0,3.5,0.1,5.1,0c1.7-0.2,3.6-0.2,5-1.1c1.3-0.8,2.6-0.3,3.9-0.7
	c1.6-0.4,3.4-0.6,5-1.2c1.5-0.5,3-0.9,4.5-1.3c0.3-0.6,0.5-1.3,0.8-2c1.1,0.6,1.7,1,2.1,1.2c3-0.8,5.6-1.5,8.4-2.3
	c-0.1-0.6-0.2-1.1-0.3-1.2c-1,0.1-1.9,0.3-3.3,0.5c0.8-1.7,1.4-2.8,1.8-3.7c1.7,0.6,3.2,1.6,4.8,1.7c1.5,0.1,3.5,1.1,4.8-0.9
	c0.6,0,1.2,0,2,0C147.9,168.5,147.9,167.9,146.6,165.5z M292.9,160.3c1.8-1.1,0.9-2.6,0.8-4c-1.1,0-2,0-6.6,1.1
	c3.7-1.4,3.7-1.4,3.5-2.9c-0.5,0.2-0.9,0.5-1.4,0.7c-0.2-0.7-0.4-1.2-0.8-2.2c-0.5,1.5-0.9,2.8,2.5,3.3c0.5,0.6,1,1.2,1.3,1.9
	C292.6,158.8,292.7,159.6,292.9,160.3c-0.6,0-1.2,0.1-2,0.1c0.1,0.7,0.1,1.3,0.2,1.9c0.7-0.1,1.1-0.1,1.7-0.1
	C292.8,161.5,292.9,160.9,292.9,160.3z M184.5,170.4c1-0.1,1.6-0.1,2.7-0.2c-0.6-2.2-1.1-4-1.7-6.2c-1.7,2.1,0.3,3.3,0.4,4.7
	c-0.5,0.6-0.9,1-1.2,1.8c-0.9,1.2-0.9,1.2,0,2.8C184.8,172.2,184.8,171.2,184.5,170.4z M351.7,157.3c-0.2,0-0.3,0-0.5,0
	c-0.3,1.3-0.7,2.6-1.1,4.1c0.6-0.1,1.2-0.1,1.9-0.2c-0.1-1.4-0.2-2.6-1.1-3.8c-0.5-1.4-1-2.7-1.8-4.8c-0.9,1.5-1.5,2.4-2,3.3
	c0.5,0.5,0.9,1,1.4,1.4C349.2,157.3,350.1,157.3,351.7,157.3z M232.2,146.3c0.1,0.2,0.1,0.3,0.2,0.5c0.3-0.8,0.6-1.6,0.9-2.4
	c0.6-1,0.6-2.5,0.6-3.9c0-1.4-0.1-2.7-0.2-4.1c-0.2,0-0.3,0-0.5,0c-0.4,3.3-0.7,6.6-1.3,10.7c0-0.3,0-0.6,0-0.9
	c-0.7,0.1-1.3,0.3-2,0.4c0,0.2,0.1,0.4,0.1,0.6C230.6,147.2,231.3,147.2,232.2,146.3z M255.4,173.8c-0.2,0.2-0.4,0.3-0.5,0.5
	c0,0.6,0.1,1.2,0.1,2c0.7,0,1.2-0.1,1.9-0.1c-0.6-0.9-1.1-1.6-5.3,2c0-2.7,4.6-3.3,2.9-7c-1.4,1.8-2.7,3.5-3.9,5.2
	c-0.5-0.4-0.8-0.7-1.3-1.1c-0.2,0.6-0.3,1-0.4,1.5C249.7,177.2,250.5,177.6,255.4,173.8z M346.9,135.3c2.6-0.6,1.7-3.3,2.7-4.8
	c-1.6-1.1-1.6-1.1-3.9-0.7c0.4,0.9,1,1.7,1.2,2.5c0.2,0.9,0,2-1.1,5.4c0.8-0.7,1.1-0.9,1.1-1c-0.1-0.5-0.3-0.9-0.4-1.4
	C346.3,135.9,346.1,136.5,346.9,135.3z M233.7,132.3c-0.3,0-0.6,0-0.9,0c0.1,1,0.3,2,0.4,2.9c0.2,0,0.4,0,0.7-0.1
	c0-1-0.1-1.9-0.9-2.9c0.1-1.3-0.4-2.6,1-3.5c-0.1-0.1-0.3-0.2-0.3-0.4c-1.5-3.9,0-8.1-0.9-12.1c-0.3,0.3-0.7,0.5-0.7,0.6
	c0.3,2-1,4-0.1,6.1c0.7,1.6-1.8,3.2-0.2,5c-0.9,1.5,0.9,2.8,0.3,4.2c-0.6,0-1.2,0.1-2.1,0.2c0.1,0.7,0.1,1.3,0.2,1.9
	c0.7-0.1,1.1-0.1,1.7-0.1c0.1-0.7,0.1-1.3,0.1-1.9C232.2,132.3,232.6,132.3,233.7,132.3z M212,154.7c-2.1,1.4-2.4,3.9-3.4,6.7
	c1.2-0.6,1.8-0.9,2.2-1.1c1,0.4,1.8,0.8,2.9,1.2c0.1-1.6,0.1-2.7,0.2-3.5c0.8-1.8,3.1-2.3,2.9-4.5C215.3,153.9,214,154.2,212,154.7z
	 M124.9,188.3c-0.2,1.8,0.8,2.7,2.6,3.2c0.2-0.6,0.3-1.2,0.5-1.7C126.8,189.3,125.9,188.8,124.9,188.3c0-0.6-0.1-1.2-0.1-1.7
	c-1.8,0-3.3,0-5,0c0,1.7,0,3.1,0,4.9c-1.1-0.4-1.9-0.7-2.8-1c0,0.7,0,1,0,1.4c1.8,0.5,3.5,1,5.3,1.6c0.7-0.8,1.3-1.5,1.7-2
	c-0.5-1.1-0.9-1.9-1.4-3C123.7,188.4,124.3,188.3,124.9,188.3z M350.9,136.3c0.7,0.3,1.3,0.7,1.9,1c0.1,0.7,0.3,1.4,0.2,1
	c0.5-0.1,1.2-0.3,2-0.4c-0.1-0.2-0.2-0.3-0.3-0.5c-0.6,0-1.2-0.1-1.8-0.1c0.5-0.7,1-1.3,1.4-1.9c0.6,0.4,0.9,0.7,1.5,1.1
	c0.1-1.5,0.1-2.6,0.2-3.5c1.1-0.8,2-1.4,3.2-2.3c-1.3-0.8-2.3-1.3-3.3-1.9c0.7-0.3,1.4-0.6,1.9-0.9c0-0.9,0-1.7,0-2.6
	c-1.4,0.9-2.5,1.8-3.6,2.5c0.3,0.5,0.6,1.1,0.8,1.4c-1.5,2.5-2.7,4.8-3.5,7.6C351.2,136.6,351.1,136.5,350.9,136.3
	c-0.6,0-1.2,0.1-2,0.1c0,0.7,0.1,1.2,0.1,1.9C350,137.7,350.7,137.3,350.9,136.3z M217.9,148.3c0.8,1.3,1.7,2.6,2.5,3.9
	c0.7,0,1.5,0.1,1.7,0.1c0.9,1.2,1.6,2.1,2.2,2.9c0.2-0.1,0.4-0.3,0.7-0.4c-0.4-0.9-0.8-1.9-1.2-2.8c1.6-2,3.4-3.7,2.9-6.7
	c-2.6,1.6-4.6,4.4-7.9,2c0-0.7-0.1-1.3,0-2c0.1-0.6,0.5-1.2,1-2.4c-1.5,0.7-2.4,1.1-3.4,1.5c-0.4-0.8-0.7-1.5-1-2.2
	c-1.4,1.4,0,2.5,0.2,3.8c-0.9,0.1-1.8,0.3-3,0.5c0.8,2.4-2.2,4.3-0.2,6.8C213.9,151,215.3,149,217.9,148.3z M202.6,173.5
	c0.2,0.3,0.5,0.7,0.7,1c3.2-1.5,6.3-3,9.5-4.6c-0.7-0.8-1.4-1.7-2.1-2.4c0.5-1,0.9-1.8,1.4-2.9c-1.2-0.2-2.1-0.3-3-0.5
	c-0.2-0.6-0.4-1.2-0.7-1.9c-0.6,0.5-1,1-1.6,1.5c0,1.3,0,2.7,0,4.3c-0.6,0.1-1,0.2-1.7,0.3c-0.1,0.8-0.1,1.8-0.5,2.5
	C204.2,171.9,203.3,172.7,202.6,173.5z M167.9,174.3c-0.6,0.1-1.2,0.1-1.9,0.2c-0.1,1-0.2,1.8-0.3,2.5c-0.6,0.2-1.2,0.4-1.8,0.7
	c0,0.5,0.1,1,0.1,1.6c0.8-0.4,1.4-0.7,2-1c0.8,0.5,1.4,0.9,1.9,1.2c1.3-1,2.5-1.8,4-2.9c0-0.1-0.2-0.9,0-1.4c0.5-1,1.3-1.8,1.9-2.7
	c0.1-0.2-0.1-0.6-0.3-1c-0.5,0.3-0.9,0.5-1.5,0.8c0-1,0-1.9,0-2.8c0.9,0.3,1.7,0.6,2.6,1c0-1.7,0-2.9,0-4.3c-3.5,0.8-4,4.5-6.8,5.7
	C167.9,172.7,167.9,173.5,167.9,174.3z M365,82.1c0-0.3-0.1-0.7-0.1-1c-1.5,0.4-3,0.8-4.4,1.2c-0.6-0.4-1.1-0.7-2-1.4
	c-0.6,1-1.1,1.8-1.3,2.2c-2.5,0.3-4.3,0.6-6.2,0.8c-0.1-0.1-0.3-0.3-0.9-0.9c-0.6,0.8-1.1,1.7-1.4,2c-3.5,0.6-6.5,1-9.5,1.5
	c-0.5,0.5-1.1,1.1-1.7,1.7c-1.6,0.3-3.6-0.6-4.4,1.9c1.8,0,3.6,0,6.1,0c0.2-0.3,0.7-1.2,0.9-1.6c9-0.8,16.8-4.2,24.2-7.1
	c1.9-0.2,3.3-0.3,4.6-0.4c0-0.7,0-1-0.1-1.3C367.1,78.4,366,79.6,365,82.1z M434.9,65.3c-0.7,0-1.3,0-2,0c-0.5-0.7-1-1.3-1.6-2.2
	c-1,2.9,0,5.4-1.2,8.1c-1,2.3,0.2,5.5-2.1,7.6c-0.3,2.2,0.6,4.6-1.1,6.6c1.1,2.1-1.3,3.9-0.5,6.3c0.6,1.8-1,4.3-1.5,6.5
	c-0.5,2.2-0.8,4.4-1.2,6.8c-0.5,0.5-1.1,1.2-1.8,1.9c0.3,0.4,0.7,0.8,1,1.2c-1.2,2.9-2.3,5.9-2.1,9.2c0.2,3.1-2.9,5.7-1.8,8.8
	c1.6-0.3,3.1-0.6,4.3-0.8c1-1.5,1.9-2.7,2.8-4.1c-1-2.2-1.9-4.3-2.9-6.5c0.2-0.5,0.7-1.3,1.1-2.1c0.3,0,0.7,0,1.2,0
	c0.2,1,0.4,2,0.7,3.3c2.1-4.8,1.7-9.7,2.4-14.4c0.7-4.9,2.5-9.6,2.3-14.6c-0.2-4.8,2.9-9.1,1.7-14.9c0.5-0.4,1.2-0.9,1.8-1.3
	c-0.8-0.1-1.7-0.3-2.7-0.4c0.2-0.8,0.3-1.2,0.5-1.8c0.5,0.4,0.8,0.7,0.6,0.5c0.9-0.9,1.7-1.7,2.5-2.5c0-0.1-0.2-0.5-1,0
	c3.1-2.8,4.9-5,4.6-8.5c-0.1-0.9,0.5-1.8,0.7-2.7c0.9-4,2.7-7.8,2.3-12c-0.1-0.7-0.2-1.4,0-2c1.4-4.1,1.6-8.4,2-12.7
	c0.1-0.7-0.2-1.4-0.3-2.5c-1,3.1-1.7,5.6-2.8,8c-0.9,2-1.5,4-1.9,6.2c-0.7,3.5-0.7,7.3-4.1,9.9c0.2,1.6,0.5,3.3,0.8,5.2
	c-0.5,2.1-2.1,4.2-1.4,6.9c0.7,0.2,1.2,0.4,1.7,0.6C435.4,63.6,435,64.4,434.9,65.3z M153.9,204.3c1.6,0,3.3,0,4.7,0
	c0.6,1.9,0.2,3.1-1.4,3.9c-0.2-0.2-0.5-0.5-0.9-0.9c-0.6,0.6-1.2,1.3-1.8,2c0.6,1.5,1.1,2.8,1.6,3.9c1.6,0.3,3,0.5,4.7,0.7
	c1.1-0.5,2.6-1.2,4-1.8c1.1,0.9,1.9,1.6,2.5,2.1c0.8-1.7,1.6-3.1,2.2-4.3c-0.3-0.7-0.6-1.3-0.7-1.7c1.2-1.4,2.3-2.6,2.9-3.2
	c0.6-2.4-2.3-3.7-0.1-5.6c0.9,0.4,1.9,0.8,3.1,1.3c0-1.3,0-2.2,0-3.1c-1-0.2-1.9-0.3-3-0.5c2-1.5-0.8-3,0.8-4.7c0.2,0,0.9,0.1,1.5,0
	c0.6-0.1,1.2-0.5,2-0.9c-0.1,0.8-0.2,1.2-0.2,1.7c-1,0.2-1.9,0.4-2.9,0.5c1,0.8,1.8,1.6,2.8,2.4c3-2.9,1.1-8.6,5.3-11.2
	c0-1.5,0-2.8,0-3.6c1.2-1.9,2.2-3.5,3.2-5.1c-0.7-0.8-1.1-1.4-2-2.4c-0.2,3.1-1.4,5.1-3,7c-1.8,2.2-4.9,4-4.3,7.6c-0.3,0-0.7,0-1,0
	c-0.8,0.6-1.4,1.3-2.3,1.7c-0.8,0.4-1.8,0.4-3,0.6c0.4,1.2,0.7,2.3,0.9,3.3c-1.3,0.5-3,1.1-4.7,1.8c0.4,0.6,0.7,0.9,1,1.3
	c-0.8,0.3-1.3,0.5-1.3,0.5c-1,1.9-1.7,3.2-2.8,5.2c0.2,0.8,0.5,2.3,0.9,3.8c-0.4,1.2-0.8,2.5-1.6,5c-0.1-2.1,0-3-0.2-3.9
	c-0.2-0.9-0.7-1.7-1.1-2.5c0.4-0.5,0.8-0.8,1.1-1.2c-0.7-0.3-1.4-0.6-2.2-1c0.3-0.8,0.6-1.6,1-2.5c-0.8,0.1-1.3,0.2-1.7,0.3
	c-0.2,1-0.4,2-0.6,3.2c-0.9-0.5-1.6-0.9-2.3-1.3c-0.4,0.6-0.9,1.3-1.3,1.5c-1.2,0.7-2.1,1.2-3.1,1.8c0.1,0.2,0.1,0.4,0.2,0.7
	c1-0.1,1.9-0.2,2.9-0.2C153.9,205.3,153.9,204.8,153.9,204.3z M126.9,65.3c-0.4-1.2-1-1.8-2.4-2.1c-1.8-0.4-3.5-1.1-5.4-1.7
	c-0.1,0.1-0.5,0.4-0.8,0.8c-1.5-0.5-2.9-1-4.3-1.4c-0.1-0.5-0.2-1-0.3-1.5c-0.4,0.2-0.6,0.5-0.8,0.4c-3.9-0.2-7.8-0.5-11.7-0.8
	c-0.3,0-0.5-0.4-0.7-0.7c-0.9,0.7-1.8,1.3-2.9,2.1c4.8,2.8,7.9,7.3,9.7,14.7c2.7,0.6,5,0,7.1-1.7c0.4,0.3,0.9,0.7,1.5,1.1
	c4.5-3.3,9.1,0.5,13.6-0.3c1.5-1.8,5-1.3,5.5-4.9c-1.5,0-2.7,0-3.4,0c-0.8-1-1.3-1.5-1.7-2.1C129.5,65.7,128.4,65.2,126.9,65.3z
	 M160.9,110.3c0-1.3,0-2.6,0-3.7c-1.1,0.2-2,0.4-3.1,0.6c0.6-0.9,0.9-1.5,1.4-2.2c-2.2-1.2-1.3-4.7-4.5-5.2c0-1.4,0-2.9,0-4.3
	c-1.1-0.2-2-0.3-2.9-0.5c0-0.9,0-1.6,0-1.9c-1.1-1.1-2-1.9-2.9-2.8c-0.8,0.4-1.6,0.8-2.4,1.2c-0.7-1.5-1.2-2.9-1.9-4.4
	c-0.6,0.6-0.8,0.8-1.2,1.2c-0.8-0.7-1.5-1.4-2.3-2.1c-1.1,0-2.1,0-3,0c-0.6-0.7-1.2-1.3-1.7-1.9c-1.8,0-3.4,0-5.6,0
	c-0.3-0.5-0.8-1.3-1.2-1.8c-2.5,1-4.6,1.2-6.9,0.3c-2.2-0.9-4.5-0.7-6.7,0.2c-0.2-0.2-0.5-0.4-0.9-0.9c-0.6,0.8-1.2,1.6-1.8,2.4
	c-3.2,0-6.3,0-9.4,0c0,0.4-0.1,0.6,0,0.7c0.1,0.3,0.2,0.6,0.4,1.1c4.3-0.5,8.4,0.7,12,3c0.9,0.5,1.6,1.1,2.6,0.9l7.6,3.2
	c0.1,0.1,0.2,0.3,0.3,0.4c0,0.3,0,0.6,0.1,1c1.2-0.2,2.4-0.4,4-0.7c-0.5,0.9-0.7,1.3-0.9,1.8c1.8,0.8,3.5,1.4,5.1,2.3
	c1.9,1.1,3.1,2.7,2.9,5c1,0,1.7,0,2.1,0c0.9,1.2,1.7,2.2,2.5,3.2c0.9-0.5,1.4-0.8,2.3-1.4c0.4,1.3,0.5,2.4,1,3.3
	c0.4,0.8,1.3,1.2,2,1.9c0.7,0.7,1.3,1.4,1.8,2.1c1-0.5,1.8-0.9,3-1.4c0,1,0,1.6,0,2.1c-0.7,0.2-1.3,0.4-1.8,0.6
	c1.4,1.6,2.3,3.5,4,4.6c0.3,0.3,0.7,0.7,1,1c1,1.6,2.6,2.1,4.4,2c0.8-0.6,1.5-1.3,2.3-1.9c0.2,0.1,0.3,0.3,0.5,0.4
	c-0.4,1-0.8,1.9-1.2,2.8c0.8,0.8,1.4,1.6,2,2.2c-0.7,0.7-1,1-1.4,1.4c-0.5-0.7-1-1.3-1.4-1.9c-0.1-0.7-0.3-1.4-0.3-1.4
	c-0.6,0.2-1.3,0.5-2,0.8c0.1,0.2,0.3,0.4,0.4,0.6c0.6,0,1.2,0.1,1.8,0.1c-0.2,0.9-0.4,1.8-0.7,2.7c0.6,0.3,1.4,0.7,2.3,1.2
	c0.6-0.5,1.3-1.2,2-1.8c0.3,0.7,0.6,1.3,0.8,1.7c1.2-2.3,2.4-4.6,3.6-7c-0.5-0.9-1-1.8-1.6-2.8c-1,0.4-1.9,0.8-3.3,1.4
	c0-1.7,0-3,0-4.3c0.6,0.3,1.2,0.6,1.8,0.9c0.4-1.8-0.6-2.4-1.8-2.9c-0.3-0.5-0.9-1-0.9-1.5C163.1,110.1,162,110.3,160.9,110.3z
	 M103.9,198.3c1.5-0.1,0.8-1.2,1-2c0.9,0.4,1.7,0.7,3,1.2c0-1.4,0-2.3,0-3.2c0.8,0,1.6,0,3,0c0.7-0.8,1.6-2,2.4-3
	c0.5,0.4,0.9,0.7,1.2,1c0.5-1,1-2,1.4-3.7c0,0.3,0,0.6,0,0.9c0.7-0.1,1.3-0.3,2-0.4c0-0.2-0.1-0.4-0.1-0.6c-0.6,0.1-1.3,0.1-1.9,0.9
	c-0.9-0.2-1.8-0.4-2.7-0.7c-0.2,0.4-0.5,1.1-1,2c-3.2-2.7-5.9-0.5-8.9,0.5c-0.8-1.8-2.8,0.4-3.2-0.2c-1.2-1.7-2.6,1.3-3.7-0.5
	c-1.1,1.1-2.3,2.2-3.7,3.6c-0.7-1-1.1-1.7-1.6-2.4c0.6-0.2,1.1-0.4,2.6-0.9c-1.5-0.2-2.3-0.5-2.7-0.3c-1.8,1.2-3.5,1.3-5.2,0
	c-1,1.4-2.7-0.3-3.7,0.8c-0.6-0.6-1.2-1.2-1.9-1.9c-2.3,0-4.7,0-7.1,0c-0.7-0.7-1.3-1.3-1.8-1.9c-1.1,0-2.1-0.1-3.1,0
	c-0.4,0-0.7,0.6-0.8,0.7c-4.1-1.4-8-2.8-12-4.2c0.5-0.9,0.8-1.6,1.3-2.8c-2,0.5-3.6,0.9-5.2,1.3c-1.8-1.8-1.8-1.8-2.4-4.3
	c-0.7,0.9-1.2,1.7-1.8,2.5c-0.5-0.5-0.7-0.9-1-0.9c-3.7-1.1-6.4-3.8-9.6-5.7c-0.9-0.5-2-1.6-2.1-2.6c-0.1-1.3-0.8-2-1.5-2.9
	c-1.6-2.1-3.1-4.4-4.6-6.6c0.3-0.3,0.6-0.7,0.9-1c-2.2-2-0.4-6.5-4.9-7.7c0.3,2.8-0.3,5.1,0.7,7.8c0.7,1.9,1.7,3.7,2.2,5.6
	c0.6,2.2,1.7,4,2.7,5.9c1.1,2.1,2.5,4,3.8,5.9c1.2,1.7,3.6,2.4,4.6,4.5c0.2,0.4,1.1,0.6,1.7,0.6c1.1,0,1.4,0.5,1.3,1.5
	c1.9,0.2,1.8,2.4,3.1,3.1c1.3,0.7,2.9,0.9,4.4,1.5c0.7,0.3,1.6,0.5,2,1.1c1.7,2.1,4.3,2.8,6.5,3.7c5.8,2.5,11.7,4.8,17.9,6.2
	c1.2,0.3,2.4,2.1,3.6,0c1,2,2-0.8,3.1,0.1c2.7,2.1,5.1,0.5,7.4-0.8c0.4-0.2,0.9-0.3,1.2-0.5c0.5,0.4,0.8,0.7,1.5,1.4
	c0.5-0.8,1-1.6,2-3.2c1.4,1.4,2.3,2.3,3.1,3.1c0-0.1,0.2-0.7,0.4-1.2c1,0,1.8-0.1,2.6,0c0.6,0.1,1.2,0.5,1.9,0.8
	C103.3,199.4,103.6,198.9,103.9,198.3z M67.4,85.4c0.8,0.8,1.6,1.5,2.4,2.2c1.8-1.2,3.1-2.8,4.6-3c3-0.5,5.5-1.8,8.3-3
	c5.1-2.2,10.7-3.2,16.4-4.8c-2.5-0.5-2.9-2.4-3.2-4.3c-0.1-0.7,0-1.3,0-2c0-0.3-0.2-0.6-0.3-0.9c-0.9-0.2-1.8-0.3-2.6-0.5
	c-0.2-0.7-0.3-1.2-0.4-1.6c-1.6-0.1-3.2,0.1-4.5-0.4c-2.4-0.9-4.6-1.3-6.8,0.3c-2.2-0.9-3,1.5-4.6,2.1c-5.4,1.6-10.2,4.2-14,8.5
	c-2.8,3.1-5.9,5.9-8.8,8.9c0,0.6,0,1.3,0,2.4c-1.3,1-2.8,2.3-3.8,3.1c0,2.1,0,3.5,0,5.7c1-1.3,1.7-2.1,2.2-2.8c1.2,0,2.2,0,2.9,0
	c2.6-2.1,5-4,7.7-6.2c0.7,0,1.8,0,3.1,0c-0.5-0.6-0.8-0.9-1.1-1.3C65.7,87,66.6,86.1,67.4,85.4z M154.6,67c-1.5,0.8-2.7,1.3-3.9,2
	c2.1,2.9,4.1,5.6,6.1,8.3c1.7-0.5,3.5,1,3.6,2.3c0.3,2.5,2.5,3.6,3,6c1.5-0.3,2.9-0.5,4.5-0.8c-0.1,1.2-0.2,2.3-0.3,3.4
	c0,0.3-0.4,0.5-0.6,0.7c1,0.7,2.8,1.6,2.7,2.2c-0.3,2,2.6,0.9,2.2,2.6c-0.3,0.5-0.6,1-0.8,1.3c0.5,0.9,0.9,1.7,1.2,2.3
	c0.9-0.5,1.7-0.9,2.6-1.3c-1.6-1.3-1-2.9-0.8-4.7c2.1,1.6,3.3,3.3,3.8,5.6c0.1,0.2,0.4,0.3,0.3,0.3c1-0.8,1.9-1.5,3.1-2.4
	c-0.6-1.2-1.1-2.3-1.7-3.5c-0.6,0.5-1,0.8-1.5,1.4c-0.5-1-0.9-1.9-1.5-3.3c1.1,0.5,1.6,0.7,2.1,0.9c-0.2-1.3-0.9-2-1.3-2.8
	c-0.4-0.8-0.5-1.8-0.7-2.6c-1.8-1.8-3.5-3.6-4.6-4.6c-2-0.8-3.1-1.3-4.4-1.8c0.4-0.5,0.7-0.7,0.8-1c0.2-0.4,0.3-0.9,0.4-1.1
	c-2.3-2-4.5-3.8-6.6-5.7c-0.2,0.2-0.5,0.5-0.7,0.7C159.4,69.8,157.2,68.5,154.6,67z M414.4,162.8c0.1,0,0.1,0,0.2,0.1
	c0.5-2,0.5-4.2,1.5-5.9c1.9-3.3,1.6-7.1,3.3-11.2c-1.7,0.8-2.5,1.2-3.3,1.6c-1,0.4-2,0.6-2.9,0.9c-0.1,3.5-1.7,6.3-1.2,9.5
	c0,0.2-0.4,0.5-0.6,0.7c-1.9,4.8-2.9,10-3.2,15c-0.4,5.6-2.3,11-2.5,16.6c0,0.3-0.4,0.6-0.6,0.9c0.4-0.2,0.7-0.4,1.1-0.6
	c0.1,0.7,0.1,1.4,0.2,2.2c0.2-0.1,0.4-0.3,0.6-0.4c0-1.8,0-3.6,0-5.3c0.2,0,0.4,0.1,0.6,0.1c1.2-3.6,2.3-7.3,3.5-11
	c-0.3-0.3-0.6-0.7-0.7-0.7C411.6,170.9,413,166.9,414.4,162.8z M9.9,136.9c0.1,2-0.4,4-0.8,6c-0.4,2-0.5,4.3,0.5,7.4
	c0.6-3.3,0.5-5.7,1.5-7.5c2.3-4,3.2-8.3,4.4-12.6c0.7-2.4,1.8-4.8,1.4-7.4c0-0.1-0.4-0.2-0.8-0.4c-0.1,0.9-0.1,1.7-0.2,2.6
	c-0.5,0.2-1.1,0.4-1.6,0.5c-0.7,1.5-1.4,2.8-2.3,4.5C11.9,133.6,11.9,133.6,9.9,136.9z M262.8,256.9c0.6,2.9,2.6,2.5,4.3,2.4
	c0.2,0,0.5-0.3,0.9-0.7c-0.4-0.6-0.7-1.3-1.1-1.9c0.7-0.3,1.3-0.6,2-1c-0.4-1.1-0.8-2-1.3-3.3c1.2,0,2,0,2.7,0
	c1.8,0,0.6,3.4,3.1,2.7c1-1.3-0.5-3.4,1.3-4.4c-0.1-0.1-0.2-0.2-0.5-0.6c-1.1,0.2-2.3,0.4-3.3,0.7c-0.2-0.7-0.3-1.1-0.5-1.6
	c-0.8,0-1.4,0-1.1,0c-1.7,1.1-2.8,1.8-3.7,2.4c0,1.4,0,2.3,0,3.4C264.8,255.7,263.9,256.2,262.8,256.9z M38.7,192.4
	c-1.5,1.2-3.2,0.2-3.5-0.4c-2.4-4.3-6.4-7.3-9.4-12c0.1,5,1.3,8.6,5.1,11c2.2,1.4,4.4,3,6.6,4.4c0.2,0.1,0.6-0.1,1.1-0.1
	C38.7,194.4,38.7,193.6,38.7,192.4z M188.1,162.5c0.4-0.1,0.9-0.2,1.5-0.3c0.4-1,0.8-2.2,1.4-3.2c0.7-1.1-2-2.1-0.4-2.9
	c-0.3-0.6-0.6-1.2-0.9-1.9c-2.4,3.8-3.4,7.3-2,12.1C187.8,164.4,187.9,163.6,188.1,162.5z M344.9,144.5c0,2.3-0.3,4.1-0.9,6
	c-0.7,2.1-2.2,4.4-0.9,6.5c0.6-0.4,1.2-0.8,1.8-1.1c0-1.8,0-3.4,0-5c2.3-2,0.6-5.3,2.5-7.6C346.7,143.6,345.9,144,344.9,144.5z
	 M350.9,111.9c-2.9-2.3,1.7-5-0.4-7.4c-0.8,0-1.5,0-2.7,0c0.2,1.7,1,3.5,0.5,4.8c-0.6,1.8-0.2,3.4-0.3,5.4
	C349.2,113.5,350,112.7,350.9,111.9z M398.6,142.2c-4.2-2.1-8.3,1-12,1.1c-0.6,0.1-1.3,0.3-1.9,0.4c0.1,0.2,0.3,0.4,0.4,0.5
	c2.1,0,4.2,0,6.9,0c0.3-0.5,0.8-1.4,1.2-2C395.4,142.2,397,142.2,398.6,142.2z M405.3,194.1c-0.4,2.3-0.8,4.3-1.2,6.5
	c1.3,1.6,1.1,3.6-0.2,5.6c0.8,0,1.1,0,1.5,0c0.5-1.1,1.1-2.1,1.6-3.2c-1.8-2.2-1.2-4.4-0.4-6.4C406.1,195.9,405.8,195.1,405.3,194.1
	z M280.9,220.7c-1-2.1-1.9-3.7-2.7-5.5c-0.4,0.1-0.8,0.2-1.2,0.3c0,1.9,0,3.7,0,5.4c1,0.4,1.7,0.8,2.6,1.2
	C280,221.7,280.5,221.2,280.9,220.7z M346.4,162.5c-1-1.9-1.9-3.8-4.1-4.4c-0.2,0.7-0.4,1.3-0.6,1.8c-0.3,0.6-0.6,1.3-1.4,2.9
	c1.4-0.9,1.8-1.2,2.2-1.5C343.8,161.8,345.1,162.2,346.4,162.5z M248.6,257.3c0-1.6,0-3.3,0-4.8c-1,0-1.8,0-2.7,0c0,1.3,0,2.4,0,3.4
	C246.8,256.3,247.6,256.8,248.6,257.3z M151.3,194.2c1.2-0.9,2.4-1.7,3.7-2.6c-0.1-0.8-0.2-1.5-0.3-2.3c-0.7,0-1,0-1.3,0.1
	c-0.3,0.7-0.6,1.3-1,2.1c-0.8-0.3-1.6-0.6-2.9-1.2C150.2,192,150.8,193.1,151.3,194.2z M357.1,109.2c-1.4-2.4-2.6-2.9-5.1-2.4
	c0,0.8,0,1.6,0,2.4C353.7,109.2,355.1,109.2,357.1,109.2z M35.2,124.1c0.6-2.7,4.5-3.5,4.1-7.1C36.4,118.6,34.9,120.8,35.2,124.1z
	 M173.7,234c-0.3-0.5-1.1-1.7-2.1-3.5c-0.6,2-1,3.2-1.5,4.6c0.5,0.4,1.1,1,2.1,1.8C172.7,235.9,173.1,235.2,173.7,234z M294.9,152.1
	c1.3,0.8,2.5,1.4,3.8,2.2c0-1.3,0-2.4,0-3.6c-0.4-0.4-0.8-0.8-1.4-1.4C296.6,150.1,295.9,151,294.9,152.1z M152.9,152.1
	c-0.3,0.1-0.7,0.3-1,0.4c0.2,1.9-0.3,3.8,0.7,6.7c0.3-1.9,0.4-2.8,0.5-3.6c0.7-0.3,1.4-0.5,2.6-1
	C154.4,153.4,153.6,152.8,152.9,152.1z M260.9,130.2c-0.1-0.4-0.2-1.2-0.4-2c-0.6,0.6-0.8,0.8-0.8,0.8c-0.7-0.3-1.3-0.7-1.9-1
	c0.5-0.7,0.8-1,1.3-1.8c-1.1,0.2-1.7,0.2-2.1,0.3c0,1.4,0,2.5,0,3.7C258.7,130.2,260.1,130.2,260.9,130.2z M135.8,181.7
	c-1.3,2-4.4,1.4-3.8,4.3C135.5,186.2,135.5,186.2,135.8,181.7z M193.7,92.5c-1.1,0-1.8,0-2.8,0c0.1,0.8,0.2,1.3,0.3,1.8
	c0.7-0.1,0.8-1.3,1.6-0.6c0.1,1.9,0.2,3.8,0.3,5.6c0.2,0,0.4,0,0.6,0C193.7,97.1,193.7,94.9,193.7,92.5z M138.2,76.5
	c-1.7-3.2-1.7-3.2-6-2.6C134.4,74.8,136,75.5,138.2,76.5z M287.9,134.2c-1.9,0.3-3.9-0.7-5,2.2C284.8,136.1,286.7,137.1,287.9,134.2
	z M272.5,139.2c-0.8-0.8-1.6-1.7-2.5-2.6c-0.3,0.5-0.7,1.4-1.4,2.6C270.3,139.2,271.5,139.2,272.5,139.2z M347.4,172.3
	c0.4,1.7,0.2,3-0.5,5.3c0,0.2,0.3,0.4,0.5,0.7c0.5-0.5,0.9-0.9,1.5-1.5c-0.1-1.4-0.2-2.9-0.2-4.5C348,172.3,347.7,172.3,347.4,172.3
	z M304,143.7c-1.4-0.5-2.6-1-4.2-1.7c0.7,1.5,1.2,2.4,1.6,3.3c0.7,0,1.3,0,2,0c0.1,0,0.2-0.2,0.4-0.4
	C303.8,144.7,303.8,144.4,304,143.7z M26.7,114.1c1,0.1,1.9,0.1,2.9,0.2c0.4-1.4,0.8-2.7,1.5-4.9C29.2,111.5,28.1,112.7,26.7,114.1z
	 M290.5,196.6c-1,1.9-1.7,3.2-2.7,5C290.5,200.9,291.3,199.7,290.5,196.6z M229.7,153.1c0-1,0-1.8,0-3c-1.5,0.6-2.7,1.1-4.2,1.7
	C227.1,152.3,228.3,152.7,229.7,153.1z M272.7,158.5c0.5,2,1.2,3.2,3.7,2.4C275.5,159.5,275.2,158,272.7,158.5z M229.8,110.7
	c-0.2-0.1-0.3-0.2-0.5-0.4c-0.5,1.6-0.9,3.1-1.5,4.8c0.8,0,1.4,0,2,0C229.8,113.5,229.8,112.1,229.8,110.7z M293.1,170.1
	c-0.5,1.1-0.9,2-1.4,3.1c1.8-0.6,3-1,4.3-1.4c-0.2-0.6-0.4-1-0.5-1.5c-0.4,0.4-0.8,0.7-1.1,1C294.1,171.1,293.9,170.8,293.1,170.1z
	 M297.8,226.4c1.5-0.1,2.7-0.2,4.3-0.3c-1.4-1.7-2.5-2.4-4.1-1.4C298,225,297.9,225.3,297.8,226.4z M387.1,147.5c0,0.3,0,0.6,0,0.8
	c1,0,1.9,0,2.9,0c1,0,1.9-0.2,2.9-0.3c0-0.2-0.1-0.4-0.1-0.5C390.8,147.5,388.9,147.5,387.1,147.5z M351.1,146
	c-2.2,0.5-3.3,1.1-3.1,3.1c0.5,0.1,1,0.2,1.4,0.3C349.8,148.4,350.3,147.6,351.1,146z M147.2,161.3c0,1,0,2,0,3.1
	c0.7-0.1,1.2-0.2,1.8-0.4c-0.1-1-0.2-1.9-0.2-2.8C148,161.3,147.7,161.3,147.2,161.3z M279.8,161.2c-1.2,0.7-2,1.2-3.2,1.9
	c1.2,0.5,2.1,0.9,3.2,1.4C279.8,163.2,279.8,162.5,279.8,161.2z M238.7,259.6c2.2-0.5,3.3-1.1,3.1-3.1c-0.5-0.1-1-0.2-1.4-0.3
	C240,257.2,239.5,258.1,238.7,259.6z M284,210.3c0.2,0.8,0.3,1.4,0.4,2c1.5-0.4,1.4,0.8,1.7,1.6c0,0.1,0.4,0.1,0.7,0.1
	c0-0.8,0-1.6,0-2.3C286,211.3,285.1,210.9,284,210.3z M196,97.9c1.3-1.8,3.1-2.4,2.8-5.3C197.6,94.5,195.8,94.9,196,97.9z
	 M165,139.3c1.7,0.2,3.1,0.2,3.9-1.9C167.1,137.1,165.8,137.2,165,139.3z M122.1,214.5c0,0.2-0.1,0.3-0.1,0.5
	c1.2,0.5,2.4,0.9,3.8,1.5c0-0.9,0-1.4,0-2C124.5,214.5,123.3,214.5,122.1,214.5z M291,207.2c-0.2-0.9-0.3-1.3-0.4-2
	c-1,0.1-1.9,0.2-2.9,0.2c0.1,0.8,0.2,1.2,0.3,1.7C289,207.2,289.8,207.2,291,207.2z M325.4,202.4c0.5-1.1,0.9-3.4,0.9-3.3
	c-0.7,0.5-1.6,1.1-2.5,1.8C324.4,201.4,324.8,201.7,325.4,202.4z M246.7,138.2c0-1,0-1.9,0-2.8c-0.6,0-1.1,0-1.7,0c0,1,0,1.9,0,2.8
	C245.7,138.2,246.1,138.2,246.7,138.2z M214.6,160.4c0.6-0.9,4.4,1,2.9-2.1C216.5,159,215.6,159.7,214.6,160.4z M383.4,143.5
	c-1.6,0-2.5,0-3.6,0c0.1,0.8,0.2,1.3,0.4,2.3C381.3,145,382.1,144.4,383.4,143.5z M283.8,237.3c-1.3,0.1-2.6,0.2-4.4,0.3
	c1.8,0.8,2.9,1.3,4,1.7c0.1,0,0.2-0.2,0.4-0.4C283.8,238.5,283.8,238.1,283.8,237.3z M347.1,125c0,1.3,0,2.3,0,3.7
	c0.9-1.1,1.4-1.8,2.2-2.8C348.5,125.6,348,125.4,347.1,125z M347.4,168.5c1.2-0.5,2.4-1,3.7-1.6C349.1,165.4,348,166.6,347.4,168.5z
	 M350.7,140.5c-0.2-0.1-0.5-0.1-0.7-0.2c-0.4,0.9-0.8,1.7-1.3,2.9c1,0,1.4,0,2,0C350.7,142.3,350.7,141.4,350.7,140.5z M280.1,213
	c-0.3-1.8-0.4-2.7-0.5-3.7c-0.7,0.7-1.2,1.1-1.7,1.5C278.4,211.3,278.8,211.8,280.1,213z M292.1,170.4c0.8-1.5,1.2-2.2,1.1-2
	c-0.2-0.6-0.4-1.4-0.6-2.1c-0.1,0.1-0.3,0.2-0.4,0.3C292.1,167.4,292.1,168.3,292.1,170.4z M183.1,107.5c0,0.3,0,0.6,0,0.9
	c1.2-0.1,2.4-0.2,3.7-0.2c0-0.2,0-0.4,0-0.6C185.5,107.5,184.3,107.5,183.1,107.5z M265.9,183.4c-0.1,2.2,0.7,2.2,2.1,1.5
	c-0.1-0.5-0.2-1-0.3-1.5C267.1,183.4,266.7,183.4,265.9,183.4z M175.5,98.2c-0.2,0.2-0.4,0.4-0.7,0.7c0.1,0.4,0.2,0.9,0.3,1.5
	c0.7-0.1,1.3-0.2,2.5-0.5C176.6,99.1,176,98.6,175.5,98.2z M351.7,143.8c1.3-0.4,3-0.9,1.5-2.7C352.7,142.1,352.2,142.9,351.7,143.8
	z M157.1,146.4c0.8-1.5,1.2-2.2,1.3-2.4c-0.2-0.4-0.5-1.1-0.8-1.8c-0.2,0.1-0.3,0.2-0.5,0.4C157.1,143.4,157.1,144.3,157.1,146.4z
	 M223.8,143.7c-0.7,0.3-1.4,0.6-2,1c0.1,0.2,0.3,0.5,0.4,0.7c0.9-0.1,1.8-0.2,2.9-0.4C224.3,144.2,223.8,143.8,223.8,143.7z
	 M305.7,140.5c-0.3,0-0.6,0-0.9,0c0.1,1.2,0.2,2.4,0.2,3.7c0.2,0,0.4,0,0.6,0C305.7,142.9,305.7,141.7,305.7,140.5z M166.2,130.4
	c-0.1,0.2-0.3,0.3-0.4,0.5c1,0.4,1.9,0.8,3.2,1.4c-0.2-1-0.3-1.4-0.4-1.9C167.8,130.4,167,130.4,166.2,130.4z M170.5,145.3
	c-0.7,0.9-2.2,1.2-1.2,3C170,147.5,171.5,147.1,170.5,145.3z M229.7,140.2c0-1,0-1.9,0-3.7c-0.8,1.8-1.2,2.7-1.7,3.7
	C228.7,140.2,229.1,140.2,229.7,140.2z M236.6,150.5c-1.8,0-2.7,0-3.8,0c0.2,0.8,0.3,1.3,0.4,1.8
	C234.1,151.8,234.9,151.4,236.6,150.5z M418.8,135.2c-1.2,0.7-2,1.1-3.4,1.9c1.6,0,2.5,0,3.4,0C418.8,136.5,418.8,136.1,418.8,135.2
	z M8.1,158.3c0.2,0,0.3,0,0.5,0c0-1.3,0-2.7,0-4c-0.2,0-0.3,0-0.5,0C8.1,155.7,8.1,157,8.1,158.3z M370.4,165.5
	c0.4-1.1,2.2-1.3,0.9-3.3C370.9,163.3,369.1,163.5,370.4,165.5z M154.9,161.4c-0.1,2.2,0.7,2.2,2.1,1.5c-0.1-0.5-0.2-1-0.3-1.5
	C156.1,161.4,155.7,161.4,154.9,161.4z M303,158.2c-0.4,1.7,0.5,2.4,1.7,3.2C305.1,159.7,304.3,159.1,303,158.2z M164,135.2
	c1,0,1.9,0,3.7,0c-1.8-0.8-2.7-1.2-3.7-1.7C164,134.1,164,134.6,164,135.2z M272.1,213.8c0,0.2,0,0.9,0,1.6c0.7-0.1,1.1-0.2,2.6-0.4
	C273.4,214.4,272.7,214,272.1,213.8z M147,65.2c-0.2-0.9-0.2-1.3-0.4-1.9c-0.5,0.8-0.9,1.4-1.3,1.9C145.7,65.2,146.1,65.2,147,65.2z
	 M306.6,132.9c0-0.2,0-0.9,0-1.6c-0.7,0.1-1.1,0.2-2.6,0.4C305.4,132.3,306.1,132.6,306.6,132.9z M355.7,139.5c-0.3,0-0.6,0-0.9,0.1
	c0.1,0.9,0.2,1.8,0.4,2.6c0.2,0,0.3,0,0.5,0C355.7,141.3,355.7,140.4,355.7,139.5z M171.1,141.1c0.3,0,0.6,0,0.9,0
	c-0.1-0.9-0.2-1.8-0.4-2.7c-0.2,0-0.3,0-0.5,0C171.1,139.4,171.1,140.2,171.1,141.1z M299.7,137.7c-2.7-0.2-2.7-0.2-2.5,0.9
	C297.5,138.5,298.3,138.2,299.7,137.7z M291.6,136.6c0.8,0.8,1.3,1.2,2.5,2.5c-0.4-1.7-0.5-2.2-0.6-2.8
	C292.9,136.3,292.5,136.4,291.6,136.6z M279.6,136.7c-1.5-0.3-1.5-0.3-1.3,1.1C278.6,137.5,279.1,137.1,279.6,136.7z M303,213.1
	c0.8-0.4,1.4-0.8,2.9-1.6c-1.8,0-2.3,0-2.9,0C303,212.1,303,212.5,303,213.1z M260.3,224.6c-0.3,1.5-0.3,1.5,2.1,1.3
	C261.4,225.3,260.8,224.9,260.3,224.6z M149.1,209.1c-0.8-0.8-1.3-1.2-2.5-2.5c0.4,1.7,0.5,2.2,0.6,2.8
	C147.9,209.3,148.3,209.2,149.1,209.1z M296.6,209.3c-0.2,0-0.3,0-0.5,0c0,1,0,2,0,3c0.2,0,0.3,0,0.5,0
	C296.6,211.3,296.6,210.3,296.6,209.3z M169.6,125.8c0-0.1,0-0.8,0-1.6c-0.7,0.1-1.1,0.2-1.3,0.2
	C168.8,124.9,169.3,125.4,169.6,125.8z M284.6,153.9c0-0.2,0-0.9,0-1.6c-0.7,0.1-1.1,0.2-2.6,0.4
	C283.4,153.3,284.1,153.6,284.6,153.9z M220.8,153.6c-0.8,0.4-1.4,0.8-2.9,1.6c1.8,0,2.3,0,2.9,0
	C220.8,154.6,220.8,154.1,220.8,153.6z M243.1,123.2c0.3,0,0.6-0.1,0.9-0.1c-0.1-0.9-0.3-1.7-0.4-2.6c-0.2,0-0.3,0-0.5,0.1
	C243.1,121.4,243.1,122.3,243.1,123.2z M248,170.5c0,0.3,0.1,0.6,0.1,0.9c0.9-0.1,1.7-0.3,2.6-0.4c0-0.2,0-0.3-0.1-0.5
	C249.8,170.5,248.9,170.5,248,170.5z M267.7,162.2c0-0.3,0-0.6,0-0.9c-0.9,0.1-1.8,0.2-2.7,0.4c0,0.2,0,0.3,0,0.5
	C265.9,162.2,266.8,162.2,267.7,162.2z M264.2,163.9c-2.7-1.1-2.4,0.1-2.1,1.3C262.8,164.7,263.4,164.3,264.2,163.9z M263.5,235.2
	c-0.3-0.7-0.6-1.4-1-2.1c-0.2,0.1-0.3,0.2-0.5,0.4c0,0.6,0,1.1,0,1.7C262.7,235.2,263.1,235.2,263.5,235.2z M310,144.2
	c-0.2-0.9-0.2-1.3-0.4-1.9c-0.5,0.8-0.9,1.4-1.3,1.9C308.7,144.2,309.1,144.2,310,144.2z M181.3,102.6c-0.3,1.5-0.3,1.5,2.1,1.3
	C182.4,103.3,181.8,102.9,181.3,102.6z M295.1,142.4c0.4,0.8,0.8,1.4,1.6,2.9c0-1.8,0-2.3,0-2.9
	C296.1,142.4,295.7,142.4,295.1,142.4z M292,130.5c0.9-0.2,1.3-0.2,1.9-0.4c-0.8-0.5-1.4-0.9-1.9-1.3C292,129.1,292,129.5,292,130.5
	z M306.6,146.3c-0.2,0-0.3,0-0.5,0c0,1,0,2,0,3c0.2,0,0.3,0,0.5,0C306.6,148.3,306.6,147.3,306.6,146.3z M326.8,192.2
	c-0.9,0.2-1.3,0.2-1.9,0.4c0.8,0.5,1.4,0.9,1.9,1.3C326.8,193.5,326.8,193.1,326.8,192.2z M436.6,40.3c-0.2,0-0.3,0-0.5,0
	c0,0.7,0,1.3,0,2c0.2,0,0.3,0,0.5,0C436.6,41.7,436.6,41,436.6,40.3z M295.9,231.6c0,0.2,0,0.3,0,0.5c0.7,0,1.3,0,2,0
	c0-0.2,0-0.3,0-0.5C297.2,231.6,296.6,231.6,295.9,231.6z M175.6,227.3c-0.2,0-0.3,0-0.5,0c0,0.7,0,1.3,0,2c0.2,0,0.3,0,0.5,0
	C175.6,228.7,175.6,228,175.6,227.3z M249.9,181.6c0,0.2,0,0.3,0,0.5c0.7,0,1.3,0,2,0c0-0.2,0-0.3,0-0.5
	C251.2,181.6,250.6,181.6,249.9,181.6z M290.9,169.1c0-0.2,0-0.3,0-0.5c-0.7,0-1.3,0-2,0c0,0.2,0,0.3,0,0.5
	C289.6,169.1,290.2,169.1,290.9,169.1z M296.9,164.6c0,0.2,0,0.3,0,0.5c0.7,0,1.3,0,2,0c0-0.2,0-0.3,0-0.5
	C298.2,164.6,297.6,164.6,296.9,164.6z M307.1,119.5c0,0.3,0.1,0.6,0.1,0.9c0.5-0.1,1.1-0.3,1.6-0.4c0-0.2-0.1-0.3-0.1-0.5
	C308.2,119.5,307.6,119.5,307.1,119.5z M150.7,157.2c0-0.3-0.1-0.6-0.1-0.9c-0.5,0.1-1.1,0.3-1.6,0.4c0,0.2,0.1,0.3,0.1,0.5
	C149.6,157.2,150.2,157.2,150.7,157.2z M297.9,155.6c0,0.2,0,0.3,0,0.5c0.7,0,1.3,0,2,0c0-0.2,0-0.3,0-0.5
	C299.2,155.6,298.6,155.6,297.9,155.6z M279.7,156.2c0-0.3-0.1-0.6-0.1-0.9c-0.5,0.1-1.1,0.3-1.6,0.4c0,0.2,0.1,0.3,0.1,0.5
	C278.6,156.2,279.2,156.2,279.7,156.2z M250.7,122.2c0-0.3-0.1-0.6-0.1-0.9c-0.5,0.1-1.1,0.3-1.6,0.4c0,0.2,0.1,0.3,0.1,0.5
	C249.6,122.2,250.2,122.2,250.7,122.2z M351.7,123.5c-0.3,0-0.6,0-0.9,0c0.1,0.6,0.2,1.1,0.4,1.7c0.2,0,0.3,0,0.5-0.1
	C351.7,124.6,351.7,124.1,351.7,123.5z M260.1,153.2c0.3,0,0.6-0.1,0.9-0.1c-0.1-0.5-0.3-1.1-0.4-1.6c-0.2,0-0.3,0.1-0.5,0.1
	C260.1,152.1,260.1,152.6,260.1,153.2z M217.1,152.3c0.2,0,0.3,0,0.5,0c0-0.7,0-1.3,0-2c-0.2,0-0.3,0-0.5,0
	C217.1,151,217.1,151.7,217.1,152.3z M282.9,125.1c0-0.2,0-0.3,0-0.5c-0.7,0-1.3,0-2,0c0,0.2,0,0.3,0,0.5
	C281.6,125.1,282.2,125.1,282.9,125.1z M244.1,127.3c0.2,0,0.3,0,0.5,0c0-0.7,0-1.3,0-2c-0.2,0-0.3,0-0.5,0
	C244.1,126,244.1,126.7,244.1,127.3z M167.6,141.3c-0.2,0-0.3,0-0.5,0c0,0.7,0,1.3,0,2c0.2,0,0.3,0,0.5,0
	C167.6,142.7,167.6,142,167.6,141.3z M345.1,142.1c0.3,0,0.6,0,0.9,0c-0.1-0.6-0.2-1.1-0.4-1.7c-0.2,0-0.3,0-0.5,0.1
	C345.1,141,345.1,141.6,345.1,142.1z M288.9,131.1c0-0.2,0-0.3,0-0.5c-0.7,0-1.3,0-2,0c0,0.2,0,0.3,0,0.5
	C287.6,131.1,288.2,131.1,288.9,131.1z M299.7,132.2c0-0.3-0.1-0.6-0.1-0.9c-0.5,0.1-1.1,0.3-1.6,0.4c0,0.2,0.1,0.3,0.1,0.5
	C298.6,132.2,299.2,132.2,299.7,132.2z M297.1,134.5c0,0.3,0.1,0.6,0.1,0.9c0.5-0.1,1.1-0.3,1.6-0.4c0-0.2-0.1-0.3-0.1-0.5
	C298.2,134.5,297.6,134.5,297.1,134.5z M284.7,133.2c0-0.3-0.1-0.6-0.1-0.9c-0.5,0.1-1.1,0.3-1.6,0.4c0,0.2,0.1,0.3,0.1,0.5
	C283.6,133.2,284.2,133.2,284.7,133.2z M290.6,218.3c-0.2,0-0.3,0-0.5,0c0,0.7,0,1.3,0,2c0.2,0,0.3,0,0.5,0
	C290.6,219.7,290.6,219,290.6,218.3z M153.1,212.1c0.3,0,0.6,0,0.9-0.1c-0.1-0.6-0.2-1.1-0.4-1.7c-0.2,0-0.3,0-0.5,0.1
	C153.1,211,153.1,211.6,153.1,212.1z M215.1,94.1c0.3,0,0.6,0,0.9,0c-0.1-0.6-0.2-1.1-0.4-1.7c-0.2,0-0.3,0-0.5,0.1
	C215.1,93,215.1,93.6,215.1,94.1z M40.1,195.5c0,0.3,0,0.6,0.1,0.9c0.6-0.1,1.1-0.2,1.7-0.4c0-0.2,0-0.3-0.1-0.5
	C41.2,195.5,40.6,195.5,40.1,195.5z M36.1,98.1c0.3,0,0.6,0,0.9,0c-0.1-0.6-0.2-1.1-0.4-1.7c-0.2,0-0.3,0-0.5,0.1
	C36.1,97,36.1,97.6,36.1,98.1z M46.9,97.6c0,0.2,0,0.3,0,0.5c0.7,0,1.3,0,2,0c0-0.2,0-0.3,0-0.5C48.2,97.6,47.6,97.6,46.9,97.6z
	 M212.6,101.3c-0.2,0-0.3,0-0.5,0c0,0.7,0,1.3,0,2c0.2,0,0.3,0,0.5,0C212.6,102.7,212.6,102,212.6,101.3z"/>
<path class="st0" d="M374,242.8c-0.2-1.4-0.4-2.7-0.7-4.3c1.1,0,2.7,0,4.4,0c0,0.5,0.1,0.9,0.1,1.6c-1,0.1-1.9,0.3-3.2,0.5
	c0.5,1.3,1,2.4,1.5,3.5c0.9,0.1,1.8,0.3,2.9,0.5c-0.5,0.5-0.8,0.9-1.1,1.2c0.3,0.3,0.6,0.7,1,1.1c-0.5,0.2-1,0.3-1.5,0.5
	c-0.4-0.7-0.7-1.4-1.1-2.3c-0.2,0.7-0.4,1.3-0.7,2c-0.7,0-1.5,0-2.4,0c-0.3-1-0.7-2.2-1.1-3.5C372.6,243.5,373.2,243.2,374,242.8z"
	/>
<path class="st0" d="M276.9,108.3c0.3,0.1,0.5,0.2,1.2,0.5c-1.1,0.9-2.2,1.7-3.2,2.5c-1.9-1.3-2.1-3.3-1.9-5.8
	c1.2-1.1,2.6-2.5,4.1-3.8c0.4-0.4,1.2-0.3,1.8-0.4c-0.7,1.3-1.3,2.7-2,4C275.5,106.3,275.5,107.3,276.9,108.3z"/>
<path class="st0" d="M298,246.3c-1.4,2-2.4,3.4-3.1,4.6c-1.4-1.4-2.9-2.9-4.5-4.5c0.4-0.2,1.4-0.7,2.8-1.5
	C294,245.1,295.9,245.6,298,246.3z"/>
<path class="st0" d="M307.5,83.9c-1,1.2-1.3,1.5-1.7,2c2.6,1,2.7-1.1,3.4-2.5c1.1,0,2.2,0,3.2,0c0.2,0.2,0.3,0.4,0.3,0.4
	c-0.5,1.1-1,2.2-1.5,3.6c-0.6-0.3-1.3-0.7-1.8-0.9c-1.7,0.6-3.4,1.3-6.2,2.3c0.9-1.3,1.2-1.6,1.5-2
	C303.8,85.4,303.8,85.4,307.5,83.9z"/>
<path class="st0" d="M252.4,265.1c1.1,0.5,2,0.9,3.1,1.4c0.3-0.8,0.5-1.4,0.7-1.9c0.1-0.1,0.2-0.1,0.4-0.2c0.4,0.8,0.8,1.6,1.3,2.5
	c-0.7,0.3-1.5,0.8-2.4,1.2c-0.3-0.2-0.8-0.5-1.3-0.8c-2.5,0.3-1.9,2.7-2.7,4.3c-0.4-1.4-0.8-2.5-1.2-3.9
	C250.7,267.1,251.4,266.3,252.4,265.1z"/>
<path class="st0" d="M393.5,212.2c-1.2,0-2.6,0-4.2,0c-0.4-0.5-1-1.2-2-2.4c1.8-0.3,2.9-0.4,3.6-0.5
	C391.9,210.4,392.7,211.3,393.5,212.2z"/>
<path class="st0" d="M210.7,100.3c-0.6,0-1.4,0-1.9,0c-0.9-0.6-1.5-1.1-2.4-1.7c0.8-1,1.4-1.6,1.9-2.3c0.4,0.4,0.8,0.7,1.1,0.9
	c0.4-0.3,0.7-0.6,1-0.9c0.5,0.5,1,1,1.3,1.3C211.4,98.6,211,99.4,210.7,100.3z"/>
<path class="st0" d="M340.4,185.4c2.3,3,2.2,3.3-1.2,5C338.7,188.4,338.5,186.6,340.4,185.4z"/>
<path class="st0" d="M368,185.5c0-2,0-3.4,0-4.9c2.3,0.5,2,2.7,3.4,4.3C370.1,185.1,369.3,185.3,368,185.5z"/>
<path class="st0" d="M398.6,126.5c1.1-0.1,1.9,0,2.6-0.2c0.5-0.1,0.9-0.6,1.4-0.9c0.4,0.9,0.8,1.7,1.3,2.5
	C402.9,128.8,401,128.4,398.6,126.5z"/>
<path class="st0" d="M377.4,249.4c0.4,0.4,0.9,0.9,1.6,1.6c-1.7,0.3-3.2,0.6-5,1c-0.2-0.2-0.7-0.6-1.2-1.1c0.5-0.5,1-1,1.4-1.4
	c0.5,0.3,1,0.7,1.6,1.1C376.5,250.1,376.9,249.7,377.4,249.4z"/>
<path class="st0" d="M348,244.7c0.7,0.4,1.4,0.8,2.3,1.3c-0.6,0.8-0.9,1.4-1.4,1.7c-0.4,0.4-1,0.6-1.5,0.8
	C346,246.5,347.2,245.4,348,244.7z"/>
<path class="st0" d="M303.1,241.1c0-2.2,0-4.4,0-6.7c0.6,0,1,0,2,0c-0.4,1.3-0.9,2.3-1.1,3.4c-0.2,1.1,0,2.2,0,3.3
	C303.6,241.2,303.3,241.2,303.1,241.1z"/>
<path class="st0" d="M380.6,220.5c-0.5-0.8-1-1.7-1.7-2.8c0.7-0.5,1.5-1.1,2.7-1.9c0,1.9,0,3.2,0,4.5
	C381.3,220.4,381,220.4,380.6,220.5z"/>
<path class="st0" d="M318.2,277.8c0.9-0.8,1.2-1.1,1.7-1.4c0.5-0.3,1.1-0.6,1.7-0.9c0.3,0.4,0.7,0.8,1.1,1.4
	C322,278.4,320.7,278.7,318.2,277.8z"/>
<path class="st0" d="M380.5,253.4c0.5,0.5,0.8,0.8,1,1c-1.2,1.2-2.3,2.3-3.6,3.6c0.2-0.5,0.3-1.2,0.7-1.8
	C379.1,255.3,379.8,254.4,380.5,253.4z"/>
<path class="st0" d="M322.2,80.8c-1.5,0.6-2.7,1.1-4.2,1.7c0-1.3,0-2.2,0-3.5C319.5,79.7,320.7,80.2,322.2,80.8z"/>
<path class="st0" d="M227.3,254.5c-0.2-0.6-0.5-1.4-0.7-2c0.1,0,0.9-0.5,1.9-1c0.3,0.3,0.8,0.7,1.6,1.5
	C229.4,253.3,228.7,253.7,227.3,254.5z"/>
<path class="st0" d="M352.8,238.9c0,1.6,0,2.3,0,3c-0.2,0.2-0.3,0.4-0.4,0.4c-1.1-0.4-2.2-0.9-3.5-1.5
	C350.1,240.2,351.2,239.7,352.8,238.9z"/>
<path class="st0" d="M334.2,201.2c-2.5,0.3-3-0.9-3.5-2.5C332.9,197.9,333.5,199.2,334.2,201.2z"/>
<path class="st0" d="M353,247.2c0.9-1.9,2.2-2.2,3.8-1.6c0,0.6,0,1,0,1.6C355.5,247.2,354.3,247.2,353,247.2z"/>
<path class="st0" d="M385.6,121.8c0.5-1.5,1.1-3,1.8-5.2C388.1,119.2,388.3,121,385.6,121.8z"/>
<path class="st0" d="M369.5,243.5c0.4,0.4,0.8,0.8,1.5,1.5c-0.8,0.2-1.6,0.4-2.3,0.7c0.2,0.3,0.4,0.6,0.5,1c-0.8-0.5-1.5-1-2.4-1.6
	C367.7,244.4,368.5,244,369.5,243.5z"/>
<path class="st0" d="M272.5,127.3c-0.8,0-1.5,0-2.1,0c-0.6-0.6,0.4-2,2-3C272.4,125.2,272.4,126.1,272.5,127.3z"/>
<path class="st0" d="M283.5,252.8c1.5-0.9,2.8-1.6,4.1-2.4C287.5,252.5,286.6,253,283.5,252.8z"/>
<path class="st0" d="M384,247.8c-0.9,0.2-1.8,0.4-2.9,0.7c-0.1-0.7-0.2-1.2-0.4-1.9c1.1,0,2.1,0,3.1,0
	C383.9,247,384,247.4,384,247.8z"/>
<path class="st0" d="M288.6,79.6c-0.6-0.6-1.5-1.5-2.2-2.2c0.4,0,1.2,0,2.2,0C288.6,78.3,288.6,79.3,288.6,79.6z"/>
<path class="st0" d="M241.8,194.2c0,2.4,0,3.7,0,5c-1,0-1.9,0-2.8,0c0-0.1-0.1-0.3-0.1-0.4c0.5-0.2,1-0.3,1.6-0.6
	C240.8,197.3,241.1,196.2,241.8,194.2z"/>
<path class="st0" d="M340.7,232.2c-1,0-1.7,0-3.2,0c1.1-1.3,2-2.1,3.2-3.3C340.7,230.3,340.7,231.1,340.7,232.2z"/>
<path class="st0" d="M252.3,265.2c-1.7,0-3,0-5.2,0c1.2-0.9,1.9-1.3,2.7-2C250.5,263.7,251.3,264.4,252.3,265.2z"/>
<path class="st0" d="M289.9,242.3c-0.5,1-1,2-1.4,2.9c-0.5-0.3-1-0.6-1.6-0.9C287.3,242.7,288.3,242.2,289.9,242.3z"/>
<path class="st0" d="M332.9,188.3c0.3-0.3,0.7-0.7,1-1c1.9,0.5,0.6,2,1,3C334.2,189.7,333.6,189,332.9,188.3z"/>
<path class="st0" d="M357.8,186.3c0.9,0,1.7,0,2.8,0c0.1,0.5,0.2,1.1,0.4,2.2c-0.9-0.5-1.3-0.8-1.7-1.1c-0.3,0.3-0.7,0.6-1.3,1
	C358,187.6,357.9,187,357.8,186.3z"/>
<path class="st0" d="M383.4,226c0.8-1.1,1.4-1.9,2.3-3.1c0,1.6,0,2.5,0,3.6C385,226.3,384.4,226.1,383.4,226z"/>
<path class="st0" d="M341.4,192.5c-1.3,0.9-2,1.5-3.1,2.3c-0.2-1-0.3-1.5-0.5-2.3C338.9,192.5,339.8,192.5,341.4,192.5z"/>
<path class="st0" d="M348.6,221.2c-1-1.2-1.4-1.8-2.1-2.6c1-0.2,1.4-0.3,2.1-0.4C348.6,219,348.6,219.7,348.6,221.2z"/>
<path class="st0" d="M366.9,233.3c-0.3-0.4-0.9-0.7-1-1.2c-0.1-0.9,0-1.9,0-2.8c0.3,0.4,0.9,0.7,1,1.2
	C367,231.4,366.9,232.4,366.9,233.3z"/>
<path class="st0" d="M186.6,81.7c-0.8-1.1-1.4-1.9-2.2-3C186.5,79.4,186.5,79.4,186.6,81.7z"/>
<path class="st0" d="M324.3,232.5c-1.3,0.8-2.1,1.2-3.1,1.9c-0.1-0.6-0.2-1.1-0.3-1.9C322,232.5,322.9,232.5,324.3,232.5z"/>
<path class="st0" d="M154.8,233.7c0,0.8,0,1.5,0,2.4c-0.5,0.1-0.9,0.2-1.9,0.4c0.5-1.3,1-2.2,1.4-3.2
	C154.5,233.4,154.7,233.5,154.8,233.7z"/>
<path class="st0" d="M278.9,100.8c1.7-1.5,2,0.5,2.9,1.5c-0.5-0.1-1.2-0.1-1.6-0.3C279.6,101.7,279.3,101.2,278.9,100.8z"/>
<path class="st0" d="M347.8,252.6c-1.2,1-1.8,1.4-2.6,2.1c-0.2-1-0.3-1.4-0.4-2.1C345.6,252.6,346.2,252.6,347.8,252.6z"/>
<path class="st0" d="M249.3,275.5c-0.6-0.4-1.1-0.9-2.1-1.7c1.2-0.2,1.8-0.3,2.5-0.5c0.1,0.7,0.2,1.1,0.3,1.5
	C249.7,275,249.5,275.3,249.3,275.5z"/>
<path class="st0" d="M291.6,257.9c-0.5-0.2-1.2-0.6-2.6-1.2c1.4-0.2,1.9-0.3,2.6-0.4C291.6,257,291.6,257.7,291.6,257.9z"/>
<path class="st0" d="M30,87.4c-0.7-0.1-1.3-0.1-1.9-0.1c-0.1-0.2-0.3-0.4-0.4-0.6c0.7-0.3,1.4-0.5,2-0.8C29.7,86,29.9,86.6,30,87.4z
	"/>
<path class="st0" d="M90.4,220.1c0.2-0.5,0.6-1.2,1.2-2.6c0.2,1.4,0.3,1.9,0.4,2.6C91.2,220.1,90.6,220.1,90.4,220.1z"/>
<path class="st0" d="M26.2,89.9c-0.8,0.5-1.4,0.9-2.1,1.3C23.8,89.9,23.5,88.7,26.2,89.9z"/>
<path class="st0" d="M193.6,85.7c-0.3,0.5-0.7,1.1-1.3,2.1C192.1,85.4,192.1,85.4,193.6,85.7z"/>
<path class="st0" d="M192,202.5c0-0.9,0-1.4,0-1.6c0.5,0.4,1.1,0.8,1.9,1.3C193.3,202.2,192.8,202.3,192,202.5z"/>
<path class="st0" d="M299.4,91.8c0.7-0.5,1.4-0.9,2.4-1.5c0,0.7,0.1,1.2,0.1,1.9c-0.8,0.1-1.4,0.1-2,0.1
	C299.7,92.2,299.6,92,299.4,91.8z"/>
<path class="st0" d="M340.8,227.7c0.7-0.3,1.5-0.5,2.1-0.7C343.3,227.9,342.7,228.4,340.8,227.7z"/>
<path class="st0" d="M350.8,251.6c0,0.5,0,1,0,1.6c-0.6,0-1.2,0-2.9,0C349.4,252.3,350,252,350.8,251.6z"/>
<path class="st0" d="M333.8,251.4c0.9,0,1.4,0,1.6,0c-0.4,0.5-0.8,1.1-1.3,1.9C334,252.7,333.9,252.3,333.8,251.4z"/>
<path class="st0" d="M376.6,163.6c0.8-0.2,1.3-0.2,1.9-0.4c0.1,0.6,0.2,1.2,0.6,2.8C377.9,164.8,377.4,164.3,376.6,163.6z"/>
<path class="st0" d="M386,235.1c0-0.5,0-1,0-1.6c0.6,0,1.2,0,2.9,0C387.4,234.3,386.7,234.7,386,235.1z"/>
<path class="st0" d="M303.1,85.3c0-1-0.1-1.9-0.1-2.9c0.2,0,0.4,0,0.7-0.1c0.1,1,0.3,2,0.4,2.9C303.7,85.3,303.4,85.3,303.1,85.3z"
	/>
<path class="st0" d="M350.9,236.6c1,0,2,0,3,0c0,0.2,0,0.3,0,0.5c-1,0-2,0-3,0C350.9,236.9,350.9,236.7,350.9,236.6z"/>
<path class="st0" d="M373.7,223.5c0,0.6,0,1.1,0,1.7c-0.2,0-0.3,0-0.5,0.1c-0.1-0.6-0.2-1.1-0.4-1.7
	C373.2,223.5,373.4,223.5,373.7,223.5z"/>
<path class="st0" d="M331.7,223.2c-0.6,0-1.1,0-1.7,0c0-0.2,0-0.3-0.1-0.5c0.6-0.1,1.1-0.2,1.7-0.4
	C331.7,222.6,331.7,222.9,331.7,223.2z"/>
<path class="st0" d="M305.7,75.2c-0.6,0-1.1,0-1.7,0c0-0.2,0-0.3-0.1-0.5c0.6-0.1,1.1-0.2,1.7-0.4C305.7,74.6,305.7,74.9,305.7,75.2
	z"/>
<path class="st0" d="M343.1,251.2c0-0.6,0-1.1,0-1.7c0.2,0,0.3-0.1,0.5-0.1c0.1,0.5,0.3,1.1,0.4,1.6
	C343.6,251.1,343.4,251.1,343.1,251.2z"/>
<path class="st0" d="M361.1,68.5c0.6,0,1.1,0,1.7,0c0,0.2,0.1,0.3,0.1,0.5c-0.5,0.1-1.1,0.3-1.6,0.4
	C361.1,69.1,361.1,68.8,361.1,68.5z"/>
<path class="st0" d="M367.7,233.3c0.1,0.6,0.1,1.3,0.2,1.9c-0.2,0-0.4,0.1-0.6,0.1c-0.1-0.7-0.3-1.3-0.4-2
	C367.1,233.3,367.4,233.3,367.7,233.3z"/>
<path class="st0" d="M155.6,230.3c0,0.7,0,1.3,0,2c-0.2,0-0.3,0-0.5,0c0-0.7,0-1.3,0-2C155.3,230.3,155.5,230.3,155.6,230.3z"/>
<path class="st0" d="M133.7,234.5c0,0.6,0,1.1,0,1.7c-0.2,0-0.3,0.1-0.5,0.1c-0.1-0.5-0.3-1.1-0.4-1.6
	C133.1,234.5,133.4,234.5,133.7,234.5z"/>
<path class="st0" d="M246.1,276.1c0-0.6,0-1.1,0-1.7c0.2,0,0.3,0,0.5-0.1c0.1,0.6,0.2,1.1,0.4,1.7
	C246.6,276.1,246.4,276.1,246.1,276.1z"/>
<path class="st0" d="M325.7,228.2c-0.6,0-1.1,0-1.7,0c0-0.2-0.1-0.3-0.1-0.5c0.5-0.1,1.1-0.3,1.6-0.4
	C325.7,227.6,325.7,227.9,325.7,228.2z"/>
<path class="st0" d="M365.1,229.3c-0.1-0.6-0.1-1.3-0.2-1.9c0.2,0,0.4-0.1,0.6-0.1c0.1,0.7,0.3,1.3,0.4,2
	C365.7,229.3,365.4,229.3,365.1,229.3z"/>
<path class="st0" d="M74.9,49.5c0.6-0.1,1.3-0.1,1.9-0.2c0,0.2,0.1,0.4,0.1,0.6c-0.7,0.1-1.3,0.3-2,0.4
	C74.9,50.1,74.9,49.8,74.9,49.5z"/>
<path class="st0" d="M148.1,232.2c0-0.6,0-1.1,0-1.7c0.2,0,0.3-0.1,0.5-0.1c0.1,0.5,0.3,1.1,0.4,1.6
	C148.6,232.1,148.4,232.1,148.1,232.2z"/>
<path class="st0" d="M170.3,240.5c-1.2-0.3-1.8-0.5-2.4-0.7c0.5-0.2,0.9-0.4,1.4-0.4C169.4,239.3,169.6,239.7,170.3,240.5z"/>
<path class="st0" d="M388.1,124.3c-0.1-0.6-0.1-1.3-0.2-1.9c0.2,0,0.4-0.1,0.6-0.1c0.1,0.7,0.3,1.3,0.4,2
	C388.7,124.3,388.4,124.3,388.1,124.3z"/>
<path class="st0" d="M391.3,125.5c-1.2-0.3-1.8-0.5-2.4-0.7c0.5-0.2,0.9-0.4,1.4-0.4C390.4,124.3,390.6,124.7,391.3,125.5z"/>
<path class="st0" d="M195.7,135.5c0,0.6,0,1.1,0,1.7c-0.2,0-0.3,0-0.5,0.1c-0.1-0.6-0.2-1.1-0.4-1.7
	C195.2,135.5,195.4,135.5,195.7,135.5z"/>
<path class="st0" d="M343.7,221.5c0,0.6,0,1.1,0,1.7c-0.2,0-0.3,0.1-0.5,0.1c-0.1-0.5-0.3-1.1-0.4-1.6
	C343.1,221.6,343.4,221.5,343.7,221.5z"/>
<path class="st0" d="M130.9,221.1c-0.7,0-1.3,0-2,0c0-0.2,0-0.3,0-0.5c0.7,0,1.3,0,2,0C130.9,220.7,130.9,220.9,130.9,221.1z"/>
<path class="st0" d="M109.1,217.5c0.6,0,1.1,0,1.7,0c0,0.2,0,0.3,0.1,0.5c-0.6,0.1-1.1,0.2-1.7,0.4
	C109.1,218.1,109.1,217.8,109.1,217.5z"/>
<path class="st0" d="M376.1,213.3c0-0.7,0-1.3,0-2c0.2,0,0.3,0,0.5,0c0,0.7,0,1.3,0,2C376.5,213.3,376.3,213.3,376.1,213.3z"/>
<path class="st0" d="M335.1,210.5c0.6,0,1.1,0,1.7,0c0,0.2,0,0.3,0.1,0.5c-0.6,0.1-1.1,0.2-1.7,0.4
	C335.1,211.1,335.1,210.8,335.1,210.5z"/>
<path class="st0" d="M272.9,90.6c0.7,0,1.3,0,2,0c0,0.2,0,0.3,0,0.5c-0.7,0-1.3,0-2,0C272.9,90.9,272.9,90.7,272.9,90.6z"/>
<path class="st0" d="M188.3,210.5c-1.2-0.3-1.8-0.5-2.4-0.7c0.5-0.2,0.9-0.4,1.4-0.4C187.4,209.3,187.6,209.7,188.3,210.5z"/>
<path class="st0" d="M366.7,186.5c0,0.6,0,1.1,0,1.7c-0.2,0-0.3,0.1-0.5,0.1c-0.1-0.5-0.3-1.1-0.4-1.6
	C366.1,186.5,366.4,186.5,366.7,186.5z"/>
<path class="st0" d="M230.6,182.3c0,0.7,0,1.3,0,2c-0.2,0-0.3,0-0.5,0c0-0.7,0-1.3,0-2C230.3,182.3,230.5,182.3,230.6,182.3z"/>
<path class="st0" d="M154.9,118.3c0.3-1.4,1.2-1.3,1.9-0.5c0.4,0.5,0.3,1.5-0.9,1.5C155.6,119,155.2,118.7,154.9,118.3z"/>
<path class="st0" d="M270.9,229.3c-0.6,0-1.2,0-1.8,0c0-0.2,0-0.4-0.1-0.7c0.6-0.1,1.3-0.2,1.9-0.3
	C270.9,228.7,270.9,229,270.9,229.3z"/>
<path class="st0" d="M174.9,188.3c0,0.6,0,1.2,0,1.8c-0.2,0-0.4,0-0.7,0.1c-0.1-0.6-0.2-1.3-0.3-1.9
	C174.2,188.3,174.6,188.3,174.9,188.3z"/>
<path class="st0" d="M136,157.7c1.2-1.9,3-1.3,5.6-1.5c-1,1.2-1.5,1.8-2.6,3.2c0-0.2-0.1,0.7-0.3,1.9
	C137.7,160,136.9,158.9,136,157.7z"/>
<path class="st0" d="M126.8,109.8c-0.1-0.1-0.9-0.5-2.4-1.2c1.9-0.1,3.1-0.2,4.3-0.3c0.1,0.2,0.2,0.4,0.3,0.6
	C128.3,109.2,127.6,109.5,126.8,109.8z"/>
<path class="st0" d="M92.1,180.1c-0.8,0.2-1.3,0.2-1.9,0.4c-0.1-0.6-0.2-1.2-0.6-2.8C90.9,178.8,91.4,179.3,92.1,180.1z"/>
<path class="st0" d="M105,179.1c0-0.5,0-1,0-1.6c0.6,0,1.2,0,2.9,0C106.4,178.3,105.7,178.7,105,179.1z"/>
<path class="st0" d="M113.1,175.9c0.4,0.4,0.9,0.9,1.3,1.3c-0.2,0-0.6,0.1-1.3,0.2C113.1,176.7,113.1,176,113.1,175.9z"/>
<path class="st0" d="M105,171.9c-0.3,1.2-0.5,1.8-0.7,2.4c-0.2-0.5-0.4-0.9-0.4-1.4C103.9,172.8,104.3,172.6,105,171.9z"/>
<path class="st0" d="M125.9,104.3c0,0.7,0,1.3,0,2c-0.3-0.4-0.7-0.8-1-1.2C125.2,104.8,125.6,104.6,125.9,104.3z"/>
<path class="st0" d="M104.9,196.3c-1.5,0.1-0.8,1.2-1,2c-1.8-0.6-1-1.8-0.6-2.9c0.2-0.7,0.4-1.4,0.6-2.1
	C105.8,193.8,104.5,195.3,104.9,196.3z"/>
<path class="st0" d="M108,194.4c-0.7-0.1-1.3-0.1-2.4-0.2c0.6-1.2,1-2,1.9-3.7C107.8,192.3,107.9,193.3,108,194.4z"/>
<path class="st0" d="M101.5,194.5c0.3-1.6,0.9-2.8,2.8-1.6C103.2,193.6,102.3,194,101.5,194.5z"/>
<path class="st0" d="M163.9,113.3c0,0.7,0,1.3,0,2c-0.8,0.2-1.7,0.5-2.7,0.7c0-0.7,0-1.7,0-2.9c0.6,0.5,0.9,0.8,1.2,1.1
	C162.9,113.9,163.4,113.6,163.9,113.3z"/>
<path class="st0" d="M160.9,111.1c-0.6,0.1-1.3,0.1-1.9,0.2c0-0.2-0.1-0.4-0.1-0.6c0.7-0.1,1.3-0.3,2-0.4
	C160.9,110.5,160.9,110.8,160.9,111.1z"/>
<path class="st0" d="M273.4,199.8c0.7-0.6,1.4-1.1,2.2-1.7c1.9,0.5,1.2,3.7,4,3.1c0.2-0.8,0.4-1.8,0.6-2.8c0.2,0,0.3,0,0.5,0
	c0.1,1.2,0.2,2.4,0.3,3.4c-0.6,0.6-1.1,1.1-1.6,1.6c-0.4-0.1-1-0.1-1.2-0.4c-1.1-1.3-2.6-1.9-4.4-1.9
	C273.6,200.7,273.5,200.3,273.4,199.8z"/>
<path class="st0" d="M285.3,165.5c-0.8-0.5-1.5-0.9-2.8-1.7c1-0.4,1.6-0.7,2.4-1.1c0.2,0.4,0.7,1.2,1.2,2.1
	C285.8,165,285.5,165.3,285.3,165.5z"/>
<path class="st0" d="M271.5,194.6c1.5,0.3,2.8,0.8,2,3.1C272.7,196.4,272.1,195.5,271.5,194.6z"/>
<path class="st0" d="M267.3,174.6c0.5,0.3,1.1,0.7,2.1,1.3C267,176.1,267,176.1,267.3,174.6z"/>
<path class="st0" d="M284.7,180.2c-0.6,0-1.1,0-1.7,0c0-0.2-0.1-0.3-0.1-0.5c0.5-0.1,1.1-0.3,1.6-0.4
	C284.7,179.6,284.7,179.9,284.7,180.2z"/>
<path class="st0" d="M281.7,171.2c-0.6,0-1.1,0-1.7,0c0-0.2-0.1-0.3-0.1-0.5c0.5-0.1,1.1-0.3,1.6-0.4
	C281.7,170.6,281.7,170.9,281.7,171.2z"/>
<path class="st0" d="M279.1,206.3c-0.1-0.6-0.1-1.3-0.2-1.9c0.2,0,0.4-0.1,0.6-0.1c0.1,0.7,0.3,1.3,0.4,2
	C279.7,206.3,279.4,206.3,279.1,206.3z"/>
<path class="st0" d="M281.1,188.5c0.6,0,1.1,0,1.7,0c0,0.2,0.1,0.3,0.1,0.5c-0.5,0.1-1.1,0.3-1.6,0.4
	C281.1,189.1,281.1,188.8,281.1,188.5z"/>
<path class="st0" d="M272.7,183.5c0,0.6,0,1.1,0,1.7c-0.2,0-0.3,0-0.5,0.1c-0.1-0.6-0.2-1.1-0.4-1.7
	C272.2,183.5,272.4,183.5,272.7,183.5z"/>
<path class="st0" d="M57,88.2c-0.9,0-1.4,0-1.6,0c0.4-0.5,0.8-1.1,1.3-1.9C56.8,86.9,56.9,87.4,57,88.2z"/>
<path class="st0" d="M269,232.3c-2.5,0.6-2.1-2.8-5.1-2.1c1.6-1.8,2.5-2.9,3.4-3.9c0.2,0.1,0.4,0.2,0.5,0.2
	c-0.2,0.8-0.5,1.5-0.7,2.4C267.7,229.9,268.3,231.1,269,232.3z"/>
<path class="st0" d="M262.1,211.1c-0.8,0.2-1.3,0.2-1.8,0.4c-0.4-1.3-0.8-2.5-1.3-4.3c0.8,0.4,1.5,0.5,1.8,1
	C261.4,208.8,261.6,209.7,262.1,211.1z"/>
<path class="st0" d="M270.7,236c0,2.3,0,3.2,0,5c-0.9-1.1-1.3-1.7-1.3-1.6C269.8,238.4,270.1,237.6,270.7,236z"/>
<path class="st0" d="M263.9,204.3c1,0,2,0,3,0C265.9,205.7,264.9,205.7,263.9,204.3z"/>
<path class="st0" d="M263.7,214.5c0,0.6,0,1.1,0,1.7c-0.2,0-0.3,0.1-0.5,0.1c-0.1-0.5-0.3-1.1-0.4-1.6
	C263.1,214.6,263.4,214.5,263.7,214.5z"/>
<path class="st0" d="M260.6,212.3c0,0.7,0,1.3,0,2c-0.2,0-0.3,0-0.5,0c0-0.7,0-1.3,0-2C260.3,212.3,260.5,212.3,260.6,212.3z"/>
<path class="st0" d="M126.9,66.3c1,0.3,2,0.7,3,1c-0.7,0.8-1.3,1.5-2.6,3C127.1,68.4,127,67.3,126.9,66.3z"/>
<path class="st0" d="M122.7,72.2c-0.6,0-1.1,0-1.7,0c0-0.2-0.1-0.3-0.1-0.5c0.5-0.1,1.1-0.3,1.6-0.4
	C122.7,71.6,122.7,71.9,122.7,72.2z"/>
<path class="st0" d="M167.6,200.5c1-0.1,1.5-0.1,2.3-0.2c-0.1,0.8-0.1,1.4-0.2,2.3C168.9,201.8,168.4,201.3,167.6,200.5z"/>
<path class="st0" d="M168.8,202.5c0,0.8,0,1.7,0,2.8C167.8,203.6,167.8,203.6,168.8,202.5z"/>
<path class="st0" d="M431.7,67.7c0.3-1.2,0.5-1.8,0.7-2.4c0.2,0.5,0.4,0.9,0.4,1.4C432.9,66.9,432.5,67.1,431.7,67.7z"/>
<path class="st0" d="M428.6,89.3c0,0.7,0,1.3,0,2c-0.2,0-0.3,0-0.5,0c0-0.7,0-1.3,0-2C428.3,89.3,428.5,89.3,428.6,89.3z"/>
<path class="st0" d="M427.1,101.3c0-0.7,0-1.3,0-2c0.2,0,0.3,0,0.5,0c0,0.7,0,1.3,0,2C427.5,101.3,427.3,101.3,427.1,101.3z"/>
<path class="st0" d="M256.9,201.3c-0.7,0-1.3,0-2,0c0.2-1.7,0.2-1.7,2-1.9C256.9,200.1,256.9,200.7,256.9,201.3z"/>
<path class="st0" d="M255.4,192.3c0.5,0.9,0.9,1.8,1.4,2.7c-0.4,0.1-0.9,0.2-1.6,0.4c-0.1-1.1-0.3-2.1-0.4-3.1
	C255,192.3,255.2,192.3,255.4,192.3z"/>
<path class="st0" d="M167.5,174.7c1.3-0.5,2.2-0.8,3.3-1.3c0,0.8,0.1,1.7,0.1,2.5C168.7,177,168.8,175,167.5,174.7z"/>
<path class="st0" d="M206.7,172.7c-1.8-2,0.2-2.4,1.2-3.1C207.6,170.6,207.2,171.5,206.7,172.7z"/>
<path class="st0" d="M214.3,156.5c-1.2-0.3-1.8-0.5-2.4-0.7c0.5-0.2,0.9-0.4,1.4-0.4C213.4,155.3,213.6,155.7,214.3,156.5z"/>
</svg>
