<?xml version="1.0" encoding="utf-8"?>
<!-- Generator: Adobe Illustrator 21.0.0, SVG Export Plug-In . SVG Version: 6.00 Build 0)  -->
<svg version="1.1" id="Layer_1" xmlns="http://www.w3.org/2000/svg" xmlns:xlink="http://www.w3.org/1999/xlink" x="0px" y="0px"
	 viewBox="0 0 536.9 321.3" style="enable-background:new 0 0 536.9 321.3;" xml:space="preserve">
<style type="text/css">
	.st0{fill:#FFFFFF;}
</style>
<path class="st0" d="M226.1,0c0,2-1.1,3.5-2.3,4.9c-2-2.1-2-2.1-0.7-4.9C224.1,0,225.1,0,226.1,0z"/>
<path class="st0" d="M405.9,196.1c0.1,0.4,0.1,0.9,0.1,1.4c-0.7,0.3-1.3,0.6-2.3,1.1c0.4,0.7,0.8,1.4,1.3,2.2c-0.9,0-1.7,0-2.7,0
	c-0.5-0.5-1.2-1.1-1.9-1.8c-0.5,2.2-0.9,4.4-1.3,6.6c0.2,0.2,0.4,0.4,1,0.9c-1.3,1-2.5,2-4,3.3c0,0.2-0.1,0.9,0,1.5
	c0.1,0.4,0.6,0.8,0.7,0.9c-0.3,1.2-0.6,2.2-1,3.5c-0.4,0.2-1.1,0.5-1.9,0.9c0.3,0.6,0.6,1.2,1,2.2c-0.5,0.3-1.4,0.7-1.8,0.9
	c0,2.7,0,4.7,0,6.6c-2.9,2.6-2.5,6.7-4.6,9.7c-0.6,0-1.3,0-1.9,0c-0.1,0.1-0.4,0.3-0.4,0.3c0.3,1,0.7,1.9,1.1,3.1
	c-1.5,1-2.7,1.9-4,2.7c0.3,1.6,0.6,3,0.8,4.6c-0.7,0.2-1.2,0.3-1.9,0.5c-1.6,2.2,2.4,4.3,0.9,5.8c-2.2,1.4-3.8,2.3-5.5,3.4
	c0.6,1.2,1,2,1.6,3.2c-0.7,0.3-1.4,0.6-2.1,0.9c0.7,0.6,1.4,1.1,2.4,2c-2.3,1.3-4.3,0.2-6.6,1c0-1.3,0.1-2.3,0-3.2
	c-0.1-0.7-0.7-1.4-1-2.1c0.4-0.7,0.8-1.3,1.5-2.5c-0.8-0.4-1.7-0.9-2.5-1.3c1.7-1.8,2.9-3.2,4.2-4.6c-0.5-0.5-0.8-0.8-1.3-1.4
	c0.6-0.9,1.3-1.7,1.7-2.4c0.7-2.3,1.3-4.4,2-6.4c0.2,0,0.3,0.1,0.5,0.1c0-1.3,0-2.6,0-4.2c0.5-0.2,1.1-0.3,1.5-0.4
	c1.6-4.1,3.2-8.2,4.6-11.7c-1.6-1.7-2.8-3.2-4.1-4.6c0.4-0.4,0.6-0.6,0.6-0.6c-0.8-0.9-1.6-1.8-2.6-3c-0.1,0.1-0.7,0.3-1.4,0.7
	c-1.4-0.5-1.7-1.8-1.4-3.4c-0.7-0.2-1.3-0.4-1.9-0.7c-0.1-0.7-0.2-1.5-0.3-2.4c-0.5-0.2-1.1-0.4-1.7-0.6c-0.1-1.8,2.1-2.1,6.4-0.8
	c0.2-2.4,0.2-2.4-1.8-5.2c0.6-1.4,1.3-2.9,2-4.5c-0.5-0.1-1-0.1-1.4-0.2c-0.4,0.7-0.7,1.4-1,2c-2.2,0.1-2.1-1.8-3.1-3.4
	c-0.6,1.5-1.2,2.7-1.9,4.4c-0.8-0.1-2-0.3-3.3-0.6c-0.1,0.5-0.2,1.4-0.4,2.4c-0.5-0.3-1-0.5-1.6-0.8c-0.1,0.5-0.1,1-0.2,1.4
	c0.7,0.3,1.3,0.6,2.1,1c-2.1,0.5-4,1.1-5.9,1.6c0,1,0,1.8,0,2.5c2.4,0.6,4.7,1.1,6.9,1.6c0,0.5,0,0.8,0,1.5
	c-1.7,0.1-3.5,0.2-5.2,0.2c-2.1-1.6-3.9-3.4-7-3c0.6,0.7,0.8,1,1.4,1.6c-1,0.1-1.9,0.3-2.7,0.4c0.2,1.8,0.5,3.6,0.8,5.5
	c-2.2,0.8-2.9,3.2-4.5,3.9c-2.1,0.8-2.5,2.6-3.7,4c0.3,0.3,0.6,0.7,0.9,1.1c-1.3,1-2.8,1.8-3.9,2.8c-1,0.9-1.6,2.3-2.5,3.4
	c-1.9,2.2-4.1,3.6-7.2,3.1c-1.1,1.6-2.2,3.1-3.4,4.8c0.3,1,0.7,2.1,1.2,3.5c-1.2,1.2-2.3,2.3-3.7,3.7c1,1.1,1.8,2,3.1,3.3
	c-1.1,0.5-1.7,0.7-1.6,0.7c-1.3,2.1-2.3,3.7-3.1,5c-1.5,0-2.5,0-3.3,0c-0.9-1.3-1.7-2.4-2.6-3.8c0-2.2-0.1-4.8,0-7.2
	c0.1-2,0.8-4,0.9-6.1c0.1-1.4,0.6-2.8-0.6-4.3c-0.4-0.5,0.5-2.1,0.1-3.5c-0.2,0.6-0.5,1.1-0.7,1.8c-1.1,0-2.2,0-3.3,0
	c-0.5-1.6-2.2-2.8-0.8-5.1c0.2,0.7,0.4,1.2,0.6,1.8c1.4,1.2,2.6-0.2,5-0.1c0.5-0.2,0.3-0.6,0.2-0.5c-0.5,0.1-0.9,0.3-1.4,0.4
	c0.6,0.2,1.2,0.3,1.2,0.1c-1.6-1.4-2-2.2-2.5-3.3c-2.7-1.1-5.7-2.4-9.2-3.8c0.8-0.8,1.4-1.3,2.2-2c-0.5-1.1-1.2-2.5-2.1-4.4
	c1.7,0,3,0,4.3,0c0-0.8,0-1.3,0-2.1c-0.6,0.4-1.1,0.7-1.9,1.2c-0.4-1.1-0.7-2.1-1-3.6c0-0.1,0,0.2,0,0.5c1-0.1,2-0.3,2.9-0.4
	c0-0.2,0-0.4-0.1-0.7c-1,0-1.9,0.1-2.9,0.5c-1,0.4-2,0.4-3,0.4c0-0.5,0-1,0-1.8c-0.7-0.1-1.5-0.2-2.1-0.3c-2.4-1.7-4.6-3.3-6.9-4.9
	c0-0.6-0.1-1.2-0.1-2c-0.7,0.1-1.3,0.1-1.9,0.2c0.1,0.7,0.1,1.1,0.1,1.7c0.7,0.1,1.3,0.1,1.9,0.1c0.4,1.5,0.7,3,1.1,4.5
	c-1.4,0.5-2.7,1-4.3,1.5c0.5,0.8,0.8,1.3,1.3,2c-0.5,0.6-1.1,1.3-1.7,2c-0.3-0.3-0.6-0.6-0.9-0.9c-1,0.3-2.1,2-2.9-0.1
	c-1.7,0.9-3.3,1.7-5,2.6c0.4,0.7,0.7,1.2,1.1,1.8c-1.2,0.5-2.5,1.1-3.6,1.5c0.3,1.3,0.6,2.1,0.8,3c-0.5,0-1,0-1.6,0
	c-0.3-0.6-0.6-1.3-1-2.2c-0.3,0.8-0.5,1.4-0.7,2c-0.8,0.1-1.5,0.2-2.3,0.3c-0.6,0.6-1.2,1.2-1.8,1.8c-0.6,0.6-1.1,1.2-1.6,1.8
	c-0.6,0.7-0.9,1.9-1.6,2.2c-0.9,0.3-1.4,0.4-1.5,1.5c0,0.2-1.2,0.4-2.5,0.8c0.9-1,1.2-1.4,2-2.3c-2,0.5-3.4,0.9-5,1.3
	c-0.6,0.9-1.2,1.9-2,3.1c-1.2-0.3-2.2-0.6-3.3-0.9c-0.1,0.2-0.2,0.7-0.3,1.3c-1.1,0.5-2.3,1.1-3.6,1.7c-0.2,0.5-0.4,1.1-0.6,1.7
	c-0.7,0-1.4,0-2.1,0c-1.1,2.6-3.3,3.5-5.6,2.9c-2-0.5-3.8-1.8-5.6-2.7c-0.3,0.3-0.5,0.5-0.9,0.9c-0.9-1.3-1.7-2.6-2.4-3.6
	c-2.1,0.2-3.9,0.4-5.4,0.6c-1.7-1.6-2.2-3.9-4.9-4.1c-0.3,0.3-0.8,0.6-1.5,1.2c-0.6-0.4-1.2-0.8-2-1.3c0.1-2.4,2.4-2.9,3.7-4.3
	c-0.2-0.3-0.5-0.6-1-1.2c0.7-0.5,1.5-1,3.2-2.1c-2.3-0.1-3.6-0.2-5.1-0.3c0.4,1,0.8,1.8,1.1,2.7c-2.5,0.9-5.2-0.4-7.2,1.4
	c0-0.6,0-1.2,0-2c-2.9,0.1-3.2,1.9-3,3.8c-2.1,0.5-3.8,0.5-4.8-0.9c0.3-1.1,0.5-2,0.8-2.8c2.5-1.1,5.2-1.7,7.3-4.1
	c-1.2-0.9-2.2-1.6-3.3-2.4c0.4-0.5,0.7-0.9,1.2-1.4c-0.6-1.1-1.3-2.2-2-3.4c-2.6,1.3-0.1,2.2-0.2,3c-0.4,1.2-0.7,2.2-1,3.3
	c-0.7,0-1.3,0-3.2-0.6c-0.5,0.2-0.3,0.6-0.2,0.5c0.5-0.1,0.9-0.3,1.4-0.4c-0.6-0.2-1.2-0.3-1.2-0.1c1.6,1.2,1.9,1.9,2.2,2.4
	c-0.4,1.2-0.7,2.2-1,3.2c-0.6,0-1.2,0-2,0c0.5-1,0.9-1.6,1.2-2.1c-0.4-0.4-0.6-0.9-0.8-0.8c-1.7,0.1-3.6-0.5-5.1,0.9
	c-0.2,0.2-1.1-0.4-1.9-0.7c-0.4,1.3-0.1,3.4-2.6,3.9c-0.3-0.3-0.8-0.6-1.8-1.5c0.4,1.4,0.6,2.2,0.9,3.2c-0.4,0.5-1.1,1.2-1.7,1.8
	c0,0.7-0.1,1.4,0,2c0.9,6.7-1.7,12.8-3.2,19.1c-0.1,0.6-0.7,1.1-0.8,1.7c-0.6,3.8-1,5-3.3,8.5c-1.4,0.2-2.9,0.7-4.6-1.2
	c-0.1-0.8-0.2-2.1-0.4-3.3c-0.6-0.6-1.2-1.2-1.7-1.7c2.9-4.8,1.9-10.4,3.7-15.8c-2-1.9-0.5-4.3,0.4-7c-0.7-0.8-1.5-1.6-1.9-2.1
	c-0.6-3.8-1.1-7.3-1.6-10.7c-1,2.3-0.7,4.7-0.7,7.1c0,1.9-0.1,3.7-2,4.9c0-1,0-1.9,0-3.3c-4.2,2.3-8.9,0.3-12.9,3.6
	c-0.5-1.4-1-2.7-1.5-4c-0.1,0.1-0.6,0.2-0.6,0.3c0.2,1.5-0.2,2.6-1.5,3.4c-0.3-0.3-0.7-0.6-1.1-0.9c-0.4,0.5-0.9,1-1.3,1.5
	c0.3,1.3,0.7,2.8,1.2,4.9c-1.4-0.5-2-0.8-3-1.2c-0.5,0.6-1.1,1.5-1.9,2.6c1,2.5,1.4,4.3-0.7,9.1c-0.9,0-1.9,0-3.1,0
	c-0.9-1.1-2-2.3-3.4-4c-0.1-0.5-0.2-1.7-0.3-3.2c-0.8,0.3-1.4,0.4-1.6,0.7c-0.8,1.2-1.5,2.4-2.3,3.7c-0.6-0.5-0.9-0.8-1.3-1.1
	c-0.3,0.3-0.7,0.6-0.9,0.8c-1.1-0.6-2.2-1.3-3.5-2.1c0-1.2,0-2.4,0-3.7c-0.8,0-1.3,0-2.1,0c0,1.3,0,2.6,0,3.8c-0.2,0-0.4,0-0.6,0.1
	c-0.2-1-0.4-1.9-0.6-3.1c-0.8,1.2-1.4,2.2-2.2,3.4c-0.7-1.2-1.3-2.1-2-3.2c-0.9,0-2,0-3.3,0c-0.5,0.9-1.1,1.9-1.6,2.8
	c-0.2-0.2-0.5-0.4-0.6-0.5c-1.9,0.3-3.7,0.5-5.7,0.8c-0.4,0.4-1,1-2,2c-2.2-0.3-4.7-0.6-7.8-1.1c-2.8,1.4-3.2,6.2-7.2,7.1
	c-0.7,2.8-2.9,4.5-4.6,6.5c-1.8,2-3.6,4.1-6.2,5.5c-2.5,1.3-4.4,3.7-6.7,5.5c-2.2,1.7-4.6,3.3-6.9,5c-2.3,1.7-5.3,2.1-7.2,4.2
	c-3-0.4-4.9,2.1-7.1,3.3c-2.5,1.4-6-0.3-7.6,2.7c-2.9,0.4-5.8-0.5-8.7,0.8c-0.3-0.3-1-1-1.6-1.5c-0.6,0.4-1.2,0.7-1.6,1
	c-2-1.7-3.8-3.2-5.9-5.1c-0.3-1.7,0.5-3.9-0.9-6.1c-0.6-0.9-0.4-2.5,0.8-3.6c0.6-0.5,0.8-1.6,1-2.5c0.2-0.8,0-1.6,0-2.6
	c-0.8-0.5-1.6-1-2.3-1.5c-0.3,0.5-0.7,0.8-0.6,1c0.4,1.6,1.8,2.8,0.1,4.8c-0.8,1-0.1,3.2-0.1,5.1c-1.1,0.7-2.3,1.5-3.9,2.5
	c0.2-1.1,0.3-1.8,0.5-3c-0.9-0.6-2.1-1.4-3.7-2.5c0.2-1,0.4-2.2,0.6-3.7c-0.8,0-2.1,0.3-3-0.1c-0.9-0.4-1.6-1.1-3-0.9
	c-0.1,0,0.2,0,0.5,0c-0.1-0.7-0.3-1.3-0.4-2c-0.2,0-0.4,0.1-0.6,0.1c0.1,0.6,0.1,1.3,0.6,1.9c0.4,0.8,0.4,1.7,0.4,2.6
	c1.2,0.8,2.6,1.7,3.9,2.6c0,0.8,0,1.6,0,2.5c-1.3,0.2-2.6,0.4-3.8,0.6c-1,0.2-2,0.4-3.1,0.1c1.3-0.7,2.6-1.3,4.5-2.3
	c-2,0-3.5,0-5.3,0c-0.6-2-1.1-3.9-1.7-6c-2.6-0.9-2.6-3.2-2.6-6c0.7-0.1,1.5-0.1,2.2-0.3c0.5-0.1,1-0.6,1.5-0.9
	c0.2,0.7,0.5,1.3,0.7,2.1c2-0.7,3.3-1.8,3.8-3.9c1.2,0,2.5,0,3.7,0c0,0.1,0,0.3,0,0.4c-0.5,0.2-1.1,0.4-1.8,0.6c0,0.8,0,1.7,0,3.1
	c1.1-0.6,1.9-1,2.8-1.5c0-1.5,0-3,0-4.2c0.7-0.7,1.1-1.2,1.7-1.8c1,0.4,1.9,0.9,3.2,1.4c0-1.5,0-2.6,0-3.4c1.5-1.9,2.8-2.8,4.6-0.9
	c0.5-0.3,1-0.7,1.7-1.2c0.9,0.8,1.7,1.5,2.5,2.2c1,0,2,0,3,0c0.6-0.6,1.2-1.2,1.7-1.7c2.2-1.2,4.4,0.9,6.7-0.1
	c2-0.8,4.6,0.7,6.5-1.1c1.8,2.3,4.9-0.2,6.9,1.8c1.1-0.6,2.3-1.3,3.6-2.1c-0.4-0.5-0.6-0.8-0.9-1.2c0.6-0.8,1.2-1.7,1.8-2.5
	c0.2-0.2,0.2-0.6,0.3-1c0.8,0,1.5,0,2.7,0c0,0.7,0,1.3-0.6,3.1c0.2,0.5,0.6,0.3,0.6,0.2c-0.1-0.5-0.3-0.9-0.4-1.4
	c-0.2,0.6-0.3,1.2-0.1,1.2c1.5-2.2,2.4-4.1,3.2-4.1c1.8,0,2.7-1,3.7-2.1c2.1,1.7,3.1-0.9,4.7-1.1c1.9-0.3,3.7-0.7,5.7-1.1
	c1.6-2.5,4.1-3.7,6.8-4.8c0.2-0.1,0.7,0.6,1,0.8c1.4-1,1.9-2.7,3.3-3.7c1.1-0.8,1.1-3.1,1.7-5.1c0,0.1-0.3-0.4-0.5-0.9
	c0.8-1.5,1.6-2.9,2.4-4.4c-1.4-0.9-2.5-1.6-3.8-2.4c0.6-1.3,1.1-2.4,1.8-3.8c0.5,1.1,0.8,1.7,1.4,3c0-1.5,0-2.2,0-3.1
	c-0.7-0.4-1.6-1-2.4-1.5c-0.2-0.5-0.3-0.8-0.4-1.1c-1.1-4.7-1.4-9.7-6.7-12.1c-0.2-0.1-0.1-0.6-0.3-0.8c-0.6-0.7-1.3-1.4-2-2.1
	c-0.6-0.7-1.4-1.4-1.8-2.2c-0.5-0.9-2.4-0.1-2.3-2c0-0.7-1.3-2.1-1.9-2c-2.1,0.1-2.7-2.1-4.4-2.6c-1.8-0.5-3.5-1.3-5.2-2
	c-1.8-0.8-3.7-1.5-5.4-2.6c-1.5-0.9-3.8-0.7-4.1-3.1c-1.8-0.5-3.6-1.3-5.4-1.3c-5.9,0.1-11.8-1.6-17.7-1.2c-1.6,0.1-3.3-0.8-5.4-1.3
	c-1.1-0.9-2.6-2.1-4.1-3.3c-0.5-2.3-1-4.8-1.5-7.6c-1.4,0.6-2.6,1.1-3.8,1.7c0.4,0.5,0.7,0.8,1.1,1.3c-1.3,0.8-2.5,1.5-3.7,2.2
	c-0.5-2-1-3.9-1.6-6c-0.6,0.5-0.9,0.8-1.3,1.1c-0.5-0.3-1-0.6-1.6-0.9c0.4-0.7,0.9-1.3,1.3-2c0.7,0.4,1.4,0.8,2.2,1.3
	c0.6-2.5,1.2-4.8,1.8-7.2c1.6,1.2,3.2,2.3,5.5,3.9c-2.4,0-4,0-5.7,0c0.5,1.1,0.9,1.9,1.4,3c0.8-0.7,1.6-1.3,2.5-2.1
	c0.5,0.3,1.1,0.7,1.9,1.2c0.1-1.1,0.5-2.2,0.2-3.1c-0.5-1.2,1.6-2,0.3-3.3c-0.5-0.5,0.1-2,0.3-3.4c-0.9,0-2.3-0.2-3.7-0.1
	c-1.2,0.1-2.4-1.6-3.7-0.1c-0.1,0.2-0.6,0-1,0c-7.3-0.3-8.5-1.3-9.2-8.5c2.1-0.1,2.1-2.3,3.4-3.4c1.4-1.2,2.6-2.6,3.8-3.7
	c1.8-0.6,3.4-1.2,5.1-1.7c0-1,0-1.8,0-2.6c0.8,0.5,1.5,0.8,2.5,1.4c0.2-1.3,0.3-2.2,0.5-3.1c0.6-0.2,1.1-0.5,1.8-0.7
	c0-0.8,0-1.5,0-2.4c-1,0.2-1.9,0.5-2.7,0.7c-0.1-0.2-0.2-0.4-0.2-0.6c1.2-0.8,2.3-1.5,3.8-2.5c1.1,0,2.6,0,4.3,0
	c0.5-1.3,1-2.6,1.5-3.9c1,0.4,3.5,0.1,6.2-1c0.5,0.7,1,1.5,1.7,2.6c0.3-1,0.7-1.6,0.5-1.9c-0.6-1.3-1.3-2.4-2.4-4.3
	c1.1-0.5,2.4-1,3.7-1.5c4.1-1,4.1-1,6.1-0.1c1.2-0.8,2.4-1.6,3.5-2.4c-0.3-0.4-0.6-1-0.9-1.5c0.8,0,1.7,0,3,0
	c-0.4-0.6-0.6-1-0.9-1.6c0.2-0.2,0.5-0.6,0.8-0.9c-0.3-0.3-0.6-0.7-0.9-1c2.4-1.6,5.4-2.4,6.6-5.5c2.6-0.8,4.1-3.2,6.3-4.6
	c-0.3-0.3-0.6-0.7-0.9-1.1c0.7-0.3,1.2-0.5,1.9-0.8c-0.3-0.4-0.6-0.7-0.8-1c0.4-0.9,0.7-0.9,4.4,0.4c2.5-0.9,4.8-1.7,7.5-2.6
	c-0.3-1-0.6-2.3-1.1-4c1.7-1.1,3.6-2.4,5.8-3.8c-0.3,1.8-0.6,3-0.8,4.3c0.2,0.1,0.4,0.2,0.6,0.3c0.6-0.8,1.1-1.5,1.6-2.1
	c3.1,0.7,5.8,1.3,8.6,2c0.1-0.5,0.2-0.9,0.4-1.4c-0.7-0.3-1.4-0.7-2.1-1c0-0.6,0-1,0.1-1.4c1-0.4,1.9-1,3.2-1.8
	c-2.3-0.8-2.7,0.5-3.2,1.8c-1-0.4-1.9-0.6-3.1-0.9c0.2,0.7,0.5,1.5,0.8,2.5c-1,0.5-1.8,0.4-1.8-1.3c-1.3-0.5-2.6-0.9-4.3-1.6
	c1.5-1,2.6-1.7,3.8-2.6c1.5,1.5,3.2,0.5,4.7-0.5c0.5,0.4,0.9,0.7,1.3,1.1c0.5-0.5,1.1-1.1,1.6-1.6c-0.9-1.6-1.7-3-2.6-4.8
	c2.3-0.7,4-1.2,5.9-1.7c0.6,1.2,1.2,2.2,1.9,3.7c-0.9,0.4-1.9,0.8-3.4,1.4c1.8,0.9,2.6,1.1,3,1.5c0.5,0.6,0.6,1.4,1.1,2.5
	c-1.5,0.4-3.1,0.9-4.8,1.4c-0.3,0.6-0.7,1.4-1,2.2c0.3,0.1,0.7,0.4,0.8,0.3c2.2-1.6,4.6-0.8,7-0.5c-1.7,0.5-3.4,1-5.3,1.6
	c0.6,1.4,1.1,2.4,1.7,3.6c-1.2,0-2.1,0-3.1,0c0.3-0.8,0.6-1.6,0.9-2.4c-1.7,0.3-3.6,0-4.6,0.8c-1.6,1.3-2.9-1.3-4.5,0.4
	c0.3,0.6,0.6,1.6,1.1,2.8c-0.7,0.4-1.3,0.7-2.6,1.4c1.4,0,2.2,0,3.1,0c0.1-0.4,0.3-1,0.5-1.5c1.5-0.4,2.9-0.8,4.8-1.4
	c0,1.8,0,3.3,0,5c2.3-0.6,2.1-2.4,2.1-3.9c1,0,1.7,0,2.4,0c0.5,1,1.1,2.1,1.7,3.4c-0.6,1.3-1.3,2.7-1.9,3.9c0.2,0.9,0.5,1.8,0.7,2.6
	c-1.3-0.1-2.5-0.1-3.8-0.1c-0.2-0.7-0.4-1.3-0.6-1.9c-1.5,1-2.9,2-4.3,2.9c-1.5-0.4-2.4,0-3.5,2.1c2.2-0.4,4.1-0.8,6-1
	c2.1-0.2,4.2,0.2,6.2-0.3c0-0.6,0-0.9,0-1.8c0.7,0.1,1.3,0.1,2,0.1c-0.3,0.5-0.6,1-0.9,1.6c1.3,0.8,0.8,2.2,1.6,4.3
	c-0.2,0.1-0.6-0.4-1.4-1.2c-0.1,0.9-0.1,1.6-0.2,2.3c0.8-0.1,1.2-0.1,1.6-1.1c-0.2-0.9,0.3-0.9,0.8-0.9c0.5,0.9,0.9,1.7,1.5,2.8
	c-0.9,0.1-1.8,0.3-3,0.4c0,0.6,0,1.2,0,1.8c-2,0.5-1.9,2.2-2.2,3.7c-1.2-0.3-2.3-0.6-3.4-0.9c-0.1,0.2-0.2,0.4-0.3,0.6
	c0.9,0.6,1.8,1.2,2.6,1.7c0.2,1.5,0.5,2.9,0.8,4.9c-0.6,0.9-1.6,2.4-2.5,4c-1.2,0-2.3,0-3.5,0c-0.6-0.6-1.1-1.2-1.7-1.8
	c-1.2,0-2.5,0-4.2,0c1.8,0.8,3.2,1.4,4.7,2c-0.6,0.7-0.9,1-1.5,1.6c0.9,0.9,1.7,1.7,3,3.1c0.3,0,1.2,0.2,2.1,0.3
	c0,1.1,1.1,2.4-0.8,2.8c0-0.6-0.1-1.2-0.1-2c-0.7,0.1-1.3,0.1-1.9,0.2c0.1,0.7,0.1,1.1,0.1,1.7c0.7,0.1,1.3,0.1,1.9,0.1
	c-0.7,0.9-1.3,1.8-2,2.7c0,0.8,0,1.6,0,2.3c-1.3,1.2-2.5,2.3-4.2,4c-0.5,0-2,0-3.4,0c-0.7,1.1,0.5,1.1,0.6,1.6
	c1.3-0.2,2.5-0.4,3.9-0.7c0,0.8,0,1.3,0,1.7c-0.2,0.2-0.4,0.4-0.4,0.4c-0.3-0.2-0.5-0.5-0.9-0.8c-1,0.5-2,1-3.5,1.8
	c-0.5-1-1-2.2-1.7-3.8c-1.3-0.7-3-1.6-5.4-2.9c-0.6-1-0.6-3.1-1.3-4.6c-0.8-1.7-2.1-3.1-1.7-5.4c-1.3,0-2.4,0-3.9,0
	c-0.4,0.7-1.1,1.7-1.8,2.8c-0.7,0-1.3,0-2,0c-0.1-0.3-0.3-0.6-0.2-0.7c0.9-1.3,2.5-2.5,2.6-3.9c0.1-1.8,1.1-2.8,2.3-4.1
	c-2.2-0.6-3.9-0.8-5.2,1.2c0.7,0.3,1.3,0.6,2,0.9c0,1.9-1.4,2.3-2.9,2.8c-0.1,0.7-0.2,1.5-0.3,2.4c-0.5,0.2-1.1,0.4-1.8,0.6
	c0,0.7,0,1.5,0,2.7c0.6-0.4,1-0.7,1.6-1.1c0.1,0.5,0.3,0.9,0.5,1.6c-0.7,0.2-1.2,0.3-1.8,0.5c0.6,1.8,1.5,3.7-0.5,5.7
	c1.4,0,2.5,0,3.8,0c0.6,1.9,1.1,3.7,1.7,5.7c-1.1,0.7-2.1,1.4-3.1,2c0,2.1,0,4.2,0,6.4c0.6,0,1.1,0,1.9,0c0-1,0-1.9,0-2.9
	c0.5,0,1,0,1.6,0c0.2,0.5,0.4,1.1,0.8,2.4c0.3-1.3,0.5-2.3,0.7-3.3c0.4,0.3,0.8,0.6,1.1,0.8c2.3,0,4.5,0,6.8,0c0.3,1,0.7,2,1.1,3.5
	c0.9-1.7,3.7-0.6,2.7-3.3c2.1,0,3.9,0,6,0c0.1,1.1,0.2,2.3,0.3,3.5c0.7,0.2,1.3,0.5,1.9,0.7c-0.7,0.8-1.4,1.5-2.3,2.4
	c2.2,0.5,4.4-0.2,6.2,1.1c0.5,0.4,1.9-0.3,3.3-0.6c-0.6,1.1-1.1,1.8-1.6,2.7c-1.5,0-3,0-4.3,0c-0.6,0.6-1,1.1-1.5,1.5
	c1.6,1.2,2.7,0,4-0.6c0.6,0.4,1.3,0.8,1.9,1.1c1.2-0.8,2.3-1.5,3.5-2.2c0.2,0.2,0.4,0.3,0.6,0.5c-0.4,0.9-0.7,1.9-1.1,2.8
	c2.5,2.6,2.5,2.6,5.6,0c0.1,0.1,0.3,0.2,0.3,0.4c0,0.3,0,0.7,0,1.3c1.6,0.1,3.1,0.1,5,0.2c-1.5-2.2-0.1-6.5-4.9-4.9
	c0-1.2,0-1.8,0-2.5c1.4-0.7,2.9-1.4,4.7-2.4c0.4,0.7,1.1,1.7,1.8,2.7c0.9,0,1.9,0,2.9,0c1-0.9,0.7-3.4,3.1-2.9
	c-0.3,1.1-0.5,2.2-0.8,3.6c-0.8,0.2-1.9,0.5-2.8,0.9c-0.9,0.4-1.6,1.1-2.2,1.6c0.6,1.6,1,2.6,1.5,3.8c-2.1,2.5-3.2,5.9-7.1,6.8
	c1.3,0.2,2.5,0.4,4.5,0.7c-1.3,0.7-2.1,1.2-3,1.7c1.2,1.2,2.1,2.1,3,3c0.2-0.6,0.4-1.2,0.7-2c0.9,0.4,1.8,0.9,2.7,1.3
	c-0.4,0.5-0.8,1-1,1.4c0.5,2.3,2.4,2.1,3.9,2.5c0,0.5,0,0.9,0.1,1.6c-0.9-0.4-1.6-0.7-2.3-1c-1.1,1.1,1.1,3.8,4.5,5.9
	c-0.2,0.4-0.3,0.9-0.6,1.2c-0.2,0.2-0.6,0-1,0c0.6,3.3,1.3,6.5,2,10.2c0.4-0.9,0.7-1.5,1-2.3c0.5,0.1,1.1,0.3,1.9,0.6
	c-1.6,2.2-3,4.1-4.4,5.9c0,3.1,0,3.1-1,5.2c0.6,0.2,1.2,0.4,2,0.7c-0.1,0.5-0.1,1.1-0.2,1.8c-0.6-0.5-0.9-0.8-1.3-1.1
	c-0.7,1.9-1.4,3.7-2.2,5.7c0.1,0.2,0.5,0.7,1.1,1.5c-3,2.3-5.1,5-5.2,8.9c-1.3,0.5-2.6,0.9-1.8,3.2c0.8-1.3,1.4-2.2,1.8-3.2
	c1.2,0.5,2.3,1.5,4.2,0.3c1-0.6,2.8-1.8,4.5-0.5c0.3,0.2,1.3-0.8,2-0.9c1.3-0.1,0.8-1.3,1.3-1.6c0.7-0.5,1.8-0.5,2.6-0.8
	c0.7-0.3,1.4-0.7,2.1-1.1c-0.3-0.3-0.6-0.7-1-1.2c0.9-0.6,1.7-1.2,2.8-1.9c1.6-3,1.6-6.7,1.1-10.1c-0.3-1.7,2.8-3.1,0.3-4.7
	c1.2-1.3,0.8-3,0.9-4.5c0.1-1.7-0.4-3.6,1-5.1c-0.2-5.2,1.7-10.3,1.1-15.5c-0.2-1.5,0.4-3.1,0.7-5.2c0,0-0.3-0.5-0.9-1.1
	c0.6-1.1,1.2-2.4,1.7-3.3c-0.4-3.1,0.9-5.7,0.7-9.2c0.4,0.4,0,0.1-0.4-0.4c0.4-0.8,1.2-1.7,1.1-2.5c-0.6-5.3,1.1-10.3,1.2-15.5
	c0.1-4.4,0.5-8.8,1.8-13.2c0.5-1.8,0.1-3.9,0.1-5.9c0.7-0.1,1.1-0.2,1.6-0.4c0.4-2.1,0.9-4.3,1.3-6.3c1.4-0.9,2.8-1.8,4.1-2.7
	c1.7,0.8,3.3,1.6,5,2.5c-0.7,0.7-1.3,1.4-1.9,2c1.3,0.6,2.7,1.2,4.2,1.9c-0.6,1.2-1,2.1-1.6,3.3c1.5,0.2,2.6,0.3,4.1,0.5
	c0.1,0.8,0.3,1.7,0.4,2.6c0.6,0.2,1.2,0.4,2.5,0.9c-1.6,0.3-2.5,0.4-3.7,0.6c0,0.6,0,1.2,0,1.7c-1,0.1-2,0.2-3.5,0.4
	c1.4,0.7,2.3,1.1,3.3,1.6c0.1-0.7,0.1-1.3,0.1-2c0.6,0.1,1.2,0.1,2.3,0.1c-0.9,2.3-1.6,4.1-2.3,6c-0.8-0.4-1.2-0.6-2.4-1.2
	c0.9,2,1.5,3.3,2,4.5c1.7,0.7,3.1,1.3,4.8,2c-0.7,0.6-1.1,0.9-1.6,1.3c-1.1-0.2-2.3-0.4-4.2-0.7c0.5,1.7,0.8,2.8,1.1,4
	c1.4,0,2.3,0,3.8,0c0.5,0.9,1.2,2.1,1.9,3.3c-0.7,0.3-2,0.8-3.4,1.3c0,0.6,0,1.4,0,2.4c0.8,0,1.6,0,2.8,0c-0.5,1.1-0.8,2-1.2,2.9
	c-0.7,0.3-1.4,0.6-2.6,1.1c-0.3-0.5-0.8-1.3-1.2-2c-1.8,1.1-2.3,2.3-1.9,3.9c0.7,0.3,1.3,0.5,1.8,0.7c-0.3,1.6-0.5,3.2-1,4.6
	c-0.5,1.5,2.3,2.5,0,4.1c2.5-0.6,3.8-1.8,4.4-4c0.5,0.3,1,0.6,1.6,1c1-0.5,2-1,3.5-1.8c-1.4-0.2-2.3-0.3-3.3-0.5c0-0.5,0-1,0-1.6
	c1.2,0,2.3,0,3.4,0c1.1-2,2.1-3.9,3.1-5.9c1.1,0.7,2.5,1.5,3.9-0.3c0.4,0.3,0.7,0.6,1.1,1c0.4-1.9,1.4-4,1-5.8c-0.4-2-0.5-3.5,0-5.5
	c0.6-2,0.2-4.2,0.4-6.3c0.2-1.9-0.2-3.8,0.6-5.7c0.7-1.9,0.2-4.2,0.4-6.3c0.2-1.9-0.7-3.9,0.7-5.8c-0.3-0.7-0.6-1.4-1.2-2.9
	c1.2,0.7,1.6,1,2.4,1.4c0.3-5.3-1.2-11,4.1-14.5c-0.5-0.5-0.7-0.7-0.8-0.8c3.3-4.9,3.4-10.9,5.6-16.3c-0.2-0.2-0.5-0.5-1-1.1
	c2.3,0,4.3,0,6.4,0c1.1-1.3,2-2.4,3-3.5c0.5,0.5,0.7,0.7,1.1,1.1c0.7-0.6,1.3-1.3,2.5-2.4c0,2.7,0,4.6,0,6.2c-1.6-0.3-3-0.5-5.1-0.8
	c1.1,1.8,1.9,3.1,2.8,4.7c1.2-0.9,2.2-1.7,3.3-2.5c0.7,0.1,1.5,0.2,2.9,0.4c-1.7,2.1-2.9,3.7-4.6,5.9c0-0.2,0,0.5,0,1.3
	c1.2,0.6,2.6,1.3,3.9,2c0.3,2.3-1.9,2.1-2.7,2.9c0.3,2.1,0.6,4,0.7,5.8c0,0.2-0.6,0.5-1,1c-0.1-1.1-0.1-2.1-0.1-3.9
	c-0.9,1.1-1.3,1.7-1.8,2.3c0.5,0.5,1,1,1.9,1.6c-0.3,1.4,1.2,2.4,1.5,3.7c0.2,1,0.4,2,0.7,3.6c-1.3-1.2-2-1.9-2.7-2.6
	c-1.3,2.6,1.1,4.1,1.7,6.5c-0.6,0.2-1.2,0.5-1.9,0.8c0,0.9,0,1.8,0,2.9c0.6-0.5,0.9-0.8,1.5-1.3c0.5,2.5-0.7,3.7-2.7,4.6
	c0,2.6,0.7,5.6-0.2,7.8c-1.1,2.5-0.4,4.8-0.8,7.1c-0.4,2.5-0.6,4.9-1.1,8.4c2-3.1,4.8-2.8,6.9-4.4c0.1-0.5,0.1-1.3,0.3-2.4
	c2.6,2.9,4.9-1.3,7.5,0.3c0.2-0.8,0.3-1.3,0.6-2.5c0.2-0.7,2.6,1.3,2.7-0.8c1.2,0,2.3,0,3.5,0c0.6-0.6,1.2-1.2,1.6-1.6
	c2-0.5,3.8-1,5.6-1.5c0.6-2.2,2.3-3.8,3-5.9c0.6-1.9,2-3.6,3.5-5.1c1.4-1.5,1.8-3.8,2.9-6c-0.2-0.4-0.6-1-1-1.7
	c0.5-0.6,3.7-2.8,4.1-3.2c1-1,2.5-2.2,2.5-3.2c-0.1-3.1,3.3-3.9,3.7-6.5c2.2-0.3,3-2.5,4.6-3.5c1.4-0.9,2.8-1.9,4.8-1.8
	c2,0.2,4,0,5.4,0c4.7-2.1,8.7-4.2,13.5-4c1.6,0.1,2.9,1.6,4.6,1c0.7-0.2,1.5-0.6,2.2-0.7c0.5,0,1,0.4,1.7,0.7c1.9-1,4-2,6.1-3.1
	c1.5,1,3.1,2.1,4.6,3.1c0.9,3,1.8,6,3,10.1c1.7,2.1,4.2,5,6.7,8.1c1.9,0,3.7,0,5.6,0c-1.2,2.1-2.8,3.1-5.2,3
	c1.2,3.6,4.2,6.3,3.1,10.2c1.5,1.2,2.5,3,4.5,3.8c1.6-2.5-0.2-5.2,1.3-7.6c1.3-2,1.7-4.6,2.6-7.2c1-1.2,2.2-2.7,3.6-4.4
	c0.4,0.2,1,0.6,1.7,0.9c0.3-0.2,0.6-0.5,1-0.8c1.5,1.5,2.9,2.9,4.1,4.1c0.5,3,1,5.8,1.5,9c1.4,0,2.6,0,4.1,0
	c-0.5,0.6-0.7,0.8-1.2,1.4c0.5,0.5,1.2,1.1,1.7,1.8c0.5,0.8,0.8,1.7,1.3,2.8c-0.2,0.3-0.5,0.8-0.8,1.3c0.3,0.7,0.6,1.5,0.9,2.3
	c-0.2,0.1-0.4,0.2-0.5,0.3c-0.7-0.6-1.5-1.3-2.2-1.9c-0.2,0.1-0.3,0.3-0.5,0.4c0.7,1.5,1.4,3,2.2,4.5c1.1-0.4,1.8-0.8,3-1.3
	c0-1.1,0-2.3,0-3.8c1,0.2,1.5,0.4,2.3,0.6c-0.5,1.1-1,1.9-1.5,3.1c0.6,0.4,1.3,0.8,2.3,1.5c0.2-0.1,0.9-0.5,1.6-0.9
	c0.2,0.6,0.4,1.2,0.7,1.9c0.4-0.3,0.7-0.5,1.3-1c0.5,0.4,1,0.9,1.6,1.6c-0.9,0.4-1.5,0.6-2.3,0.9c0.8,0.4,1.4,0.7,2.1,1
	c-0.7,0.4-1.4,0.7-2.1,1c1.7,0.9,3.3,1.7,5,2.6c1.1-0.8,2.2-1.5,3.6-2.5c0.5-1.3,1.1-3,2.1-5.4c0.9,1.3,1.3,2,2,3
	c0.2-1.9,0.4-3.5,0.6-5.1c0.5,0,0.8-0.1,1.3-0.1c0.3,0.7,0.6,1.3,1,2.2c0.4-1.2,0.6-2.2,1-3.2c0.4-0.8,0.8-1.8,1.5-2.4
	c1.6-1.2,2-2.9,2.4-4.5c0.6-2.4,1.7-4.5,4.5-5.9c0.7-0.1,2.1-0.3,4-0.6c0.2,0.4,0.9,1.4,1.6,2.5c0,0-0.3,0.6-0.6,1.2
	c0.6,0.8,4.3,1.2,8.9,1.1c-0.5,2.4-0.5,2.4-3.6,3.1c0,0.4,0,0.9,0,1.9c2.2-0.9,4-1.8,6-2.6c-0.4-0.5-0.7-0.8-1.2-1.4
	c1.7,0,3.1,0,4.5,0c0.7-1.1,1.2-2.1,1.9-3.1c1.5,0,2.9,0,4.6,0c0.6-3.6,3.6-5.3,5.4-7.9c1.7-2.4,2.5-5.3,3.8-8.2
	c-2.3-3.1-0.4-6,1.1-8.9c1.4-2.8,4.5-3.9,6.5-6.1c1.7,0,3.3,0,5,0c0.6-0.6,1.2-1.2,1.9-1.9c1.2,0,2.5,0,4.4,0
	c0.3,0.6,0.9,1.6,1.5,2.6c0.1-0.2,0.3-0.3,0.4-0.5c0.4,1.3,0.9,2.6,1.4,4.3c-0.7,0.5-1.5,1-2.1,1.5c0.5,2.1,0.9,3.7,1.3,5.5
	c-0.8,0.3-1.4,0.5-2.2,0.7c0.3,0.5,0.5,0.9,0.8,1.3c-0.2,0.2-0.5,0.5-1,1c0.8,0.5,1.6,0.9,1.7,1c-0.3,2.1-0.5,3.4-0.7,4.8
	c-1,0.7-2,1.5-3.3,2.5c1.6,1.2,2.9,2,4.1,2.9c0.8-0.8,1.6-1.7,2.9,1.5c0,0.4-0.5-0.4-1.3-2.1c0,1.8,0,2.7,0,3.6
	c0.6-0.1,1.1-0.1,1.3-1.6c0.4-1.4,1.5-1.1,2-1.5c1.2-1.1,2.4-1.9,4.2-2.2c1.3-0.2,2.4-1.3,4.1-2.3c0.4-0.5,1.2-2.4,1.8-2.4
	c2,0.2,1.1-2.1,2.1-2.1c1.9,0,1.4-2.5,3.4-2.7c1.4-0.1,2.6-1.8,4-2.3c1.5-0.5,2-2.4,4.2-2.3c1.1,0.1,2.4-1.7,3.5-2.7
	c0.4,0.4,0.6,0.6,0.9,0.9c0.5-0.6,1-1.2,1.2-1.4c3.4-1.1,6.5-1.5,8.9-3c1.6-1,1.8,1.2,2.9,0.4c0.8-0.7,1.7-1.2,2.5-1.8
	c0.6-0.5,1.2-1.2,1.8-1.8c-0.1-0.1-0.4-0.5-0.8-0.9c2-1.2,2.4,1,3.5,1.6c2.1-2.1,4.1-0.5,6.4,0.3c0.3,3.7,3.2,4.9,6.9,5.8
	c0.5,1.6,1,3.4,1.5,4.9c-1.6,1.3-3,2.3-4.3,3.3c1.6,3.2,1.4,3.7-1.5,4.7c-2.2,0.8-4.7,0.9-6.2,3.2c-0.8,1.3-1.5,2.7-2.3,4
	c-0.4,0.6-1,1.2-1.5,1.9c-1.9-3.6,1.7-5.2,2.5-7.8c-2.4-1-4.2,0.5-6.2,1.4c-2.3,1-3.4,4.1-6.8,3.2c0.5,1.1,0.9,1.7,1.3,2.6
	c-1.3,1.1-3.8,0.2-4.2,2.8c0.2,0.3,0.6,0.8,1.1,1.5c-1.6,0.5-3.2,1.1-5.2,1.8c0.2,1.3,0.5,2.8,0.8,4.6c-1-0.2-2.2-0.4-3.6-0.6
	c-0.1,0.1-0.6,0.6-1.3,1.3c0.3,0.9,0.6,2,1.1,3.6c-0.3,1-2,2.6,0.2,4.4c-0.7,0.1-1.1,0.2-1.9,0.4c0,0.8-0.1,1.7-0.2,2.8
	c3.3,0.2,6.1-1,9.2-1.8c2.2,1.3,5,1.3,7.6,0.4c1.3-0.5,2.5-0.4,3.7-0.6c0.8-0.1,1.6-0.1,2.4-0.3c7.2-2.7,7.2-2.7,12.9-1.4
	c0.4,1,0.9,2,1.3,3c0.4,1.3,0.8,2.7,1.2,4.2c-1.2,1-2.3,1.9-3,2.5c0,1.8,0,2.9,0,4.1c1.6-0.4,3.1-0.7,4.2-1
	c0.6,3.8,1.2,7.3,1.7,10.7c-1,0.3-1.5,0.5-2.1,0.7c0,1,0,1.8,0,2.7c-0.7-0.3-1.2-0.6-2.8-1.3c1.1,1.6,1.6,2.4,2.6,3.8
	c0.1-1.3,0.2-1.9,0.2-2.5c1.3,0,2.5,0,4.7,0c-2.2,1.6-3.7,2.6-5,3.9c-1.2,1.2-2.8,2.1-2.8,4.4c0,1.5-1.8,2.2-3.4,1.6
	c-1,2-0.3,3.6,0.7,5.2c-1.1,0.1-2,0.1-3,0.1c0.9,2.9,1.7,3.5,2.8,2.4c-0.3-0.3-0.6-0.7-0.9-1c0.3-0.3,0.6-0.7,1.1-1.4
	c0.4-0.4,0.9-0.7,1.4-1c1,1.5,0.6,2.7-1,3.7c2.8,2.8,0.6,4.8-0.6,6.9c0.4,1.3,0.9,2.7,1.3,4c0.5,0.2,1.1,0.4,1.9,0.7
	c-1.1,0.7-1.9,1.3-3.1,2.2c0,0.4,0,1.1,0,1.9c-0.8,0.4-1.4,0.7-2.1,1c0,0.2,0.1,0.3,0.1,0.5c1.2-0.2,2.5-0.4,4-0.7
	c-0.5,1.3-1,2.4-1.5,3.5c-0.5-0.2-0.9-0.4-1.5-0.7c-0.1,0.5-0.1,1-0.2,1.7c1.2,0,2.3,0,3.5,0c0.6,1.6,1.1,3,1.7,4.9
	c-0.9,0.4-1.8,1.1-2.8,1.3c-1.3,0.2-2,0.9-2.4,2.1c-2,1.1-1.2,2.2,0.1,3.7c-1.2,1.1-2.2,2.7-3.6,3.1c-1.9,0.5-2.3,1.9-3.1,3.2
	c-0.7,0-1.3,0-2,0c-0.4-1.2-0.8-2.3-1.2-3.6c0.4-0.2,1.1-0.5,2-0.9c-0.8-0.3-1.3-0.5-2-0.7c-0.7-1.3,0.6-3.4-1.1-4.2
	c-2.5-1.6-4.5,0.8-6.8,0.5c1.5,3.7,0.4,6.9-1.6,10c-0.6-0.4-1.1-0.7-1.7-1.1c-2.3,3.8-5.9,5.1-10,5.9c0.9,0.2,1.8,0.3,3.2,0.6
	c-0.5,1-1,1.9-1.3,2.5c-1.3-0.4-2.4-0.7-3.3-1c-0.3,0.5-0.6,0.8-0.6,1c0,2.7,0.3,5.5-3,6.7c-0.2,0.1,0,0.9,0,1.4
	c-0.4-0.2-0.8-0.4-1.4-0.6c-1.3,0.6-2.7,1.3-4.5,2.2c0,0.4,0,1.2,0,2c-0.7,0.3-1.3,0.5-2.1,0.7c0.1,4-1.6,6.9-6,8.6
	c-1.1-0.2-2.9,0.8-4.4-0.8c-0.8,1-1.6,2.1-2.5,3.2c1.2,1.3-0.3,2.3-0.5,3.9c-1.4-0.4-2.7-0.8-4-1.2c-0.4,0.8-0.9,1.7-1.4,2.6
	c0.6,0.2,1.1,0.5,1.6,0.6c-1.8,3-3.6,6-5.4,9c-1.8-1.6-3.2-2.8-5-4.5c-2,0.3-4.3,0.6-7.5,1c-0.3-0.1-1.4-0.6-2.8-1.2
	c0.3-1.1,0.5-2.2,0.8-3.5c-0.7-0.1-1.5-0.1-2.1-0.2c-0.8-1.6-1.6-3.1-2.3-4.5c0-1.4,0.9-2.9-1-4.5c-0.3,0.7-0.5,1.5-1.1,3.1
	c0.3,1.8,0.9,5.1,1.5,8.3c1,0.6,1.8,1.1,2.5,1.6c0.8,0.5,1.5,1,2.5,1.7c0.1,0.6,0.3,1.5,0.5,2.9c1.2-0.8,2.1-1.4,3.4-2.3
	c1.3,0,3,0,4.9,0c0.4,0.4,0.9,0.9,1.6,1.6c-1.5,0.6-2.8,1.2-4.3,1.9c0.7,0.3,1.3,0.5,1.9,0.7c-0.5,0.9-0.9,1.8-1.5,3
	c-1.2-0.8-2.2-1.6-3.3-2.7c0-0.1,0,0.2,0,0.5c0.7-0.1,1.3-0.3,2-0.4c0-0.2-0.1-0.4-0.1-0.6c-0.6,0.1-1.3,0.1-1.9,0.6
	c-0.8,0.4-1.7,0.4-2.5,0.4c-1.3,1-2,2.1-1.2,4.1c1.5-0.3,3-0.5,5.2-0.9c0.4,0.1,1.6,0.6,2.9,1c0.7-0.9,1.3-1.7,2.4-3.1
	c0.1,1.6,0.2,2.5,0.3,3.4c-0.8,0.3-1.4,0.5-2,0.7c0,0.7,0,1.4,0,2.3c-1.6,0.6-3.9,0.8-4.9,2c-1.3,1.6-3,2.4-4.6,3.4
	c-1.4,1-3.9,1.1-3.7,3.8c-2.7,0-5.1,0-7.7,0c0-1.2,0-2.3,0-3.5c1.1-0.4,2.4-0.9,4.6-1.7c-1.5-0.8-2.3-1.2-2.9-1.5
	c0.6-1.5,3-1.4,6-0.3c0-0.8,0-1.6,0-2.8c-0.7,0.2-1.5,0.4-2.6,0.7c-0.4-0.6-1-1.4-1.9-2.7c-1.1-0.4-2.7-0.9-4.7-1.6
	c0.7-0.7,1.3-1.2,2.2-2c0-0.4,0-1.3,0-2.3c-3.2-0.3-2.4,2.5-3.3,4c-1.6-1.7-2.7-3.5-2.5-6.2c0.8,0.5,1.3,0.8,1.8,1.1
	c1.4-0.5,2.8-1,4.6-1.7c-1.5-1.4-2.9-2.7-4.2-3.9c0.3-0.3,0.7-0.7,1-1.1c1,0.3,2,0.6,2.9,0.9c2.2-2.4,2-5.1,1.7-8.2
	c-1.2,0.4-2.3,0.8-3.4,1.1c-0.2-2.6-0.2-2.6,3.3-3.2c-0.8-2.1-1.6-4.1-2.5-6.4c0.8-2.7,3.1-4.3,5.7-5.6c-0.3-0.6-0.5-1-0.8-1.6
	c0.5-0.1,1-0.2,1.5-0.3c-0.3-1-0.5-2.1-0.8-3.3c0.9-0.5,1.8-0.9,2.6-1.4c0.5,0.3,1.1,0.6,2.1,1.2c0.4-2.2,0.8-4.1,1.1-6.1
	c-0.3-0.1-0.9-0.3-1.6-0.5c0-0.8,0-1.7,0-2.9c1.4,0.5,2.5,0.9,4,1.4c1.6-2.3,4.6-2.3,7.2-4c-1.2-0.2-2.1-0.3-3-0.5
	c0.7-2.1,1.4-4.2,2.2-6.7c3-1.8,7.6-2.1,9.7-6.1c0.8,0,1.5,0,2.4,0c0.1-1.2,0.3-2.5,0.4-3.7c4.1-1.3,5-6,8.2-7.9
	c3.3-2,4.4-5.9,7.5-8c-0.2-0.2-0.5-0.5-0.8-1c0.7-0.3,1.3-0.6,2-0.9c0-0.6,0-1.1,0-1.5c1.9-0.2,0.5-1.9,1.2-2.7
	c0.6-0.2,1.1-0.4,1.9-0.7c-0.4-1.7-0.8-3.3-1.3-5.1c-1-0.7-2.1-1.4-3.6-2.5c-1,0-2.4,0-4.2,0c-0.8,1.6-1.7,3.2-2.5,4.8
	c-0.8,0-1.6,0-2.7,0c0.4-0.6,0.7-0.9,1.1-1.4c-0.6-0.3-1.2-0.6-1.9-0.9c0.3-0.4,0.6-0.7,1.1-1.3c-0.6-0.1-1.2-0.3-1.7-0.4
	c-0.3,0.7-0.5,1.3-0.7,1.9c-1.1,0.9-3-0.9-3.7,1.2c-2.3,0.4-4.7,0.7-6.4,2.9c-1,0.1-2.1,0.1-3.3,0.2c-0.2,0.6-0.4,1.1-0.7,2
	C416.9,189.1,411.8,193.5,405.9,196.1c0.3-1.1,0.5-2.1,1-3.5c-1.6,0.8-2.8,1.5-4.1,2.1c0.3,0.7,0.5,0.9,0.6,1.2
	c0.4-0.3,0.7-0.6,1-0.9C404.9,195.3,405.2,195.7,405.9,196.1z M489.6,218.5c-0.2-0.2-0.3-0.4-0.5-0.5c-0.6,0-1.2,0.1-2,0.1
	c0,0.7,0.1,1.2,0.1,1.9c0.9-0.6,1.6-1.1,2-2.2c0.9-1.2,0.9-1.2,0-2.8C489.2,216.2,489.2,217.1,489.6,218.5z M454.6,207.5
	c-0.2-0.2-0.3-0.4-0.5-0.5c-0.6,0-1.2,0.1-2,0.1c0,0.7,0.1,1.2,0.1,1.9c0.9-0.6,1.6-1.1,1.8-2.8c0,0.3,0,0.6,0,0.9
	c0.7-0.1,1.3-0.3,2-0.4c0-0.2-0.1-0.4-0.1-0.6C455.3,206.1,454.7,206.2,454.6,207.5z M122.7,237.8c1.5-0.3,2.8-0.8,2-3.1
	c-0.8,1.3-1.4,2.2-1.9,2.9c-0.9,0.6-1.8,1.2-3.1,2C122,240.5,122.5,239.1,122.7,237.8z M406.4,275.7c-1.2-1-2.1-1.8-3-2.6
	c0,0-0.2,0.2-0.5,0.5c0.3,1.7,1.1,2.7,2.7,1.3c1.3,0,2.2,0,4.1,0c-1.1-0.9-1.7-1.3-2.3-1.8C407,273.6,406.5,274,406.4,275.7z
	 M254.5,183.2c-0.7-0.8-0.9-1.1-1-1.1c-0.5,0.1-0.9,0.3-1.4,0.4c0.6,0.2,1.2,0.3-0.3-0.5c-0.8-0.7-1.8-1.5-2.5-2.2
	c-0.2,0.7-0.6,1.8-1,2.9c0,0.1,0.2,0.2,0.4,0.4C249.7,182.7,250.9,182.3,254.5,183.2z M253.1,152c-0.6,0-1.2,0-2.3,0
	c1,1.3,1.7,2.1,2.3,3c0.5,0.7,1,1.3,1.6,2.2c1.6-2.1,1.8-4.1,2.4-6.7c-0.9,0.8-1.2,1.1-1.6,1.4c-0.3-0.7-0.6-1.3-0.9-2
	c-0.6,0.5-1,1-1.5,1.5C253,151.6,253.1,151.8,253.1,152z M341.6,144.8c0.7,0.8,0.9,1.1,1,1.1c0.5-0.1,0.9-0.3,1.4-0.4
	c-0.6-0.2-1.2-0.3,2.7-2.6c-0.8,1.1-1.2,2.1-1.8,2.6c-0.9,0.7-1.1,1.3-0.4,2.3c1.1,0,2.2,0,3.3,0c0.5-1.5,0.9-3,1.4-4.8
	C348.2,143.1,347.5,143,341.6,144.8z M285.2,162.7c-0.4,0.9-0.7,1.5-1.1,2.4c1.2-0.2,2-0.3,3.1-0.4c-0.8-0.8-1.2-1.2-2.2-1.7
	c0-0.6,0-1.2,0-1.8c-1.2-0.2-2.1-0.3-3.4-0.5c0.6-1,1-1.6,1.3-2.2c-2.1-2.4-0.3-4.4,0.6-6.5c0.6,1.7,1.3,3.4,1.9,5.1
	c1.1-0.1,1.8-0.2,3.3-0.3c-1.4-0.6-2-0.9-2.3-1.1c-0.6-1.5-1-2.7-1.4-4c0.3-0.4,0.7-0.9,1-1.4c-0.3-1-0.7-2-1-3.1
	c-0.1-0.4,0.2-0.8,0.4-1.3c0.9,0.9,1.8,1.8,2.5,2.5c0.2,1.3,0.3,2.4,0.5,3.8c0.8-0.8,1.2-1.3,1.4-1.4c-0.5-2.7-1.1-5.1-2.7-7.1
	c-1.7-2-3.6-3.8-5.2-5.5c-1,0-1.8,0-3,0c1.3,0.8,2.2,1.3,2.7,2.5c0.4,1,1.7,1.5,2.6,2.3c-2,0.8-4,1.6-5.9,2.3
	c-0.4,1.3-0.8,2.3-1.2,3.4c0.2,0.1,0.4,0.2,0.6,0.3c1.1-1.1,2.2-2.2,3.5-3.4c1.4,1.2,2.5,2.1,1.4,3.2c-0.6,1.1-1.3,2.1-1.6,2.7
	c-1.2-0.1-1.9-0.1-3.9-0.3c2.1,1.9,3.3,2.9,4.9,4.3c-1.6,0.4-2.7,0.6-3.9,0.8c2,0.9,2.9,2.3,3.3,4c-0.4,0.5-0.7,0.8-1,1.2
	c0.5,0.5,1,1,1.4,1.5C282.7,163,283.9,163,285.2,162.7z M208.3,179c0.1,0,0.3,0,0.4,0c0-1.3,0-2.6,0-3.9c-0.1,0-0.3,0-0.4,0
	c0,1.3,0,2.6,0.7,3.9c0.3,1,0.6,2.1,1,3.1c-0.7,1.1-1.4,2.2-2.5,3.9c2.3,0,3.8,0,5.9,0c-2.2,2.7-5.2,2.2-7.5,3.6
	c0.4,0.8,0.8,1.6,0.9,1.9c-0.6,3.8-1.1,7-1.5,10.2c0.6,0.3,1.3,0.5,2.1,0.9c-2.4,2.4-3.3,3.9-2.6,4.7c0.6-0.6,1.3-1.3,2.1-2.2
	c0.4,0,1.2-0.1,1.9-0.2c0.3-0.7,0.5-1.3,0.7-2c0.8,0,1.6,0,2.3,0c0.3-0.7,0.4-1.3,0.7-2c1.5,0,3,0,4.4,0c0.2-0.6,0.3-1.1,0.4-1.4
	c1.4-0.5,2.6-1,4-1.5c0-1.5,0-2.6,0-3.4c1.5-1.2,2.7-2.1,3.8-3.2c0.2-0.2-0.3-1-0.7-2c-1.2,1.1-2,1.9-2.8,2.6
	c-1-3.9-4.6-3.6-7.6-4.3c1.1-1.7,2.1-3.1,3.1-4.6c-0.3-0.6-0.7-1.3-0.9-1.6c0.3-1.7,0.6-3.1,0.8-4.4c1-0.1,2-0.3,3.5-0.5
	c-1.4-0.7-2.3-1.1-3.3-1.6c-0.1,0.7-0.1,1.3-0.1,1.9c-1.3-0.3-2.5-0.7-3.8-1c-0.2,1.3-0.3,2.2-0.4,3C211.4,179,210.2,179,208.3,179z
	 M168.1,192.5c0,2.3,0,3.8,0,5.3c0,1.3,0.2,2.7,0,4c-0.2,1.1-1.2,2.1,0,3.2c-2,4.2-0.5,8.6-0.3,13.3c0.6-0.6,1.3-1.3,2.2-2.2
	c4.3,0.9,7.6-2.7,11.8-3.8c0.9,1.6,2,0.4,2.5,0.1c1,0.3,1.7,0.4,2.2,0.7c0.4,0.2,0.8,0.6,1.3,1.1c0.3-1.9,0.5-3.3,0.6-4
	c-1.2-1.2-2.3-2.3-3.5-3.5c-0.2,0.1-0.7,0.3-1.6,0.6c0.3-1.2,0.5-2.2,0.7-3.2c0.2-1,0.2-2.1,0.4-4.1c1.5,1.8,2.4,2.8,3.3,3.8
	c0.4-5.2,0.8-10.3,1.2-15.4c-0.5-0.5-1-0.9-1.5-1.3c-0.1-0.1-0.3,0-0.3,0c-5.3,3.5-10.1,7.5-16.4,8.2
	C169.8,194.2,169.2,193.6,168.1,192.5z M268.2,145.6c-0.4-0.4-0.5-0.5-0.6-0.6c-1.8-0.7-2-1.2-1-1.9c0.5,0.4,1.1,0.7,1.8,1.2
	c1.3-1.8,3.5-3.4,3.5-5.1c0-2.8,2.1-4.2,2.8-6.4c0.1-0.2,0.1-0.5,0.1-0.8c-1.1-0.7-2.2-1.3-3.2-1.9c-1.4,0-2.9,0-4.3,0
	c-1,2.2-1.3,4.9-4.3,5.3c0.4,0.4,0.7,0.8,0.9,1c-1.3,1.1-2.6,2.2-3.9,3.4c0.1,0.6,0.1,1.3,0.3,1.9c0.2,0.7,0.6,1.3,1,2.1
	c-0.9,0.1-1.4,0.1-1.8,0.2c-0.3-0.7-0.6-1.3-1-2.1c-0.3,0.8-0.6,1.4-0.8,1.9c-0.8-0.3-1.5-0.6-2.6-1c1,2.1,1.8,3.6,2.6,5.2
	c0.8,0,1.6,0.1,2.7,0.2c-0.4,1.4-0.7,2.4-1,3.6c0.3,0.1,0.9,0.3,1.8,0.6c0,1.1,0,2.4,0,4c1.6-0.7,2.7-1.2,2.9-1.3
	c1.4-1.6,2.3-2.5,3-3.5c0.2-0.3,0-0.9-0.1-1.7c-1,0.9-1.8,1.6-2.9,2.6c-1-0.6-2-1.2-3.5-2.1c2.1-1,3.6-1.8,4.9-2.4
	c0.7,0.5,1,0.7,1.3,1C267.2,147.8,267.6,146.8,268.2,145.6z M54.6,272c0.3,0.3,0.6,0.6,0.9,0.9c-0.8,0.2-1.7,0.3-2.5,0.5
	c2.7,0.4,5-0.1,7.3-0.4c1.6-0.2,4,0.6,4.8-0.2c1.2-1.3,4.1,0.5,4-2.4c1.3-0.8,2.8-1,4.2-2c1.8-1.3,3.6-3.4,6.4-2.6
	c0.1,0,0.2-0.2,0.4-0.3c0-0.3,0-0.6,0.1-1.2c1.8-0.6,4.3-0.5,4.6-3.3c-2.2,0-4.3,0-6.4,0c-0.2,0.6-0.2,1.3-0.4,1.4
	c-3,1.1-5.8,2.9-8.8,3.9c-0.1,0.5-0.2,0.9-0.3,1.3c-1.7,0.3-3.3,0.4-4.8,0.8c-1.5,0.4-2.9,1-4.4,1.5c-0.4-0.3-0.9-0.6-1.4-1
	c-0.2,1.2-0.4,2.1-0.6,3C56.5,272,55.6,272,54.6,272z M298.2,123.8c-0.8,0.3-2,0.8-2.8,1.1c0.4,2,0.7,3.5,1.1,5.2
	c0.7,0.3,1.5,0.5,2.1,0.9c0.6,0.4,1,1,1.5,1.5c-0.5,0.5-0.7,0.7-1.1,1.1c1.6,0.5,3.2,1,5.3,1.6c-0.5-3.3-1-6-1.3-8
	c-1.1-2.2-1.8-3.7-2.7-5.6C299.7,122.2,299.3,122.7,298.2,123.8z M276.7,115c-0.9,1.1-3,1-3.1,3c-1.9,0-2.3,1.7-4.3,3
	c2.5,0,4,0,4.6,0c2,1.6,3.4,2.8,4.6,3.8c1.2-2,2.3-3.7,3.2-5.3c-0.3-1.1-0.7-2.2-1-3.2C279.5,115.9,278.3,115.5,276.7,115z
	 M292.6,118c0.1,0.5,0.5,1.6,0.8,2.8c0.8,0.3,1.6,0.7,1.9,0.8c1.9-0.4,3.4-0.6,4.6-0.9c-0.6-2.7-2-4.8-3.4-6.7
	C295.1,115.4,293.8,116.7,292.6,118z M52.4,167.9c2.6,0.4,5.1-0.5,7.6,1c0.2-2.5-2.2-2.9-2.9-4.4c0.3-0.4,0.6-0.7,0.8-1
	c-0.9-0.4-1.7-0.8-2.1-1c-1.8,0.4-3.3,0.7-5.1,1c0.9,0.4,1.6,0.7,2.2,1c0,0.4,0,0.7,0,1.1c-0.6,0.3-1.3,0.6-2,0.9
	C51.5,166.9,51.9,167.3,52.4,167.9z M432.3,164.4c-0.4,0.9-0.7,1.7-1.1,2.6c1.2,0,2.2,0,3.2,0c2.2,0.1,4-0.7,5.5-2.4
	c0.2-0.3,0.1-0.9,0.2-1.9c-1.1,0.4-1.9,0.7-2.7,1C435.4,161.5,433.9,164.1,432.3,164.4z M466.9,194.6c-0.4-0.9-0.8-1.7-1.1-2.2
	c-2,0.3-3.9,0.6-6.8,1.1c2.7,1.2,4.5,2.1,6.2,2.8C466.1,195.5,466.5,195,466.9,194.6z M489.6,199c1.8-0.2,3.6,0.3,5.2-0.3
	c-0.9-1-1.6-1.8-2.4-2.7c-1.4,0-3.3-0.6-4.2,1.6C488.5,198,488.9,198.3,489.6,199z M422.9,265.6c-0.7-1.1-1.6-2.1-3.2-2.9
	c-0.7,1.4-1.2,2.6-1.9,4.1C419.7,267,421.3,267.6,422.9,265.6z M416.6,252.9c1.5,0.5,2.5,0.8,3.5,1.1c0.9,0.2,1.9,0.4,2.8,0.6
	c0.4-0.4,0.7-0.7,1.3-1.3c-2-0.7-3.9-1.4-5.9-2.1C418,251.6,417.6,252,416.6,252.9z M236.7,227.2c-1,0-1.8,0-2.8,0
	c1.2,2.1,2.3,4,3.8,6.6c0.2-1.5,0.3-1.9,0.2-2.4c0-0.4-0.3-0.9-0.4-1.3c-0.2-0.6-0.4-1.2-0.6-1.8
	C236.9,227.9,236.8,227.4,236.7,227.2z M426,258.6c1.9,1.9,3.8,3.2,6.1,1.9c0.1-2.8-2.6-0.6-3.3-2.2
	C428.6,258.1,427,258.5,426,258.6z M456.8,199.7c-0.7,0.9-1.3,1.5-1.7,2.2c-0.1,0.2,0.1,0.6,0.2,1.1c0.5-0.3,0.9-0.6,1.3-0.8
	c0.6,0.4,1.1,0.7,1.7,1.1c0.6-0.7,1.1-1.3,1.8-2.2C459,200.6,457.9,200.1,456.8,199.7z M209.1,220.9c-0.2-2.3,0.2-4.6-0.5-7.4
	c-0.7,2-1.1,3.4-1.6,4.9c0.3,0.3,0.6,0.7,1,1.1c-0.3,0.4-0.6,0.8-1.2,1.4C207.8,220.9,208.3,220.9,209.1,220.9z M86,95.1
	c-0.9,1.3-1.4,1.9-1.8,2.5c0.7,0.7,1.5,1.5,2.4,2.4c0.6-0.8,1.1-1.5,1.5-2.1C87.5,97.1,87,96.4,86,95.1z M92.9,130.7
	c0.7,0.1,1.3,0.2,1.9,0.3c0.9-2.3-0.7-3.6-1.4-5.9c-0.8,1.1-1.1,1.5-1.5,2c0.8,1,1.5,1.7,2.1,2.5C93.5,130,93.3,130.3,92.9,130.7z
	 M278,178.8c1.1-1.5,1.7-2.3,2.8-4c-1.7,0.7-2.4,1-3.1,1.3c-0.5-0.5-0.9-0.8-1.2-1.1c-0.2,0.2-0.4,0.4-0.6,0.6
	C276.4,176.4,277,177.3,278,178.8z M430.2,175.5c-1.2-0.6-2-1-2.7-1.4c-0.8,0.5-1.7,0.9-2.7,1.5c0.3,0.6,0.5,1,0.6,1.4
	C427,176.6,428.5,176.1,430.2,175.5z M104.8,99.8c2.3,0.4,4,0.6,5.2-1.3c-0.5-0.5-0.9-0.9-1.3-1.3C107.5,97.9,106.3,98.7,104.8,99.8
	z M48.2,127.6c0.1,0.2,0.3,0.4,0.4,0.6c1.4-0.9,2.9-1.8,4.4-2.8c-1-0.5-1.8-0.8-2.5-1.2C49.8,125.3,49,126.5,48.2,127.6z
	 M257.9,165.2c0-1.6,0-2.8,0-4.1c-0.6,0-1.1,0-1.5,0C255.6,162.7,256.1,163.9,257.9,165.2z M165.8,229.2c-2,1.8-2,1.8-1,4.7
	C165.1,232.3,166.9,231.1,165.8,229.2z M104.6,163c0.2-0.2,0.3-0.3,0.5-0.5c-0.5-0.5-1-1.3-1.6-1.4c-1.1-0.2-2.2,0.1-3.3,0.1
	c0,0.2,0.1,0.3,0.1,0.5C101.7,162.1,103.1,162.6,104.6,163z M341.9,160.3c1.4-1,2.8-1.5,1.9-3.2c-1,0.6-2,1.1-3,1.6
	C341.2,159.4,341.4,159.7,341.9,160.3z M415.6,284.1c0.4,0,0.8-0.1,1.2-0.1c0-1,0-2,0-3.1c-0.7,0.1-1.2,0.2-1.9,0.4
	C415.2,282.3,415.4,283.2,415.6,284.1z M495.7,191.9c-1-1.4-1.6-2.1-2.1-2.9c-0.6,1-1.1,1.7-1.5,2.5c0,0,0.2,0.2,0.4,0.4
	C493.2,191.9,494,191.9,495.7,191.9z M74.2,151.8c0.6-1.9,1.2-3.8,0-5.7C74.2,148,74.2,149.9,74.2,151.8z M451.6,146
	c0.5-1,0.9-1.8,1.3-2.7c-0.4-0.4-0.9-0.9-1.4-1.4c-0.5,0.9-0.9,1.8-1.3,2.7C450.6,145.1,451,145.4,451.6,146z M171.9,127.7
	c0-0.2,0-0.5,0-0.7c-0.8,0-1.5,0-2.3,0c-0.5,0-0.8-2-1.5-0.2c-0.2,0.6,0.1,1.5,0.1,2C169.6,128.3,170.8,128,171.9,127.7z M229.1,170
	c0-0.8,0-1.4,0-2c0-0.9-0.2-1.1-1-0.5c-0.6,0.4-1.3,0.7-2,1C227,169,227.9,169.4,229.1,170z M67.1,132.6c1-1.2,1.6-1.9,2.5-3
	c-1.1-0.3-1.7-0.4-2.5-0.6C67.1,130.1,67.1,130.9,67.1,132.6z M412.1,177.7c1.4-1,2.1-1.6,3.4-2.5c-1.6,0-2.5,0-3.4,0
	C412.1,175.8,412.1,176.2,412.1,177.7z M275.9,180c-0.5-1.6-0.9-2.7-1.7-4.9c0,2.3,0,3.5,0,4.8C274.8,179.9,275.2,179.9,275.9,180z
	 M123.6,190.8c-1.3-1-2.1-1.5-3.2-2.3c-0.2,1-0.3,1.6-0.4,2.3C121.1,190.8,122,190.8,123.6,190.8z M123.9,209.2
	c-0.2-0.1-0.5-0.1-0.7-0.2c-0.4,0.9-0.8,1.7-1.3,2.9c1,0,1.4,0,2,0C123.9,211,123.9,210.1,123.9,209.2z M400.6,126.9
	c0.4,1.3,0.9,3.1,2.7,1.5C402.3,127.8,401.4,127.3,400.6,126.9z M248.2,188.5c0,1.5,0,2.4,0,3.5c0.8-0.1,1.3-0.2,1.8-0.3
	C249.5,190.7,249,189.9,248.2,188.5z M322.5,136.9c-0.4,1.1-2.2,1.3-0.9,3.3C322,139,323.8,138.9,322.5,136.9z M467.8,189.9
	c0-1.6,0-2.2,0-3c-0.7,0.1-1.2,0.2-2.1,0.4C466.4,188.1,466.8,188.7,467.8,189.9z M257.8,154.2c0.1,0.4,0.4,1.1,0.6,1.7
	c0.7-0.6,1.2-1,2.1-1.7C259,154.2,258,154.2,257.8,154.2z M116.1,187c2.2,0.1,2.2-0.7,1.5-2.1c-0.5,0.1-1,0.2-1.5,0.3
	C116.1,185.8,116.1,186.2,116.1,187z M213.5,215c-1.1,1.9,0.5,2.2,1.1,3.1C215.7,216.2,214.2,215.9,213.5,215z M35.3,262.1
	c0,1.6,0,2.2,0,3c0.7-0.1,1.2-0.2,2.1-0.4C36.8,263.9,36.3,263.3,35.3,262.1z M344.8,184.8c1.2,0,2.2,0,3.2,0
	c-0.5-0.7-0.9-1.3-1.3-1.9C346,183.6,345.5,184,344.8,184.8z M225.8,185c0-0.7,0-1.3,0-2.1c-0.7,0.1-1.2,0.2-1.8,0.4
	c0.1,0.7,0.3,1.2,0.4,1.8C224.9,185,225.2,185,225.8,185z M455.8,185.3c-0.1-2.2-0.1-2.2-2.2-3C454.4,183.5,454.9,184.2,455.8,185.3
	z M485,215.8c0.9-0.5,1.5-0.8,2.1-1.1c-0.7-0.8-1.1-1.3-1.8-2.1C485.2,213.9,485.1,214.8,485,215.8z M275.1,190.1
	c-0.1,2.2,0.7,2.2,2.1,1.5c-0.1-0.5-0.2-1-0.3-1.5C276.3,190.1,275.8,190.1,275.1,190.1z M265.1,191.2c-1,0-2,0-3.8,0
	c1.7,0.7,2.6,1.2,3.8,1.6C265.1,192.1,265.1,191.8,265.1,191.2z M225.1,195.7c0.2,0.1,0.3,0.3,0.5,0.4c0.4-1,0.8-1.9,1.4-3.2
	c-1,0.2-1.4,0.3-1.9,0.4C225.1,194.1,225.1,194.9,225.1,195.7z M69.1,135.7c0.7,0,1.3,0,2.1,0c-0.1-0.7-0.2-1.2-0.4-1.8
	c-0.7,0.1-1.2,0.3-1.8,0.4C69.1,134.8,69.1,135.2,69.1,135.7z M460.5,200.7c2.1-0.8,2.1-0.8,2.2-3
	C461.9,198.8,461.4,199.5,460.5,200.7z M86.2,247.1c1-0.1,1.9-0.3,3.4-0.5c-1.6-0.6-2.4-1-3.5-1.4C86.1,245.8,86.1,246.3,86.2,247.1
	z M257.3,176c0.2,0,0.3,0,0.5,0c0-1.3,0-2.7,0-4c-0.2,0-0.3,0-0.5,0C257.3,173.3,257.3,174.7,257.3,176z M212.9,174.6
	c0.6,0.2,0.8,0.4,0.9,0.3c0.8-0.5,1.5-1,2.3-1.5c-0.1-0.1-0.2-0.3-0.3-0.3c-1.2-0.6-1.7,0.4-2.3,1
	C213.3,174.3,213.2,174.4,212.9,174.6z M112.2,168.7c1.6,0,2.2,0,3,0c-0.1-0.7-0.2-1.2-0.4-2.1C113.9,167.3,113.4,167.7,112.2,168.7
	z M225.5,178c0.7-0.9,2.2-1.2,1.1-3.1C225.9,175.9,224.4,176.2,225.5,178z M189.4,161.3c-2.2,0.1-2.2,0.1-3,2.2
	C187.5,162.7,188.3,162.1,189.4,161.3z M70.4,150.9c-0.2,0.6-0.4,0.8-0.3,0.9c0.5,0.8,1,1.5,1.5,2.3c0.1-0.1,0.3-0.2,0.3-0.3
	c0.6-1.2-0.4-1.7-1-2.3C70.8,151.2,70.7,151.1,70.4,150.9z M248.9,177.4c0.2,0.2,0.4,0.4,0.7,0.7c0.4-0.1,0.9-0.2,1.5-0.3
	c-0.1-0.7-0.2-1.3-0.5-2.5C249.8,176.3,249.4,176.9,248.9,177.4z M226.2,220.8c0.3,0,0.6,0,0.9,0c-0.1-1.2-0.2-2.4-0.2-3.7
	c-0.2,0-0.4,0-0.6,0C226.2,218.4,226.2,219.6,226.2,220.8z M318.4,221.2c-0.2,2.7-0.2,2.7,0.9,2.5
	C319.2,223.4,318.9,222.6,318.4,221.2z M322.6,225.7c0.3-1.5,0.3-1.5-2.1-1.3C321.5,225,322.2,225.4,322.6,225.7z M419.1,241.8
	c0.8-0.4,1.4-0.8,2.9-1.6c-1.8,0-2.3,0-2.9,0C419.1,240.8,419.1,241.2,419.1,241.8z M214.6,212.8c0.1,0,0.8,0,1.6,0
	c-0.1-0.7-0.2-1.1-0.2-1.3C215.5,211.9,215,212.4,214.6,212.8z M432.5,126.8c0.2,0,0.9,0,1.6,0c-0.1-0.7-0.2-1.1-0.4-2.6
	C433.1,125.5,432.8,126.2,432.5,126.8z M251.9,165.4c1.9,0.6,2.5,0.2,2.1-0.7C253.4,164.9,252.7,165.1,251.9,165.4z M285.8,176.5
	c0-0.2,0-0.9,0-1.6c-0.7,0.1-1.1,0.2-2.6,0.4C284.6,176,285.3,176.3,285.8,176.5z M254.1,178.8c0.8-0.4,1.4-0.8,2.9-1.6
	c-1.8,0-2.3,0-2.9,0C254.1,177.8,254.1,178.2,254.1,178.8z M406.8,288.3c0.8,0.8,1.3,1.2,2.5,2.5c-0.4-1.7-0.5-2.2-0.6-2.8
	C408.1,288,407.7,288.1,406.8,288.3z M407.2,290.6c-1.9-0.6-2.5-0.2-2.1,0.7C405.7,291.1,406.4,290.9,407.2,290.6z M172.3,152.5
	c0,0.1,0,0.8,0,1.6c0.7-0.1,1.1-0.2,1.3-0.2C173.2,153.4,172.7,152.9,172.3,152.5z M450.9,204.4c1.9,0.6,2.5,0.2,2.1-0.7
	C452.4,203.9,451.7,204.1,450.9,204.4z M279.3,193.5c0,0.2,0,0.9,0,1.6c0.7-0.1,1.1-0.2,2.6-0.4C280.5,194,279.8,193.7,279.3,193.5z
	 M345,151.4c-0.7,0.3-1.4,0.6-2.1,1c0.1,0.2,0.2,0.3,0.4,0.5c0.6,0,1.1,0,1.7,0C345,152.2,345,151.8,345,151.4z M348.1,152.6
	c0.7-0.3,1.4-0.6,2.1-1c-0.1-0.2-0.2-0.3-0.4-0.5c-0.6,0-1.1,0-1.7,0C348.1,151.8,348.1,152.2,348.1,152.6z M365,199.4
	c-0.7,0.3-1.4,0.6-2.1,1c0.1,0.2,0.2,0.3,0.4,0.5c0.6,0,1.1,0,1.7,0C365,200.2,365,199.8,365,199.4z M138.3,237c0.2,0,0.3,0,0.5,0
	c0-0.7,0-1.3,0-2c-0.2,0-0.3,0-0.5,0C138.3,235.7,138.3,236.3,138.3,237z M418.3,249c0.2,0,0.3,0,0.5,0c0-0.7,0-1.3,0-2
	c-0.2,0-0.3,0-0.5,0C418.3,247.7,418.3,248.3,418.3,249z M404.9,251.8c0-0.3-0.1-0.6-0.1-0.9c-0.5,0.1-1.1,0.3-1.6,0.4
	c0,0.2,0.1,0.3,0.1,0.5C403.8,251.8,404.3,251.8,404.9,251.8z M405.2,255.8c0.3,0,0.6-0.1,0.9-0.1c-0.1-0.5-0.3-1.1-0.4-1.6
	c-0.2,0-0.3,0.1-0.5,0.1C405.2,254.7,405.2,255.3,405.2,255.8z M101.9,107.8c0-0.3-0.1-0.6-0.1-0.9c-0.5,0.1-1.1,0.3-1.6,0.4
	c0,0.2,0.1,0.3,0.1,0.5C100.8,107.8,101.3,107.8,101.9,107.8z M48.2,263.8c0.3,0,0.6-0.1,0.9-0.1c-0.1-0.5-0.3-1.1-0.4-1.6
	c-0.2,0-0.3,0.1-0.5,0.1C48.2,262.7,48.2,263.3,48.2,263.8z M41.3,267c0.2,0,0.3,0,0.5,0c0-0.7,0-1.3,0-2c-0.2,0-0.3,0-0.5,0
	C41.3,265.7,41.3,266.3,41.3,267z M410.9,271.8c0-0.3,0-0.6-0.1-0.9c-0.6,0.1-1.1,0.2-1.7,0.4c0,0.2,0,0.3,0.1,0.5
	C409.8,271.8,410.3,271.8,410.9,271.8z M409.9,242.2c-0.3,0-0.6,0-0.9,0c0.1,0.6,0.2,1.1,0.4,1.7c0.2,0,0.3,0,0.5-0.1
	C409.9,243.3,409.9,242.7,409.9,242.2z M111.1,99.2c0,0.2,0,0.3,0,0.5c0.7,0,1.3,0,2,0c0-0.2,0-0.3,0-0.5
	C112.4,99.2,111.7,99.2,111.1,99.2z M222.8,186c-0.2,0-0.3,0-0.5,0c0,0.7,0,1.3,0,2c0.2,0,0.3,0,0.5,0
	C222.8,187.3,222.8,186.7,222.8,186z M40.2,141.8c0.3,0,0.6-0.1,0.9-0.1c-0.1-0.5-0.3-1.1-0.4-1.6c-0.2,0-0.3,0.1-0.5,0.1
	C40.2,140.7,40.2,141.3,40.2,141.8z M219.9,180.8c0-0.3,0-0.6-0.1-0.9c-0.6,0.1-1.1,0.2-1.7,0.4c0,0.2,0,0.3,0.1,0.5
	C218.8,180.8,219.3,180.8,219.9,180.8z M345.2,180.8c0.3,0,0.6,0,0.9,0c-0.1-0.6-0.2-1.1-0.4-1.7c-0.2,0-0.3,0-0.5,0.1
	C345.2,179.7,345.2,180.3,345.2,180.8z M270.2,180.8c0.3,0,0.6,0,0.9,0c-0.1-0.6-0.2-1.1-0.4-1.7c-0.2,0-0.3,0-0.5,0.1
	C270.2,179.7,270.2,180.3,270.2,180.8z M56.9,140.2c-0.3,0-0.6,0-0.9,0c0.1,0.6,0.2,1.1,0.4,1.7c0.2,0,0.3,0,0.5-0.1
	C56.9,141.3,56.9,140.7,56.9,140.2z M424.1,178.8c0-0.2,0-0.3,0-0.5c-0.7,0-1.3,0-2,0c0,0.2,0,0.3,0,0.5
	C422.7,178.8,423.4,178.8,424.1,178.8z M95.1,178.2c0,0.2,0,0.3,0,0.5c0.7,0,1.3,0,2,0c0-0.2,0-0.3,0-0.5
	C96.4,178.2,95.7,178.2,95.1,178.2z M271.1,177.8c0-0.2,0-0.3,0-0.5c-0.7,0-1.3,0-2,0c0,0.2,0,0.3,0,0.5
	C269.7,177.8,270.4,177.8,271.1,177.8z M344.1,174.2c0,0.2,0,0.3,0,0.5c0.7,0,1.3,0,2,0c0-0.2,0-0.3,0-0.5
	C345.4,174.2,344.7,174.2,344.1,174.2z M273.1,174.8c0-0.2,0-0.3,0-0.5c-0.7,0-1.3,0-2,0c0,0.2,0,0.3,0,0.5
	C271.7,174.8,272.4,174.8,273.1,174.8z M106.1,164.8c0-0.2,0-0.3,0-0.5c-0.7,0-1.3,0-2,0c0,0.2,0,0.3,0,0.5
	C104.7,164.8,105.4,164.8,106.1,164.8z M249.3,165c0.2,0,0.3,0,0.5,0c0-0.7,0-1.3,0-2c-0.2,0-0.3,0-0.5,0
	C249.3,163.7,249.3,164.3,249.3,165z M301.1,146.2c0,0.2,0,0.3,0,0.5c0.7,0,1.3,0,2,0c0-0.2,0-0.3,0-0.5
	C302.4,146.2,301.7,146.2,301.1,146.2z M253.9,161.8c0-0.3-0.1-0.6-0.1-0.9c-0.5,0.1-1.1,0.3-1.6,0.4c0,0.2,0.1,0.3,0.1,0.5
	C252.8,161.8,253.3,161.8,253.9,161.8z M446.9,148.8c0-0.3-0.1-0.6-0.1-0.9c-0.5,0.1-1.1,0.3-1.6,0.4c0,0.2,0.1,0.3,0.1,0.5
	C445.8,148.8,446.3,148.8,446.9,148.8z M500.2,158.8c0.3,0,0.6-0.1,0.9-0.1c-0.1-0.5-0.3-1.1-0.4-1.6c-0.2,0-0.3,0.1-0.5,0.1
	C500.2,157.7,500.2,158.3,500.2,158.8z M274.8,157c-0.2,0-0.3,0-0.5,0c0,0.7,0,1.3,0,2c0.2,0,0.3,0,0.5,0
	C274.8,158.3,274.8,157.7,274.8,157z M52.9,157.2c-0.3,0-0.6,0.1-0.9,0.1c0.1,0.5,0.3,1.1,0.4,1.6c0.2,0,0.3-0.1,0.5-0.1
	C52.9,158.3,52.9,157.7,52.9,157.2z M178.9,227.8c0-0.3,0-0.6-0.1-0.9c-0.6,0.1-1.1,0.2-1.7,0.4c0,0.2,0,0.3,0.1,0.5
	C177.8,227.8,178.3,227.8,178.9,227.8z M217.8,226c-0.2,0-0.3,0-0.5,0c0,0.7,0,1.3,0,2c0.2,0,0.3,0,0.5,0
	C217.8,227.3,217.8,226.7,217.8,226z M470.3,223c0.2,0,0.3,0,0.5,0c0-0.7,0-1.3,0-2c-0.2,0-0.3,0-0.5,0
	C470.3,221.7,470.3,222.3,470.3,223z M235.3,223c0.2,0,0.3,0,0.5,0c0-0.7,0-1.3,0-2c-0.2,0-0.3,0-0.5,0
	C235.3,221.7,235.3,222.3,235.3,223z M203.2,220.2c0,0.3,0.1,0.6,0.1,0.9c0.5-0.1,1.1-0.3,1.6-0.4c0-0.2-0.1-0.3-0.1-0.5
	C204.3,220.2,203.8,220.2,203.2,220.2z M78.2,127.2c0,0.3,0.1,0.6,0.1,0.9c0.5-0.1,1.1-0.3,1.6-0.4c0-0.2-0.1-0.3-0.1-0.5
	C79.3,127.2,78.8,127.2,78.2,127.2z M352.3,217c0.2,0,0.3,0,0.5,0c0-0.7,0-1.3,0-2c-0.2,0-0.3,0-0.5,0
	C352.3,215.7,352.3,216.3,352.3,217z M45.1,128.2c0,0.2,0,0.3,0,0.5c0.7,0,1.3,0,2,0c0-0.2,0-0.3,0-0.5
	C46.4,128.2,45.7,128.2,45.1,128.2z M378.3,213c0.2,0,0.3,0,0.5,0c0-0.7,0-1.3,0-2c-0.2,0-0.3,0-0.5,0
	C378.3,211.7,378.3,212.3,378.3,213z M336.9,206.8c0-0.3-0.1-0.6-0.1-0.9c-0.5,0.1-1.1,0.3-1.6,0.4c0,0.2,0.1,0.3,0.1,0.5
	C335.8,206.8,336.3,206.8,336.9,206.8z M358.9,205.8c0-0.3,0-0.6-0.1-0.9c-0.6,0.1-1.1,0.2-1.7,0.4c0,0.2,0,0.3,0.1,0.5
	C357.8,205.8,358.3,205.8,358.9,205.8z M487.1,201.2c0,0.2,0,0.3,0,0.5c0.7,0,1.3,0,2,0c0-0.2,0-0.3,0-0.5
	C488.4,201.2,487.7,201.2,487.1,201.2z M278.9,198.8c0-0.3-0.1-0.6-0.1-0.9c-0.5,0.1-1.1,0.3-1.6,0.4c0,0.2,0.1,0.3,0.1,0.5
	C277.8,198.8,278.3,198.8,278.9,198.8z M313.1,189.2c0,0.2,0,0.3,0,0.5c0.7,0,1.3,0,2,0c0-0.2,0-0.3,0-0.5
	C314.4,189.2,313.7,189.2,313.1,189.2z"/>
<path class="st0" d="M470.7,243.4c0.5-1.2,0.8-1.8,1.1-2.6c0.2-0.8,0.3-1.5,0.5-2.8c-2.4,0.4-4.7,0.8-6.8,1.1
	c-1.2-2.9,1.5-2.3,2.3-3c0.8-0.6,2.5-0.1,4.1-0.1c0.1-1.3,0.2-2.5,0.3-3.8c1-0.2,1.9-0.3,3.1-0.5c-0.6-1.2-1-2.2-1.7-3.8
	c1.5,0.4,2.4,0.6,3.8,0.9c0,0,0.5-0.1,0.8-0.5c0.9-1,1.6-2,2.9-3.6c-0.1-0.3-0.7-1.2-0.9-2.2c-0.2-1.1,0-2.2,0.5-3.4
	c0.2,0.7,0.3,1.5,0.6,2.5c0.7,0.6,1.7,1.5,2.8,2.4c-0.6,1.2-1.2,2.3-1.8,3.4c0.1,0.2,0.4,0.5,0.8,0.9c-0.4,0.4-0.8,0.9-1.3,1.3
	c-0.5-0.2-0.9-0.5-1.5-0.8c0,1,0,1.8,0,2.7c1.5,0.5,3.1,1.1,4.4,1.5c-1.4,1.4-2.8,2.8-4.8,4.8c-1,0-2.7,0-4.7,0
	c-0.1,1.3-0.1,2.4-0.2,3.6C473.7,242.2,472.4,242.7,470.7,243.4z"/>
<path class="st0" d="M526,230.5c1,0.9,1.4,1.4,1.9,1.8c-0.1,0.2-0.2,0.6-0.4,0.7c-2.1,1.2-4.3,2.4-6.4,3.5c-0.1,0.5-0.2,0.9-0.4,1.6
	c-1.9-0.4-3.6-0.8-5.6-1.2c0,1.2,0,2,0,2.6c1,0.6,1.9,1.2,2.9,1.8c-0.3,0.3-0.4,0.7-0.6,0.7c-1.2,0.4-2.3,0.7-4.1,1.2
	c1.4,0.6,2.1,1,2.8,1.3c-0.1,0.5-0.2,1-0.3,1.4c-3.4,0.3-2.2-3-3.3-4.4c0.2-0.9,0.4-2,0.6-3.1c-0.9-0.3-1.5-0.5-2.3-0.8
	c1.2-0.6,2.2-1.5,3.2-1.5C518.8,236,522.7,234.5,526,230.5z"/>
<path class="st0" d="M470.8,243c0.4,0.6,0.8,1.1,0.8,1c-0.4,0.9-0.7,1.7-1.1,2.6c-1-0.8-1.5-1.1-2.1-1.6c-0.2,1-0.3,1.9-0.5,3
	c-0.8,0.1-1.5,0.1-2.3,0.2c-0.6,1-1.1,1.9-2,3.4c-0.4-0.9-0.6-1.5-0.8-2.1c-0.2,0.1-0.3,0.3-0.5,0.4c0-1.4,0-2.9,0-4.7
	c0.5,0,1.2-0.2,1.7,0c0.6,0.1,1.1,0.5,1.7,0.8c0.4-0.8,0.8-1.7,1.5-3.1c-1.1,0.4-1.8,0.6-2.9,1c-0.4-0.5-0.9-1.3-1.8-2.5
	c1.7,0,2.8,0,4.3,0c0.3,0.4,0.9,1.2,1.4,1.8C469.4,243,470.2,243,470.8,243z"/>
<path class="st0" d="M501.9,241.1c0.5-1.6,1-3.1,1.4-4.6c1.1-0.8,2.4-1.7,3.6-2.6c0.1-1.4,0.2-2.6,0.4-4c0.7,0.2,1.4,0.2,1.6,0.5
	c0.7,1,1.3,2.1,2,3.3C509.7,237.9,505.3,238.8,501.9,241.1z"/>
<path class="st0" d="M479.5,135c-0.9-0.1-1.6-0.1-2.7-0.1c0.4-1,0.7-1.8,1-2.6c-0.1-0.1-0.4-0.4-0.8-0.8c1.3-0.9,2.5-1.7,3.6-2.5
	c0.5-1.5,1-2.8,1.5-4.1c1.8,1,2.3,2.2,1.8,3.8c-0.6,0.2-1.2,0.4-1.8,0.7c0,1,0,2,0,2.9C481.2,133.3,480.3,134.2,479.5,135z"/>
<path class="st0" d="M504.8,194.7c0.5-1.2,1-2.2,1.7-3.7c-1.3,0.5-2.1,0.8-3.1,1.2c-0.2-0.7-0.3-1.3-0.4-1.8
	c0.8-0.3,1.3-0.6,2.1-0.9c-0.8-0.4-1.4-0.7-2.2-1.1c1.4-0.4,2.6-0.8,4.2-1.3c0.4,1,0.8,2.2,1.4,3.7c0.5,0.1,1.4,0.2,2.5,0.4
	c0,0.5,0.1,1.2-0.1,1.4c-0.7,0.6-1.5,1.1-2.4,1.4C507.5,194.3,506.4,194.4,504.8,194.7z"/>
<path class="st0" d="M513.2,236c-1.9-3.6,0-5.9,2.4-8c4,0.8,4.4,1.8,1.9,5c-1.3,0-2.8,0-4.4,0C513.2,234.1,513.2,235,513.2,236z"/>
<path class="st0" d="M394.7,280.2c0.4,2.3,0.8,4.3,1.3,6.7c-1.1-0.1-2.2-0.2-4-0.4c-0.4,0.2-1.5,0.8-3.5,1.9
	c1.3-2.4,2.1-3.9,3.4-6.2C392.4,281.8,393.6,281,394.7,280.2z"/>
<path class="st0" d="M185.8,231c0.3,1.2,0.5,2.4,0.8,3.7c-0.2,0.1-0.8,0.3-1.3,0.5c-0.1,0.1-0.2,0.3-0.2,0.3c0.4,0.8,2.7,0,1.7,2.2
	c-0.6-0.3-1.4-0.6-2.5-1c-0.3-0.8-0.6-2-1.3-3c-0.7-0.9-1.9-1.5-2.9-2.3c0.4-0.3,0.9-0.7,1.5-1.2c0.7,0.6,1.5,1.3,2.3,2
	C184.7,231.7,185.4,231.3,185.8,231z"/>
<path class="st0" d="M174.5,236.3c-0.8-0.4-1.4-0.8-1.9-1.1c-0.7,0.3-1.4,0.6-2.4,1.1c0-1.2,0-2,0-2.9c0.9-0.4,2-1,3.7-1.8
	C173.4,233.5,175.9,234.2,174.5,236.3z"/>
<path class="st0" d="M118,102.4c1.6-0.5,3.1-1,5-1.5c0.1,2.5-1.8,3-2.9,4.8C119.2,104.3,118.7,103.4,118,102.4z"/>
<path class="st0" d="M179.2,124.6c0,0,0.3,0.3,0.8,0.8c-0.7,1.2-1.5,2.4-1.9,3.1c-0.9-0.4-1.7-0.7-3.2-1.4
	C176.8,126,177.9,125.4,179.2,124.6z"/>
<path class="st0" d="M83.1,141.7c0-1.8,0-2.6,0-3.3c1.6-0.9,2.7-0.3,4,1.3C86,140.3,84.9,140.8,83.1,141.7z"/>
<path class="st0" d="M308.7,211.9c1.5,2.3,1.6,4.5,0.3,6.6c-0.2,0.4-1,0.4-2.1,0.8c0.8-1.6,1.3-2.6,1.9-3.8
	C308.4,214.4,307.3,213.1,308.7,211.9z"/>
<path class="st0" d="M223.7,82.1c0.3,0.3,0.5,0.5,0.9,0.9c0.6-0.8,1.1-1.5,1.7-2.3c0.7,0.7,1.1,1.2,1.7,1.7
	c-0.4,0.4-0.8,0.9-1.2,1.3c-1.6,0-3.2,0-5.2,0C222.5,83.1,223,82.7,223.7,82.1z"/>
<path class="st0" d="M217.2,143.5c-1,3.5-1,3.5-3.9,3.2c-0.1-0.3-0.1-0.6-0.2-1.1C214.1,145,215.3,144.4,217.2,143.5z"/>
<path class="st0" d="M506.1,248.8c1.3-1.6,2.4-3.1,3.6-4.6c1.7,1.9-1.2,3.1-0.8,4.6C507.8,248.8,507,248.8,506.1,248.8z"/>
<path class="st0" d="M399.1,283.8c0-0.6,0-1,0-1.7c1.3,0,2.5,0,3.8,0c0,0.6,0,1,0,1.7C401.7,283.8,400.5,283.8,399.1,283.8z"/>
<path class="st0" d="M429.7,205.1c-0.7-0.6-1.3-1.1-2.1-1.8c0.8-0.9,1.3-1.6,1.9-2.3c0.6,0.6,1.1,1.1,1.7,1.7
	C430.8,203.4,430.3,204.2,429.7,205.1z"/>
<path class="st0" d="M392.5,314.7c-2.8,2.8-2.8,2.9-5.5,0.7C388.7,314.5,390.3,315.3,392.5,314.7z"/>
<path class="st0" d="M397.2,294.2c2.2,0,4.4,0,6.8,0c-0.2,0.4-0.3,0.8-0.4,0.8c-2.1,0-4.2,0-6.3,0
	C397.2,294.7,397.2,294.4,397.2,294.2z"/>
<path class="st0" d="M185.5,92.2c1.6,0,2.5,0,4,0c-0.7,1.1-1.2,1.9-1.8,3C186.9,94.2,186.4,93.4,185.5,92.2z"/>
<path class="st0" d="M23.1,271.8c-1.4,0-2.6,0-3.9,0c0-0.6,0-1.1,0-1.5C20.8,269.6,22,269.9,23.1,271.8z"/>
<path class="st0" d="M68.9,111.8c-2-1-2.9-1.4-3.9-1.9c1-1.9,2.2-2.5,4.1-1.4c-0.8,0.4-1.4,0.7-2.1,1
	C67.5,109.9,67.8,110.4,68.9,111.8z"/>
<path class="st0" d="M393.2,321.3c-0.3-2.5,0.9-3.1,2.4-3.4c0.2,0.5,0.4,0.9,0.7,1.7c-0.6,0.2-1.2,0.2-1.7,0.5
	C394.2,320.2,393.9,320.7,393.2,321.3z"/>
<path class="st0" d="M32.1,164c0,0.5,0,1,0,1.5c0.7,0.3,1.3,0.6,2,0.9c0,0.4,0,0.7-0.1,1.1c-0.1,0.1-0.3,0.4-0.3,0.3
	c-0.8-0.4-1.6-0.8-2.7-1.4c0.2-0.8,0.4-1.7,0.6-2.6C31.7,163.9,31.9,164,32.1,164z"/>
<path class="st0" d="M397.9,283.9c-0.5,0-1,0.1-1.7,0.1c0.4-0.8,0.6-1.4,1-2.1c-0.3-0.4-0.7-0.9-1.2-1.6c0.6-0.1,1.1-0.2,1.9-0.4
	C397.9,281.4,397.9,282.6,397.9,283.9z"/>
<path class="st0" d="M502.1,241c0,0.7,0,1.3,0,2c-1,0-1.9,0-2.9,0c0-0.8,0-1.2,0-2C500.2,241,501.1,241,502.1,241z"/>
<path class="st0" d="M198.9,94.5c-0.4,0.8-0.8,1.6-1.4,2.6c-1-1.7-0.2-3.4,0-5.1C198,92.9,198.5,93.7,198.9,94.5z"/>
<path class="st0" d="M119.1,116c-0.3-1-0.7-2-1-3c0.9,0,1.9,0,3.3,0C120.4,114.3,119.7,115.1,119.1,116z"/>
<path class="st0" d="M118.9,116c0,1,0,1.9,0,2.9c-0.6,0.1-1,0.1-1.7,0.2c0-1,0-1.8,0-2.9C117.8,116.1,118.4,116,118.9,116z"/>
<path class="st0" d="M182.1,121.3c0-1.1,0-1.5,0-2.1c1,0,1.8,0,2.8,0C185.2,122.1,183.2,120.5,182.1,121.3z"/>
<path class="st0" d="M120,70c-0.6,1.2-1,2.1-1.5,3.1c-0.4-0.5-0.9-1-1.8-2c0.5-0.3,1.1-0.7,1.8-1C118.8,69.9,119.2,70,120,70z"/>
<path class="st0" d="M119.3,100c0-1.7,0-3.3,0-5c0.2,0,0.3,0,0.5,0c0,1.7,0,3.3,0,5C119.6,100,119.5,100,119.3,100z"/>
<path class="st0" d="M503.9,201.2c0,0.9,0,1.8,0,2.7c-0.6,0-1.1,0-2,0c0.5-1.1,0.9-2,1.3-2.9C503.4,201.1,503.6,201.1,503.9,201.2z"
	/>
<path class="st0" d="M494.6,216c1,0,1.4,0,2.2,0c0.1,0.9,0.2,1.9,0.2,2.9c-0.2,0.1-0.4,0.1-0.7,0.2
	C495.8,218.1,495.3,217.2,494.6,216z"/>
<path class="st0" d="M434.1,184.8c0.9,0.2,1.4,0.3,1.8,0.3c-0.9,0.9-1.6,1.8-3.3,3.6C433.4,186.8,433.7,185.9,434.1,184.8z"/>
<path class="st0" d="M528.5,214.4c-0.8,1.1-1.4,1.9-2.3,3.1c0-1.6,0-2.5,0-3.6C527,214.1,527.5,214.2,528.5,214.4z"/>
<path class="st0" d="M519.9,247.1c-0.8-0.2-1.3-0.3-2.3-0.5c0.8-1.1,1.4-1.8,2.3-3.1C519.9,245.1,519.9,246,519.9,247.1z"/>
<path class="st0" d="M508.1,154.9c-0.1,1-0.2,1.5-0.4,2.5c-1.1-0.7-1.8-1.1-3.2-2C506.1,155.2,506.9,155.1,508.1,154.9z"/>
<path class="st0" d="M118,123.3c0,1.8,0,2.5,0,3.7c-0.8-0.2-1.4-0.3-2.5-0.6C116.4,125.4,116.9,124.7,118,123.3z"/>
<path class="st0" d="M135.6,162.8c1.3-0.9,2-1.5,3.1-2.3c0.2,1,0.3,1.5,0.5,2.3C138,162.8,137.1,162.8,135.6,162.8z"/>
<path class="st0" d="M400.4,307.5c0.7,0.7,1.5,1.5,2.1,2.1C400.6,309.7,400.6,309.7,400.4,307.5z"/>
<path class="st0" d="M194.3,100.2c1.9,0,2.7,0,3.7,0c0,0.6,0,1,0,1.7C196.9,101.4,196,101,194.3,100.2z"/>
<path class="st0" d="M455.2,249.8c0-1.9,0-2.7,0-3.7c0.6,0,1,0,1.7,0C456.5,247.1,456,248,455.2,249.8z"/>
<path class="st0" d="M183.3,113c0.6,0,0.9,0,1.5,0c0.1,0.5,0.2,1.1,0.4,1.8c-0.6,0.1-1.1,0.2-1.8,0.4
	C183.3,114.3,183.3,113.7,183.3,113z"/>
<path class="st0" d="M224,228.5c-0.5,0.5-0.9,0.9-1.8,1.8c0-1.3-0.3-2.3,0.1-3c0.7-1.3,0.7,0.3,1.1,0.5
	C223.7,228,223.8,228.3,224,228.5z"/>
<path class="st0" d="M502,243c0.6,0,1.2,0.1,1.9,0.1c0.1,0.6,0.1,1,0.1,1.7c-0.6,0.1-1.2,0.1-1.9,0.2
	C502.1,244.2,502.1,243.6,502,243z"/>
<path class="st0" d="M139.8,180.9c-1-1.2-1.4-1.8-2.1-2.6c1-0.2,1.4-0.3,2.1-0.4C139.8,178.7,139.8,179.3,139.8,180.9z"/>
<path class="st0" d="M291.2,216.1c0.6,0,1,0,1.7,0c-0.5,1-0.9,1.9-1.7,3.7C291.2,217.9,291.2,217.1,291.2,216.1z"/>
<path class="st0" d="M525.5,207.8c0.2-0.5,0.6-1.2,1.2-2.6c0.2,1.4,0.3,1.9,0.4,2.6C526.4,207.8,525.7,207.8,525.5,207.8z"/>
<path class="st0" d="M425.8,208.5c-0.5-0.2-1.2-0.6-2.6-1.2c1.4-0.2,1.9-0.3,2.6-0.4C425.8,207.7,425.8,208.3,425.8,208.5z"/>
<path class="st0" d="M286.7,222.8c0.2,0.7,0.3,1.2,0.5,2c-0.7,0.1-1.3,0.1-2.6,0.3C285.5,224,286,223.5,286.7,222.8z"/>
<path class="st0" d="M75.9,245.8c-0.9,0-1.8,0-2.7,0c0-0.2,0-0.3-0.1-0.5c0.9-0.1,1.7-0.3,2.6-0.4C75.8,245.2,75.9,245.5,75.9,245.8
	z"/>
<path class="st0" d="M527.3,227.7c-0.8,0.2-1.3,0.2-1.9,0.4c-0.1-0.6-0.2-1.2-0.6-2.8C526,226.5,526.5,227,527.3,227.7z"/>
<path class="st0" d="M113,127c0.7,0.1,1.3,0.1,1.9,0.1c0.1,0.2,0.3,0.4,0.4,0.6c-0.7,0.3-1.4,0.5-2,0.8
	C113.2,128.3,113.1,127.7,113,127z"/>
<path class="st0" d="M529.2,219.2c0.9,0,1.8,0,2.7,0c0,0.2,0,0.3,0.1,0.5c-0.9,0.1-1.7,0.3-2.6,0.4
	C529.3,219.8,529.2,219.5,529.2,219.2z"/>
<path class="st0" d="M511.7,227.4c-0.4,0.3-1,0.8-1.3,1.1C510.3,227.1,510.3,227.1,511.7,227.4z"/>
<path class="st0" d="M459.7,242.8c0.2,0.7,0.3,1.2,0.5,2c-0.7,0.1-1.3,0.1-2.6,0.3C458.5,244,459,243.5,459.7,242.8z"/>
<path class="st0" d="M128.3,176.1c0.5,0,1,0,1.6,0c0,0.6,0,1.2,0,2.9C129.1,177.5,128.7,176.8,128.3,176.1z"/>
<path class="st0" d="M0.9,266.2c0,0.9,0,1.8,0,2.7c-0.2,0-0.3,0-0.5,0c-0.1-0.9-0.2-1.8-0.4-2.7C0.3,266.2,0.6,266.2,0.9,266.2z"/>
<path class="st0" d="M465.9,300.8c-0.9,0-1.8,0-2.7,0c0-0.2,0-0.3,0-0.5c0.9-0.1,1.8-0.2,2.7-0.4
	C465.9,300.2,465.9,300.5,465.9,300.8z"/>
<path class="st0" d="M514,183.9c0,0.9,0,1.4,0,1.6c-0.5-0.4-1.1-0.8-1.9-1.3C512.7,184.1,513.1,184,514,183.9z"/>
<path class="st0" d="M118.1,157.2c1,0,2,0,3,0c0,0.2,0,0.3,0,0.5c-1,0-2,0-3,0C118.1,157.6,118.1,157.4,118.1,157.2z"/>
<path class="st0" d="M94.6,153.5c0.7-0.5,1.4-0.9,2.4-1.5c0,0.7,0.1,1.2,0.1,1.9c-0.8,0.1-1.4,0.1-2,0.1
	C94.9,153.9,94.7,153.7,94.6,153.5z"/>
<path class="st0" d="M368.7,201.9c0.3,0.7,0.7,1.3,1,2C368.4,204.3,368,203.8,368.7,201.9z"/>
<path class="st0" d="M143.3,68.5c0.5,0.2,1.2,0.6,2.6,1.2c-1.4,0.2-1.9,0.3-2.6,0.4C143.3,69.3,143.3,68.7,143.3,68.5z"/>
<path class="st0" d="M126.9,56.8c-0.6,0-1.1,0-1.7,0c0-0.2-0.1-0.3-0.1-0.5c0.5-0.1,1.1-0.3,1.6-0.4
	C126.8,56.3,126.9,56.5,126.9,56.8z"/>
<path class="st0" d="M178.1,88.8c-0.7,0-1.3,0-2,0c0-0.2,0-0.3,0-0.5c0.7,0,1.3,0,2,0C178.1,88.4,178.1,88.6,178.1,88.8z"/>
<path class="st0" d="M113.3,72c0-0.7,0-1.3,0-2c0.2,0,0.3,0,0.5,0c0,0.7,0,1.3,0,2C113.6,72,113.5,72,113.3,72z"/>
<path class="st0" d="M456.2,298.8c0-0.6,0-1.1,0-1.7c0.2,0,0.3,0,0.5-0.1c0.1,0.6,0.2,1.1,0.4,1.7
	C456.8,298.8,456.5,298.8,456.2,298.8z"/>
<path class="st0" d="M312.1,232.8c-0.7,0-1.3,0-2,0c0-0.2,0-0.3,0-0.5c0.7,0,1.3,0,2,0C312.1,232.4,312.1,232.6,312.1,232.8z"/>
<path class="st0" d="M372.8,301c0,0.7,0,1.3,0,2c-0.2,0-0.3,0-0.5,0c0-0.7,0-1.3,0-2C372.5,301,372.6,301,372.8,301z"/>
<path class="st0" d="M389.9,307.8c-0.6,0-1.1,0-1.7,0c0-0.2-0.1-0.3-0.1-0.5c0.5-0.1,1.1-0.3,1.6-0.4
	C389.8,307.3,389.9,307.5,389.9,307.8z"/>
<path class="st0" d="M265.8,234c0,0.7,0,1.3,0,2c-0.2,0-0.3,0-0.5,0c0-0.7,0-1.3,0-2C265.5,234,265.6,234,265.8,234z"/>
<path class="st0" d="M458.9,248.8c-0.6,0-1.1,0-1.7,0c0-0.2-0.1-0.3-0.1-0.5c0.5-0.1,1.1-0.3,1.6-0.4
	C458.8,248.3,458.9,248.5,458.9,248.8z"/>
<path class="st0" d="M514.9,249.8c-0.6,0-1.1,0-1.7,0c0-0.2-0.1-0.3-0.1-0.5c0.5-0.1,1.1-0.3,1.6-0.4
	C514.8,249.3,514.9,249.5,514.9,249.8z"/>
<path class="st0" d="M399.8,252c0,0.7,0,1.3,0,2c-0.2,0-0.3,0-0.5,0c0-0.7,0-1.3,0-2C399.5,252,399.6,252,399.8,252z"/>
<path class="st0" d="M19.8,260c0,0.7,0,1.3,0,2c-0.2,0-0.3,0-0.5,0c0-0.7,0-1.3,0-2C19.5,260,19.6,260,19.8,260z"/>
<path class="st0" d="M157.2,112.2c0.6,0,1.1,0,1.7,0c0,0.2,0.1,0.3,0.1,0.5c-0.5,0.1-1.1,0.3-1.6,0.4
	C157.3,112.7,157.3,112.5,157.2,112.2z"/>
<path class="st0" d="M182.1,99.2c0.7,0,1.3,0,2,0c0,0.2,0,0.3,0,0.5c-0.7,0-1.3,0-2,0C182.1,99.6,182.1,99.4,182.1,99.2z"/>
<path class="st0" d="M425.2,273.8c0-0.6,0-1.1,0-1.7c0.2,0,0.3,0,0.5-0.1c0.1,0.6,0.2,1.1,0.4,1.7
	C425.8,273.8,425.5,273.8,425.2,273.8z"/>
<path class="st0" d="M20.9,274.8c-0.6,0-1.1,0-1.7,0c0-0.2-0.1-0.3-0.1-0.5c0.5-0.1,1.1-0.3,1.6-0.4
	C20.8,274.3,20.9,274.5,20.9,274.8z"/>
<path class="st0" d="M135.2,178.2c0.6,0,1.1,0,1.7,0c0,0.2,0.1,0.3,0.1,0.5c-0.5,0.1-1.1,0.3-1.6,0.4
	C135.3,178.7,135.3,178.5,135.2,178.2z"/>
<path class="st0" d="M226.6,140.8c1.2,0.3,1.8,0.5,2.4,0.7c-0.5,0.2-0.9,0.4-1.4,0.4C227.5,142,227.3,141.6,226.6,140.8z"/>
<path class="st0" d="M31.9,160.8c-0.6,0-1.1,0-1.7,0c0-0.2-0.1-0.3-0.1-0.5c0.5-0.1,1.1-0.3,1.6-0.4
	C31.8,160.3,31.9,160.5,31.9,160.8z"/>
<path class="st0" d="M42.1,155.8c-0.7,0-1.3,0-2,0c0-0.2,0-0.3,0-0.5c0.7,0,1.3,0,2,0C42.1,155.4,42.1,155.6,42.1,155.8z"/>
<path class="st0" d="M83.3,154c-0.1-0.6-0.1-1.3-0.2-1.9c0.2,0,0.4-0.1,0.6-0.1c0.1,0.7,0.3,1.3,0.4,2C83.9,154,83.6,154,83.3,154z"
	/>
<path class="st0" d="M91.1,151.2c0.7,0,1.3,0,2,0c0,0.2,0,0.3,0,0.5c-0.7,0-1.3,0-2,0C91.1,151.6,91.1,151.4,91.1,151.2z"/>
<path class="st0" d="M397.1,124.2c0.7,0,1.3,0,2,0c0,0.2,0,0.3,0,0.5c-0.7,0-1.3,0-2,0C397.1,124.6,397.1,124.4,397.1,124.2z"/>
<path class="st0" d="M530.9,228.2c0,0.6,0,1.1,0,1.7c-0.2,0-0.3,0.1-0.5,0.1c-0.1-0.5-0.3-1.1-0.4-1.6
	C530.3,228.2,530.6,228.2,530.9,228.2z"/>
<path class="st0" d="M536.9,223.2c0,0.6,0,1.1,0,1.7c-0.2,0-0.3,0.1-0.5,0.1c-0.1-0.5-0.3-1.1-0.4-1.6
	C536.3,223.2,536.6,223.2,536.9,223.2z"/>
<path class="st0" d="M302.2,211.8c0-0.6,0-1.1,0-1.7c0.2,0,0.3,0,0.5-0.1c0.1,0.6,0.2,1.1,0.4,1.7
	C302.8,211.8,302.5,211.8,302.2,211.8z"/>
<path class="st0" d="M110.2,130.2c0.6,0,1.1,0,1.7,0c0,0.2,0,0.3,0.1,0.5c-0.6,0.1-1.1,0.2-1.7,0.4
	C110.3,130.7,110.3,130.5,110.2,130.2z"/>
<path class="st0" d="M124.9,134.8c-0.6,0-1.1,0-1.7,0c0-0.2,0-0.3-0.1-0.5c0.6-0.1,1.1-0.2,1.7-0.4
	C124.8,134.3,124.9,134.5,124.9,134.8z"/>
<path class="st0" d="M421.2,191.2c0.6,0,1.1,0,1.7,0c0,0.2,0.1,0.3,0.1,0.5c-0.5,0.1-1.1,0.3-1.6,0.4
	C421.3,191.7,421.2,191.5,421.2,191.2z"/>
<path class="st0" d="M450.3,192c-0.1-0.6-0.1-1.3-0.2-1.9c0.2,0,0.4-0.1,0.6-0.1c0.1,0.7,0.3,1.3,0.4,2
	C450.9,192,450.6,192,450.3,192z"/>
<path class="st0" d="M119.9,135.8c-0.6,0-1.1,0-1.7,0c0-0.2,0-0.3-0.1-0.5c0.6-0.1,1.1-0.2,1.7-0.4
	C119.8,135.3,119.9,135.5,119.9,135.8z"/>
<path class="st0" d="M514.2,190.8c0-0.6,0-1.1,0-1.7c0.2,0,0.3,0,0.5-0.1c0.1,0.6,0.2,1.1,0.4,1.7
	C514.8,190.8,514.5,190.8,514.2,190.8z"/>
<path class="st0" d="M114.2,137.2c0.6,0,1.1,0,1.7,0c0,0.2,0.1,0.3,0.1,0.5c-0.5,0.1-1.1,0.3-1.6,0.4
	C114.3,137.7,114.3,137.5,114.2,137.2z"/>
<path class="st0" d="M182.5,199.4c-0.8,1.1-1.4,1.9-2.3,3.1c0-1.6,0-2.5,0-3.6C181,199.1,181.5,199.2,182.5,199.4z"/>
<path class="st0" d="M216.6,191.7c-0.5-0.3-1.1-0.7-2.1-1.3C217,190.2,217,190.2,216.6,191.7z"/>
<path class="st0" d="M284.8,143c0.1,0.6,0.1,1.3,0.2,1.9c-0.2,0-0.4,0.1-0.6,0.1c-0.1-0.7-0.3-1.3-0.4-2
	C284.3,143,284.5,143,284.8,143z"/>
<path class="st0" d="M218,220c0.7,0.1,1.3,0.1,1.9,0.1c0.1,0.2,0.3,0.4,0.4,0.6c-0.7,0.3-1.4,0.5-2,0.8
	C218.2,221.3,218.1,220.7,218,220z"/>
<path class="st0" d="M253.1,155c0-1,0-2,0-3c0.7,0.9,1.3,1.7,2.3,3C254.3,155,253.7,155,253.1,155z"/>
</svg>
