<?xml version="1.0" encoding="utf-8"?>
<!-- Generator: Adobe Illustrator 21.0.0, SVG Export Plug-In . SVG Version: 6.00 Build 0)  -->
<svg version="1.1" id="Layer_1" xmlns="http://www.w3.org/2000/svg" xmlns:xlink="http://www.w3.org/1999/xlink" x="0px" y="0px"
	 viewBox="0 0 536.9 265.4" style="enable-background:new 0 0 536.9 265.4;" xml:space="preserve">
<style type="text/css">
	.st0{fill:#FFFFFF;}
</style>
<path class="st0" d="M405.9,140.2c0.1,0.4,0.1,0.9,0.1,1.4c-0.7,0.3-1.3,0.6-2.3,1.1c0.4,0.7,0.8,1.4,1.3,2.2c-0.9,0-1.7,0-2.7,0
	c-0.5-0.5-1.2-1.1-1.9-1.8c-0.5,2.2-0.9,4.4-1.3,6.6c0.2,0.2,0.4,0.4,1,0.9c-1.3,1-2.5,2-4,3.3c0,0.2-0.1,0.9,0,1.5
	c0.1,0.4,0.6,0.8,0.7,0.9c-0.3,1.2-0.6,2.2-1,3.5c-0.4,0.2-1.1,0.5-1.9,0.9c0.3,0.6,0.6,1.2,1,2.2c-0.5,0.3-1.4,0.7-1.8,0.9
	c0,2.7,0,4.7,0,6.6c-2.9,2.6-2.5,6.7-4.6,9.7c-0.6,0-1.3,0-1.9,0c-0.1,0.1-0.4,0.3-0.4,0.3c0.3,1,0.7,1.9,1.1,3.1
	c-1.5,1-2.7,1.9-4,2.7c0.3,1.6,0.6,3,0.8,4.6c-0.7,0.2-1.2,0.3-1.9,0.5c-1.6,2.2,2.4,4.3,0.9,5.8c-2.2,1.4-3.8,2.3-5.5,3.4
	c0.6,1.2,1,2,1.6,3.2c-0.7,0.3-1.4,0.6-2.1,0.9c0.7,0.6,1.4,1.1,2.4,2c-2.3,1.3-4.3,0.2-6.6,1c0-1.3,0.1-2.3,0-3.2
	c-0.1-0.7-0.7-1.4-1-2.1c0.4-0.7,0.8-1.3,1.5-2.5c-0.8-0.4-1.7-0.9-2.5-1.3c1.7-1.8,2.9-3.2,4.2-4.6c-0.5-0.5-0.8-0.8-1.3-1.4
	c0.6-0.9,1.3-1.7,1.7-2.4c0.7-2.3,1.3-4.4,2-6.4c0.2,0,0.3,0.1,0.5,0.1c0-1.3,0-2.6,0-4.2c0.5-0.2,1.1-0.3,1.5-0.4
	c1.6-4.1,3.2-8.2,4.6-11.7c-1.6-1.7-2.8-3.2-4.1-4.6c0.4-0.4,0.6-0.6,0.6-0.6c-0.8-0.9-1.6-1.8-2.6-3c-0.1,0.1-0.7,0.3-1.4,0.7
	c-1.4-0.5-1.7-1.8-1.4-3.4c-0.7-0.2-1.3-0.4-1.9-0.7c-0.1-0.7-0.2-1.5-0.3-2.4c-0.5-0.2-1.1-0.4-1.7-0.6c-0.1-1.8,2.1-2.1,6.4-0.8
	c0.2-2.4,0.2-2.4-1.8-5.2c0.6-1.4,1.3-2.9,2-4.5c-0.5-0.1-1-0.1-1.4-0.2c-0.4,0.7-0.7,1.4-1,2c-2.2,0.1-2.1-1.8-3.1-3.4
	c-0.6,1.5-1.2,2.7-1.9,4.4c-0.8-0.1-2-0.3-3.3-0.6c-0.1,0.5-0.2,1.4-0.4,2.4c-0.5-0.3-1-0.5-1.6-0.8c-0.1,0.5-0.1,1-0.2,1.4
	c0.7,0.3,1.3,0.6,2.1,1c-2.1,0.5-4,1.1-5.9,1.6c0,1,0,1.8,0,2.5c2.4,0.6,4.7,1.1,6.9,1.6c0,0.5,0,0.8,0,1.5
	c-1.7,0.1-3.5,0.2-5.2,0.2c-2.1-1.6-3.9-3.4-7-3c0.6,0.7,0.8,1,1.4,1.6c-1,0.1-1.9,0.3-2.7,0.4c0.2,1.8,0.5,3.6,0.8,5.5
	c-2.2,0.8-2.9,3.2-4.5,3.9c-2.1,0.8-2.5,2.6-3.7,4c0.3,0.3,0.6,0.7,0.9,1.1c-1.3,1-2.8,1.8-3.9,2.8c-1,0.9-1.6,2.3-2.5,3.4
	c-1.9,2.2-4.1,3.6-7.2,3.1c-1.1,1.6-2.2,3.1-3.4,4.8c0.3,1,0.7,2.1,1.2,3.5c-1.2,1.2-2.3,2.3-3.7,3.7c1,1.1,1.8,2,3.1,3.3
	c-1.1,0.5-1.7,0.7-1.6,0.7c-1.3,2.1-2.3,3.7-3.1,5c-1.5,0-2.5,0-3.3,0c-0.9-1.3-1.7-2.4-2.6-3.8c0-2.2-0.1-4.8,0-7.2
	c0.1-2,0.8-4,0.9-6.1c0.1-1.4,0.6-2.8-0.6-4.3c-0.4-0.5,0.5-2.1,0.1-3.5c-0.2,0.6-0.5,1.1-0.7,1.8c-1.1,0-2.2,0-3.3,0
	c-0.5-1.6-2.2-2.8-0.8-5.1c0.2,0.7,0.4,1.2,0.6,1.8c1.4,1.2,2.6-0.2,5-0.1c0.5-0.2,0.3-0.6,0.2-0.5c-0.5,0.1-0.9,0.3-1.4,0.4
	c0.6,0.2,1.2,0.3,1.2,0.1c-1.6-1.4-2-2.2-2.5-3.3c-2.7-1.1-5.7-2.4-9.2-3.8c0.8-0.8,1.4-1.3,2.2-2c-0.5-1.1-1.2-2.5-2.1-4.4
	c1.7,0,3,0,4.3,0c0-0.8,0-1.3,0-2.1c-0.6,0.4-1.1,0.7-1.9,1.2c-0.4-1.1-0.7-2.1-1-3.6c0-0.1,0,0.2,0,0.5c1-0.1,2-0.3,2.9-0.4
	c0-0.2,0-0.4-0.1-0.7c-1,0-1.9,0.1-2.9,0.5s-2,0.4-3,0.4c0-0.5,0-1,0-1.8c-0.7-0.1-1.5-0.2-2.1-0.3c-2.4-1.7-4.6-3.3-6.9-4.9
	c0-0.6-0.1-1.2-0.1-2c-0.7,0.1-1.3,0.1-1.9,0.2c0.1,0.7,0.1,1.1,0.1,1.7c0.7,0.1,1.3,0.1,1.9,0.1c0.4,1.5,0.7,3,1.1,4.5
	c-1.4,0.5-2.7,1-4.3,1.5c0.5,0.8,0.8,1.3,1.3,2c-0.5,0.6-1.1,1.3-1.7,2c-0.3-0.3-0.6-0.6-0.9-0.9c-1,0.3-2.1,2-2.9-0.1
	c-1.7,0.9-3.3,1.7-5,2.6c0.4,0.7,0.7,1.2,1.1,1.8c-1.2,0.5-2.5,1.1-3.6,1.5c0.3,1.3,0.6,2.1,0.8,3c-0.5,0-1,0-1.6,0
	c-0.3-0.6-0.6-1.3-1-2.2c-0.3,0.8-0.5,1.4-0.7,2c-0.8,0.1-1.5,0.2-2.3,0.3c-0.6,0.6-1.2,1.2-1.8,1.8c-0.6,0.6-1.1,1.2-1.6,1.8
	c-0.6,0.7-0.9,1.9-1.6,2.2c-0.9,0.3-1.4,0.4-1.5,1.5c0,0.2-1.2,0.4-2.5,0.8c0.9-1,1.2-1.4,2-2.3c-2,0.5-3.4,0.9-5,1.3
	c-0.6,0.9-1.2,1.9-2,3.1c-1.2-0.3-2.2-0.6-3.3-0.9c-0.1,0.2-0.2,0.7-0.3,1.3c-1.1,0.5-2.3,1.1-3.6,1.7c-0.2,0.5-0.4,1.1-0.6,1.7
	c-0.7,0-1.4,0-2.1,0c-1.1,2.6-3.3,3.5-5.6,2.9c-2-0.5-3.8-1.8-5.6-2.7c-0.3,0.3-0.5,0.5-0.9,0.9c-0.9-1.3-1.7-2.6-2.4-3.6
	c-2.1,0.2-3.9,0.4-5.4,0.6c-1.7-1.6-2.2-3.9-4.9-4.1c-0.3,0.3-0.8,0.6-1.5,1.2c-0.6-0.4-1.2-0.8-2-1.3c0.1-2.4,2.4-2.9,3.7-4.3
	c-0.2-0.3-0.5-0.6-1-1.2c0.7-0.5,1.5-1,3.2-2.1c-2.3-0.1-3.6-0.2-5.1-0.3c0.4,1,0.8,1.8,1.1,2.7c-2.5,0.9-5.2-0.4-7.2,1.4
	c0-0.6,0-1.2,0-2c-2.9,0.1-3.2,1.9-3,3.8c-2.1,0.5-3.8,0.5-4.8-0.9c0.3-1.1,0.5-2,0.8-2.8c2.5-1.1,5.2-1.7,7.3-4.1
	c-1.2-0.9-2.2-1.6-3.3-2.4c0.4-0.5,0.7-0.9,1.2-1.4c-0.6-1.1-1.3-2.2-2-3.4c-2.6,1.3-0.1,2.2-0.2,3c-0.4,1.2-0.7,2.2-1,3.3
	c-0.7,0-1.3,0-3.2-0.6c-0.5,0.2-0.3,0.6-0.2,0.5c0.5-0.1,0.9-0.3,1.4-0.4c-0.6-0.2-1.2-0.3-1.2-0.1c1.6,1.2,1.9,1.9,2.2,2.4
	c-0.4,1.2-0.7,2.2-1,3.2c-0.6,0-1.2,0-2,0c0.5-1,0.9-1.6,1.2-2.1c-0.4-0.4-0.6-0.9-0.8-0.8c-1.7,0.1-3.6-0.5-5.1,0.9
	c-0.2,0.2-1.1-0.4-1.9-0.7c-0.4,1.3-0.1,3.4-2.6,3.9c-0.3-0.3-0.8-0.6-1.8-1.5c0.4,1.4,0.6,2.2,0.9,3.2c-0.4,0.5-1.1,1.2-1.7,1.8
	c0,0.7-0.1,1.4,0,2c0.9,6.7-1.7,12.8-3.2,19.1c-0.1,0.6-0.7,1.1-0.8,1.7c-0.6,3.8-1,5-3.3,8.5c-1.4,0.2-2.9,0.7-4.6-1.2
	c-0.1-0.8-0.2-2.1-0.4-3.3c-0.6-0.6-1.2-1.2-1.7-1.7c2.9-4.8,1.9-10.4,3.7-15.8c-2-1.9-0.5-4.3,0.4-7c-0.7-0.8-1.5-1.6-1.9-2.1
	c-0.6-3.8-1.1-7.3-1.6-10.7c-1,2.3-0.7,4.7-0.7,7.1c0,1.9-0.1,3.7-2,4.9c0-1,0-1.9,0-3.3c-4.2,2.3-8.9,0.3-12.9,3.6
	c-0.5-1.4-1-2.7-1.5-4c-0.1,0.1-0.6,0.2-0.6,0.3c0.2,1.5-0.2,2.6-1.5,3.4c-0.3-0.3-0.7-0.6-1.1-0.9c-0.4,0.5-0.9,1-1.3,1.5
	c0.3,1.3,0.7,2.8,1.2,4.9c-1.4-0.5-2-0.8-3-1.2c-0.5,0.6-1.1,1.5-1.9,2.6c1,2.5,1.4,4.3-0.7,9.1c-0.9,0-1.9,0-3.1,0
	c-0.9-1.1-2-2.3-3.4-4c-0.1-0.5-0.2-1.7-0.3-3.2c-0.8,0.3-1.4,0.4-1.6,0.7c-0.8,1.2-1.5,2.4-2.3,3.7c-0.6-0.5-0.9-0.8-1.3-1.1
	c-0.3,0.3-0.7,0.6-0.9,0.8c-1.1-0.6-2.2-1.3-3.5-2.1c0-1.2,0-2.4,0-3.7c-0.8,0-1.3,0-2.1,0c0,1.3,0,2.6,0,3.8c-0.2,0-0.4,0-0.6,0.1
	c-0.2-1-0.4-1.9-0.6-3.1c-0.8,1.2-1.4,2.2-2.2,3.4c-0.7-1.2-1.3-2.1-2-3.2c-0.9,0-2,0-3.3,0c-0.5,0.9-1.1,1.9-1.6,2.8
	c-0.2-0.2-0.5-0.4-0.6-0.5c-1.9,0.3-3.7,0.5-5.7,0.8c-0.4,0.4-1,1-2,2c-2.2-0.3-4.7-0.6-7.8-1.1c-2.8,1.4-3.2,6.2-7.2,7.1
	c-0.7,2.8-2.9,4.5-4.6,6.5c-1.8,2-3.6,4.1-6.2,5.5c-2.5,1.3-4.4,3.7-6.7,5.5c-2.2,1.7-4.6,3.3-6.9,5s-5.3,2.1-7.2,4.2
	c-3-0.4-4.9,2.1-7.1,3.3c-2.5,1.4-6-0.3-7.6,2.7c-2.9,0.4-5.8-0.5-8.7,0.8c-0.3-0.3-1-1-1.6-1.5c-0.6,0.4-1.2,0.7-1.6,1
	c-2-1.7-3.8-3.2-5.9-5.1c-0.3-1.7,0.5-3.9-0.9-6.1c-0.6-0.9-0.4-2.5,0.8-3.6c0.6-0.5,0.8-1.6,1-2.5c0.2-0.8,0-1.6,0-2.6
	c-0.8-0.5-1.6-1-2.3-1.5c-0.3,0.5-0.7,0.8-0.6,1c0.4,1.6,1.8,2.8,0.1,4.8c-0.8,1-0.1,3.2-0.1,5.1c-1.1,0.7-2.3,1.5-3.9,2.5
	c0.2-1.1,0.3-1.8,0.5-3c-0.9-0.6-2.1-1.4-3.7-2.5c0.2-1,0.4-2.2,0.6-3.7c-0.8,0-2.1,0.3-3-0.1s-1.6-1.1-3-0.9c-0.1,0,0.2,0,0.5,0
	c-0.1-0.7-0.3-1.3-0.4-2c-0.2,0-0.4,0.1-0.6,0.1c0.1,0.6,0.1,1.3,0.6,1.9c0.4,0.8,0.4,1.7,0.4,2.6c1.2,0.8,2.6,1.7,3.9,2.6
	c0,0.8,0,1.6,0,2.5c-1.3,0.2-2.6,0.4-3.8,0.6c-1,0.2-2,0.4-3.1,0.1c1.3-0.7,2.6-1.3,4.5-2.3c-2,0-3.5,0-5.3,0c-0.6-2-1.1-3.9-1.7-6
	c-2.6-0.9-2.6-3.2-2.6-6c0.7-0.1,1.5-0.1,2.2-0.3c0.5-0.1,1-0.6,1.5-0.9c0.2,0.7,0.5,1.3,0.7,2.1c2-0.7,3.3-1.8,3.8-3.9
	c1.2,0,2.5,0,3.7,0c0,0.1,0,0.3,0,0.4c-0.5,0.2-1.1,0.4-1.8,0.6c0,0.8,0,1.7,0,3.1c1.1-0.6,1.9-1,2.8-1.5c0-1.5,0-3,0-4.2
	c0.7-0.7,1.1-1.2,1.7-1.8c1,0.4,1.9,0.9,3.2,1.4c0-1.5,0-2.6,0-3.4c1.5-1.9,2.8-2.8,4.6-0.9c0.5-0.3,1-0.7,1.7-1.2
	c0.9,0.8,1.7,1.5,2.5,2.2c1,0,2,0,3,0c0.6-0.6,1.2-1.2,1.7-1.7c2.2-1.2,4.4,0.9,6.7-0.1c2-0.8,4.6,0.7,6.5-1.1
	c1.8,2.3,4.9-0.2,6.9,1.8c1.1-0.6,2.3-1.3,3.6-2.1c-0.4-0.5-0.6-0.8-0.9-1.2c0.6-0.8,1.2-1.7,1.8-2.5c0.2-0.2,0.2-0.6,0.3-1
	c0.8,0,1.5,0,2.7,0c0,0.7,0,1.3-0.6,3.1c0.2,0.5,0.6,0.3,0.6,0.2c-0.1-0.5-0.3-0.9-0.4-1.4c-0.2,0.6-0.3,1.2-0.1,1.2
	c1.5-2.2,2.4-4.1,3.2-4.1c1.8,0,2.7-1,3.7-2.1c2.1,1.7,3.1-0.9,4.7-1.1c1.9-0.3,3.7-0.7,5.7-1.1c1.6-2.5,4.1-3.7,6.8-4.8
	c0.2-0.1,0.7,0.6,1,0.8c1.4-1,1.9-2.7,3.3-3.7c1.1-0.8,1.1-3.1,1.7-5.1c0,0.1-0.3-0.4-0.5-0.9c0.8-1.5,1.6-2.9,2.4-4.4
	c-1.4-0.9-2.5-1.6-3.8-2.4c0.6-1.3,1.1-2.4,1.8-3.8c0.5,1.1,0.8,1.7,1.4,3c0-1.5,0-2.2,0-3.1c-0.7-0.4-1.6-1-2.4-1.5
	c-0.2-0.5-0.3-0.8-0.4-1.1c-1.1-4.7-1.4-9.7-6.7-12.1c-0.2-0.1-0.1-0.6-0.3-0.8c-0.6-0.7-1.3-1.4-2-2.1c-0.6-0.7-1.4-1.4-1.8-2.2
	c-0.5-0.9-2.4-0.1-2.3-2c0-0.7-1.3-2.1-1.9-2c-2.1,0.1-2.7-2.1-4.4-2.6c-1.8-0.5-3.5-1.3-5.2-2c-1.8-0.8-3.7-1.5-5.4-2.6
	c-1.5-0.9-3.8-0.7-4.1-3.1c-1.8-0.5-3.6-1.3-5.4-1.3c-5.9,0.1-11.8-1.6-17.7-1.2c-1.6,0.1-3.3-0.8-5.4-1.3c-1.1-0.9-2.6-2.1-4.1-3.3
	c-0.5-2.3-1-4.8-1.5-7.6c-1.4,0.6-2.6,1.1-3.8,1.7c0.4,0.5,0.7,0.8,1.1,1.3c-1.3,0.8-2.5,1.5-3.7,2.2c-0.5-2-1-3.9-1.6-6
	c-0.6,0.5-0.9,0.8-1.3,1.1c-0.5-0.3-1-0.6-1.6-0.9c0.4-0.7,0.9-1.3,1.3-2c0.7,0.4,1.4,0.8,2.2,1.3c0.6-2.5,1.2-4.8,1.8-7.2
	c1.6,1.2,3.2,2.3,5.5,3.9c-2.4,0-4,0-5.7,0c0.5,1.1,0.9,1.9,1.4,3c0.8-0.7,1.6-1.3,2.5-2.1c0.5,0.3,1.1,0.7,1.9,1.2
	c0.1-1.1,0.5-2.2,0.2-3.1c-0.5-1.2,1.6-2,0.3-3.3c-0.5-0.5,0.1-2,0.3-3.4c-0.9,0-2.3-0.2-3.7-0.1c-1.2,0.1-2.4-1.6-3.7-0.1
	c-0.1,0.2-0.6,0-1,0c-7.3-0.3-8.5-1.3-9.2-8.5c2.1-0.1,2.1-2.3,3.4-3.4c1.4-1.2,2.6-2.6,3.8-3.7c1.8-0.6,3.4-1.2,5.1-1.7
	c0-1,0-1.8,0-2.6c0.8,0.5,1.5,0.8,2.5,1.4c0.2-1.3,0.3-2.2,0.5-3.1c0.6-0.2,1.1-0.5,1.8-0.7c0-0.8,0-1.5,0-2.4
	c-1,0.2-1.9,0.5-2.7,0.7c-0.1-0.2-0.2-0.4-0.2-0.6c1.2-0.8,2.3-1.5,3.8-2.5c1.1,0,2.6,0,4.3,0c0.5-1.3,1-2.6,1.5-3.9
	c1,0.4,3.5,0.1,6.2-1c0.5,0.7,1,1.5,1.7,2.6c0.3-1,0.7-1.6,0.5-1.9c-0.6-1.3-1.3-2.4-2.4-4.3c1.1-0.5,2.4-1,3.7-1.5
	c4.1-1,4.1-1,6.1-0.1c1.2-0.8,2.4-1.6,3.5-2.4c-0.3-0.4-0.6-1-0.9-1.5c0.8,0,1.7,0,3,0c-0.4-0.6-0.6-1-0.9-1.6
	c0.2-0.2,0.5-0.6,0.8-0.9c-0.3-0.3-0.6-0.7-0.9-1c2.4-1.6,5.4-2.4,6.6-5.5c2.6-0.8,4.1-3.2,6.3-4.6c-0.3-0.3-0.6-0.7-0.9-1.1
	c0.7-0.3,1.2-0.5,1.9-0.8c-0.3-0.4-0.6-0.7-0.8-1c0.4-0.9,0.7-0.9,4.4,0.4c2.5-0.9,4.8-1.7,7.5-2.6c-0.3-1-0.6-2.3-1.1-4
	c1.7-1.1,3.6-2.4,5.8-3.8c-0.3,1.8-0.6,3-0.8,4.3c0.2,0.1,0.4,0.2,0.6,0.3c0.6-0.8,1.1-1.5,1.6-2.1c3.1,0.7,5.8,1.3,8.6,2
	c0.1-0.5,0.2-0.9,0.4-1.4c-0.7-0.3-1.4-0.7-2.1-1c0-0.6,0-1,0.1-1.4c1-0.4,1.9-1,3.2-1.8c-2.3-0.8-2.7,0.5-3.2,1.8
	c-1-0.4-1.9-0.6-3.1-0.9c0.2,0.7,0.5,1.5,0.8,2.5c-1,0.5-1.8,0.4-1.8-1.3c-1.3-0.5-2.6-0.9-4.3-1.6c1.5-1,2.6-1.7,3.8-2.6
	c1.5,1.5,3.2,0.5,4.7-0.5c0.5,0.4,0.9,0.7,1.3,1.1c0.5-0.5,1.1-1.1,1.6-1.6c-0.9-1.6-1.7-3-2.6-4.8c2.3-0.7,4-1.2,5.9-1.7
	c0.6,1.2,1.2,2.2,1.9,3.7c-0.9,0.4-1.9,0.8-3.4,1.4c1.8,0.9,2.6,1.1,3,1.5c0.5,0.6,0.6,1.4,1.1,2.5c-1.5,0.4-3.1,0.9-4.8,1.4
	c-0.3,0.6-0.7,1.4-1,2.2c0.3,0.1,0.7,0.4,0.8,0.3c2.2-1.6,4.6-0.8,7-0.5c-1.7,0.5-3.4,1-5.3,1.6c0.6,1.4,1.1,2.4,1.7,3.6
	c-1.2,0-2.1,0-3.1,0c0.3-0.8,0.6-1.6,0.9-2.4c-1.7,0.3-3.6,0-4.6,0.8c-1.6,1.3-2.9-1.3-4.5,0.4c0.3,0.6,0.6,1.6,1.1,2.8
	c-0.7,0.4-1.3,0.7-2.6,1.4c1.4,0,2.2,0,3.1,0c0.1-0.4,0.3-1,0.5-1.5c1.5-0.4,2.9-0.8,4.8-1.4c0,1.8,0,3.3,0,5
	c2.3-0.6,2.1-2.4,2.1-3.9c1,0,1.7,0,2.4,0c0.5,1,1.1,2.1,1.7,3.4c-0.6,1.3-1.3,2.7-1.9,3.9c0.2,0.9,0.5,1.8,0.7,2.6
	c-1.3-0.1-2.5-0.1-3.8-0.1c-0.2-0.7-0.4-1.3-0.6-1.9c-1.5,1-2.9,2-4.3,2.9c-1.5-0.4-2.4,0-3.5,2.1c2.2-0.4,4.1-0.8,6-1
	c2.1-0.2,4.2,0.2,6.2-0.3c0-0.6,0-0.9,0-1.8c0.7,0.1,1.3,0.1,2,0.1c-0.3,0.5-0.6,1-0.9,1.6c1.3,0.8,0.8,2.2,1.6,4.3
	c-0.2,0.1-0.6-0.4-1.4-1.2c-0.1,0.9-0.1,1.6-0.2,2.3c0.8-0.1,1.2-0.1,1.6-1.1c-0.2-0.9,0.3-0.9,0.8-0.9c0.5,0.9,0.9,1.7,1.5,2.8
	c-0.9,0.1-1.8,0.3-3,0.4c0,0.6,0,1.2,0,1.8c-2,0.5-1.9,2.2-2.2,3.7c-1.2-0.3-2.3-0.6-3.4-0.9c-0.1,0.2-0.2,0.4-0.3,0.6
	c0.9,0.6,1.8,1.2,2.6,1.7c0.2,1.5,0.5,2.9,0.8,4.9c-0.6,0.9-1.6,2.4-2.5,4c-1.2,0-2.3,0-3.5,0c-0.6-0.6-1.1-1.2-1.7-1.8
	c-1.2,0-2.5,0-4.2,0c1.8,0.8,3.2,1.4,4.7,2c-0.6,0.7-0.9,1-1.5,1.6c0.9,0.9,1.7,1.7,3,3.1c0.3,0,1.2,0.2,2.1,0.3
	c0,1.1,1.1,2.4-0.8,2.8c0-0.6-0.1-1.2-0.1-2c-0.7,0.1-1.3,0.1-1.9,0.2c0.1,0.7,0.1,1.1,0.1,1.7c0.7,0.1,1.3,0.1,1.9,0.1
	c-0.7,0.9-1.3,1.8-2,2.7c0,0.8,0,1.6,0,2.3c-1.3,1.2-2.5,2.3-4.2,4c-0.5,0-2,0-3.4,0c-0.7,1.1,0.5,1.1,0.6,1.6
	c1.3-0.2,2.5-0.4,3.9-0.7c0,0.8,0,1.3,0,1.7c-0.2,0.2-0.4,0.4-0.4,0.4c-0.3-0.2-0.5-0.5-0.9-0.8c-1,0.5-2,1-3.5,1.8
	c-0.5-1-1-2.2-1.7-3.8c-1.3-0.7-3-1.6-5.4-2.9c-0.6-1-0.6-3.1-1.3-4.6c-0.8-1.7-2.1-3.1-1.7-5.4c-1.3,0-2.4,0-3.9,0
	c-0.4,0.7-1.1,1.7-1.8,2.8c-0.7,0-1.3,0-2,0c-0.1-0.3-0.3-0.6-0.2-0.7c0.9-1.3,2.5-2.5,2.6-3.9c0.1-1.8,1.1-2.8,2.3-4.1
	c-2.2-0.6-3.9-0.8-5.2,1.2c0.7,0.3,1.3,0.6,2,0.9c0,1.9-1.4,2.3-2.9,2.8c-0.1,0.7-0.2,1.5-0.3,2.4c-0.5,0.2-1.1,0.4-1.8,0.6
	c0,0.7,0,1.5,0,2.7c0.6-0.4,1-0.7,1.6-1.1c0.1,0.5,0.3,0.9,0.5,1.6c-0.7,0.2-1.2,0.3-1.8,0.5c0.6,1.8,1.5,3.7-0.5,5.7
	c1.4,0,2.5,0,3.8,0c0.6,1.9,1.1,3.7,1.7,5.7c-1.1,0.7-2.1,1.4-3.1,2c0,2.1,0,4.2,0,6.4c0.6,0,1.1,0,1.9,0c0-1,0-1.9,0-2.9
	c0.5,0,1,0,1.6,0c0.2,0.5,0.4,1.1,0.8,2.4c0.3-1.3,0.5-2.3,0.7-3.3c0.4,0.3,0.8,0.6,1.1,0.8c2.3,0,4.5,0,6.8,0c0.3,1,0.7,2,1.1,3.5
	c0.9-1.7,3.7-0.6,2.7-3.3c2.1,0,3.9,0,6,0c0.1,1.1,0.2,2.3,0.3,3.5c0.7,0.2,1.3,0.5,1.9,0.7c-0.7,0.8-1.4,1.5-2.3,2.4
	c2.2,0.5,4.4-0.2,6.2,1.1c0.5,0.4,1.9-0.3,3.3-0.6c-0.6,1.1-1.1,1.8-1.6,2.7c-1.5,0-3,0-4.3,0c-0.6,0.6-1,1.1-1.5,1.5
	c1.6,1.2,2.7,0,4-0.6c0.6,0.4,1.3,0.8,1.9,1.1c1.2-0.8,2.3-1.5,3.5-2.2c0.2,0.2,0.4,0.3,0.6,0.5c-0.4,0.9-0.7,1.9-1.1,2.8
	c2.5,2.6,2.5,2.6,5.6,0c0.1,0.1,0.3,0.2,0.3,0.4c0,0.3,0,0.7,0,1.3c1.6,0.1,3.1,0.1,5,0.2c-1.5-2.2-0.1-6.5-4.9-4.9
	c0-1.2,0-1.8,0-2.5c1.4-0.7,2.9-1.4,4.7-2.4c0.4,0.7,1.1,1.7,1.8,2.7c0.9,0,1.9,0,2.9,0c1-0.9,0.7-3.4,3.1-2.9
	c-0.3,1.1-0.5,2.2-0.8,3.6c-0.8,0.2-1.9,0.5-2.8,0.9c-0.9,0.4-1.6,1.1-2.2,1.6c0.6,1.6,1,2.6,1.5,3.8c-2.1,2.5-3.2,5.9-7.1,6.8
	c1.3,0.2,2.5,0.4,4.5,0.7c-1.3,0.7-2.1,1.2-3,1.7c1.2,1.2,2.1,2.1,3,3c0.2-0.6,0.4-1.2,0.7-2c0.9,0.4,1.8,0.9,2.7,1.3
	c-0.4,0.5-0.8,1-1,1.4c0.5,2.3,2.4,2.1,3.9,2.5c0,0.5,0,0.9,0.1,1.6c-0.9-0.4-1.6-0.7-2.3-1c-1.1,1.1,1.1,3.8,4.5,5.9
	c-0.2,0.4-0.3,0.9-0.6,1.2c-0.2,0.2-0.6,0-1,0c0.6,3.3,1.3,6.5,2,10.2c0.4-0.9,0.7-1.5,1-2.3c0.5,0.1,1.1,0.3,1.9,0.6
	c-1.6,2.2-3,4.1-4.4,5.9c0,3.1,0,3.1-1,5.2c0.6,0.2,1.2,0.4,2,0.7c-0.1,0.5-0.1,1.1-0.2,1.8c-0.6-0.5-0.9-0.8-1.3-1.1
	c-0.7,1.9-1.4,3.7-2.2,5.7c0.1,0.2,0.5,0.7,1.1,1.5c-3,2.3-5.1,5-5.2,8.9c-1.3,0.5-2.6,0.9-1.8,3.2c0.8-1.3,1.4-2.2,1.8-3.2
	c1.2,0.5,2.3,1.5,4.2,0.3c1-0.6,2.8-1.8,4.5-0.5c0.3,0.2,1.3-0.8,2-0.9c1.3-0.1,0.8-1.3,1.3-1.6c0.7-0.5,1.8-0.5,2.6-0.8
	c0.7-0.3,1.4-0.7,2.1-1.1c-0.3-0.3-0.6-0.7-1-1.2c0.9-0.6,1.7-1.2,2.8-1.9c1.6-3,1.6-6.7,1.1-10.1c-0.3-1.7,2.8-3.1,0.3-4.7
	c1.2-1.3,0.8-3,0.9-4.5c0.1-1.7-0.4-3.6,1-5.1c-0.2-5.2,1.7-10.3,1.1-15.5c-0.2-1.5,0.4-3.1,0.7-5.2c0,0-0.3-0.5-0.9-1.1
	c0.6-1.1,1.2-2.4,1.7-3.3c-0.4-3.1,0.9-5.7,0.7-9.2c0.4,0.4,0,0.1-0.4-0.4c0.4-0.8,1.2-1.7,1.1-2.5c-0.6-5.3,1.1-10.3,1.2-15.5
	c0.1-4.4,0.5-8.8,1.8-13.2c0.5-1.8,0.1-3.9,0.1-5.9c0.7-0.1,1.1-0.2,1.6-0.4c0.4-2.1,0.9-4.3,1.3-6.3c1.4-0.9,2.8-1.8,4.1-2.7
	c1.7,0.8,3.3,1.6,5,2.5c-0.7,0.7-1.3,1.4-1.9,2c1.3,0.6,2.7,1.2,4.2,1.9c-0.6,1.2-1,2.1-1.6,3.3c1.5,0.2,2.6,0.3,4.1,0.5
	c0.1,0.8,0.3,1.7,0.4,2.6c0.6,0.2,1.2,0.4,2.5,0.9c-1.6,0.3-2.5,0.4-3.7,0.6c0,0.6,0,1.2,0,1.7c-1,0.1-2,0.2-3.5,0.4
	c1.4,0.7,2.3,1.1,3.3,1.6c0.1-0.7,0.1-1.3,0.1-2c0.6,0.1,1.2,0.1,2.3,0.1c-0.9,2.3-1.6,4.1-2.3,6c-0.8-0.4-1.2-0.6-2.4-1.2
	c0.9,2,1.5,3.3,2,4.5c1.7,0.7,3.1,1.3,4.8,2c-0.7,0.6-1.1,0.9-1.6,1.3c-1.1-0.2-2.3-0.4-4.2-0.7c0.5,1.7,0.8,2.8,1.1,4
	c1.4,0,2.3,0,3.8,0c0.5,0.9,1.2,2.1,1.9,3.3c-0.7,0.3-2,0.8-3.4,1.3c0,0.6,0,1.4,0,2.4c0.8,0,1.6,0,2.8,0c-0.5,1.1-0.8,2-1.2,2.9
	c-0.7,0.3-1.4,0.6-2.6,1.1c-0.3-0.5-0.8-1.3-1.2-2c-1.8,1.1-2.3,2.3-1.9,3.9c0.7,0.3,1.3,0.5,1.8,0.7c-0.3,1.6-0.5,3.2-1,4.6
	c-0.5,1.5,2.3,2.5,0,4.1c2.5-0.6,3.8-1.8,4.4-4c0.5,0.3,1,0.6,1.6,1c1-0.5,2-1,3.5-1.8c-1.4-0.2-2.3-0.3-3.3-0.5c0-0.5,0-1,0-1.6
	c1.2,0,2.3,0,3.4,0c1.1-2,2.1-3.9,3.1-5.9c1.1,0.7,2.5,1.5,3.9-0.3c0.4,0.3,0.7,0.6,1.1,1c0.4-1.9,1.4-4,1-5.8c-0.4-2-0.5-3.5,0-5.5
	c0.6-2,0.2-4.2,0.4-6.3c0.2-1.9-0.2-3.8,0.6-5.7c0.7-1.9,0.2-4.2,0.4-6.3c0.2-1.9-0.7-3.9,0.7-5.8c-0.3-0.7-0.6-1.4-1.2-2.9
	c1.2,0.7,1.6,1,2.4,1.4c0.3-5.3-1.2-11,4.1-14.5c-0.5-0.5-0.7-0.7-0.8-0.8c3.3-4.9,3.4-10.9,5.6-16.3c-0.2-0.2-0.5-0.5-1-1.1
	c2.3,0,4.3,0,6.4,0c1.1-1.3,2-2.4,3-3.5c0.5,0.5,0.7,0.7,1.1,1.1c0.7-0.6,1.3-1.3,2.5-2.4c0,2.7,0,4.6,0,6.2c-1.6-0.3-3-0.5-5.1-0.8
	c1.1,1.8,1.9,3.1,2.8,4.7c1.2-0.9,2.2-1.7,3.3-2.5c0.7,0.1,1.5,0.2,2.9,0.4c-1.7,2.1-2.9,3.7-4.6,5.9c0-0.2,0,0.5,0,1.3
	c1.2,0.6,2.6,1.3,3.9,2c0.3,2.3-1.9,2.1-2.7,2.9c0.3,2.1,0.6,4,0.7,5.8c0,0.2-0.6,0.5-1,1c-0.1-1.1-0.1-2.1-0.1-3.9
	c-0.9,1.1-1.3,1.7-1.8,2.3c0.5,0.5,1,1,1.9,1.6c-0.3,1.4,1.2,2.4,1.5,3.7c0.2,1,0.4,2,0.7,3.6c-1.3-1.2-2-1.9-2.7-2.6
	c-1.3,2.6,1.1,4.1,1.7,6.5c-0.6,0.2-1.2,0.5-1.9,0.8c0,0.9,0,1.8,0,2.9c0.6-0.5,0.9-0.8,1.5-1.3c0.5,2.5-0.7,3.7-2.7,4.6
	c0,2.6,0.7,5.6-0.2,7.8c-1.1,2.5-0.4,4.8-0.8,7.1c-0.4,2.5-0.6,4.9-1.1,8.4c2-3.1,4.8-2.8,6.9-4.4c0.1-0.5,0.1-1.3,0.3-2.4
	c2.6,2.9,4.9-1.3,7.5,0.3c0.2-0.8,0.3-1.3,0.6-2.5c0.2-0.7,2.6,1.3,2.7-0.8c1.2,0,2.3,0,3.5,0c0.6-0.6,1.2-1.2,1.6-1.6
	c2-0.5,3.8-1,5.6-1.5c0.6-2.2,2.3-3.8,3-5.9c0.6-1.9,2-3.6,3.5-5.1c1.4-1.5,1.8-3.8,2.9-6c-0.2-0.4-0.6-1-1-1.7
	c0.5-0.6,3.7-2.8,4.1-3.2c1-1,2.5-2.2,2.5-3.2c-0.1-3.1,3.3-3.9,3.7-6.5c2.2-0.3,3-2.5,4.6-3.5c1.4-0.9,2.8-1.9,4.8-1.8
	c2,0.2,4,0,5.4,0c4.7-2.1,8.7-4.2,13.5-4c1.6,0.1,2.9,1.6,4.6,1c0.7-0.2,1.5-0.6,2.2-0.7c0.5,0,1,0.4,1.7,0.7c1.9-1,4-2,6.1-3.1
	c1.5,1,3.1,2.1,4.6,3.1c0.9,3,1.8,6,3,10.1c1.7,2.1,4.2,5,6.7,8.1c1.9,0,3.7,0,5.6,0c-1.2,2.1-2.8,3.1-5.2,3
	c1.2,3.6,4.2,6.3,3.1,10.2c1.5,1.2,2.5,3,4.5,3.8c1.6-2.5-0.2-5.2,1.3-7.6c1.3-2,1.7-4.6,2.6-7.2c1-1.2,2.2-2.7,3.6-4.4
	c0.4,0.2,1,0.6,1.7,0.9c0.3-0.2,0.6-0.5,1-0.8c1.5,1.5,2.9,2.9,4.1,4.1c0.5,3,1,5.8,1.5,9c1.4,0,2.6,0,4.1,0
	c-0.5,0.6-0.7,0.8-1.2,1.4c0.5,0.5,1.2,1.1,1.7,1.8c0.5,0.8,0.8,1.7,1.3,2.8c-0.2,0.3-0.5,0.8-0.8,1.3c0.3,0.7,0.6,1.5,0.9,2.3
	c-0.2,0.1-0.4,0.2-0.5,0.3c-0.7-0.6-1.5-1.3-2.2-1.9c-0.2,0.1-0.3,0.3-0.5,0.4c0.7,1.5,1.4,3,2.2,4.5c1.1-0.4,1.8-0.8,3-1.3
	c0-1.1,0-2.3,0-3.8c1,0.2,1.5,0.4,2.3,0.6c-0.5,1.1-1,1.9-1.5,3.1c0.6,0.4,1.3,0.8,2.3,1.5c0.2-0.1,0.9-0.5,1.6-0.9
	c0.2,0.6,0.4,1.2,0.7,1.9c0.4-0.3,0.7-0.5,1.3-1c0.5,0.4,1,0.9,1.6,1.6c-0.9,0.4-1.5,0.6-2.3,0.9c0.8,0.4,1.4,0.7,2.1,1
	c-0.7,0.4-1.4,0.7-2.1,1c1.7,0.9,3.3,1.7,5,2.6c1.1-0.8,2.2-1.5,3.6-2.5c0.5-1.3,1.1-3,2.1-5.4c0.9,1.3,1.3,2,2,3
	c0.2-1.9,0.4-3.5,0.6-5.1c0.5,0,0.8-0.1,1.3-0.1c0.3,0.7,0.6,1.3,1,2.2c0.4-1.2,0.6-2.2,1-3.2c0.4-0.8,0.8-1.8,1.5-2.4
	c1.6-1.2,2-2.9,2.4-4.5c0.6-2.4,1.7-4.5,4.5-5.9c0.7-0.1,2.1-0.3,4-0.6c0.2,0.4,0.9,1.4,1.6,2.5c0,0-0.3,0.6-0.6,1.2
	c0.6,0.8,4.3,1.2,8.9,1.1c-0.5,2.4-0.5,2.4-3.6,3.1c0,0.4,0,0.9,0,1.9c2.2-0.9,4-1.8,6-2.6c-0.4-0.5-0.7-0.8-1.2-1.4
	c1.7,0,3.1,0,4.5,0c0.7-1.1,1.2-2.1,1.9-3.1c1.5,0,2.9,0,4.6,0c0.6-3.6,3.6-5.3,5.4-7.9c1.7-2.4,2.5-5.3,3.8-8.2
	c-2.3-3.1-0.4-6,1.1-8.9c1.4-2.8,4.5-3.9,6.5-6.1c1.7,0,3.3,0,5,0c0.6-0.6,1.2-1.2,1.9-1.9c1.2,0,2.5,0,4.4,0
	c0.3,0.6,0.9,1.6,1.5,2.6c0.1-0.2,0.3-0.3,0.4-0.5c0.4,1.3,0.9,2.6,1.4,4.3c-0.7,0.5-1.5,1-2.1,1.5c0.5,2.1,0.9,3.7,1.3,5.5
	c-0.8,0.3-1.4,0.5-2.2,0.7c0.3,0.5,0.5,0.9,0.8,1.3c-0.2,0.2-0.5,0.5-1,1c0.8,0.5,1.6,0.9,1.7,1c-0.3,2.1-0.5,3.4-0.7,4.8
	c-1,0.7-2,1.5-3.3,2.5c1.6,1.2,2.9,2,4.1,2.9c0.8-0.8,1.6-1.7,2.9,1.5c0,0.4-0.5-0.4-1.3-2.1c0,1.8,0,2.7,0,3.6
	c0.6-0.1,1.1-0.1,1.3-1.6c0.4-1.4,1.5-1.1,2-1.5c1.2-1.1,2.4-1.9,4.2-2.2c1.3-0.2,2.4-1.3,4.1-2.3c0.4-0.5,1.2-2.4,1.8-2.4
	c2,0.2,1.1-2.1,2.1-2.1c1.9,0,1.4-2.5,3.4-2.7c1.4-0.1,2.6-1.8,4-2.3c1.5-0.5,2-2.4,4.2-2.3c1.1,0.1,2.4-1.7,3.5-2.7
	c0.4,0.4,0.6,0.6,0.9,0.9c0.5-0.6,1-1.2,1.2-1.4c3.4-1.1,6.5-1.5,8.9-3c1.6-1,1.8,1.2,2.9,0.4c0.8-0.7,1.7-1.2,2.5-1.8
	c0.6-0.5,1.2-1.2,1.8-1.8c-0.1-0.1-0.4-0.5-0.8-0.9c2-1.2,2.4,1,3.5,1.6c2.1-2.1,4.1-0.5,6.4,0.3c0.3,3.7,3.2,4.9,6.9,5.8
	c0.5,1.6,1,3.4,1.5,4.9c-1.6,1.3-3,2.3-4.3,3.3c1.6,3.2,1.4,3.7-1.5,4.7c-2.2,0.8-4.7,0.9-6.2,3.2c-0.8,1.3-1.5,2.7-2.3,4
	c-0.4,0.6-1,1.2-1.5,1.9c-1.9-3.6,1.7-5.2,2.5-7.8c-2.4-1-4.2,0.5-6.2,1.4c-2.3,1-3.4,4.1-6.8,3.2c0.5,1.1,0.9,1.7,1.3,2.6
	c-1.3,1.1-3.8,0.2-4.2,2.8c0.2,0.3,0.6,0.8,1.1,1.5c-1.6,0.5-3.2,1.1-5.2,1.8c0.2,1.3,0.5,2.8,0.8,4.6c-1-0.2-2.2-0.4-3.6-0.6
	c-0.1,0.1-0.6,0.6-1.3,1.3c0.3,0.9,0.6,2,1.1,3.6c-0.3,1-2,2.6,0.2,4.4c-0.7,0.1-1.1,0.2-1.9,0.4c0,0.8-0.1,1.7-0.2,2.8
	c3.3,0.2,6.1-1,9.2-1.8c2.2,1.3,5,1.3,7.6,0.4c1.3-0.5,2.5-0.4,3.7-0.6c0.8-0.1,1.6-0.1,2.4-0.3c7.2-2.7,7.2-2.7,12.9-1.4
	c0.4,1,0.9,2,1.3,3c0.4,1.3,0.8,2.7,1.2,4.2c-1.2,1-2.3,1.9-3,2.5c0,1.8,0,2.9,0,4.1c1.6-0.4,3.1-0.7,4.2-1
	c0.6,3.8,1.2,7.3,1.7,10.7c-1,0.3-1.5,0.5-2.1,0.7c0,1,0,1.8,0,2.7c-0.7-0.3-1.2-0.6-2.8-1.3c1.1,1.6,1.6,2.4,2.6,3.8
	c0.1-1.3,0.2-1.9,0.2-2.5c1.3,0,2.5,0,4.7,0c-2.2,1.6-3.7,2.6-5,3.9c-1.2,1.2-2.8,2.1-2.8,4.4c0,1.5-1.8,2.2-3.4,1.6
	c-1,2-0.3,3.6,0.7,5.2c-1.1,0.1-2,0.1-3,0.1c0.9,2.9,1.7,3.5,2.8,2.4c-0.3-0.3-0.6-0.7-0.9-1c0.3-0.3,0.6-0.7,1.1-1.4
	c0.4-0.4,0.9-0.7,1.4-1c1,1.5,0.6,2.7-1,3.7c2.8,2.8,0.6,4.8-0.6,6.9c0.4,1.3,0.9,2.7,1.3,4c0.5,0.2,1.1,0.4,1.9,0.7
	c-1.1,0.7-1.9,1.3-3.1,2.2c0,0.4,0,1.1,0,1.9c-0.8,0.4-1.4,0.7-2.1,1c0,0.2,0.1,0.3,0.1,0.5c1.2-0.2,2.5-0.4,4-0.7
	c-0.5,1.3-1,2.4-1.5,3.5c-0.5-0.2-0.9-0.4-1.5-0.7c-0.1,0.5-0.1,1-0.2,1.7c1.2,0,2.3,0,3.5,0c0.6,1.6,1.1,3,1.7,4.9
	c-0.9,0.4-1.8,1.1-2.8,1.3c-1.3,0.2-2,0.9-2.4,2.1c-2,1.1-1.2,2.2,0.1,3.7c-1.2,1.1-2.2,2.7-3.6,3.1c-1.9,0.5-2.3,1.9-3.1,3.2
	c-0.7,0-1.3,0-2,0c-0.4-1.2-0.8-2.3-1.2-3.6c0.4-0.2,1.1-0.5,2-0.9c-0.8-0.3-1.3-0.5-2-0.7c-0.7-1.3,0.6-3.4-1.1-4.2
	c-2.5-1.6-4.5,0.8-6.8,0.5c1.5,3.7,0.4,6.9-1.6,10c-0.6-0.4-1.1-0.7-1.7-1.1c-2.3,3.8-5.9,5.1-10,5.9c0.9,0.2,1.8,0.3,3.2,0.6
	c-0.5,1-1,1.9-1.3,2.5c-1.3-0.4-2.4-0.7-3.3-1c-0.3,0.5-0.6,0.8-0.6,1c0,2.7,0.3,5.5-3,6.7c-0.2,0.1,0,0.9,0,1.4
	c-0.4-0.2-0.8-0.4-1.4-0.6c-1.3,0.6-2.7,1.3-4.5,2.2c0,0.4,0,1.2,0,2c-0.7,0.3-1.3,0.5-2.1,0.7c0.1,4-1.6,6.9-6,8.6
	c-1.1-0.2-2.9,0.8-4.4-0.8c-0.8,1-1.6,2.1-2.5,3.2c1.2,1.3-0.3,2.3-0.5,3.9c-1.4-0.4-2.7-0.8-4-1.2c-0.4,0.8-0.9,1.7-1.4,2.6
	c0.6,0.2,1.1,0.5,1.6,0.6c-1.8,3-3.6,6-5.4,9c-1.8-1.6-3.2-2.8-5-4.5c-2,0.3-4.3,0.6-7.5,1c-0.3-0.1-1.4-0.6-2.8-1.2
	c0.3-1.1,0.5-2.2,0.8-3.5c-0.7-0.1-1.5-0.1-2.1-0.2c-0.8-1.6-1.6-3.1-2.3-4.5c0-1.4,0.9-2.9-1-4.5c-0.3,0.7-0.5,1.5-1.1,3.1
	c0.3,1.8,0.9,5.1,1.5,8.3c1,0.6,1.8,1.1,2.5,1.6c0.8,0.5,1.5,1,2.5,1.7c0.1,0.6,0.3,1.5,0.5,2.9c1.2-0.8,2.1-1.4,3.4-2.3
	c1.3,0,3,0,4.9,0c0.4,0.4,0.9,0.9,1.6,1.6c-1.5,0.6-2.8,1.2-4.3,1.9c0.7,0.3,1.3,0.5,1.9,0.7c-0.5,0.9-0.9,1.8-1.5,3
	c-1.2-0.8-2.2-1.6-3.3-2.7c0-0.1,0,0.2,0,0.5c0.7-0.1,1.3-0.3,2-0.4c0-0.2-0.1-0.4-0.1-0.6c-0.6,0.1-1.3,0.1-1.9,0.6
	c-0.8,0.4-1.7,0.4-2.5,0.4c-1.3,1-2,2.1-1.2,4.1c1.5-0.3,3-0.5,5.2-0.9c0.4,0.1,1.6,0.6,2.9,1c0.7-0.9,1.3-1.7,2.4-3.1
	c0.1,1.6,0.2,2.5,0.3,3.4c-0.8,0.3-1.4,0.5-2,0.7c0,0.7,0,1.4,0,2.3c-1.6,0.6-3.9,0.8-4.9,2c-1.3,1.6-3,2.4-4.6,3.4
	c-1.4,1-3.9,1.1-3.7,3.8c-2.7,0-5.1,0-7.7,0c0-1.2,0-2.3,0-3.5c1.1-0.4,2.4-0.9,4.6-1.7c-1.5-0.8-2.3-1.2-2.9-1.5
	c0.6-1.5,3-1.4,6-0.3c0-0.8,0-1.6,0-2.8c-0.7,0.2-1.5,0.4-2.6,0.7c-0.4-0.6-1-1.4-1.9-2.7c-1.1-0.4-2.7-0.9-4.7-1.6
	c0.7-0.7,1.3-1.2,2.2-2c0-0.4,0-1.3,0-2.3c-3.2-0.3-2.4,2.5-3.3,4c-1.6-1.7-2.7-3.5-2.5-6.2c0.8,0.5,1.3,0.8,1.8,1.1
	c1.4-0.5,2.8-1,4.6-1.7c-1.5-1.4-2.9-2.7-4.2-3.9c0.3-0.3,0.7-0.7,1-1.1c1,0.3,2,0.6,2.9,0.9c2.2-2.4,2-5.1,1.7-8.2
	c-1.2,0.4-2.3,0.8-3.4,1.1c-0.2-2.6-0.2-2.6,3.3-3.2c-0.8-2.1-1.6-4.1-2.5-6.4c0.8-2.7,3.1-4.3,5.7-5.6c-0.3-0.6-0.5-1-0.8-1.6
	c0.5-0.1,1-0.2,1.5-0.3c-0.3-1-0.5-2.1-0.8-3.3c0.9-0.5,1.8-0.9,2.6-1.4c0.5,0.3,1.1,0.6,2.1,1.2c0.4-2.2,0.8-4.1,1.1-6.1
	c-0.3-0.1-0.9-0.3-1.6-0.5c0-0.8,0-1.7,0-2.9c1.4,0.5,2.5,0.9,4,1.4c1.6-2.3,4.6-2.3,7.2-4c-1.2-0.2-2.1-0.3-3-0.5
	c0.7-2.1,1.4-4.2,2.2-6.7c3-1.8,7.6-2.1,9.7-6.1c0.8,0,1.5,0,2.4,0c0.1-1.2,0.3-2.5,0.4-3.7c4.1-1.3,5-6,8.2-7.9
	c3.3-2,4.4-5.9,7.5-8c-0.2-0.2-0.5-0.5-0.8-1c0.7-0.3,1.3-0.6,2-0.9c0-0.6,0-1.1,0-1.5c1.9-0.2,0.5-1.9,1.2-2.7
	c0.6-0.2,1.1-0.4,1.9-0.7c-0.4-1.7-0.8-3.3-1.3-5.1c-1-0.7-2.1-1.4-3.6-2.5c-1,0-2.4,0-4.2,0c-0.8,1.6-1.7,3.2-2.5,4.8
	c-0.8,0-1.6,0-2.7,0c0.4-0.6,0.7-0.9,1.1-1.4c-0.6-0.3-1.2-0.6-1.9-0.9c0.3-0.4,0.6-0.7,1.1-1.3c-0.6-0.1-1.2-0.3-1.7-0.4
	c-0.3,0.7-0.5,1.3-0.7,1.9c-1.1,0.9-3-0.9-3.7,1.2c-2.3,0.4-4.7,0.7-6.4,2.9c-1,0.1-2.1,0.1-3.3,0.2c-0.2,0.6-0.4,1.1-0.7,2
	C416.9,133.2,411.8,137.6,405.9,140.2c0.3-1.1,0.5-2.1,1-3.5c-1.6,0.8-2.8,1.5-4.1,2.1c0.3,0.7,0.5,0.9,0.6,1.2
	c0.4-0.3,0.7-0.6,1-0.9C404.9,139.4,405.2,139.8,405.9,140.2z M489.6,162.6c-0.2-0.2-0.3-0.4-0.5-0.5c-0.6,0-1.2,0.1-2,0.1
	c0,0.7,0.1,1.2,0.1,1.9c0.9-0.6,1.6-1.1,2-2.2c0.9-1.2,0.9-1.2,0-2.8C489.2,160.3,489.2,161.2,489.6,162.6z M454.6,151.6
	c-0.2-0.2-0.3-0.4-0.5-0.5c-0.6,0-1.2,0.1-2,0.1c0,0.7,0.1,1.2,0.1,1.9c0.9-0.6,1.6-1.1,1.8-2.8c0,0.3,0,0.6,0,0.9
	c0.7-0.1,1.3-0.3,2-0.4c0-0.2-0.1-0.4-0.1-0.6C455.3,150.2,454.7,150.3,454.6,151.6z M122.7,181.9c1.5-0.3,2.8-0.8,2-3.1
	c-0.8,1.3-1.4,2.2-1.9,2.9c-0.9,0.6-1.8,1.2-3.1,2C122,184.6,122.5,183.2,122.7,181.9z M406.4,219.8c-1.2-1-2.1-1.8-3-2.6
	c0,0-0.2,0.2-0.5,0.5c0.3,1.7,1.1,2.7,2.7,1.3c1.3,0,2.2,0,4.1,0c-1.1-0.9-1.7-1.3-2.3-1.8C407,217.7,406.5,218.1,406.4,219.8z
	 M254.5,127.3c-0.7-0.8-0.9-1.1-1-1.1c-0.5,0.1-0.9,0.3-1.4,0.4c0.6,0.2,1.2,0.3-0.3-0.5c-0.8-0.7-1.8-1.5-2.5-2.2
	c-0.2,0.7-0.6,1.8-1,2.9c0,0.1,0.2,0.2,0.4,0.4C249.7,126.8,250.9,126.4,254.5,127.3z M253.1,96.1c-0.6,0-1.2,0-2.3,0
	c1,1.3,1.7,2.1,2.3,3c0.5,0.7,1,1.3,1.6,2.2c1.6-2.1,1.8-4.1,2.4-6.7c-0.9,0.8-1.2,1.1-1.6,1.4c-0.3-0.7-0.6-1.3-0.9-2
	c-0.6,0.5-1,1-1.5,1.5C253,95.7,253.1,95.9,253.1,96.1z M341.6,88.9c0.7,0.8,0.9,1.1,1,1.1c0.5-0.1,0.9-0.3,1.4-0.4
	c-0.6-0.2-1.2-0.3,2.7-2.6c-0.8,1.1-1.2,2.1-1.8,2.6c-0.9,0.7-1.1,1.3-0.4,2.3c1.1,0,2.2,0,3.3,0c0.5-1.5,0.9-3,1.4-4.8
	C348.2,87.2,347.5,87.1,341.6,88.9z M285.2,106.8c-0.4,0.9-0.7,1.5-1.1,2.4c1.2-0.2,2-0.3,3.1-0.4c-0.8-0.8-1.2-1.2-2.2-1.7
	c0-0.6,0-1.2,0-1.8c-1.2-0.2-2.1-0.3-3.4-0.5c0.6-1,1-1.6,1.3-2.2c-2.1-2.4-0.3-4.4,0.6-6.5c0.6,1.7,1.3,3.4,1.9,5.1
	c1.1-0.1,1.8-0.2,3.3-0.3c-1.4-0.6-2-0.9-2.3-1.1c-0.6-1.5-1-2.7-1.4-4c0.3-0.4,0.7-0.9,1-1.4c-0.3-1-0.7-2-1-3.1
	c-0.1-0.4,0.2-0.8,0.4-1.3c0.9,0.9,1.8,1.8,2.5,2.5c0.2,1.3,0.3,2.4,0.5,3.8c0.8-0.8,1.2-1.3,1.4-1.4c-0.5-2.7-1.1-5.1-2.7-7.1
	c-1.7-2-3.6-3.8-5.2-5.5c-1,0-1.8,0-3,0c1.3,0.8,2.2,1.3,2.7,2.5c0.4,1,1.7,1.5,2.6,2.3c-2,0.8-4,1.6-5.9,2.3
	c-0.4,1.3-0.8,2.3-1.2,3.4c0.2,0.1,0.4,0.2,0.6,0.3c1.1-1.1,2.2-2.2,3.5-3.4c1.4,1.2,2.5,2.1,1.4,3.2c-0.6,1.1-1.3,2.1-1.6,2.7
	c-1.2-0.1-1.9-0.1-3.9-0.3c2.1,1.9,3.3,2.9,4.9,4.3c-1.6,0.4-2.7,0.6-3.9,0.8c2,0.9,2.9,2.3,3.3,4c-0.4,0.5-0.7,0.8-1,1.2
	c0.5,0.5,1,1,1.4,1.5C282.7,107.1,283.9,107.1,285.2,106.8z M208.3,123.1c0.1,0,0.3,0,0.4,0c0-1.3,0-2.6,0-3.9c-0.1,0-0.3,0-0.4,0
	c0,1.3,0,2.6,0.7,3.9c0.3,1,0.6,2.1,1,3.1c-0.7,1.1-1.4,2.2-2.5,3.9c2.3,0,3.8,0,5.9,0c-2.2,2.7-5.2,2.2-7.5,3.6
	c0.4,0.8,0.8,1.6,0.9,1.9c-0.6,3.8-1.1,7-1.5,10.2c0.6,0.3,1.3,0.5,2.1,0.9c-2.4,2.4-3.3,3.9-2.6,4.7c0.6-0.6,1.3-1.3,2.1-2.2
	c0.4,0,1.2-0.1,1.9-0.2c0.3-0.7,0.5-1.3,0.7-2c0.8,0,1.6,0,2.3,0c0.3-0.7,0.4-1.3,0.7-2c1.5,0,3,0,4.4,0c0.2-0.6,0.3-1.1,0.4-1.4
	c1.4-0.5,2.6-1,4-1.5c0-1.5,0-2.6,0-3.4c1.5-1.2,2.7-2.1,3.8-3.2c0.2-0.2-0.3-1-0.7-2c-1.2,1.1-2,1.9-2.8,2.6
	c-1-3.9-4.6-3.6-7.6-4.3c1.1-1.7,2.1-3.1,3.1-4.6c-0.3-0.6-0.7-1.3-0.9-1.6c0.3-1.7,0.6-3.1,0.8-4.4c1-0.1,2-0.3,3.5-0.5
	c-1.4-0.7-2.3-1.1-3.3-1.6c-0.1,0.7-0.1,1.3-0.1,1.9c-1.3-0.3-2.5-0.7-3.8-1c-0.2,1.3-0.3,2.2-0.4,3
	C211.4,123.1,210.2,123.1,208.3,123.1z M168.1,136.6c0,2.3,0,3.8,0,5.3c0,1.3,0.2,2.7,0,4c-0.2,1.1-1.2,2.1,0,3.2
	c-2,4.2-0.5,8.6-0.3,13.3c0.6-0.6,1.3-1.3,2.2-2.2c4.3,0.9,7.6-2.7,11.8-3.8c0.9,1.6,2,0.4,2.5,0.1c1,0.3,1.7,0.4,2.2,0.7
	c0.4,0.2,0.8,0.6,1.3,1.1c0.3-1.9,0.5-3.3,0.6-4c-1.2-1.2-2.3-2.3-3.5-3.5c-0.2,0.1-0.7,0.3-1.6,0.6c0.3-1.2,0.5-2.2,0.7-3.2
	s0.2-2.1,0.4-4.1c1.5,1.8,2.4,2.8,3.3,3.8c0.4-5.2,0.8-10.3,1.2-15.4c-0.5-0.5-1-0.9-1.5-1.3c-0.1-0.1-0.3,0-0.3,0
	c-5.3,3.5-10.1,7.5-16.4,8.2C169.8,138.3,169.2,137.7,168.1,136.6z M268.2,89.7c-0.4-0.4-0.5-0.5-0.6-0.6c-1.8-0.7-2-1.2-1-1.9
	c0.5,0.4,1.1,0.7,1.8,1.2c1.3-1.8,3.5-3.4,3.5-5.1c0-2.8,2.1-4.2,2.8-6.4c0.1-0.2,0.1-0.5,0.1-0.8c-1.1-0.7-2.2-1.3-3.2-1.9
	c-1.4,0-2.9,0-4.3,0c-1,2.2-1.3,4.9-4.3,5.3c0.4,0.4,0.7,0.8,0.9,1c-1.3,1.1-2.6,2.2-3.9,3.4c0.1,0.6,0.1,1.3,0.3,1.9
	c0.2,0.7,0.6,1.3,1,2.1c-0.9,0.1-1.4,0.1-1.8,0.2c-0.3-0.7-0.6-1.3-1-2.1c-0.3,0.8-0.6,1.4-0.8,1.9c-0.8-0.3-1.5-0.6-2.6-1
	c1,2.1,1.8,3.6,2.6,5.2c0.8,0,1.6,0.1,2.7,0.2c-0.4,1.4-0.7,2.4-1,3.6c0.3,0.1,0.9,0.3,1.8,0.6c0,1.1,0,2.4,0,4
	c1.6-0.7,2.7-1.2,2.9-1.3c1.4-1.6,2.3-2.5,3-3.5c0.2-0.3,0-0.9-0.1-1.7c-1,0.9-1.8,1.6-2.9,2.6c-1-0.6-2-1.2-3.5-2.1
	c2.1-1,3.6-1.8,4.9-2.4c0.7,0.5,1,0.7,1.3,1C267.2,91.9,267.6,90.9,268.2,89.7z M54.6,216.1c0.3,0.3,0.6,0.6,0.9,0.9
	c-0.8,0.2-1.7,0.3-2.5,0.5c2.7,0.4,5-0.1,7.3-0.4c1.6-0.2,4,0.6,4.8-0.2c1.2-1.3,4.1,0.5,4-2.4c1.3-0.8,2.8-1,4.2-2
	c1.8-1.3,3.6-3.4,6.4-2.6c0.1,0,0.2-0.2,0.4-0.3c0-0.3,0-0.6,0.1-1.2c1.8-0.6,4.3-0.5,4.6-3.3c-2.2,0-4.3,0-6.4,0
	c-0.2,0.6-0.2,1.3-0.4,1.4c-3,1.1-5.8,2.9-8.8,3.9c-0.1,0.5-0.2,0.9-0.3,1.3c-1.7,0.3-3.3,0.4-4.8,0.8s-2.9,1-4.4,1.5
	c-0.4-0.3-0.9-0.6-1.4-1c-0.2,1.2-0.4,2.1-0.6,3C56.5,216.1,55.6,216.1,54.6,216.1z M298.2,67.9c-0.8,0.3-2,0.8-2.8,1.1
	c0.4,2,0.7,3.5,1.1,5.2c0.7,0.3,1.5,0.5,2.1,0.9s1,1,1.5,1.5c-0.5,0.5-0.7,0.7-1.1,1.1c1.6,0.5,3.2,1,5.3,1.6c-0.5-3.3-1-6-1.3-8
	c-1.1-2.2-1.8-3.7-2.7-5.6C299.7,66.3,299.3,66.8,298.2,67.9z M276.7,59.1c-0.9,1.1-3,1-3.1,3c-1.9,0-2.3,1.7-4.3,3c2.5,0,4,0,4.6,0
	c2,1.6,3.4,2.8,4.6,3.8c1.2-2,2.3-3.7,3.2-5.3c-0.3-1.1-0.7-2.2-1-3.2C279.5,60,278.3,59.6,276.7,59.1z M292.6,62.1
	c0.1,0.5,0.5,1.6,0.8,2.8c0.8,0.3,1.6,0.7,1.9,0.8c1.9-0.4,3.4-0.6,4.6-0.9c-0.6-2.7-2-4.8-3.4-6.7
	C295.1,59.5,293.8,60.8,292.6,62.1z M52.4,112c2.6,0.4,5.1-0.5,7.6,1c0.2-2.5-2.2-2.9-2.9-4.4c0.3-0.4,0.6-0.7,0.8-1
	c-0.9-0.4-1.7-0.8-2.1-1c-1.8,0.4-3.3,0.7-5.1,1c0.9,0.4,1.6,0.7,2.2,1c0,0.4,0,0.7,0,1.1c-0.6,0.3-1.3,0.6-2,0.9
	C51.5,111,51.9,111.4,52.4,112z M432.3,108.5c-0.4,0.9-0.7,1.7-1.1,2.6c1.2,0,2.2,0,3.2,0c2.2,0.1,4-0.7,5.5-2.4
	c0.2-0.3,0.1-0.9,0.2-1.9c-1.1,0.4-1.9,0.7-2.7,1C435.4,105.6,433.9,108.2,432.3,108.5z M466.9,138.7c-0.4-0.9-0.8-1.7-1.1-2.2
	c-2,0.3-3.9,0.6-6.8,1.1c2.7,1.2,4.5,2.1,6.2,2.8C466.1,139.6,466.5,139.1,466.9,138.7z M489.6,143.1c1.8-0.2,3.6,0.3,5.2-0.3
	c-0.9-1-1.6-1.8-2.4-2.7c-1.4,0-3.3-0.6-4.2,1.6C488.5,142.1,488.9,142.4,489.6,143.1z M422.9,209.7c-0.7-1.1-1.6-2.1-3.2-2.9
	c-0.7,1.4-1.2,2.6-1.9,4.1C419.7,211.1,421.3,211.7,422.9,209.7z M416.6,197c1.5,0.5,2.5,0.8,3.5,1.1c0.9,0.2,1.9,0.4,2.8,0.6
	c0.4-0.4,0.7-0.7,1.3-1.3c-2-0.7-3.9-1.4-5.9-2.1C418,195.7,417.6,196.1,416.6,197z M236.7,171.3c-1,0-1.8,0-2.8,0
	c1.2,2.1,2.3,4,3.8,6.6c0.2-1.5,0.3-1.9,0.2-2.4c0-0.4-0.3-0.9-0.4-1.3c-0.2-0.6-0.4-1.2-0.6-1.8C236.9,172,236.8,171.5,236.7,171.3
	z M426,202.7c1.9,1.9,3.8,3.2,6.1,1.9c0.1-2.8-2.6-0.6-3.3-2.2C428.6,202.2,427,202.6,426,202.7z M456.8,143.8
	c-0.7,0.9-1.3,1.5-1.7,2.2c-0.1,0.2,0.1,0.6,0.2,1.1c0.5-0.3,0.9-0.6,1.3-0.8c0.6,0.4,1.1,0.7,1.7,1.1c0.6-0.7,1.1-1.3,1.8-2.2
	C459,144.7,457.9,144.2,456.8,143.8z M209.1,165c-0.2-2.3,0.2-4.6-0.5-7.4c-0.7,2-1.1,3.4-1.6,4.9c0.3,0.3,0.6,0.7,1,1.1
	c-0.3,0.4-0.6,0.8-1.2,1.4C207.8,165,208.3,165,209.1,165z M86,39.2c-0.9,1.3-1.4,1.9-1.8,2.5c0.7,0.7,1.5,1.5,2.4,2.4
	c0.6-0.8,1.1-1.5,1.5-2.1C87.5,41.2,87,40.5,86,39.2z M92.9,74.8c0.7,0.1,1.3,0.2,1.9,0.3c0.9-2.3-0.7-3.6-1.4-5.9
	c-0.8,1.1-1.1,1.5-1.5,2c0.8,1,1.5,1.7,2.1,2.5C93.5,74.1,93.3,74.4,92.9,74.8z M278,122.9c1.1-1.5,1.7-2.3,2.8-4
	c-1.7,0.7-2.4,1-3.1,1.3c-0.5-0.5-0.9-0.8-1.2-1.1c-0.2,0.2-0.4,0.4-0.6,0.6C276.4,120.5,277,121.4,278,122.9z M430.2,119.6
	c-1.2-0.6-2-1-2.7-1.4c-0.8,0.5-1.7,0.9-2.7,1.5c0.3,0.6,0.5,1,0.6,1.4C427,120.7,428.5,120.2,430.2,119.6z M104.8,43.9
	c2.3,0.4,4,0.6,5.2-1.3c-0.5-0.5-0.9-0.9-1.3-1.3C107.5,42,106.3,42.8,104.8,43.9z M48.2,71.7c0.1,0.2,0.3,0.4,0.4,0.6
	c1.4-0.9,2.9-1.8,4.4-2.8c-1-0.5-1.8-0.8-2.5-1.2C49.8,69.4,49,70.6,48.2,71.7z M257.9,109.3c0-1.6,0-2.8,0-4.1c-0.6,0-1.1,0-1.5,0
	C255.6,106.8,256.1,108,257.9,109.3z M165.8,173.3c-2,1.8-2,1.8-1,4.7C165.1,176.4,166.9,175.2,165.8,173.3z M104.6,107.1
	c0.2-0.2,0.3-0.3,0.5-0.5c-0.5-0.5-1-1.3-1.6-1.4c-1.1-0.2-2.2,0.1-3.3,0.1c0,0.2,0.1,0.3,0.1,0.5
	C101.7,106.2,103.1,106.7,104.6,107.1z M341.9,104.4c1.4-1,2.8-1.5,1.9-3.2c-1,0.6-2,1.1-3,1.6C341.2,103.5,341.4,103.8,341.9,104.4
	z M415.6,228.2c0.4,0,0.8-0.1,1.2-0.1c0-1,0-2,0-3.1c-0.7,0.1-1.2,0.2-1.9,0.4C415.2,226.4,415.4,227.3,415.6,228.2z M495.7,136
	c-1-1.4-1.6-2.1-2.1-2.9c-0.6,1-1.1,1.7-1.5,2.5c0,0,0.2,0.2,0.4,0.4C493.2,136,494,136,495.7,136z M74.2,95.9
	c0.6-1.9,1.2-3.8,0-5.7C74.2,92.1,74.2,94,74.2,95.9z M451.6,90.1c0.5-1,0.9-1.8,1.3-2.7c-0.4-0.4-0.9-0.9-1.4-1.4
	c-0.5,0.9-0.9,1.8-1.3,2.7C450.6,89.2,451,89.5,451.6,90.1z M171.9,71.8c0-0.2,0-0.5,0-0.7c-0.8,0-1.5,0-2.3,0c-0.5,0-0.8-2-1.5-0.2
	c-0.2,0.6,0.1,1.5,0.1,2C169.6,72.4,170.8,72.1,171.9,71.8z M229.1,114.1c0-0.8,0-1.4,0-2c0-0.9-0.2-1.1-1-0.5c-0.6,0.4-1.3,0.7-2,1
	C227,113.1,227.9,113.5,229.1,114.1z M67.1,76.7c1-1.2,1.6-1.9,2.5-3c-1.1-0.3-1.7-0.4-2.5-0.6C67.1,74.2,67.1,75,67.1,76.7z
	 M412.1,121.8c1.4-1,2.1-1.6,3.4-2.5c-1.6,0-2.5,0-3.4,0C412.1,119.9,412.1,120.3,412.1,121.8z M275.9,124.1
	c-0.5-1.6-0.9-2.7-1.7-4.9c0,2.3,0,3.5,0,4.8C274.8,124,275.2,124,275.9,124.1z M123.6,134.9c-1.3-1-2.1-1.5-3.2-2.3
	c-0.2,1-0.3,1.6-0.4,2.3C121.1,134.9,122,134.9,123.6,134.9z M123.9,153.3c-0.2-0.1-0.5-0.1-0.7-0.2c-0.4,0.9-0.8,1.7-1.3,2.9
	c1,0,1.4,0,2,0C123.9,155.1,123.9,154.2,123.9,153.3z M400.6,71c0.4,1.3,0.9,3.1,2.7,1.5C402.3,71.9,401.4,71.4,400.6,71z
	 M248.2,132.6c0,1.5,0,2.4,0,3.5c0.8-0.1,1.3-0.2,1.8-0.3C249.5,134.8,249,134,248.2,132.6z M322.5,81c-0.4,1.1-2.2,1.3-0.9,3.3
	C322,83.1,323.8,83,322.5,81z M467.8,134c0-1.6,0-2.2,0-3c-0.7,0.1-1.2,0.2-2.1,0.4C466.4,132.2,466.8,132.8,467.8,134z M257.8,98.3
	c0.1,0.4,0.4,1.1,0.6,1.7c0.7-0.6,1.2-1,2.1-1.7C259,98.3,258,98.3,257.8,98.3z M116.1,131.1c2.2,0.1,2.2-0.7,1.5-2.1
	c-0.5,0.1-1,0.2-1.5,0.3C116.1,129.9,116.1,130.3,116.1,131.1z M213.5,159.1c-1.1,1.9,0.5,2.2,1.1,3.1
	C215.7,160.3,214.2,160,213.5,159.1z M35.3,206.2c0,1.6,0,2.2,0,3c0.7-0.1,1.2-0.2,2.1-0.4C36.8,208,36.3,207.4,35.3,206.2z
	 M344.8,128.9c1.2,0,2.2,0,3.2,0c-0.5-0.7-0.9-1.3-1.3-1.9C346,127.7,345.5,128.1,344.8,128.9z M225.8,129.1c0-0.7,0-1.3,0-2.1
	c-0.7,0.1-1.2,0.2-1.8,0.4c0.1,0.7,0.3,1.2,0.4,1.8C224.9,129.1,225.2,129.1,225.8,129.1z M455.8,129.4c-0.1-2.2-0.1-2.2-2.2-3
	C454.4,127.6,454.9,128.3,455.8,129.4z M485,159.9c0.9-0.5,1.5-0.8,2.1-1.1c-0.7-0.8-1.1-1.3-1.8-2.1
	C485.2,158,485.1,158.9,485,159.9z M275.1,134.2c-0.1,2.2,0.7,2.2,2.1,1.5c-0.1-0.5-0.2-1-0.3-1.5
	C276.3,134.2,275.8,134.2,275.1,134.2z M265.1,135.3c-1,0-2,0-3.8,0c1.7,0.7,2.6,1.2,3.8,1.6C265.1,136.2,265.1,135.9,265.1,135.3z
	 M225.1,139.8c0.2,0.1,0.3,0.3,0.5,0.4c0.4-1,0.8-1.9,1.4-3.2c-1,0.2-1.4,0.3-1.9,0.4C225.1,138.2,225.1,139,225.1,139.8z
	 M69.1,79.8c0.7,0,1.3,0,2.1,0c-0.1-0.7-0.2-1.2-0.4-1.8c-0.7,0.1-1.2,0.3-1.8,0.4C69.1,78.9,69.1,79.3,69.1,79.8z M460.5,144.8
	c2.1-0.8,2.1-0.8,2.2-3C461.9,142.9,461.4,143.6,460.5,144.8z M86.2,191.2c1-0.1,1.9-0.3,3.4-0.5c-1.6-0.6-2.4-1-3.5-1.4
	C86.1,189.9,86.1,190.4,86.2,191.2z M257.3,120.1c0.2,0,0.3,0,0.5,0c0-1.3,0-2.7,0-4c-0.2,0-0.3,0-0.5,0
	C257.3,117.4,257.3,118.8,257.3,120.1z M212.9,118.7c0.6,0.2,0.8,0.4,0.9,0.3c0.8-0.5,1.5-1,2.3-1.5c-0.1-0.1-0.2-0.3-0.3-0.3
	c-1.2-0.6-1.7,0.4-2.3,1C213.3,118.4,213.2,118.5,212.9,118.7z M112.2,112.8c1.6,0,2.2,0,3,0c-0.1-0.7-0.2-1.2-0.4-2.1
	C113.9,111.4,113.4,111.8,112.2,112.8z M225.5,122.1c0.7-0.9,2.2-1.2,1.1-3.1C225.9,120,224.4,120.3,225.5,122.1z M189.4,105.4
	c-2.2,0.1-2.2,0.1-3,2.2C187.5,106.8,188.3,106.2,189.4,105.4z M70.4,95c-0.2,0.6-0.4,0.8-0.3,0.9c0.5,0.8,1,1.5,1.5,2.3
	c0.1-0.1,0.3-0.2,0.3-0.3c0.6-1.2-0.4-1.7-1-2.3C70.8,95.3,70.7,95.2,70.4,95z M248.9,121.5c0.2,0.2,0.4,0.4,0.7,0.7
	c0.4-0.1,0.9-0.2,1.5-0.3c-0.1-0.7-0.2-1.3-0.5-2.5C249.8,120.4,249.4,121,248.9,121.5z M226.2,164.9c0.3,0,0.6,0,0.9,0
	c-0.1-1.2-0.2-2.4-0.2-3.7c-0.2,0-0.4,0-0.6,0C226.2,162.5,226.2,163.7,226.2,164.9z M318.4,165.3c-0.2,2.7-0.2,2.7,0.9,2.5
	C319.2,167.5,318.9,166.7,318.4,165.3z M322.6,169.8c0.3-1.5,0.3-1.5-2.1-1.3C321.5,169.1,322.2,169.5,322.6,169.8z M419.1,185.9
	c0.8-0.4,1.4-0.8,2.9-1.6c-1.8,0-2.3,0-2.9,0C419.1,184.9,419.1,185.3,419.1,185.9z M214.6,156.9c0.1,0,0.8,0,1.6,0
	c-0.1-0.7-0.2-1.1-0.2-1.3C215.5,156,215,156.5,214.6,156.9z M432.5,70.9c0.2,0,0.9,0,1.6,0c-0.1-0.7-0.2-1.1-0.4-2.6
	C433.1,69.6,432.8,70.3,432.5,70.9z M251.9,109.5c1.9,0.6,2.5,0.2,2.1-0.7C253.4,109,252.7,109.2,251.9,109.5z M285.8,120.6
	c0-0.2,0-0.9,0-1.6c-0.7,0.1-1.1,0.2-2.6,0.4C284.6,120.1,285.3,120.4,285.8,120.6z M254.1,122.9c0.8-0.4,1.4-0.8,2.9-1.6
	c-1.8,0-2.3,0-2.9,0C254.1,121.9,254.1,122.3,254.1,122.9z M406.8,232.4c0.8,0.8,1.3,1.2,2.5,2.5c-0.4-1.7-0.5-2.2-0.6-2.8
	C408.1,232.1,407.7,232.2,406.8,232.4z M407.2,234.7c-1.9-0.6-2.5-0.2-2.1,0.7C405.7,235.2,406.4,235,407.2,234.7z M172.3,96.6
	c0,0.1,0,0.8,0,1.6c0.7-0.1,1.1-0.2,1.3-0.2C173.2,97.5,172.7,97,172.3,96.6z M450.9,148.5c1.9,0.6,2.5,0.2,2.1-0.7
	C452.4,148,451.7,148.2,450.9,148.5z M279.3,137.6c0,0.2,0,0.9,0,1.6c0.7-0.1,1.1-0.2,2.6-0.4C280.5,138.1,279.8,137.8,279.3,137.6z
	 M345,95.5c-0.7,0.3-1.4,0.6-2.1,1c0.1,0.2,0.2,0.3,0.4,0.5c0.6,0,1.1,0,1.7,0C345,96.3,345,95.9,345,95.5z M348.1,96.7
	c0.7-0.3,1.4-0.6,2.1-1c-0.1-0.2-0.2-0.3-0.4-0.5c-0.6,0-1.1,0-1.7,0C348.1,95.9,348.1,96.3,348.1,96.7z M365,143.5
	c-0.7,0.3-1.4,0.6-2.1,1c0.1,0.2,0.2,0.3,0.4,0.5c0.6,0,1.1,0,1.7,0C365,144.3,365,143.9,365,143.5z M138.3,181.1c0.2,0,0.3,0,0.5,0
	c0-0.7,0-1.3,0-2c-0.2,0-0.3,0-0.5,0C138.3,179.8,138.3,180.4,138.3,181.1z M418.3,193.1c0.2,0,0.3,0,0.5,0c0-0.7,0-1.3,0-2
	c-0.2,0-0.3,0-0.5,0C418.3,191.8,418.3,192.4,418.3,193.1z M404.9,195.9c0-0.3-0.1-0.6-0.1-0.9c-0.5,0.1-1.1,0.3-1.6,0.4
	c0,0.2,0.1,0.3,0.1,0.5C403.8,195.9,404.3,195.9,404.9,195.9z M405.2,199.9c0.3,0,0.6-0.1,0.9-0.1c-0.1-0.5-0.3-1.1-0.4-1.6
	c-0.2,0-0.3,0.1-0.5,0.1C405.2,198.8,405.2,199.4,405.2,199.9z M101.9,51.9c0-0.3-0.1-0.6-0.1-0.9c-0.5,0.1-1.1,0.3-1.6,0.4
	c0,0.2,0.1,0.3,0.1,0.5C100.8,51.9,101.3,51.9,101.9,51.9z M48.2,207.9c0.3,0,0.6-0.1,0.9-0.1c-0.1-0.5-0.3-1.1-0.4-1.6
	c-0.2,0-0.3,0.1-0.5,0.1C48.2,206.8,48.2,207.4,48.2,207.9z M41.3,211.1c0.2,0,0.3,0,0.5,0c0-0.7,0-1.3,0-2c-0.2,0-0.3,0-0.5,0
	C41.3,209.8,41.3,210.4,41.3,211.1z M410.9,215.9c0-0.3,0-0.6-0.1-0.9c-0.6,0.1-1.1,0.2-1.7,0.4c0,0.2,0,0.3,0.1,0.5
	C409.8,215.9,410.3,215.9,410.9,215.9z M409.9,186.3c-0.3,0-0.6,0-0.9,0c0.1,0.6,0.2,1.1,0.4,1.7c0.2,0,0.3,0,0.5-0.1
	C409.9,187.4,409.9,186.8,409.9,186.3z M111.1,43.3c0,0.2,0,0.3,0,0.5c0.7,0,1.3,0,2,0c0-0.2,0-0.3,0-0.5
	C112.4,43.3,111.7,43.3,111.1,43.3z M222.8,130.1c-0.2,0-0.3,0-0.5,0c0,0.7,0,1.3,0,2c0.2,0,0.3,0,0.5,0
	C222.8,131.4,222.8,130.8,222.8,130.1z M40.2,85.9c0.3,0,0.6-0.1,0.9-0.1c-0.1-0.5-0.3-1.1-0.4-1.6c-0.2,0-0.3,0.1-0.5,0.1
	C40.2,84.8,40.2,85.4,40.2,85.9z M219.9,124.9c0-0.3,0-0.6-0.1-0.9c-0.6,0.1-1.1,0.2-1.7,0.4c0,0.2,0,0.3,0.1,0.5
	C218.8,124.9,219.3,124.9,219.9,124.9z M345.2,124.9c0.3,0,0.6,0,0.9,0c-0.1-0.6-0.2-1.1-0.4-1.7c-0.2,0-0.3,0-0.5,0.1
	C345.2,123.8,345.2,124.4,345.2,124.9z M270.2,124.9c0.3,0,0.6,0,0.9,0c-0.1-0.6-0.2-1.1-0.4-1.7c-0.2,0-0.3,0-0.5,0.1
	C270.2,123.8,270.2,124.4,270.2,124.9z M56.9,84.3c-0.3,0-0.6,0-0.9,0c0.1,0.6,0.2,1.1,0.4,1.7c0.2,0,0.3,0,0.5-0.1
	C56.9,85.4,56.9,84.8,56.9,84.3z M424.1,122.9c0-0.2,0-0.3,0-0.5c-0.7,0-1.3,0-2,0c0,0.2,0,0.3,0,0.5
	C422.7,122.9,423.4,122.9,424.1,122.9z M95.1,122.3c0,0.2,0,0.3,0,0.5c0.7,0,1.3,0,2,0c0-0.2,0-0.3,0-0.5
	C96.4,122.3,95.7,122.3,95.1,122.3z M271.1,121.9c0-0.2,0-0.3,0-0.5c-0.7,0-1.3,0-2,0c0,0.2,0,0.3,0,0.5
	C269.7,121.9,270.4,121.9,271.1,121.9z M344.1,118.3c0,0.2,0,0.3,0,0.5c0.7,0,1.3,0,2,0c0-0.2,0-0.3,0-0.5
	C345.4,118.3,344.7,118.3,344.1,118.3z M273.1,118.9c0-0.2,0-0.3,0-0.5c-0.7,0-1.3,0-2,0c0,0.2,0,0.3,0,0.5
	C271.7,118.9,272.4,118.9,273.1,118.9z M106.1,108.9c0-0.2,0-0.3,0-0.5c-0.7,0-1.3,0-2,0c0,0.2,0,0.3,0,0.5
	C104.7,108.9,105.4,108.9,106.1,108.9z M249.3,109.1c0.2,0,0.3,0,0.5,0c0-0.7,0-1.3,0-2c-0.2,0-0.3,0-0.5,0
	C249.3,107.8,249.3,108.4,249.3,109.1z M301.1,90.3c0,0.2,0,0.3,0,0.5c0.7,0,1.3,0,2,0c0-0.2,0-0.3,0-0.5
	C302.4,90.3,301.7,90.3,301.1,90.3z M253.9,105.9c0-0.3-0.1-0.6-0.1-0.9c-0.5,0.1-1.1,0.3-1.6,0.4c0,0.2,0.1,0.3,0.1,0.5
	C252.8,105.9,253.3,105.9,253.9,105.9z M446.9,92.9c0-0.3-0.1-0.6-0.1-0.9c-0.5,0.1-1.1,0.3-1.6,0.4c0,0.2,0.1,0.3,0.1,0.5
	C445.8,92.9,446.3,92.9,446.9,92.9z M500.2,102.9c0.3,0,0.6-0.1,0.9-0.1c-0.1-0.5-0.3-1.1-0.4-1.6c-0.2,0-0.3,0.1-0.5,0.1
	C500.2,101.8,500.2,102.4,500.2,102.9z M274.8,101.1c-0.2,0-0.3,0-0.5,0c0,0.7,0,1.3,0,2c0.2,0,0.3,0,0.5,0
	C274.8,102.4,274.8,101.8,274.8,101.1z M52.9,101.3c-0.3,0-0.6,0.1-0.9,0.1c0.1,0.5,0.3,1.1,0.4,1.6c0.2,0,0.3-0.1,0.5-0.1
	C52.9,102.4,52.9,101.8,52.9,101.3z M178.9,171.9c0-0.3,0-0.6-0.1-0.9c-0.6,0.1-1.1,0.2-1.7,0.4c0,0.2,0,0.3,0.1,0.5
	C177.8,171.9,178.3,171.9,178.9,171.9z M217.8,170.1c-0.2,0-0.3,0-0.5,0c0,0.7,0,1.3,0,2c0.2,0,0.3,0,0.5,0
	C217.8,171.4,217.8,170.8,217.8,170.1z M470.3,167.1c0.2,0,0.3,0,0.5,0c0-0.7,0-1.3,0-2c-0.2,0-0.3,0-0.5,0
	C470.3,165.8,470.3,166.4,470.3,167.1z M235.3,167.1c0.2,0,0.3,0,0.5,0c0-0.7,0-1.3,0-2c-0.2,0-0.3,0-0.5,0
	C235.3,165.8,235.3,166.4,235.3,167.1z M203.2,164.3c0,0.3,0.1,0.6,0.1,0.9c0.5-0.1,1.1-0.3,1.6-0.4c0-0.2-0.1-0.3-0.1-0.5
	C204.3,164.3,203.8,164.3,203.2,164.3z M78.2,71.3c0,0.3,0.1,0.6,0.1,0.9c0.5-0.1,1.1-0.3,1.6-0.4c0-0.2-0.1-0.3-0.1-0.5
	C79.3,71.3,78.8,71.3,78.2,71.3z M352.3,161.1c0.2,0,0.3,0,0.5,0c0-0.7,0-1.3,0-2c-0.2,0-0.3,0-0.5,0
	C352.3,159.8,352.3,160.4,352.3,161.1z M45.1,72.3c0,0.2,0,0.3,0,0.5c0.7,0,1.3,0,2,0c0-0.2,0-0.3,0-0.5
	C46.4,72.3,45.7,72.3,45.1,72.3z M378.3,157.1c0.2,0,0.3,0,0.5,0c0-0.7,0-1.3,0-2c-0.2,0-0.3,0-0.5,0
	C378.3,155.8,378.3,156.4,378.3,157.1z M336.9,150.9c0-0.3-0.1-0.6-0.1-0.9c-0.5,0.1-1.1,0.3-1.6,0.4c0,0.2,0.1,0.3,0.1,0.5
	C335.8,150.9,336.3,150.9,336.9,150.9z M358.9,149.9c0-0.3,0-0.6-0.1-0.9c-0.6,0.1-1.1,0.2-1.7,0.4c0,0.2,0,0.3,0.1,0.5
	C357.8,149.9,358.3,149.9,358.9,149.9z M487.1,145.3c0,0.2,0,0.3,0,0.5c0.7,0,1.3,0,2,0c0-0.2,0-0.3,0-0.5
	C488.4,145.3,487.7,145.3,487.1,145.3z M278.9,142.9c0-0.3-0.1-0.6-0.1-0.9c-0.5,0.1-1.1,0.3-1.6,0.4c0,0.2,0.1,0.3,0.1,0.5
	C277.8,142.9,278.3,142.9,278.9,142.9z M313.1,133.3c0,0.2,0,0.3,0,0.5c0.7,0,1.3,0,2,0c0-0.2,0-0.3,0-0.5
	C314.4,133.3,313.7,133.3,313.1,133.3z"/>
<path class="st0" d="M470.7,187.5c0.5-1.2,0.8-1.8,1.1-2.6c0.2-0.8,0.3-1.5,0.5-2.8c-2.4,0.4-4.7,0.8-6.8,1.1
	c-1.2-2.9,1.5-2.3,2.3-3c0.8-0.6,2.5-0.1,4.1-0.1c0.1-1.3,0.2-2.5,0.3-3.8c1-0.2,1.9-0.3,3.1-0.5c-0.6-1.2-1-2.2-1.7-3.8
	c1.5,0.4,2.4,0.6,3.8,0.9c0,0,0.5-0.1,0.8-0.5c0.9-1,1.6-2,2.9-3.6c-0.1-0.3-0.7-1.2-0.9-2.2c-0.2-1.1,0-2.2,0.5-3.4
	c0.2,0.7,0.3,1.5,0.6,2.5c0.7,0.6,1.7,1.5,2.8,2.4c-0.6,1.2-1.2,2.3-1.8,3.4c0.1,0.2,0.4,0.5,0.8,0.9c-0.4,0.4-0.8,0.9-1.3,1.3
	c-0.5-0.2-0.9-0.5-1.5-0.8c0,1,0,1.8,0,2.7c1.5,0.5,3.1,1.1,4.4,1.5c-1.4,1.4-2.8,2.8-4.8,4.8c-1,0-2.7,0-4.7,0
	c-0.1,1.3-0.1,2.4-0.2,3.6C473.7,186.3,472.4,186.8,470.7,187.5z"/>
<path class="st0" d="M526,174.6c1,0.9,1.4,1.4,1.9,1.8c-0.1,0.2-0.2,0.6-0.4,0.7c-2.1,1.2-4.3,2.4-6.4,3.5c-0.1,0.5-0.2,0.9-0.4,1.6
	c-1.9-0.4-3.6-0.8-5.6-1.2c0,1.2,0,2,0,2.6c1,0.6,1.9,1.2,2.9,1.8c-0.3,0.3-0.4,0.7-0.6,0.7c-1.2,0.4-2.3,0.7-4.1,1.2
	c1.4,0.6,2.1,1,2.8,1.3c-0.1,0.5-0.2,1-0.3,1.4c-3.4,0.3-2.2-3-3.3-4.4c0.2-0.9,0.4-2,0.6-3.1c-0.9-0.3-1.5-0.5-2.3-0.8
	c1.2-0.6,2.2-1.5,3.2-1.5C518.8,180.1,522.7,178.6,526,174.6z"/>
<path class="st0" d="M470.8,187.1c0.4,0.6,0.8,1.1,0.8,1c-0.4,0.9-0.7,1.7-1.1,2.6c-1-0.8-1.5-1.1-2.1-1.6c-0.2,1-0.3,1.9-0.5,3
	c-0.8,0.1-1.5,0.1-2.3,0.2c-0.6,1-1.1,1.9-2,3.4c-0.4-0.9-0.6-1.5-0.8-2.1c-0.2,0.1-0.3,0.3-0.5,0.4c0-1.4,0-2.9,0-4.7
	c0.5,0,1.2-0.2,1.7,0c0.6,0.1,1.1,0.5,1.7,0.8c0.4-0.8,0.8-1.7,1.5-3.1c-1.1,0.4-1.8,0.6-2.9,1c-0.4-0.5-0.9-1.3-1.8-2.5
	c1.7,0,2.8,0,4.3,0c0.3,0.4,0.9,1.2,1.4,1.8C469.4,187.1,470.2,187.1,470.8,187.1z"/>
<path class="st0" d="M501.9,185.2c0.5-1.6,1-3.1,1.4-4.6c1.1-0.8,2.4-1.7,3.6-2.6c0.1-1.4,0.2-2.6,0.4-4c0.7,0.2,1.4,0.2,1.6,0.5
	c0.7,1,1.3,2.1,2,3.3C509.7,182,505.3,182.9,501.9,185.2z"/>
<path class="st0" d="M479.5,79.1c-0.9-0.1-1.6-0.1-2.7-0.1c0.4-1,0.7-1.8,1-2.6c-0.1-0.1-0.4-0.4-0.8-0.8c1.3-0.9,2.5-1.7,3.6-2.5
	c0.5-1.5,1-2.8,1.5-4.1c1.8,1,2.3,2.2,1.8,3.8c-0.6,0.2-1.2,0.4-1.8,0.7c0,1,0,2,0,2.9C481.2,77.4,480.3,78.3,479.5,79.1z"/>
<path class="st0" d="M504.8,138.8c0.5-1.2,1-2.2,1.7-3.7c-1.3,0.5-2.1,0.8-3.1,1.2c-0.2-0.7-0.3-1.3-0.4-1.8
	c0.8-0.3,1.3-0.6,2.1-0.9c-0.8-0.4-1.4-0.7-2.2-1.1c1.4-0.4,2.6-0.8,4.2-1.3c0.4,1,0.8,2.2,1.4,3.7c0.5,0.1,1.4,0.2,2.5,0.4
	c0,0.5,0.1,1.2-0.1,1.4c-0.7,0.6-1.5,1.1-2.4,1.4C507.5,138.4,506.4,138.5,504.8,138.8z"/>
<path class="st0" d="M513.2,180.1c-1.9-3.6,0-5.9,2.4-8c4,0.8,4.4,1.8,1.9,5c-1.3,0-2.8,0-4.4,0
	C513.2,178.2,513.2,179.1,513.2,180.1z"/>
<path class="st0" d="M394.7,224.3c0.4,2.3,0.8,4.3,1.3,6.7c-1.1-0.1-2.2-0.2-4-0.4c-0.4,0.2-1.5,0.8-3.5,1.9
	c1.3-2.4,2.1-3.9,3.4-6.2C392.4,225.9,393.6,225.1,394.7,224.3z"/>
<path class="st0" d="M185.8,175.1c0.3,1.2,0.5,2.4,0.8,3.7c-0.2,0.1-0.8,0.3-1.3,0.5c-0.1,0.1-0.2,0.3-0.2,0.3
	c0.4,0.8,2.7,0,1.7,2.2c-0.6-0.3-1.4-0.6-2.5-1c-0.3-0.8-0.6-2-1.3-3c-0.7-0.9-1.9-1.5-2.9-2.3c0.4-0.3,0.9-0.7,1.5-1.2
	c0.7,0.6,1.5,1.3,2.3,2C184.7,175.8,185.4,175.4,185.8,175.1z"/>
<path class="st0" d="M174.5,180.4c-0.8-0.4-1.4-0.8-1.9-1.1c-0.7,0.3-1.4,0.6-2.4,1.1c0-1.2,0-2,0-2.9c0.9-0.4,2-1,3.7-1.8
	C173.4,177.6,175.9,178.3,174.5,180.4z"/>
<path class="st0" d="M118,46.5c1.6-0.5,3.1-1,5-1.5c0.1,2.5-1.8,3-2.9,4.8C119.2,48.4,118.7,47.5,118,46.5z"/>
<path class="st0" d="M179.2,68.7c0,0,0.3,0.3,0.8,0.8c-0.7,1.2-1.5,2.4-1.9,3.1c-0.9-0.4-1.7-0.7-3.2-1.4
	C176.8,70.1,177.9,69.5,179.2,68.7z"/>
<path class="st0" d="M83.1,85.8c0-1.8,0-2.6,0-3.3c1.6-0.9,2.7-0.3,4,1.3C86,84.4,84.9,84.9,83.1,85.8z"/>
<path class="st0" d="M308.7,156c1.5,2.3,1.6,4.5,0.3,6.6c-0.2,0.4-1,0.4-2.1,0.8c0.8-1.6,1.3-2.6,1.9-3.8
	C308.4,158.5,307.3,157.2,308.7,156z"/>
<path class="st0" d="M223.7,26.2c0.3,0.3,0.5,0.5,0.9,0.9c0.6-0.8,1.1-1.5,1.7-2.3c0.7,0.7,1.1,1.2,1.7,1.7
	c-0.4,0.4-0.8,0.9-1.2,1.3c-1.6,0-3.2,0-5.2,0C222.5,27.2,223,26.8,223.7,26.2z"/>
<path class="st0" d="M217.2,87.6c-1,3.5-1,3.5-3.9,3.2c-0.1-0.3-0.1-0.6-0.2-1.1C214.1,89.1,215.3,88.5,217.2,87.6z"/>
<path class="st0" d="M506.1,192.9c1.3-1.6,2.4-3.1,3.6-4.6c1.7,1.9-1.2,3.1-0.8,4.6C507.8,192.9,507,192.9,506.1,192.9z"/>
<path class="st0" d="M399.1,227.9c0-0.6,0-1,0-1.7c1.3,0,2.5,0,3.8,0c0,0.6,0,1,0,1.7C401.7,227.9,400.5,227.9,399.1,227.9z"/>
<path class="st0" d="M429.7,149.2c-0.7-0.6-1.3-1.1-2.1-1.8c0.8-0.9,1.3-1.6,1.9-2.3c0.6,0.6,1.1,1.1,1.7,1.7
	C430.8,147.5,430.3,148.3,429.7,149.2z"/>
<path class="st0" d="M392.5,258.8c-2.8,2.8-2.8,2.9-5.5,0.7C388.7,258.6,390.3,259.4,392.5,258.8z"/>
<path class="st0" d="M397.2,238.3c2.2,0,4.4,0,6.8,0c-0.2,0.4-0.3,0.8-0.4,0.8c-2.1,0-4.2,0-6.3,0
	C397.2,238.8,397.2,238.5,397.2,238.3z"/>
<path class="st0" d="M185.5,36.3c1.6,0,2.5,0,4,0c-0.7,1.1-1.2,1.9-1.8,3C186.9,38.3,186.4,37.5,185.5,36.3z"/>
<path class="st0" d="M23.1,215.9c-1.4,0-2.6,0-3.9,0c0-0.6,0-1.1,0-1.5C20.8,213.7,22,214,23.1,215.9z"/>
<path class="st0" d="M68.9,55.9c-2-1-2.9-1.4-3.9-1.9c1-1.9,2.2-2.5,4.1-1.4c-0.8,0.4-1.4,0.7-2.1,1C67.5,54,67.8,54.5,68.9,55.9z"
	/>
<path class="st0" d="M393.2,265.4c-0.3-2.5,0.9-3.1,2.4-3.4c0.2,0.5,0.4,0.9,0.7,1.7c-0.6,0.2-1.2,0.2-1.7,0.5
	C394.2,264.3,393.9,264.8,393.2,265.4z"/>
<path class="st0" d="M32.1,108.1c0,0.5,0,1,0,1.5c0.7,0.3,1.3,0.6,2,0.9c0,0.4,0,0.7-0.1,1.1c-0.1,0.1-0.3,0.4-0.3,0.3
	c-0.8-0.4-1.6-0.8-2.7-1.4c0.2-0.8,0.4-1.7,0.6-2.6C31.7,108,31.9,108.1,32.1,108.1z"/>
<path class="st0" d="M397.9,228c-0.5,0-1,0.1-1.7,0.1c0.4-0.8,0.6-1.4,1-2.1c-0.3-0.4-0.7-0.9-1.2-1.6c0.6-0.1,1.1-0.2,1.9-0.4
	C397.9,225.5,397.9,226.7,397.9,228z"/>
<path class="st0" d="M502.1,185.1c0,0.7,0,1.3,0,2c-1,0-1.9,0-2.9,0c0-0.8,0-1.2,0-2C500.2,185.1,501.1,185.1,502.1,185.1z"/>
<path class="st0" d="M198.9,38.6c-0.4,0.8-0.8,1.6-1.4,2.6c-1-1.7-0.2-3.4,0-5.1C198,37,198.5,37.8,198.9,38.6z"/>
<path class="st0" d="M119.1,60.1c-0.3-1-0.7-2-1-3c0.9,0,1.9,0,3.3,0C120.4,58.4,119.7,59.2,119.1,60.1z"/>
<path class="st0" d="M118.9,60.1c0,1,0,1.9,0,2.9c-0.6,0.1-1,0.1-1.7,0.2c0-1,0-1.8,0-2.9C117.8,60.2,118.4,60.1,118.9,60.1z"/>
<path class="st0" d="M182.1,65.4c0-1.1,0-1.5,0-2.1c1,0,1.8,0,2.8,0C185.2,66.2,183.2,64.6,182.1,65.4z"/>
<path class="st0" d="M120,14.1c-0.6,1.2-1,2.1-1.5,3.1c-0.4-0.5-0.9-1-1.8-2c0.5-0.3,1.1-0.7,1.8-1C118.8,14,119.2,14.1,120,14.1z"
	/>
<path class="st0" d="M119.3,44.1c0-1.7,0-3.3,0-5c0.2,0,0.3,0,0.5,0c0,1.7,0,3.3,0,5C119.6,44.1,119.5,44.1,119.3,44.1z"/>
<path class="st0" d="M503.9,145.3c0,0.9,0,1.8,0,2.7c-0.6,0-1.1,0-2,0c0.5-1.1,0.9-2,1.3-2.9C503.4,145.2,503.6,145.2,503.9,145.3z"
	/>
<path class="st0" d="M494.6,160.1c1,0,1.4,0,2.2,0c0.1,0.9,0.2,1.9,0.2,2.9c-0.2,0.1-0.4,0.1-0.7,0.2
	C495.8,162.2,495.3,161.3,494.6,160.1z"/>
<path class="st0" d="M434.1,128.9c0.9,0.2,1.4,0.3,1.8,0.3c-0.9,0.9-1.6,1.8-3.3,3.6C433.4,130.9,433.7,130,434.1,128.9z"/>
<path class="st0" d="M528.5,158.5c-0.8,1.1-1.4,1.9-2.3,3.1c0-1.6,0-2.5,0-3.6C527,158.2,527.5,158.3,528.5,158.5z"/>
<path class="st0" d="M519.9,191.2c-0.8-0.2-1.3-0.3-2.3-0.5c0.8-1.1,1.4-1.8,2.3-3.1C519.9,189.2,519.9,190.1,519.9,191.2z"/>
<path class="st0" d="M508.1,99c-0.1,1-0.2,1.5-0.4,2.5c-1.1-0.7-1.8-1.1-3.2-2C506.1,99.3,506.9,99.2,508.1,99z"/>
<path class="st0" d="M118,67.4c0,1.8,0,2.5,0,3.7c-0.8-0.2-1.4-0.3-2.5-0.6C116.4,69.5,116.9,68.8,118,67.4z"/>
<path class="st0" d="M135.6,106.9c1.3-0.9,2-1.5,3.1-2.3c0.2,1,0.3,1.5,0.5,2.3C138,106.9,137.1,106.9,135.6,106.9z"/>
<path class="st0" d="M400.4,251.6c0.7,0.7,1.5,1.5,2.1,2.1C400.6,253.8,400.6,253.8,400.4,251.6z"/>
<path class="st0" d="M194.3,44.3c1.9,0,2.7,0,3.7,0c0,0.6,0,1,0,1.7C196.9,45.5,196,45.1,194.3,44.3z"/>
<path class="st0" d="M455.2,193.9c0-1.9,0-2.7,0-3.7c0.6,0,1,0,1.7,0C456.5,191.2,456,192.1,455.2,193.9z"/>
<path class="st0" d="M183.3,57.1c0.6,0,0.9,0,1.5,0c0.1,0.5,0.2,1.1,0.4,1.8c-0.6,0.1-1.1,0.2-1.8,0.4
	C183.3,58.4,183.3,57.8,183.3,57.1z"/>
<path class="st0" d="M224,172.6c-0.5,0.5-0.9,0.9-1.8,1.8c0-1.3-0.3-2.3,0.1-3c0.7-1.3,0.7,0.3,1.1,0.5
	C223.7,172.1,223.8,172.4,224,172.6z"/>
<path class="st0" d="M502,187.1c0.6,0,1.2,0.1,1.9,0.1c0.1,0.6,0.1,1,0.1,1.7c-0.6,0.1-1.2,0.1-1.9,0.2
	C502.1,188.3,502.1,187.7,502,187.1z"/>
<path class="st0" d="M139.8,125c-1-1.2-1.4-1.8-2.1-2.6c1-0.2,1.4-0.3,2.1-0.4C139.8,122.8,139.8,123.4,139.8,125z"/>
<path class="st0" d="M291.2,160.2c0.6,0,1,0,1.7,0c-0.5,1-0.9,1.9-1.7,3.7C291.2,162,291.2,161.2,291.2,160.2z"/>
<path class="st0" d="M525.5,151.9c0.2-0.5,0.6-1.2,1.2-2.6c0.2,1.4,0.3,1.9,0.4,2.6C526.4,151.9,525.7,151.9,525.5,151.9z"/>
<path class="st0" d="M425.8,152.6c-0.5-0.2-1.2-0.6-2.6-1.2c1.4-0.2,1.9-0.3,2.6-0.4C425.8,151.8,425.8,152.4,425.8,152.6z"/>
<path class="st0" d="M286.7,166.9c0.2,0.7,0.3,1.2,0.5,2c-0.7,0.1-1.3,0.1-2.6,0.3C285.5,168.1,286,167.6,286.7,166.9z"/>
<path class="st0" d="M75.9,189.9c-0.9,0-1.8,0-2.7,0c0-0.2,0-0.3-0.1-0.5c0.9-0.1,1.7-0.3,2.6-0.4C75.8,189.3,75.9,189.6,75.9,189.9
	z"/>
<path class="st0" d="M527.3,171.8c-0.8,0.2-1.3,0.2-1.9,0.4c-0.1-0.6-0.2-1.2-0.6-2.8C526,170.6,526.5,171.1,527.3,171.8z"/>
<path class="st0" d="M113,71.1c0.7,0.1,1.3,0.1,1.9,0.1c0.1,0.2,0.3,0.4,0.4,0.6c-0.7,0.3-1.4,0.5-2,0.8
	C113.2,72.4,113.1,71.8,113,71.1z"/>
<path class="st0" d="M529.2,163.3c0.9,0,1.8,0,2.7,0c0,0.2,0,0.3,0.1,0.5c-0.9,0.1-1.7,0.3-2.6,0.4
	C529.3,163.9,529.2,163.6,529.2,163.3z"/>
<path class="st0" d="M511.7,171.5c-0.4,0.3-1,0.8-1.3,1.1C510.3,171.2,510.3,171.2,511.7,171.5z"/>
<path class="st0" d="M459.7,186.9c0.2,0.7,0.3,1.2,0.5,2c-0.7,0.1-1.3,0.1-2.6,0.3C458.5,188.1,459,187.6,459.7,186.9z"/>
<path class="st0" d="M128.3,120.2c0.5,0,1,0,1.6,0c0,0.6,0,1.2,0,2.9C129.1,121.6,128.7,120.9,128.3,120.2z"/>
<path class="st0" d="M0.9,210.3c0,0.9,0,1.8,0,2.7c-0.2,0-0.3,0-0.5,0c-0.1-0.9-0.2-1.8-0.4-2.7C0.3,210.3,0.6,210.3,0.9,210.3z"/>
<path class="st0" d="M465.9,244.9c-0.9,0-1.8,0-2.7,0c0-0.2,0-0.3,0-0.5c0.9-0.1,1.8-0.2,2.7-0.4
	C465.9,244.3,465.9,244.6,465.9,244.9z"/>
<path class="st0" d="M514,128c0,0.9,0,1.4,0,1.6c-0.5-0.4-1.1-0.8-1.9-1.3C512.7,128.2,513.1,128.1,514,128z"/>
<path class="st0" d="M118.1,101.3c1,0,2,0,3,0c0,0.2,0,0.3,0,0.5c-1,0-2,0-3,0C118.1,101.7,118.1,101.5,118.1,101.3z"/>
<path class="st0" d="M94.6,97.6c0.7-0.5,1.4-0.9,2.4-1.5c0,0.7,0.1,1.2,0.1,1.9c-0.8,0.1-1.4,0.1-2,0.1C94.9,98,94.7,97.8,94.6,97.6
	z"/>
<path class="st0" d="M368.7,146c0.3,0.7,0.7,1.3,1,2C368.4,148.4,368,147.9,368.7,146z"/>
<path class="st0" d="M143.3,12.6c0.5,0.2,1.2,0.6,2.6,1.2c-1.4,0.2-1.9,0.3-2.6,0.4C143.3,13.4,143.3,12.8,143.3,12.6z"/>
<path class="st0" d="M126.9,0.9c-0.6,0-1.1,0-1.7,0c0-0.2-0.1-0.3-0.1-0.5c0.5-0.1,1.1-0.3,1.6-0.4C126.8,0.4,126.9,0.6,126.9,0.9z"
	/>
<path class="st0" d="M178.1,32.9c-0.7,0-1.3,0-2,0c0-0.2,0-0.3,0-0.5c0.7,0,1.3,0,2,0C178.1,32.5,178.1,32.7,178.1,32.9z"/>
<path class="st0" d="M113.3,16.1c0-0.7,0-1.3,0-2c0.2,0,0.3,0,0.5,0c0,0.7,0,1.3,0,2C113.6,16.1,113.5,16.1,113.3,16.1z"/>
<path class="st0" d="M456.2,242.9c0-0.6,0-1.1,0-1.7c0.2,0,0.3,0,0.5-0.1c0.1,0.6,0.2,1.1,0.4,1.7
	C456.8,242.9,456.5,242.9,456.2,242.9z"/>
<path class="st0" d="M312.1,176.9c-0.7,0-1.3,0-2,0c0-0.2,0-0.3,0-0.5c0.7,0,1.3,0,2,0C312.1,176.5,312.1,176.7,312.1,176.9z"/>
<path class="st0" d="M372.8,245.1c0,0.7,0,1.3,0,2c-0.2,0-0.3,0-0.5,0c0-0.7,0-1.3,0-2C372.5,245.1,372.6,245.1,372.8,245.1z"/>
<path class="st0" d="M389.9,251.9c-0.6,0-1.1,0-1.7,0c0-0.2-0.1-0.3-0.1-0.5c0.5-0.1,1.1-0.3,1.6-0.4
	C389.8,251.4,389.9,251.6,389.9,251.9z"/>
<path class="st0" d="M265.8,178.1c0,0.7,0,1.3,0,2c-0.2,0-0.3,0-0.5,0c0-0.7,0-1.3,0-2C265.5,178.1,265.6,178.1,265.8,178.1z"/>
<path class="st0" d="M458.9,192.9c-0.6,0-1.1,0-1.7,0c0-0.2-0.1-0.3-0.1-0.5c0.5-0.1,1.1-0.3,1.6-0.4
	C458.8,192.4,458.9,192.6,458.9,192.9z"/>
<path class="st0" d="M514.9,193.9c-0.6,0-1.1,0-1.7,0c0-0.2-0.1-0.3-0.1-0.5c0.5-0.1,1.1-0.3,1.6-0.4
	C514.8,193.4,514.9,193.6,514.9,193.9z"/>
<path class="st0" d="M399.8,196.1c0,0.7,0,1.3,0,2c-0.2,0-0.3,0-0.5,0c0-0.7,0-1.3,0-2C399.5,196.1,399.6,196.1,399.8,196.1z"/>
<path class="st0" d="M19.8,204.1c0,0.7,0,1.3,0,2c-0.2,0-0.3,0-0.5,0c0-0.7,0-1.3,0-2C19.5,204.1,19.6,204.1,19.8,204.1z"/>
<path class="st0" d="M157.2,56.3c0.6,0,1.1,0,1.7,0c0,0.2,0.1,0.3,0.1,0.5c-0.5,0.1-1.1,0.3-1.6,0.4
	C157.3,56.8,157.3,56.6,157.2,56.3z"/>
<path class="st0" d="M182.1,43.3c0.7,0,1.3,0,2,0c0,0.2,0,0.3,0,0.5c-0.7,0-1.3,0-2,0C182.1,43.7,182.1,43.5,182.1,43.3z"/>
<path class="st0" d="M425.2,217.9c0-0.6,0-1.1,0-1.7c0.2,0,0.3,0,0.5-0.1c0.1,0.6,0.2,1.1,0.4,1.7
	C425.8,217.9,425.5,217.9,425.2,217.9z"/>
<path class="st0" d="M20.9,218.9c-0.6,0-1.1,0-1.7,0c0-0.2-0.1-0.3-0.1-0.5c0.5-0.1,1.1-0.3,1.6-0.4
	C20.8,218.4,20.9,218.6,20.9,218.9z"/>
<path class="st0" d="M135.2,122.3c0.6,0,1.1,0,1.7,0c0,0.2,0.1,0.3,0.1,0.5c-0.5,0.1-1.1,0.3-1.6,0.4
	C135.3,122.8,135.3,122.6,135.2,122.3z"/>
<path class="st0" d="M226.6,84.9c1.2,0.3,1.8,0.5,2.4,0.7c-0.5,0.2-0.9,0.4-1.4,0.4C227.5,86.1,227.3,85.7,226.6,84.9z"/>
<path class="st0" d="M31.9,104.9c-0.6,0-1.1,0-1.7,0c0-0.2-0.1-0.3-0.1-0.5c0.5-0.1,1.1-0.3,1.6-0.4
	C31.8,104.4,31.9,104.6,31.9,104.9z"/>
<path class="st0" d="M42.1,99.9c-0.7,0-1.3,0-2,0c0-0.2,0-0.3,0-0.5c0.7,0,1.3,0,2,0C42.1,99.5,42.1,99.7,42.1,99.9z"/>
<path class="st0" d="M83.3,98.1c-0.1-0.6-0.1-1.3-0.2-1.9c0.2,0,0.4-0.1,0.6-0.1c0.1,0.7,0.3,1.3,0.4,2
	C83.9,98.1,83.6,98.1,83.3,98.1z"/>
<path class="st0" d="M91.1,95.3c0.7,0,1.3,0,2,0c0,0.2,0,0.3,0,0.5c-0.7,0-1.3,0-2,0C91.1,95.7,91.1,95.5,91.1,95.3z"/>
<path class="st0" d="M397.1,68.3c0.7,0,1.3,0,2,0c0,0.2,0,0.3,0,0.5c-0.7,0-1.3,0-2,0C397.1,68.7,397.1,68.5,397.1,68.3z"/>
<path class="st0" d="M530.9,172.3c0,0.6,0,1.1,0,1.7c-0.2,0-0.3,0.1-0.5,0.1c-0.1-0.5-0.3-1.1-0.4-1.6
	C530.3,172.3,530.6,172.3,530.9,172.3z"/>
<path class="st0" d="M536.9,167.3c0,0.6,0,1.1,0,1.7c-0.2,0-0.3,0.1-0.5,0.1c-0.1-0.5-0.3-1.1-0.4-1.6
	C536.3,167.3,536.6,167.3,536.9,167.3z"/>
<path class="st0" d="M302.2,155.9c0-0.6,0-1.1,0-1.7c0.2,0,0.3,0,0.5-0.1c0.1,0.6,0.2,1.1,0.4,1.7
	C302.8,155.9,302.5,155.9,302.2,155.9z"/>
<path class="st0" d="M110.2,74.3c0.6,0,1.1,0,1.7,0c0,0.2,0,0.3,0.1,0.5c-0.6,0.1-1.1,0.2-1.7,0.4C110.3,74.8,110.3,74.6,110.2,74.3
	z"/>
<path class="st0" d="M124.9,78.9c-0.6,0-1.1,0-1.7,0c0-0.2,0-0.3-0.1-0.5c0.6-0.1,1.1-0.2,1.7-0.4C124.8,78.4,124.9,78.6,124.9,78.9
	z"/>
<path class="st0" d="M421.2,135.3c0.6,0,1.1,0,1.7,0c0,0.2,0.1,0.3,0.1,0.5c-0.5,0.1-1.1,0.3-1.6,0.4
	C421.3,135.8,421.2,135.6,421.2,135.3z"/>
<path class="st0" d="M450.3,136.1c-0.1-0.6-0.1-1.3-0.2-1.9c0.2,0,0.4-0.1,0.6-0.1c0.1,0.7,0.3,1.3,0.4,2
	C450.9,136.1,450.6,136.1,450.3,136.1z"/>
<path class="st0" d="M119.9,79.9c-0.6,0-1.1,0-1.7,0c0-0.2,0-0.3-0.1-0.5c0.6-0.1,1.1-0.2,1.7-0.4C119.8,79.4,119.9,79.6,119.9,79.9
	z"/>
<path class="st0" d="M514.2,134.9c0-0.6,0-1.1,0-1.7c0.2,0,0.3,0,0.5-0.1c0.1,0.6,0.2,1.1,0.4,1.7
	C514.8,134.9,514.5,134.9,514.2,134.9z"/>
<path class="st0" d="M114.2,81.3c0.6,0,1.1,0,1.7,0c0,0.2,0.1,0.3,0.1,0.5c-0.5,0.1-1.1,0.3-1.6,0.4
	C114.3,81.8,114.3,81.6,114.2,81.3z"/>
<path class="st0" d="M182.5,143.5c-0.8,1.1-1.4,1.9-2.3,3.1c0-1.6,0-2.5,0-3.6C181,143.2,181.5,143.3,182.5,143.5z"/>
<path class="st0" d="M216.6,135.8c-0.5-0.3-1.1-0.7-2.1-1.3C217,134.3,217,134.3,216.6,135.8z"/>
<path class="st0" d="M284.8,87.1c0.1,0.6,0.1,1.3,0.2,1.9c-0.2,0-0.4,0.1-0.6,0.1c-0.1-0.7-0.3-1.3-0.4-2
	C284.3,87.1,284.5,87.1,284.8,87.1z"/>
<path class="st0" d="M218,164.1c0.7,0.1,1.3,0.1,1.9,0.1c0.1,0.2,0.3,0.4,0.4,0.6c-0.7,0.3-1.4,0.5-2,0.8
	C218.2,165.4,218.1,164.8,218,164.1z"/>
<path class="st0" d="M253.1,99.1c0-1,0-2,0-3c0.7,0.9,1.3,1.7,2.3,3C254.3,99.1,253.7,99.1,253.1,99.1z"/>
</svg>
