<?xml version="1.0" encoding="utf-8"?>
<!-- Generator: Adobe Illustrator 21.0.0, SVG Export Plug-In . SVG Version: 6.00 Build 0)  -->
<svg version="1.1" id="Layer_1" xmlns="http://www.w3.org/2000/svg" xmlns:xlink="http://www.w3.org/1999/xlink" x="0px" y="0px"
	 viewBox="0 0 485 254.8" style="enable-background:new 0 0 485 254.8;" xml:space="preserve">
<style type="text/css">
	.st0{fill:#FFFFFF;}
</style>
<path class="st0" d="M371,14.8c0.8,0,1.7,0,2.3,0c0.8-0.9,1.5-1.8,2.6-3c-0.2-0.5-0.6-1.4-1.1-2.4c0.8-0.4,1.5-0.7,2.4-1.1
	c-0.4-0.7-0.8-1.4-1.1-2c0.9-1.3,3.1-1.4,3.4-3.4c0.7,0,1.3,0,1.7,0c1.1-1.1,2-2,2.9-2.8c1.3,0.4,2.4,0.7,3.7,1.1
	c0.6,1.7,2.2,3.4,0.9,5.6c-0.3,0.5-0.6,1.1-0.6,1.7c-0.3,2.5-0.5,5-0.8,8.1c0.3,0.2,1,0.8,1.8,1.3c0,0.6,0,1.2,0,2.7
	c1-1.4,1.5-2.1,2-2.7c0.9-0.6,1.7-1.3,2.8-2c0.7,1.2,1.5,2.4,2,3.2c-0.4,2.7-0.7,5-1,7.3c0.2,0.1,0.5,0.2,0.7,0.2
	c0.4-0.8,0.9-1.5,1.4-2.4c-0.2-0.2-0.5-0.6-0.6-0.7c0.5-0.6,0.9-1.3,1.6-2.2c0.8,0.7,1.4,1.2,2.1,1.8c0,1.7,0,3.5,0,5.5
	c3.7,0.4,5.6-2.1,8-4.4c-0.3-2,0.5-3.5,3.1-3.8c-0.9-1-1.6-1.8-2.2-2.5c0.2-0.5,0.2-1,0.4-1.1c2.9-1.4,5.8-2.8,9.1-4.3
	c0.9,1.1,2,2.4,3.5,4.2c0-0.1,0,0.7,0,1.4c1.6,0.2,2,1.3,2.7,2.4c0.5,0.8,1.8,1.1,2.5,1.9c1,1.2,2,2.2,3.7,2.2c3,0,5.6-0.8,7.8-2.9
	c1.5,3.1,4,5.1,7.7,6.2c0.4,2.1,0.8,4.4,1.1,6.4c-1,1.6-1.7,2.8-2.5,4.3c-0.4-0.3-0.8-0.6-0.9-0.7c-2.1,0.7-4.1,1.4-6,2.1
	c-0.1-0.2-0.1-0.3-0.2-0.5c-0.7,0.7-1.4,1.4-2.2,2c-2.3,0-4.6,0-6.9,0c-1.4,2.1-3,4.3-3.4,6.6c-0.3,2.2,0.6,4.7,1,7.1
	c0.5,0.2,1.1,0.4,1.5,0.6c-0.3,1-0.6,2-0.9,3.1c0.9,0.7,1.6,1.3,2.2,1.8c0,2.9,0.4,5.5-1.5,7.8c-0.3-0.7-0.6-1.3-1-2.1
	c-1.9,2.7,3.3,5.7-0.8,7.8c2.1,2.6,1.2,5.3,1.3,7.8c0.1,2.8,0.2,5.7,0,8.5c-0.2,2.5-0.7,5-1,7.7c0.9,0.6,1.9,1.2,3.1,2
	c0,0.5,0.1,1.4-0.2,2c-0.8,1.4-1.8,2.6-2.7,3.7c1.3,1.7,2.6,3.3,4,5.3c-0.8,0.3-1.5,0.6-2.2,0.8c0.2,0.2,0,0-0.6-0.6
	c-0.3,2.5-2.1,4.5-1.1,7.2c0.7-0.4,1.2-0.7,1.7-1c0.6,1.4,2,2.7,0.1,4.4c0.9,1.4,1.8,2.8,2.8,4.2c-0.4,0.1-0.9,0.3-1.7,0.6
	c0,1.7,0,3.5,0,5.5c0.7,1.1,1.6,2.4,2.6,3.8c-0.7,0.4-1.5,1-2.6,1.6c-0.1,1.7-0.8,3.5,1.7,4.9c0.9,0,2.4,0,3.9,0
	c-0.9,1.8-1.6,3.4-2.5,5.2c-0.6-0.4-1.3-0.7-2.6-1.5c0.6,1.5,1,2.4,1.4,3.5c0.6-0.5,0.9-0.8,1.6-1.3c1,1.6,1.9,3.1,3.1,5
	c0.2,0,0.9,0,1.9,0c0.1-0.9,0.3-1.8,0.4-2.8c0.5,0,1,0,1.9,0c-0.2,1.3-0.4,2.4-0.6,3.7c0.2,0.7,0.4,1.8,0.6,2.3
	c-1.5,3-6.6,1.8-6,6.2c0.8,0.7,1.5,1.3,2.7,2.4c-1.7,0.3-2.6,0.4-3.2,0.5c1.4,1.4,2.8,2.8,4.4,4.4c0.5-0.3,1.5-1.1,2.5-1.8
	c1.5,2.3-1,2.6-1.2,3.9c1.8,1.2,3.8,2.4,5.8,3.8c-0.4,0.4-0.6,0.8-0.9,1.1c0.7,0.8,1.4,1.6,2.4,2.9c-1,0.4-1.6,0.7-2.4,1
	c0.3,1.4,0.6,2.9,0.9,4.4c0.3,1.5-0.7,3.3,1.1,4.9c-0.9,0.4-1.9,0.8-2.1,0.9c0,2,0,3,0,4c-0.3,0.2-0.5,0.5-0.8,0.5
	c-2.8,0.6-2.8,0.6-3.3,3.5c-1,0.6-1.9,1.2-2.9,1.7c0.4,0.6,0.7,1.1,1.2,2c-1.8,1.7-3.2,3.9-6,5.2c-0.1-1.1-0.2-1.9-0.3-2.9
	c1-0.6,2-1.3,2.9-1.9c0-1.8,0-3.6,0-5.7c-0.6,0.5-0.9,0.7-1.2,1c-1-1.3-2.1-2.6-3.1-3.9c-2,1-3.7,1.8-5.5,2.7c1.8,0.7,2.4,3,4.6,3.2
	c0.2-0.4,0.5-1.1,1.1-2.3c1.3,1.2,2.4,2.3,4,3.8c-4.2,1-7.8,1.9-11.2,2.8c-0.7,1.5-1.5,3-2.3,4.7c0.3,0.3,0.9,0.9,1.5,1.5
	c-0.8,2.4-2.8,1.5-4.4,1.8c-1.4,2.2,0.4,3.2,1.7,4.6c-2.2,0.5-5,0.4-4,3.9c-2.4,0.9-4.5,1.7-6.9,2.6c-0.5,2.6-0.1,6.1-4.8,7
	c-0.4-1-0.9-2.3-1.3-3.6c-0.9-0.5-1.7-2,0.1-3.2c-1.1-0.7-2.2-1.4-3.1-2c0-0.7,0-1.3,0-2.1c1.3-0.9,2.6-1.7,4.2-2.8
	c-0.5-1.4-0.9-2.9-1.4-4.2c-0.8-0.3-1.3-0.5-2.1-0.7c0.3-0.7,0.5-1.3,0.8-1.9c-0.2-1.3-0.5-2.7-0.8-4.2c0.8-0.3,1.4-0.5,2-0.8
	c0-0.1,0-0.3,0-0.3c-0.1-0.1-0.3-0.3-0.4-0.3c-2,0.8-3.8-2.7-5.8-0.2c-0.1,0.1-0.2,0-0.8,0.1c0.2-0.8,0.4-1.5,0.7-2.6
	c-0.8-0.9-0.6-3.3-3.2-3.3c-0.4-1.2-0.8-2.3-1.2-3.6c0.1-0.1,0.5-0.5,0.8-0.8c-0.8-3.2-2-6.3-2.1-9.7c0-4.4,0-6.5,1.1-9.3
	c-0.3-0.4-0.7-0.7-1-1.1c0.3-0.4,0.8-0.7,0.9-1.1c0.2-0.6,0-1.3,0-2c-0.6-0.2-1.2-0.4-1.6-0.6c0.3-1.5,0.6-3,0.9-4.5
	c0.5-0.2,1-0.4,1.8-0.6c-0.8-2.1-1.5-4.1-2.4-6.7c1.2,0.3,2,0.5,2.9,0.8c0,0,0.3-0.2,0.3-0.4c0.1-2.6,2.4-5.1,0.2-7.8
	c0.3-0.6,0.7-1.2,1.1-1.8c-0.5-0.6-0.8-0.9-1-1c0.3-2.2-0.1-4.7,1-6.2c1.6-2.1,0.1-3.3-0.3-4.9c0.3-0.4,0.6-0.7,1-1.1
	c-0.3-0.3-0.6-0.7-0.9-1c0.7-0.8,1.5-1.6,2.6-2.8c-1.1-0.5-1.8-0.7-2.4-1c-1-2.7,0.3-5.1,1.1-7.4c0.4-1.1,0.8-2.2,0.6-3.2
	c-0.9-5.5-0.1-7,1.8-10.4c0.1-0.3,0.2-0.6,0.3-1.3c-2.6-2.7,0.8-5.8-0.2-8.7c1.1-0.7,2.2-1.4,3.3-2.1c-1.6-1-1.1-2.4-1.1-3.7
	c0-2.4,0.9-6.2,2-8.3c-0.3-0.4-0.8-0.7-0.9-1.1c-0.2-0.6,0-1.3,0-2c0.7-0.3,1.3-0.6,2.2-1c-0.8-0.3-1.4-0.5-2.4-0.9
	c0.9-0.4,1.5-0.6,2.4-1c-2.1-3.5-1.1-6.8,0.7-10.1c-1.8-1.5-0.1-3.9-1-5.5c-1.1-1.9,0.2-3.5,0.2-5.2c0-1.7,1.2-3.4,2.2-5.9
	c-0.9,0.5-1.3,0.7-1.8,1c-2.1-1.1-1.6-3-0.7-4.8c0.2,1,0.4,2,0.6,3c0.2,0,0.3,0,0.5-0.1c0-1.1,0-2.2,0-3.5c-0.7-0.6-1.5-1.3-2.9-2.4
	c-0.2,0-1.1,0.2-1.9,0.5c-0.6,0.1-1.2,0.5-1.8,0.4c-6.6-0.5-12,0-17.2,1.6c0.6,1.6,1.1,3.2,1.7,4.9c-0.4,1.7-0.9,3.6-1.5,5.7
	c1.6,1.8,0.8,4.4,0.8,6.7c0,2.4,0.2,4.7-0.8,7.1c-0.8,2.1-0.2,4.6-1,7.1c-0.8,2.2,0.4,5.1-0.4,7.3c-0.7,2-1,4-1.4,6.3
	c0.2,0.2,0.8,0.8,1.6,1.5c-1,0.7-1.9,1.3-3.2,2.1c0.8,1.8,1.6,3.4,0.3,5.6c-0.9,1.6-1.8,3.8-1.2,6c0.1,0.5,0.2,1.2,0,1.4
	c-2.7,3-1,7.2-2.9,10.3c0.5,2.2-1.1,4.1-0.9,6.1c0.2,2.2-1,4-1.1,6.1c0,0.5,0,1,0,1.5c-0.7,0.7-1.3,1.4-1.8,1.9
	c0.4,0.8,0.7,1.5,1,2.4c-0.8,0.2-1.3,0.3-2,0.4c0.2,0.7,0.7,1.5,0.7,2.3c-0.1,0.9-0.6,1.7-0.9,2.7c0.3,0.7,0.7,1.5,1.2,2.5
	c-0.8,0.3-1.4,0.5-2,0.7c-0.5,2.5-1,4.9-1.6,8.1c1.6-0.6,2.5-1,3.3-1.3c1.3,1.2,3.5,2.2,3.8,3.6c0.5,2.1,1.9,3.7,2.1,5.6
	c0.3,1.9,0,3.9-0.8,5.8c-0.1-1.6-0.2-3.2-0.3-4.7c-0.2,0-0.3-0.1-0.5-0.1c-0.2,0.7-0.3,1.4-0.7,3c-0.5,0.4-1.6,1.4-2.4,2.1
	c0.2,1,0.4,1.8,0.7,3.1c-0.9-0.8-1.2-1.1-1.4-1.3c-2.2,0.4-4.2,0.8-6.4,1.2c0,0.2-0.2,0.7-0.3,1.3c-1,0.5-2.1,1-3.3,1.6
	c-1.4-0.7-2.8-1.4-4.6-2.2c-1.9,0-4.4-0.3-6.6,1c-2.1,1.2-4-0.6-5.7-0.1c-2.1-1.8-4-3.2-5.7-4.9c-0.6-0.6-0.8-1.6-1.3-2.6
	c0.8-1.7,1.6-3.4,2.6-5.5c1.4-0.1,3.1,0,4.7-1c1.2-0.8,2.7-2,4.3-0.2c1.1-0.7,2.2-1.5,3.5-2.4c0.4-1.4,0.9-3,1.3-4.7
	c-1.1-0.8-2.1-1.4-3.5-2.4c0.5-1,1.1-1.9,1.3-2.9c0.2-1.1,0.1-2.2,0.1-3.2c0.8-0.2,1.3-0.3,1.7-0.4c0.3-2.3,0.6-4.7,1-7.6
	c0,0.1-0.3-0.5-0.7-1c1-1.2-0.3-2.9,0.1-3.6c0.9-1.3,0.8-2.4,0.9-3.7c0-0.3,0-0.7,0-1c0.1-1.3-0.2-2.9,0.4-3.8
	c1.1-1.4-1.4-1.7-0.5-2.9c0.5-0.7,0.7-1.7,1-2.5c-0.3-0.5-0.6-1-1-1.6c0.6-0.1,1.1-0.2,1.6-0.3c1.5-1.7-0.7-2.9-0.6-4.7
	c0.7,0.2,1.2,0.4,1.8,0.6c-1.1-5.4-1.1-5.8,0.3-9.1c-0.3-0.3-0.6-0.7-1.1-1.3c1.1-0.2,2.1-0.4,3.4-0.7c-0.5-1-0.9-1.9-1.6-3.2
	c0.8-0.3,1.9-0.6,2.9-0.9c-0.3-0.3-0.6-0.6-0.9-0.9c0.1-0.1,0.2-0.3,0.2-0.4c0-1.3,0-2.6,0-3.8c-0.7-0.7-1.3-1.3-2.1-2.1
	c0.6-0.2,1.2-0.4,1.7-0.6c1.5-2.4-0.7-4.5-0.6-6.8c1.5-1.3,2.4-2.7,1.8-4.8c-0.9,0.3-1.6,0.6-2.4,0.9c1.7-2.4,1.7-5.1,1.6-7.8
	c1-0.6,2-1.2,3.1-1.8c-0.5-2.5,0.9-5.4-0.9-7.9c1.6-0.3,1.9-2,2.6-3c-1.2-0.9-2.5-1.9-3.7-2.7c0.5-1,0.9-1.8,1.3-2.6
	c0.4,0.2,0.9,0.4,1.7,0.8c0-2.2-0.6-4.5,0.2-6c1-1.8-1-3.2,0-4.7c1-1.5,2.3-3,1.6-5.4c-4.2,1.3-8.4,1.7-12.6,2.3
	c-4.2,0.5-8.4,0.7-12.6,0.8c-0.6-0.9-1-2.2-1.8-2.6c-1.5-0.7-3.2-1.1-4.9-1.3c-0.8-0.1-1.7,0.5-2.7,0.9c1.5,2.6,0.5,5.2,1,7.8
	c0.4,0.1,0.8,0.2,1.5,0.4c-0.1,0,0.2,0,0.2,0.2c0.1,0.8,0.2,1.6,0.3,2.2c-0.8,0.8-1.3,1.3-1.9,1.9c0,2.5,0,4.9,0,7.3
	c3.2,0.7,3.9,1.2,3.9,2.8c0,1.6-0.7,2.1-3.8,2.8c-1.1,2.8,1.1,3.5,3.1,4.3c-0.9,1.4-1.6,2.4-2.4,3.4c-0.5,0-1,0-1.5,0
	c-0.4,0.8-0.8,1.6-1.2,2.3c0.8,2,1.6,4,2.4,6c-0.3,1-0.6,2.2-1,3.4c-0.4,0.2-1,0.4-1.6,0.6c0,1.1,0,2.2,0,3.3
	c1.3,0.4,2.5,0.8,3.5,1.1c0.5,2.2,0.9,3.9-1.1,5.2c-0.3-0.3-0.7-0.6-1.3-1.1c-0.1,1.4-0.2,2.6-0.2,3.9c1.1,0.7,2.1,1.4,3.5,2.3
	c-1.2,0.8-2,1.3-2.9,1.9c-0.4-0.2-0.8-0.5-1.7-0.9c0.5,1.8,0.8,3.2,1.2,4.8c-0.8,0.2-1.2,0.3-1.8,0.4c-0.5,2-1,4.2-1.5,6.4
	c0.8,0.4,1.5,0.7,1.8,0.8c-1.3,1.6-2.6,3.1-3.9,4.7c0.5,0.6,0.8,1,1.3,1.6c-0.6,0.4-1.3,0.9-2,1.4c0,2.7,0,5.3,0,8.3
	c-0.8-0.6-1.1-0.9-2-1.7c0.3,1.4,0.5,2.3,0.8,3.6c-0.7,1.4-1.7,3.3,0.2,5.4c-0.9,0.6-1.8,1.2-3,2c-1.4,3.8-2.9,8-4.4,12.2
	c-1,2.8-0.9,4,0.3,6.9c-1.3,0.9-2.6,1.8-3.9,2.6c0,1.8,0,3.4,0,5.6c-0.9,0.7-2,1.6-2.8,2.2c0.4,1.3,0.7,2.2,1,3c-1,2-3.8,2-3.9,4.7
	c0.9,0.1,2.2,0.2,3.5,0.4c0.1,0.5,0.2,0.9,0.4,1.8c1.1,0,2.4,0,4.1,0c-0.4,2.9-0.7,5.4-1,7.9c-1.6,0-2.7,0-3.6,0
	c-0.8,0.8-1.4,1.4-1.9,1.9c-2.8,0.9-5.9-0.9-8.5,1.2c-1.4-0.3-2.5-2-4.4-0.5c-1.7,1.4-4,2.1-6.1,1.3c-1.9,2.1-4.1,2.3-6.4,2.2
	c-2.4-0.1-4.8-0.2-7.1,1c-1.4,0.7-2.9,1-4.6,1.1c-2.7,0.1-5.4,1.7-8-0.7c-0.4,1.2-0.6,1.8-0.9,2.5c-0.7,0.1-1.5,0.2-2.5,0.3
	c-0.1,0.4-0.2,0.9-0.4,1.6c-0.5,0-1.2,0-2,0c0.5-0.6,0.8-0.9,1.1-1.3c-1.6-1.3-2.8,0.6-3.9,0.4c-1.3-0.3-2.1,2-3.3,0.4
	c-1.2,0.8-2.3,1.1-3.5-0.3c-0.1,0.7-0.2,1.2-0.4,2c-1.2,0-2.4,0-3.6,0c-0.1,1.1-0.2,1.9-0.4,3.3c-0.8-1.3-1.4-2.1-2-3.1
	c-3.1,2.1-6.1,0.3-9.2-0.2c-0.8-0.9-1.6-1.9-2.6-3.2c0.6-2.2,1.4-4.9,2.2-7.8c0.6,0.4,0.9,0.7,1.5,1.2c0.2-0.6,0.3-1.1,0.4-1.6
	c-2-0.5-3.8-1-5.6-1.4c-0.4,0.8-0.8,1.6-1.3,2.6c0.2,0.2,0.5,0.6,0.9,0.9c-1.1,1.5-2.2,3.1-3.2,4.5c-2,0-3.6,0-5.4,0
	c-0.1-0.4-0.3-0.9-0.5-1.5c-1.1-0.6-2.5-1.3-4-2c0.2-0.9,0.4-1.8,0.7-3.3c-0.3-0.6-0.9-1.7-1.3-2.4c0.3-2.4,0.6-4.4,0.9-6.4
	c-0.3-0.1-0.5-0.1-0.8-0.2c-0.2,0.4-0.4,0.9-0.6,1.4c-5.8,1.8-5.8,1.8-9.4,0.4c-0.2,0.6-0.4,1.1-0.6,1.9c-1.2,0-2.4,0-3.7,0
	c0-0.2-0.1-0.3-0.1-0.5c1-0.2,1.9-0.4,3.2-0.7c-0.4-0.8-0.7-1.5-1.1-2.2c0.5-0.6,1.2-1.3,1.8-1.9c-0.3-0.3-0.5-0.5-0.7-0.7
	c0.3-1,0.6-2,1-3.2c-0.9-0.6-1.8-1.1-2.5-1.6c0.5-1.5,1.2-2.5,1.2-3.5c-0.1-1.9-0.2-4-1-5.5c-1-1.9-0.7-3.7-0.9-5.5
	c-0.7-0.7-1.3-1.3-2.1-2.1c0.7-0.2,1.2-0.4,1.7-0.5c1.3-2.1-0.5-3.1-1.6-4.4c0.3-0.3,0.6-0.6,1-1c-0.6-0.2-1.1-0.4-1.7-0.6
	c-0.4-1.4-2-2.7-1.1-4.9c0.7,1.1,1.4,2.1,2.1,3.1c0.6-1,1.1-1.9,1.6-2.8c-1-2.4-1.2-4.4-1-7.2c0.2-2.3-0.8-4.3-1.8-6.3
	c-0.2-0.4-0.2-0.9-0.2-1.3c0.7-0.3,1.2-0.5,2-0.8c0-1.4,0.5-3.2-0.1-4.3c-0.7-1.2,0.2-2.4-0.5-3.5c-0.3-0.4-0.1-1.1,0-1.7
	c0.5-2.5,1.1-5,1.6-7.5c0.1-0.3-0.6-0.7-0.9-1.1c0.3-0.3,0.6-0.7,0.8-0.9c-0.6-1.1-1.2-2.2-1.8-3.4c0.9,0,1.7,0,2.7,0
	c0.6-3.2-0.7-6.7,2.6-8.9c-0.5-0.7-0.8-1-1-1.4c-0.2-0.4-0.3-0.9-0.5-1.5c-0.3-0.1-0.7-0.3-1.1-0.3c-1.5,0-2.9,0.1-3.7-2.2
	c1.4,0.5,2.4,0.9,3.8,1.3c0-2,0-3.8,0-5.7c0.7-0.2,1.3-0.4,2-0.6c0.3-1.5,0.8-3.1-1.1-4.7c1.1-0.1,1.9-0.1,2.7-0.2
	c1.2-2.8,4.4-4.7,3.5-8.4c1.2-0.6,2.2-1.1,3.4-1.7c3.7,1,6.1,3.4,7.7,7c-0.5,2.6,1,5.8-0.9,8.7c2,2.7,0.6,5.7,0.9,8.6
	c0.2,2-0.1,4,0.1,6c0.2,2.2-0.8,4.6,0.9,6.6c0.3,0.4-0.1,1.4,0.1,1.9c0.6,1.6-1.2,2.9-0.2,4.8c0.7,1.3,0.3,3.3,0.1,4.9
	c-0.2,2.2,0.4,4.1,2,6.1c-0.7,0.4-1.6,0.8-2.5,1.3c0.9,2.3,1.6,4,2.5,6.5c0,0.4,0,1.7,0,3c1.3,1.5,1.3,1.5,4.9,1.3
	c0.1-0.8,0.1-1.6,0.2-2.4c0.5-0.2,1.1-0.4,1.7-0.6c0.6-1.1,0.2-2.1-2.1-4.9c0.8-1.8,1.7-3.7,3.1-6.6c0.1,3.2,0.3,5.5,0.4,8.5
	c0.8-1.6,1.2-2.5,1.6-3.3c-0.3-0.3-0.5-0.5-0.8-0.8c0.7-0.3,1.3-0.6,2-1c-0.3-0.3-0.5-0.5-0.7-0.7c0.3-1.5,0.6-2.9,1-4.7
	c0.7-0.1,1.6-0.2,2.5-0.4c1-2-1-1.5-1.6-2.2c0-0.8,0-1.6,0-2.7c0.6,0.4,0.9,0.6,1.2,0.9c2.9-2.8,6.1-5.4,7.7-10
	c-1.5,0.5-2.5,0.9-4.3,1.6c0.7-1.1,1.1-1.5,1.3-2c0.1-0.6,0-1.3,0-1.6c2.2-1.4,4.2-2.7,6-3.8c0-1.7,0-3.1,0-4.8
	c1.2-0.4,2.5-0.9,4.1-1.6c-0.6-1.3-1.2-2.6-1.8-4c0.8-1.1,1.7-2.4,2.8-3.6c0.9-1,2.1-1.7,3-2.7c1-1.2,1.9-2.5,2.9-3.8
	c-1.9-1.7-0.1-4-1.5-6.7c1.2,0.6,1.6,0.8,2.3,1.2c1.3-1,2.8-2.2,4.4-3.4c0-0.9,0-1.9,0-3c-1.3-0.4-2.6-0.9-4.2-1.4
	c-1.2,0.5-2.7,1.2-4.3,1.9c-1.6-1.6-3,0.5-4.7,0.1c-1.7-0.4-3.6-0.1-5.4-0.1c-0.3,0.7-0.5,1.3-0.8,1.9c-0.4,0-0.9,0-1.6,0
	c0-0.9-0.1-1.7-0.2-2.8c-1.9,0-3.8,0-5.8,0c1-2.5-1.2-4.7,0.7-7.4c1.7-0.5,4.1-1.1,6.7-1.9c0.5,0.8,1.1,1.7,1.7,2.8
	c3.2-2.9,6.9-0.6,10-2.3c1.6-0.9,3.7-0.7,5.5,0.6c1.3-3.3-3.6-5.6-1.1-9.2c0.2,1.2,0.4,2.2,0.6,3.2c0.2,0,0.4,0,0.6,0
	c0-0.8,0.1-1.5,0.2-2.4c1.2-0.8,2.4-1.6,3.6-2.5c0.3,0.3,0.5,0.5,0.8,0.8c0.6-0.9,1.1-1.8,1.6-2.7c1.2,0.3,2.4,0.6,3.5,0.9
	c0.3-0.8,0.5-1.4,0.8-2.1c0.4,0.3,0.7,0.6,1.2,1c0.8-1.2,1.7-2.5,2.7-4c1.4,1.3,4.2,1,3.7,4c1.1-0.5,2-0.9,3.1-1.5
	c-0.9-0.7-1.7-1.2-2.9-2.1c-0.4-1.3-0.9-3.1-1.5-5.2c1-0.1,1.8-0.2,2.9-0.3c0.1-3.3,4-3.9,4.9-6.7c0.5,0.3,1,0.7,1.7,1.1
	c0.8-1.2,1.5-2.2,2.4-3.6c0.3,0.9,0.4,1.5,0.6,2.3c0.4-0.2,0.7-0.4,1-0.6c1.7,0.9,4,1.4,5.2,0.4c1.5-1.2,1.9,0.9,2.8,0.2
	c0.7-0.5,1.3-1.3,2.3-0.1c0.3,0.3,2.1-0.1,2.5-0.7c1.2-1.8,3-1,4.7-1.4c0.4-0.7,0.9-1.5,1.6-2.6c0.9-0.3,2.2-0.7,3.6-1.2
	c0.9,0.3,1.9,0.6,2.9,0.9c0.1,0.6,0.2,1.3,0.3,1.9c0.2,0,0.4,0,0.7-0.1c0-0.6,0-1.2,0-1.8c0.7-0.4,1.3-0.9,1.9-1.3
	c0.1-1.2,0.1-2.3,0.2-3.1c1.6-0.8,3-1.5,4.7-2.3c0,0,0.3,0.3,0.7,0.6c0.3-0.3,0.6-0.5,0.9-0.8c0.8,0.4,1.6,0.8,2.5,1.2
	c0.2,0.9,0.3,1.8,0.5,3c0.9-0.5,1.6-0.9,2.7-1.6c-0.5,1.5-0.8,2.5-1.3,4.2c1.3-0.6,2.3-1,3.1-1.4c0.2-0.7,0.3-1.1,0.4-1.5
	c0.9,0,1.7,0,2.9,0c-0.3,0.9-0.5,1.6-0.8,2.4c0.6,1.5,1.3,3.3,2.1,5.3c0.8,0,1.9,0,3.2,0c0.1-0.3,0.2-0.8,0.5-1.5
	c-1.1-0.2-2.1-0.4-3.2-0.7c0.4-0.7,0.7-1.2,1-1.7c5.3,0,10.5,0,15.7,0c-0.3-1.5-0.5-2.7-0.7-3.9c0.2,0,0.4-0.1,0.5-0.1
	c0.3,0.7,0.6,1.4,0.9,2c0.4,0,0.7,0,1.2,0c0.2-0.6,0.4-1.1,0.6-1.9c2.7,0,5.5,0,8.2,0c1-2.8,2.7-4.4,5.5-4.4
	C371,15.8,371,15.3,371,14.8z M285,66.7c0.6,0.1,1.2,0.1,2.7,0.2c-1.1,1.1-1.8,1.8-2.3,2.3c1.4,0.6,3.1,1.4,4.8,2
	c-0.8,3.2-3.2,2.1-5,2.5c-0.5,2.9,0.3,5.1,2.4,6.9c0.3-0.3,0.6-0.6,0.8-0.8c0.8,1,1.7,2.1,2.5,3.2c0.1,0.1-0.2,0.4-0.4,0.8
	c-0.4-0.2-0.9-0.3-1.3-0.5c-0.5-0.2-1.1-0.5-2.1-1c0,1.7,0,3,0,4.3c-1.6,0.1-2.8,0.2-4.1,0.4c0,0.2,0,0.4,0,0.6
	c1.3,0.1,2.7,0.3,4,0.4c-2,0.9-3.9,1-6.3-0.1c0.7,1.5,1.2,2.7,1.6,3.7c1.6-0.6,3-1.1,4.1-1.5c0.9,0.3,1.6,0.5,3.1,1.1
	c-0.8-1.1-1.1-1.4-1.5-2.1c1.5-1.1,3.1-2.2,4.6-3.3c0.6,0.7,1,1.2,1.4,1.7c0.4,0.5,0.8,1,1,1.4c1.8-2.6,3.5-4.9,5.1-7.2
	c2.4,0,4.5,0,7,0c-0.3-1.4-0.5-2.5-0.8-3.8c0.4-0.4,1-0.9,1.5-1.3c0.8,0.5,1.3,0.7,1.8,1c0.5-0.6,1.1-1.1,1.9-2.1
	c-2.4-1.3-4.4-2.4-7.2-3.9c2.4,0,4,0,6,0c-0.6-1.3-1-2.1-1.4-2.9c1-1.4,2.4-2.7,2.8-4.3c0.4-1.7-0.3-3.6-0.5-5.4
	c0.9-0.2,1.8-0.3,2.7-0.5c0-0.9,0.1-1.6,0-2.2c-0.1-0.4-0.6-0.8-0.8-0.9c0.5-0.9,0.7-1.3,0.9-1.6c-0.6-1.1-1.1-2-1.5-2.8
	c-0.6-0.2-1.1-0.4-2.3-0.9c1.8-0.3,2.7-0.4,3.4-0.5c0.5-1.1,0.8-1.8,1.2-2.8c-0.7-0.5-1.3-1-1.9-1.4c1.2-1.4,2.2-2.6,3.3-3.8
	c-0.7-0.8-1.2-1.2-1.7-1.8c-1.4,0-2.8,0-4.4,0c-0.1,0.5-0.2,1-0.3,1.5c-1.4,0.5-2.9,0.9-4.3,1.4c-0.4-0.3-0.7-0.7-1.1-1
	c-1.4,1.5-3.1,2.1-5.2,2c-1.7-0.1-3.3,0.5-5.2,0.2c-2.1-0.4-4.4,0.5-6.6,0.9c-0.2,0-0.3,0.4-0.7,1c1.4,0.5,2.7,1,3.8,1.3
	c0.6,1,1.1,1.8,1.5,2.5c1.4,0.2,2.6,0.3,3.6,0.4c0,2.1,0,3.9,0,5.7c-1.3,0.1-2.4,0.1-3.4,0.2c-1.3,1.7-2.5,3.3-3.7,4.9
	c-0.6-0.5-0.9-0.7-1.4-1.1c-0.1,0.7-0.2,1.2-0.3,1.8c1.1,0.2,2.1,0.5,3.2,0.7c-0.2,0.7-0.4,1.2-0.6,1.7c-0.4-0.4-0.8-0.7-1.1-1
	c-1.2,1.3-4.1,1.1-3.5,4.7C285,67.3,285,67,285,66.7c-0.7,0.1-1.4,0.2-2,0.3c0,0.2,0.1,0.4,0.1,0.6C283.7,67.7,284.4,67.6,285,66.7z
	 M237,182.8c-1.2,0-1.3,1-0.9,1.5c0.7,0.8,1.6,0.9,1.9-0.5c2.2,0,4.3,0,6.1,0c2.7-1.4,5.2-2.7,7.8-4c2.6,0.1,5.4,0.3,7.6-2
	c0.3,0.3,0.7,0.6,1,1c2.2-2.5,4.9,0.4,6.9-0.6c0.7,0.9,1.3,1.7,2,2.6c0.2-0.1,0.4-0.3,0.6-0.4c-0.3-0.8-0.6-1.5-0.9-2.3
	c0.4-0.4,0.8-0.8,1.2-1.2c1.5-0.1,3.1-0.2,4.9-0.3c-0.6-0.7-0.9-1-1.1-1.2c0.5-0.9,0.9-1.8,1.2-2.4c1.5,0,3,0,4.6,0
	c-1.4,1.7,0.3,2.5,1.1,3.8c0.7-2.7,1.5-5.3,2.2-7.8c2.5-0.4,4.9-0.8,7.2-1.2c0.1,0,0.2-0.4,0.3-0.8c-1.3-0.1-2.6-0.2-4.5-0.3
	c1.3-0.6,2-0.9,2.2-1.1c0.6-2.1,1.1-3.9,1.6-5.6c1-0.1,1.8-0.1,2.7-0.2c0-1,0-1.7,0-2.5c-1.1-0.5-2.2-1-3.6-1.7
	c-0.1,0.9-0.2,1.4-0.2,1.9c0.8,0.3,1.3,0.5,1.8,0.8c-0.1,0.2-0.1,0.4-0.2,0.6c-1.2-0.1-2.5-0.1-3.7-0.2c0-1.7,0-3,0-4.7
	c0.6-0.5,1.4-1.1,2.1-1.6c-0.1-1-0.2-1.8-0.2-2.8c-0.8,0.3-1.2,0.4-1.7,0.5c-0.5,0.2-1.1,0.6-2,1.1c-0.1-1.6-0.2-2.9-0.3-4.3
	c-0.9-0.1-1.7-0.2-2.5-0.2c-0.6-1.5-1.3-2.7-3.1-3.2c-0.8-0.2-2.1-1.3-0.7-2.8c1.9-0.1,2.5,3.5,5.1,1.8c0.1-0.3,0.3-0.9,0.5-1.4
	c0.9-0.2,1.8-0.3,2.7-0.5c0-0.9,0-1.5,0-2.2c-0.9-0.4-1.8-0.9-2.7-1.3c-0.3,0.3-0.6,0.6-0.8,0.8c-0.5-0.4-1-0.7-1.3-1
	c-2.1,1.2-4.1,2.2-5.9,3.3c-1.8,1.1-4.4,1.1-5.3,3.7c0.2,2.2-0.5,4.6,0.7,6.9c-0.5,0.4-0.9,0.8-1.4,1.3c-0.9-0.5-1.7-0.9-2.5-1.3
	c-0.5,0.5-0.9,0.8-1.3,1.2c-0.6-2-1.2-4-2.2-7.2c-0.2,3.1-0.3,5.1-0.5,7.9c-0.6-1.5-0.9-2.1-1.2-3c-0.6,1-1.2,1.8-1.9,2.9
	c1.4,0.2,2.3,0.3,3.6,0.5c-0.5,1.9-1,3.7-1.4,5.4c-1.4,0.7-2.7,1.3-4.6,2.3c1.4,0.9,2.2,1.4,3.7,2.3c-2.1,0.8-3.5,1.3-4.9,1.7
	c-1.6,0.5-2.3-0.9-3.3-1.7c-0.6-0.5-1.3-0.8-2.1-1.1c-0.2-0.1-0.5,0.2-0.9,0.3c0.4,1,0.9,1.9,1.2,2.7c-0.5,0.7-0.7,1.1-1.5,2.1
	c2-0.7,3.1-1,4.1-1.4c-0.6,1.2-1.5,1.6-2.4,2c-1.6,0.7-3.6,1-4.2,2.7c-0.9,2.4-3.1,3.5-4.5,5.3c-0.6-0.4-0.9-0.7-1.3-1
	c-0.6,1.9-1.2,3.5-1.6,4.8c-0.7,0.3-1.1,0.5-1.6,0.7c0.4,0.6,0.7,0.9,0.8,1.1C239,182.5,237.2,180.8,237,182.8z M416.8,207.4
	c-2.7,0.6-4.3,1.1-5.9,1.3c-2,0.3-2,0.3-1.5,2.7C411.4,210.2,414.7,211.4,416.8,207.4z M416.4,92.8c0.8-2,1.5-3.9,2.1-5.4
	c-0.9-1-1.6-1.7-2.3-2.4c-0.4,2.7-0.7,5.1-1.1,7.7C415.7,92.7,416.1,92.7,416.4,92.8z M418.2,17c0,1.5,0,3,0,4.5
	c1,0.4,1.8,0.7,2.6,1.1c0.5-0.7,1-1.3,1.3-1.7C420.6,19.5,419.4,18.3,418.2,17z M384.3,14.4c-1.2-0.6-2.1-1-3.1-1.5c0,2,0,3.9,0,5.9
	c0.7-0.1,1.1-0.1,1.9-0.2c-0.4-0.5-0.6-0.8-0.9-1.2C382.8,16.5,383.5,15.5,384.3,14.4z M435.6,172.7c-0.6,0.6-1,1-1.4,1.4
	c0.4,0.8,0.8,1.7,1.1,2.4c1.2-0.4,2.5-0.8,4.4-1.4c-1.7-0.3-2.6-0.4-3.4-0.5C436,173.9,435.8,173.3,435.6,172.7z M428.7,158.9
	c0.6,0.9,2.6,2.7,3.1,2.8c0-0.9,0-1.8,0-2.8C430.9,158.9,430.1,158.9,428.7,158.9z M427,125.9c-0.1-1.5-0.2-2.7-0.3-4.3
	c-1.7,1.4-2.4,2.5-1.4,4.1C425.7,125.7,426,125.7,427,125.9z M208.1,94.2c0-0.4-0.1-0.8-0.1-1.2c-1,0-2,0-3.1,0
	c0.1,0.7,0.2,1.2,0.4,1.9C206.3,94.7,207.2,94.5,208.1,94.2z M404.8,160.1c0.6,0.6,1.1,1.1,1.6,1.6c0.8-0.8,2.2-1.2,1-3.1
	C406.6,159.1,405.7,159.6,404.8,160.1z M404.2,162.5c0,1.3,0,2.3,0,3.7c0.9-1.1,1.4-1.8,2.2-2.8C405.6,163,405.1,162.8,404.2,162.5z
	 M304.6,82.3c-1.1,0.8-1.8,1.4-3.1,2.3c1.6,0,2.5,0,3.6,0C304.9,83.8,304.8,83.3,304.6,82.3z M302.3,85.2c-2,1-3.1,1.5-4.5,2.2
	C299.8,88.1,301.1,87.9,302.3,85.2z M407.9,138c1-0.2,1.5-0.3,2-0.4c-0.5-1-0.9-1.9-1.7-3.4C408.1,135.7,408,136.5,407.9,138z
	 M266.1,143.4c-0.1-0.2-0.2-0.5-0.3-0.7c-0.9,0.1-1.8,0.2-3,0.4c0.7,0.7,1.2,1.2,1.4,1.4C264.9,144.2,265.5,143.8,266.1,143.4z
	 M416.4,215.9c0.2-0.2,0.4-0.4,0.7-0.7c-0.1-0.4-0.2-0.9-0.3-1.5c-0.7,0.1-1.3,0.2-2.5,0.5C415.3,215,415.8,215.5,416.4,215.9z
	 M299.5,98.1c-2.1,0.8-2.1,0.8-2.2,3C298.1,100,298.7,99.2,299.5,98.1z M443.8,186.9c-0.3,0-0.6,0.1-0.9,0.1
	c0.1,0.9,0.3,1.7,0.4,2.6c0.2,0,0.3,0,0.5-0.1C443.8,188.7,443.8,187.8,443.8,186.9z M392,31c0,0.2,0,0.3,0,0.5c1,0,2,0,3,0
	c0-0.2,0-0.3,0-0.5C394,31,393,31,392,31z M287.2,133.9c0.4,0.8,0.8,1.4,1.6,2.9c0-1.8,0-2.3,0-2.9
	C288.2,133.9,287.8,133.9,287.2,133.9z M407.2,150.6c0.3,0,0.6-0.1,0.9-0.1c-0.1-0.9-0.3-1.7-0.4-2.6c-0.2,0-0.3,0-0.5,0.1
	C407.2,148.9,407.2,149.7,407.2,150.6z M227.8,139.2c-2.7-0.2-2.7-0.2-2.5,0.9C225.6,139.9,226.4,139.7,227.8,139.2z M403.7,175.2
	c0-0.1,0-0.8,0-1.6c-0.7,0.1-1.1,0.2-1.3,0.2C402.9,174.4,403.4,174.9,403.7,175.2z M413.2,20.9c0.4,0.8,0.8,1.4,1.6,2.9
	c0-1.8,0-2.3,0-2.9C414.2,20.9,413.8,20.9,413.2,20.9z M362,55c0,0.2,0,0.3,0,0.5c0.7,0,1.3,0,2,0c0-0.2,0-0.3,0-0.5
	C363.3,55,362.7,55,362,55z M407.8,50.6c0-0.3-0.1-0.6-0.1-0.9c-0.5,0.1-1.1,0.3-1.6,0.4c0,0.2,0.1,0.3,0.1,0.5
	C406.7,50.6,407.3,50.6,407.8,50.6z M381.7,32.8c-0.2,0-0.3,0-0.5,0c0,0.7,0,1.3,0,2c0.2,0,0.3,0,0.5,0
	C381.7,34.1,381.7,33.5,381.7,32.8z M311.8,26.9c-0.3,0-0.6,0.1-0.9,0.1c0.1,0.5,0.3,1.1,0.4,1.6c0.2,0,0.3-0.1,0.5-0.1
	C311.8,28.1,311.8,27.5,311.8,26.9z M412.7,149.8c-0.2,0-0.3,0-0.5,0c0,0.7,0,1.3,0,2c0.2,0,0.3,0,0.5,0
	C412.7,151.1,412.7,150.5,412.7,149.8z M408.2,163.6c0.3,0,0.6,0,0.9,0c-0.1-0.6-0.2-1.1-0.4-1.7c-0.2,0-0.3,0-0.5,0.1
	C408.2,162.5,408.2,163.1,408.2,163.6z M208.2,142.6c0.3,0,0.6,0,0.9,0c-0.1-0.6-0.2-1.1-0.4-1.7c-0.2,0-0.3,0-0.5,0.1
	C208.2,141.5,208.2,142.1,208.2,142.6z M222.8,140c-0.3,0-0.6,0-0.9,0c0.1,0.6,0.2,1.1,0.4,1.7c0.2,0,0.3,0,0.5-0.1
	C222.8,141.1,222.8,140.5,222.8,140z M233.8,183.6c0-0.3-0.1-0.6-0.1-0.9c-0.5,0.1-1.1,0.3-1.6,0.4c0,0.2,0.1,0.3,0.1,0.5
	C232.7,183.6,233.3,183.6,233.8,183.6z M442.2,185.8c0.2,0,0.3,0,0.5,0c0-0.7,0-1.3,0-2c-0.2,0-0.3,0-0.5,0
	C442.2,184.5,442.2,185.1,442.2,185.8z M413.2,115.6c0.3,0,0.6-0.1,0.9-0.1c-0.1-0.5-0.3-1.1-0.4-1.6c-0.2,0-0.3,0.1-0.5,0.1
	C413.2,114.5,413.2,115.1,413.2,115.6z M417.8,94.6c0-0.3,0-0.6-0.1-0.9c-0.6,0.1-1.1,0.2-1.7,0.4c0,0.2,0,0.3,0.1,0.5
	C416.7,94.6,417.3,94.6,417.8,94.6z M407.8,203.6c0-0.3,0-0.6-0.1-0.9c-0.6,0.1-1.1,0.2-1.7,0.4c0,0.2,0,0.3,0.1,0.5
	C406.7,203.6,407.3,203.6,407.8,203.6z M285,92c0,0.2,0,0.3,0,0.5c0.7,0,1.3,0,2,0c0-0.2,0-0.3,0-0.5C286.3,92,285.7,92,285,92z
	 M281.8,80c-0.3,0-0.6,0-0.9,0c0.1,0.6,0.2,1.1,0.4,1.7c0.2,0,0.3,0,0.5-0.1C281.8,81.1,281.8,80.5,281.8,80z"/>
<path class="st0" d="M70,229.8c-0.8-0.1-1.5-0.3-2.6-0.5c-0.2,0.3-0.6,1.1-0.6,1c-2.4,0.5-3.6,0.8-4.8,1c-0.9,0.2-1.8,0.3-2.7,0.2
	c-1-0.1-3.8,0.5-4.5,0.9c-1.1,0.6-0.4,2.5-2.4,2.6c-0.8,0-1.5,1.8-2.5,3.3c-0.5-1.2-0.8-2.1-1.3-3.3c-0.7-0.4-1.8-0.9-3.1-1.5
	c-0.3,0.8-0.5,1.4-0.7,2c-1.2-0.4-2.5-0.7-4-1.2c0.5-1,0.9-2,1.3-2.9c-0.4-0.3-0.6-0.6-0.9-0.6c-2.3-0.2-4.8,0.5-7-0.8
	c-0.1,0-0.5,0.4-1,1c-0.1-2-0.2-3.8-0.3-4.9c1.2-2.4,2.2-4.3,3.2-6.3c1.4,0,2.7,0,3.6,0c5.5-2.9,11.3-3.4,17-4.7c0,0.9,0,2.1,0,3.5
	c-1.2,0.1-2.3,0.1-3.5,0.2c-0.2,0.6-0.4,1.2-0.8,2.1c-0.4-0.9-0.6-1.5-1.1-2.4c-0.9,1.4-1.6,2.6-2.7,4.4c3-0.8,5.5-1.5,8-2.2
	c0.7-0.2,1.5-0.7,2-1.2c2.6-2.9,5-5.8,7.7-9c-1.5-1.2-3.2-1.2-4.1-0.4c-1.8,1.5-3,0-4.5-0.5c-0.8,0.7-1.6,1.4-2.2,1.9
	c-3-0.7-5.7-1.2-8.4-1.9c-1-0.2-2.1-0.7-3.1-1c0-0.5,0-1,0-1.6c3-0.5,3.4-3.2,4.3-5.6c0.4,0.4,0.6,0.6,1.2,1.2c2-3,5.3-3.8,8.6-5
	c0.7,0.3,1.5,0.7,2.4,1.2c0.3-0.8,0.5-1.4,0.7-2c3.2,1.4,3.6-1.8,5.4-3.3c2,0.7,4.3,2.4,6.3-0.4c-0.3-0.3-0.6-0.7-0.9-1
	c4.2-1.3,4.3-1.4,3.3-4.4c1.1-1.1,2.1-2.1,2.5-2.5c0-2.2,0-3.3,0-4.4c-0.2,0-0.3-0.1-0.5-0.1c-0.2,0.9-0.4,1.8-0.7,2.9
	c-0.4-0.3-0.7-0.6-1.1-0.9c-0.3,0.2-0.6,0.5-1,0.8c-0.8-1.4-1.7-2.8-2.5-4.3c-0.2-0.4,0.1-0.9,0.1-1.8c1,0.9,1.8,1.5,2.8,2.4
	c0.6-0.5,1.2-1,2-1.6c-1.9-1.6-1-4.1-2-6.2c0.7-0.3,1.4-0.6,2-1c0-0.6,0-1,0-1.5c0.3-0.3,0.7-0.7,1-1c0.6,0,1.2,0,2.2,0
	c-0.5,0.7-0.8,1-1.2,1.6c1,0.8,2,1.6,2.8,2.5c0.7,0.8,1.5,1.5,2.4,2.2c0.7-0.7,1.3-1.3,1-1c-0.3-1.1-0.6-1.9-0.8-2.7
	c-1.1,0.7-1.8,1.1-2.6,1.5c0.2-1.6-0.4-3.2,1.7-3.9c0.8,0.5,1.9,1,2.9,1.6c3.2-0.7,4-3.8,5.9-6.1c-1-0.5-1.6-0.8-3-1.4
	c1.8-0.2,3-0.3,4.6-0.4c-0.3-0.4-0.6-0.7-0.7-1c-0.2-0.6-0.2-1.2-0.3-1.8c2.1-0.7,0.4-2.6,1.1-3.6c1.4-0.5,2.7-1,4.7-1.8
	c-2-1.7-3.5-2.9-5.3-4.3c0.9-1,1.6-1.8,2.8-3.1c0.7,1.3,1.1,2.2,1.9,3.6c0.8-1.3,1.2-1.9,1.8-2.9c0-1.6-1.8-1.8-3.4-2.5
	c0.5-0.9,0.9-1.4,1.3-2.1c-0.6-0.5-1.2-1.1-1.8-1.6c-0.6,0.3-1,0.5-1.1,0.7c-0.2,1.5,0.7,3.4-1.8,4.4c-0.3-0.3-0.8-0.9-1.5-1.6
	c0.4-0.6,0.7-1.1,1.1-1.6c0.3-0.4,0.7-0.7,1.3-1.3c-1.1-0.6-2.1-1.2-3.3-1.8c-1.1,1.2-1.9,2.1-2.7,3c0.5,0.5,0.9,0.9,1.4,1.4
	c0.4-0.3,0.7-0.6,1.2-1.1c0.2,0.5,0.3,1,0.5,1.6c-0.6,0.2-1.2,0.4-2.1,0.7c0,1.1,0,2.3,0,3.4c-3.5,1-6.1-0.6-9-1.6
	c1.2-2.5,2.2-4.7,3.2-6.8c-0.8-1.2-1.6-2.3-2.3-3.3c1.1-0.9,2.2-1.8,3.3-2.7c-0.6-1-1-1.6-1.3-2.3c0.7-1.1,1.5-2.1,2.1-3.2
	c0.5-0.9,0.8-1.9,1.2-3c0.7,0.6,1,0.9,1.3,1.2c1.3-1.3,2.6-2.6,3.9-3.9c2.4,1.2,4.3,0.9,9.7-1.6c0-0.7,0-1.5,0-2.5
	c0.6,0.5,0.9,0.8,1.4,1.1c1.6-3.2-0.5-6.2-0.7-9.2c-0.2-2.9-1.3-5.6-2.1-9.2c2.3,1.1,3.9,1.8,5.8,2.6c0.2-0.7,0.4-1.2,0.7-2
	c1,0,2.1,0,3.5,0c0.6-1.4,1.2-2.8,1.8-4.1c0.2,0.2,0.5,0.5,1,1c0.2-0.8,0.4-1.6,0.7-2.3c0.3,0.2,0.6,0.4,0.9,0.6
	c-0.4-0.6-0.8-1.3-1-1.7c0.3-0.8,0.6-1.5,1.1-2.4c-1.8,0-3.3,0-4.9,0c-0.8-1.3-1.6-2.5-2.4-3.7c0.2-0.2,0.4-0.4,0.6-0.7
	c-0.3-1.1-0.5-2.2-0.8-3.4c0.8-0.3,1.4-0.5,1.6-0.6c-0.9-0.9-1.9-1.9-2.7-2.7c0.8-2.6-0.8-4.9,1.3-6.6c-0.6-0.6-1.2-1.2-1.3-1.3
	c-0.3-1.5-0.5-2.5-0.7-3.6c0.3-0.3,0.6-0.7,0.9-1.1c-0.6-0.5-1.3-1-1.9-1.5c0-0.3,0-0.7,0-1c-0.6-0.8-1.1-1.6-1.8-2.6
	c0.1-0.1,0.4-0.5,0.9-1.1c-0.9-1.8-1.9-3.9-2.9-6c0.1-0.1,0.3-0.3,0.8-0.8c-0.4-0.4-0.7-1-1.1-1.1c-1.8-0.5-3.6-1.3-5.4-1.3
	c-5.2-0.2-10.3,0-15.5-0.1c-1.4,0-2.8-0.5-4.4-0.8c-0.2,0.1-0.7,0.4-1.6,0.9c0-1.5,0-2.7,0-3.8c-0.8-0.2-1.3-0.3-1.5-0.4
	c0.2-1.8,0.4-3.6,0.7-5.8c-2.4-0.8-4.6-1.6-7-2.4c-0.6-2.2-2.9-4.2-2.3-6.5c2.1-1.8,3.8-3.3,5.6-4.9c1.2-0.2,2.6-0.4,4.3-0.7
	c0,0,0.2,0.5,0.4,1.3c3-0.4,6.1-0.7,9.5-1.1c0.2-0.1,0.7-0.5,1.5-1.1c0.9,1.1,1.6,2.1,2.3,3.1c2-1.6,4.5-0.2,6.7-0.9
	c0.8,0.8,1.5,1.5,1.9,1.8c2-0.5,3.8-0.9,5.8-1.3c0,0.1,0.1-0.4,0.2-1.1c0.6,0.3,1.2,0.6,2,0.9c0.4-0.3,0.9-0.7,1.2-0.9
	c1.8,0.7,3.5,1.3,6,2.2c-0.7-1.1-1-1.5-1.4-2c0.5-0.1,0.9-0.3,1.4-0.4c0.5,1,0.9,1.9,1.4,2.8c-0.6,0.2-1.2,0.4-1.9,0.7
	c0.9,0.5,1.7,0.9,2.5,1.3c1.9-1.4,4.1-0.4,5.4-0.6c1.7,1.4,2.9,2.2,4.1,3.2c0.7-0.5,1.2-0.9,1.7-1.3c0.5,2.5,0.9,5,1.4,7.5
	c-1.2,1.1-2.4,2.3-3.6,3.5c-0.5,0-1.2,0-2,0c-0.2,0.5-0.4,1.1-0.6,1.9c-1.1,0-2.2,0-3.4,0c-0.2,0.6-0.3,1-0.5,1.6
	c-0.8,0.4-1.9,0.3-2.8,0.4c-1.8,0.2-0.6,2.3-1.9,2.4c1.3,2.4,0.6,5.7,3.3,7.6c0.3-0.2,0.6-0.5,0.9-0.7c1.1,0.8,2.3,1.6,3.3,2.3
	c-0.3,0.9-0.5,1.9-0.8,3c0.9,0.4,1.5,0.7,2.2,1.1c-0.4,2.4-0.8,4.7-1.2,6.7c2.1,3.1,4,5.8,4.2,9.5c0.7,0.7,1.6,1.5,2.6,2.3
	c0.9,0.1,2,0.1,3.2,0.2c0,0.6,0.1,1.1,0.1,1.7c-1,0.1-1.9,0.3-3.7,0.5c1.3,0.5,1.7,0.6,2.5,0.9c0,1.9,0,4,0,6.1
	c2.6,2,3.6,4.5,3.3,7.5c1.1-0.4,1.9-0.7,3.1-1.2c-0.6,1.1-0.8,1.5-1.4,2.7c1.5-0.6,2.2-1,3.2-1.4c0.6,0.3,1.4,0.7,2.4,1.2
	c0.6-0.6,1.2-1.2,1.9-1.8c-0.4-0.7-0.7-1.2-1.1-1.9c0.1-0.1,0.2-0.5,0.3-0.5c2.2-0.6,3.7-2.3,5.5-3.6c0-0.6,0-1.3,0-2
	c0.6-0.2,1.1-0.4,1.9-0.6c0.1-0.7,0.1-1.5,0.2-2.4c3.3-0.5,3.7-4.1,5.8-5.9c-0.3-0.3-0.6-0.7-1.2-1.4c1.6,0,2.9,0,4.1,0
	c0.1-1.1,0.2-1.9,0.3-2.9c0.8,0,1.6,0,2.3,0c0.6-1.5,1.3-2.7,1.5-4.1c0.3-1.6,2.5-2,2.2-4.2c-0.2-1.2,0.9-2.6,1.4-3.9
	c0.3,0.3,0.7,0.6,1.3,1.2c0.1-1,0.1-1.8,0.2-2.9c0.4-0.1,0.9-0.3,1.7-0.6c-0.3-3.8,3.2-5.7,4.8-8.7c1-2,2.8-3.5,4.1-5.3
	c0.5-0.7,0.8-1.6,1.2-2.5c0.6-1.3,1.2-2.5,1.7-3.6c1.4-0.6,2.8-0.8,3.6-1.6c1.1-1,2.2-1.2,3.6-1.7c-1.1-0.3-2.1-0.6-3.7-1
	c0.1-0.1-0.2,0.3-0.5,0.3c-4.3,0-8.2,2.3-12.6,2.3c-1.9,0-3.4,2.5-5.8,1.1c-0.4-0.2-1.3,0.8-2.1,0.8c-2,0.1-4,0-6,0
	c-0.8-1.2-1.5-2.4-2.3-3.7c-0.1-3.5,3.6-4.3,5.2-6.7c1.7-2.6,5.7-0.9,8.1-2.7c0.5,0.4,0.8,0.8,1,0.9c0.8-0.3,1.5-0.7,2.3-0.8
	c1.7-0.2,3.6,0.5,5.1-1c1.6,1.2,3.2,0.1,4.7-0.1c1.6-0.2,3.2-1,4.8-1.6c0.3-0.1,0.6-0.3,0.9-0.3c1.6-0.2,3.3-0.4,4.9-0.5
	c0.2,0,0.5,0.3,1,0.7c1.5-0.9,3.1-1.9,4.7-3c0.2,0.2,0.5,0.5,1.1,1c1.2-0.6,2.4-1.2,3.8-1.9c0.3,0.2,0.8,0.5,1.5,0.9
	c1.8-2.1,4.3-3.9,4.1-7.6c1.3,0.6,2.1,1.1,3.1,1.6c2.7-2.1,1.7-6.6,6.1-8.4c1.5-0.4,2.2,1.7,3.6,2.6c0,1.5,0,2.8,0,3.7
	c-1.5,2.9-2.8,5.5-4.6,9c2.7-1.5,4.8-1,6.9-1.2c2.2-0.1,4.1,0.6,5.9,2.8c-0.3,1.7-0.7,3.8-1,5.7c-3.3,0.7-6.3,1.2-9.2,2
	c-1.9,0.5-3.7,1-5.4-0.3c-1.3,0.7-2.7,1.3-4.3,2.2c-1.2,1.7-1.5,4.5-4.2,6.5c0.1,1.8-0.9,3.8-2.2,5.9c-1.4,2.4-3.5,4.4-4,7.3
	c-0.1,0.4-0.4,0.9-0.8,1.2c-1.2,1.1-1.7,2.8-3.2,3.6c0.9,2.2-1.9,2.7-2.1,4.6c-0.2,1.6-1.5,3-2.4,4.5c-0.6,1.1-1.5,2-2.1,3.1
	c-0.4,0.7-0.4,1.5-0.6,2.6c-3,2.2-4,6-5.8,9.3c-1,1.7-1.2,4.1-3.3,4.3c-1.8,3.6-3.5,6.9-5.6,11.1c-0.5,0.5-1.8,1.8-3.1,3.1
	c0,0.6,0,1.3,0,1.9c-2.3,1-3.1,2.8-3.1,4.5c-1.8,2.1-3.6,3.7-4.8,5.6c-0.8,1.4-1.1,2.8-2.7,3.9c-1.1,0.7-0.6,3.4-1.5,4.7
	c-0.7,1.1-2.4,2.1-2.7,3.3c-0.5,2-1.9,2.3-3.3,3.1c0.3,1.1,0.7,2.2,1.3,4.1c-1-0.9-1.4-1.3-1.8-1.6c-0.4,0.5-0.9,0.9-1.4,1.4
	c0.8,2.4,1.2,2.5,2.5,3.8c3.2,3.1,7.5,4.5,11.4,7.1c-2.1,1.8-4.1,3.4-6.2,5.1c0.4,3.8,4.3,6.1,4.2,9.2c1.9,3.1,3.4,5.7,5,8.2
	c1.6,2.5,3.4,4.9,4.8,7.5c1.3,2.4,2.6,4.9,3.4,7.6c0.8,2.8,2.7,5.2,4.1,7.6c5.3,2.8,10.7,1,16.5,0.2c0.3-0.4,0.8-1.3,1.3-1.9
	c2.2,0.5,3.9,0.9,5.6,1.2c1.8,0.3,3.6,0.1,5.3,0.5c1.5,0.4,2.9,1.2,4.8,0.9c0.4,0.7,0.9,1.8,1.5,3c-0.5,1.2-1.1,2.5-1.4,3.4
	c-2.3,2.3-3.9,2.5-6.8,1.1c-0.4,0.3-0.9,1.1-1.3,1c-3.6-0.5-7,1.1-10.6,1.2c-1.9,0-3.7,0.7-5.6,0.9c-2,0.2-4.1-0.3-6,0.1
	c-2.4,0.5-4.6,1.6-7.9,2.9c-0.6,0-2.2,0-3.9,0c-0.7,0.7-1.4,1.4-2.1,2c-0.4-0.3-0.7-0.7-0.7-0.6c-6,0.7-11.5,1.4-17,2
	c-1-1.3-1.7-2.4-2.6-3.6c0.3-0.7,0.7-1.9,1.2-3.3c1.1-0.8,2.4-1.9,3.9-3c-1.9-0.4-2.5-2.1-4-2.9c-1.7-0.9-3.2-0.1-5-0.7
	c0-1,0-2.1,0-3.8c1.1-0.7,2.7-1.7,4.8-3c-0.1,0.2,0.1-0.4,0.5-1.3c3.7,1.1,7.1,3.5,11.4,1.9c-0.3-0.8-0.6-1.9-0.9-3
	c0.3-0.4,0.7-0.7,1-1.1c-2,0.1-2.4-1.7-2.7-2.8c-2.3-7-2.2-7.1-5.2-10.1c0-0.9,0-1.9,0-2.5c-2.1-1.9-4-3.6-6-5.3c0-1.1,0-2,0-2.9
	c-0.8-1.1-1.6-2.1-2.3-3.1c0.1-0.2,0.3-0.4,0.4-0.6c0.5,0.2,1,0.4,1.9,0.8c-0.5-1.7-1-3.1-1.5-4.8c-1.2,0-2.7,0-4.3,0
	c-0.5,0.5-1.2,1.2-2.1,2c-0.8-0.4-1.6-0.8-2.7-1.3c-0.8,0.9-1.7,1.8-2.5,2.8c0.3,0.3,0.5,0.5,0.6,0.6c-1.6,1.6-3.2,3.2-4.7,4.7
	c0,1.1,0.2,1.8,0,2.3c-0.6,1.3-1.2,3.2-2.3,3.4c-3.2,0.9-3.7,4.7-6.6,5.8c0,2,0,4.2,0,5.5c1.6,2,2.9,3.4,4.3,5.2
	c-1.2,0.9-2.3,1.7-3.7,2.7c-0.6-0.1-2-0.7-3.3-0.6c-1.2,0.1-2.3,0.9-3.4,1.4c0,0.6,0,1.3,0,2.3c-0.9,0.1-1.8,0.2-2.6,0.2
	c-0.3-0.8-0.5-1.4-0.8-2.3c-0.7,1-1.3,1.8-1.8,2.5c-0.5-0.5-0.7-0.7-1-1c-2.1,0.3-1.8,1.8-1.8,3c-1.4,1-2.6,1.9-3.9,2.9
	c1.5,2.9,3.3,1.6,5.1,0.8c0.6,0.4,1.1,0.7,1.5,1c1.3-0.3,2.5-0.7,3.7-0.9c1-0.2,2.1-0.4,3.5-0.6c-0.1-0.1,0.3,0.3,0.6,0.6
	c0.4-0.3,0.7-0.7,1.2-1c2.2,1,4.4,1.9,6.7,0.3c1.4,0.7,2.9,1.4,4.5,2.2c0.6,2.9-1.5,4.6-3.4,6.6c-1.6,0-3.3-0.1-4.8,1.6
	c-0.9,0.9-2.8,0.9-5.1,1.3c0.2-0.2-0.4,0.4-1.1,1.1c-0.9,0-1.9,0-3.1,0c-0.5,0.7-1.2,1.5-1.4,1.8c-1.9,0.3-3.3,0.5-4.8,0.8
	c0-0.1-0.3-0.7-0.5-1.4c-1.4,0-2.9,0-4.3,0c0,0.1,0.1,0.3,0.1,0.4c-2.1,0.6-4.1,1.2-6.3,1.9c-0.1,0.2-0.2,0.7-0.3,1.2
	c-0.9,0.9-0.7-0.9-0.8-0.9c-2,0.6-3.3,1.1-4.8,1.6c-0.6,1.4-1.2,2.7-3.6,2.8c-1.5,0-2.2,3-4.4,1.7c-0.2,0.9-0.4,1.4-0.5,2
	c-1.4,0-2.8,0-4.2,0c-1.4,1.6-2.6,3.1-2.6,5.2C70.7,229.1,70.3,229.5,70,229.8z M76.5,172.6c0.7,0.8,0.9,1.2,1.1,1.1
	c0.5-0.1,0.9-0.3,1.4-0.4c-0.6-0.2-1.2-0.3,0.7,0.5c-0.1,0-0.3,0-0.4,0c0,1.3,0,2.6,0,3.9c0.1,0,0.3,0,0.4,0
	C79.7,176.4,79.7,175.1,76.5,172.6z M86,209.2c-2-0.8-3.7-2.2-5.8-1.1c-0.2,0.6-0.4,1.1-0.6,1.8c-1.4-1.6-3-1.1-4.8-0.9
	c-0.6,2.2-1.2,4.4-1.8,6.7c2.2,0,4,0,5.9,0c0.1-0.5,0.2-1,0.3-1.5C81.1,212.4,86.2,214.4,86,209.2z M154.6,204.1
	c0.7-0.4,1.3-1,2-1.2c0.8-0.3,1.8-0.4,2.6-0.8c0.3-0.1,0.5-0.6,0.8-0.9c-1.3-0.5-2.4-1-3.5-1.4c-0.4,0.8-0.6,1.4-1.2,2.7
	c-0.8-1.2-1.3-2.1-1.8-2.9c-0.8,0.4-1.2,0.6-1.9,1C152.6,201.7,153.5,202.8,154.6,204.1z M97,134.8c0.8,1.6,1.4,3,2.1,4.4
	c-0.5,0.5-0.8,0.9-1.2,1.3c0.7,0.2,1.2,0.4,2.1,0.7c0,1.1,0,2.3,0,3.6c0.1,0,0.3,0,0.4,0c0.5-1.4,1-2.8,1.7-4.7
	C98.8,140,101.4,134.8,97,134.8z M83.6,203.3c0-1,3.7,0.2,2-2.4c-2.4-0.5-4.7-0.2-6.7,1.5c0.1,0.8,0.1,1.5,0.2,3
	c0.7-1.4,1-2.1,1.3-2.9C81.5,202.9,82.4,203.1,83.6,203.3z M89.2,210.4c2.8,0.7,5,0,6.9-2.3C93,206.9,91.4,209.9,89.2,210.4z
	 M116.9,179.8c-1.4,2.4-3,3.2-4.3,5.6c2.1-1,3.2-1.5,4.3-2C116.9,182.6,116.9,181.8,116.9,179.8z M68.6,206.3c0.2-1,0.3-1.5,0.4-2.3
	c-1.1,0-2,0-3.6,0C66.8,204.9,67.5,205.5,68.6,206.3z M105.1,35.7c1.5-0.5,2.7-0.9,4.8-1.7c-2.3,0-3.5,0-4.8,0
	C105.1,34.6,105.1,35,105.1,35.7z M85.2,146.8c0.8-1.5,1.2-2.2,1.1-2c-0.2-0.6-0.4-1.4-0.6-2.1c-0.1,0.1-0.3,0.2-0.4,0.3
	C85.2,143.9,85.2,144.7,85.2,146.8z M85.2,147c0,0.3,0,0.6,0.1,0.9c0.6-0.1,1.1-0.2,1.7-0.4c0-0.2,0-0.3-0.1-0.5
	C86.3,147,85.7,147,85.2,147z M162.8,207c-0.3,0-0.6,0-0.9,0.1c0.1,0.6,0.2,1.1,0.4,1.7c0.2,0,0.3,0,0.5-0.1
	C162.8,208.1,162.8,207.5,162.8,207z"/>
<path class="st0" d="M468.6,212c2.6-0.6,5.3-1.2,8.3-1.9c0,0.6,0.1,1.5,0.2,2.6c-1.7,0-3.2,0-4.4,0c-1.5,1.2-2.2,2.3-1.2,4.2
	c0.6-0.3,1.3-0.6,2.2-0.9c0.4,0.5,1,1.2,1.6,1.8c-1.7,1.4-3.2,2.5-4.8,3.7c-0.9-0.7-1.9-1.4-2.9,0.2c-0.4-0.3-0.7-0.7-1.2-1.1
	c-0.1,0.5-0.5,1.1-0.3,1.4c1,1.6,2.2,3.1,3.4,4.7c0.4-0.3,0.7-0.6,1.2-1c0.2,0.4,0.4,0.8,0.6,1.3c-1.8,1-3.5,1.9-5.6,3.1
	c1.7,2,1,4.8,3.1,6.7c-0.8-0.3-1.5-0.6-2.4-0.9c-0.1,0.4-0.4,1-0.6,1.7c-0.7,0.1-1.5,0.2-2.6,0.3c0.7,1.1,1.4,2.2,2.2,3.5
	c-2.6,1-2.9-1.6-4.2-1.8c0-1.3,0-2.4,0-3.4c1.4-0.6,2.7-1.1,4-1.6c0-0.2-0.1-0.4-0.1-0.7c-1.2-0.1-2.5-0.2-3.9-0.4c0-1.5,0-3,0-4.4
	c0.6-0.4,1.4-0.8,2.5-1.4c-2.3-1.5-4.1-2.6-5.5-3.6c-2.1,0.3-3.9,0.5-5.8,0.8c-0.2,0.5-0.4,1.1-0.7,2.1c-0.6-0.9-1-1.6-1.1-1.9
	c-1,1-1.9,1.9-2.7,2.7c-0.2-0.2-0.5-0.5-0.7-0.7c0,0.7,0,1.3,0,2c1.3,0.7,2.6,1.3,4.3,2.2c-2.6,0.6-4.9,1.2-7.4,1.7
	c0.4,1.8,0.8,3.5,1.2,5.4c-0.8,0.1-1.3,0.1-2.2,0.2c0.6-3.2-0.8-5.8-2.1-8.4c0.3-0.3,0.4-0.5,0.6-0.5c0.7-0.1,1.3-0.1,2.1-0.1
	c0.5-1,1.1-2.1,1.7-3.4c-0.8-0.4-1.4-0.7-2.3-1.1c1.3-3.2,3.2-6,5.4-8.4c0.8,0.4,1.5,0.7,2.7,1.3c0-1.7,0-3,0-4.2
	c0.2,0,0.4-0.1,0.7-0.1c0.2,0.5,0.3,0.9,0.6,1.7c1.8-0.6,3.7-1.3,6.2-2.2c-1-0.4-1.5-0.5-2.2-0.8c-0.1-0.7-0.3-1.6-0.5-2.8
	c-0.4,0.3-0.7,0.5-1.4,1.1c-0.2-0.5-0.4-1.1-0.6-1.8c0.1-0.1,0.9-0.5,1.2-0.7c0-2.6,0-4.4,0-5.7c1,1,2.2,2.2,3.4,3.4
	c0.2-0.2,0.4-0.4,0.7-0.6c0,1.3,0,2.7,0,4.3c0.5-0.2,0.8-0.4,1.1-0.5C463.4,208.1,466.2,209.1,468.6,212z M466.8,216.6
	c0.1-0.3,0.3-0.6,0.4-0.9c-1.9-1-3.8-2-5.7-2.9c-0.5-0.2-1.3-0.1-1.9,0c-0.1,0-0.2,0.2-0.8,0.7c0.4,1,0.9,2.3,1.3,3.2
	C462.6,216.6,464.7,216.6,466.8,216.6z M456.8,220.7c0-1.3,0-2.5,0-3.8c-0.6,0-1-0.1-1.5-0.1C454.6,218.6,454.9,219.8,456.8,220.7z
	 M460.8,220.6c0-0.3-0.1-0.6-0.1-0.9c-0.5,0.1-1.1,0.3-1.6,0.4c0,0.2,0.1,0.3,0.1,0.5C459.7,220.6,460.3,220.6,460.8,220.6z"/>
<path class="st0" d="M475.1,189.8c0.2,0.2,0.8,1.2,1.3,2c0.6,0,0.9,0.1,0.9,0c0.6-0.9,1.2-1.8,1.8-2.8c1.5,0,2.9,0,4.5,0
	c0.3,0.3,0.8,0.8,1.4,1.4c-1.5,1.1-3.1,2.2-4.8,3.4c-0.7,0-1.7,0-3.1,0c-0.8,0.9-1.7,2.1-2.8,3.4c-0.9-0.6-1.5-1-2.3-1.5
	c-1.3,0.7-2.6,1.5-4.1,2.4c0.4,0.5,0.6,0.8,0.9,1.2c-2.3,2.1-1.6-2.6-3.6-1.4c1.3-3.2,0.3-6.9,3.1-9.9
	C470.5,187.7,472.8,187.3,475.1,189.8z"/>
<path class="st0" d="M428.5,221c0.4-0.8,0.7-1.5,1.1-2.4c3.7,1.4,4.3,5.7,7.5,7.6c-2.1,1.5-3.9,0.2-5.6-0.5
	c-0.3,0.8-0.6,1.4-0.7,1.8c-1.5-0.7-2.9-1.5-4.6-2.3c0-1.1,0-2.5,0-4.2C426.9,221,427.7,221,428.5,221z"/>
<path class="st0" d="M467,205.8c0.7-0.9,1.5-1.8,2.2-2.7c1.1,0.3,2.2,0.6,3.2,0.8c0.8-0.8,1.4-1.4,2.1-2.1c0.4,0.4,0.9,0.8,1.3,1.2
	c-0.3,0.8-0.6,1.5-0.9,2.4c1.7-0.3,3.2-0.6,5.6-1.1c-0.8,1.1-1.2,1.4-1.4,1.8c-0.2,0.4-0.2,0.9-0.2,1c-1.9-0.2-3.7-0.4-5.4-0.6
	c-0.8,2.1-1.8,3.7-3.9,4.3c-0.4-0.8-0.7-1.5-1-2.1c-0.5,0.3-1.1,0.6-1.6,0.9C467,208.5,467,207.1,467,205.8z"/>
<path class="st0" d="M80.9,137.5c-0.8,1.1-1.3,2.4-2.2,2.9c-1,0.6-1.8,1-2,2.2c-2.4,0.7-4.6,0-7-1.5c1.9-0.9,3.6-1.8,5.7-2.8
	c-1.1-0.4-1.7-0.6-2.8-1c0.8-0.3,1.3-0.5,2-0.7c0.1-0.3,0.3-0.9,0.5-1.4c1.8-0.4,3.6-0.8,5.7-1.3c-0.4,0.8-0.6,1.4-1,2.1
	C80.3,136.4,80.7,137.1,80.9,137.5z"/>
<path class="st0" d="M77.5,156.5c-1.6,0.1-2.6,0.2-4.1,0.4c-0.6-1-1.4-2-2.4-3.5c0-0.2,0-1.2,0-2.7c1.1,0.3,2.5,0.2,3,0.8
	C75.3,152.8,76.2,154.5,77.5,156.5z"/>
<path class="st0" d="M78,168.8c-0.3,0.3-0.7,0.7-1,1c-3.6-0.3-3.6-0.3-3.9-3.6c0.1-0.1,0.2-0.3,0.3-0.3c0.6,0,1.3,0,2.1,0
	c0.5-0.6,1.2-1.4,1.8-2.1c0.6,0.6,1,1,1.5,1.5c-0.3,0.3-0.6,0.7-0.9,1c0.3,0.3,0.6,0.7,0.9,0.9C78.6,167.7,78.3,168.3,78,168.8z"/>
<path class="st0" d="M74.2,148.4c0-1.5,0-3,0-4.9c1.1,0.6,1.9,1,2.5,1.4c0.4,2.1,0.8,3.9,1.2,5.9C76.5,149.8,75.3,149,74.2,148.4z"
	/>
<path class="st0" d="M401.6,232.1c1.1,1,1.8,1.6,2.5,2.3c-0.3,0.9-0.5,1.6-0.7,2.4c-0.2,0.6-0.5,1.1-0.8,1.8
	c-0.9-0.4-1.8-0.9-2.7-1.3C400.4,235.8,400.9,234.3,401.6,232.1z"/>
<path class="st0" d="M44.1,209.6c-1.2,0.1-2.3,0.2-3.6,0.3c-0.7-0.8-1.6-1.8-2.6-3c1.1-0.5,2.2-1,3.2-1.4
	C42.2,207,43.1,208.2,44.1,209.6z"/>
<path class="st0" d="M465.4,178.4c0.5,1.4,0.9,2.7,1.4,4c-1.4,0.3-3,0.7-4.5,1C462.6,181.7,462.6,181.7,465.4,178.4z"/>
<path class="st0" d="M455.1,193.9c1.3,0,2.4,0,3.7,0c0.6,2,0.1,3.4-2.2,4C456.1,196.7,455.7,195.4,455.1,193.9z"/>
<path class="st0" d="M82.6,156.7c-4.4-0.3-4.5-0.3-4.3-3.8C81.1,152.3,80.6,155.4,82.6,156.7z"/>
<path class="st0" d="M367.6,15.9c-0.6-0.6-1-1-1.5-1.5c1.9-0.8,3.7-1.6,5.6-2.3c1,1.4-0.4,2.1-1.2,2.7
	C369.7,15.3,368.5,15.5,367.6,15.9z"/>
<path class="st0" d="M456.3,234.7c1.1,0.8,2,1.4,3.9,2.8c-2.5,0.2-3.7,0.3-5.7,0.4C455.3,236.4,455.8,235.6,456.3,234.7z"/>
<path class="st0" d="M332.2,70.8c0.6,0,1,0,1.6,0c0.1,1.2,0.1,2.4,0.2,4.3c-1.3-0.6-2.2-1.1-2.9-1.4
	C331.5,72.6,331.9,71.7,332.2,70.8z"/>
<path class="st0" d="M449,197.8c0,1.1,0,1.8,0,2.8c-1.2,0.1-2.4,0.2-3.7,0.2c-0.1-0.6-0.2-1-0.4-1.8c0.9-0.1,1.6-0.1,2.3-0.3
	C447.7,198.6,448.3,198.2,449,197.8z"/>
<path class="st0" d="M432.4,230.7c-0.6-0.6-0.9-0.9-1.4-1.4c1.2-0.6,2.3-1.1,3.5-1.7c0.2,0.6,0.4,1,0.6,1.6
	C434.2,229.7,433.3,230.2,432.4,230.7z"/>
<path class="st0" d="M467,205.6c-0.5,0.3-0.9,0.6-1.6,1.1c-0.5-0.7-1.1-1.4-2-2.6c1.4-0.1,2.3-0.2,3.5-0.3
	C466.9,204.5,467,205.2,467,205.6z"/>
<path class="st0" d="M71.3,173.8c0.6,0,0.9,0,1.5,0c0.1,0.9,0.2,1.7,0.2,2.8c-0.6,0.1-1.1,0.2-1.8,0.4
	C71.3,175.8,71.3,174.8,71.3,173.8z"/>
<path class="st0" d="M428.1,117.8c0-1,0-1.9,0-2.9c0.6-0.1,1-0.1,1.7-0.2c0,1,0,1.8,0,2.9C429.2,117.7,428.6,117.8,428.1,117.8z"/>
<path class="st0" d="M399.6,208.1c-0.6-0.6-1.4-1.4-2.2-2.2c-0.2,0.1,0.2-0.2,0.3-0.2C399.5,206.6,399.5,206.7,399.6,208.1z"/>
<path class="st0" d="M457.7,191.2c-0.9-1.1-1.4-1.8-2.2-2.8c0.9-0.4,1.4-0.6,2.2-0.9C457.7,188.8,457.7,189.8,457.7,191.2z"/>
<path class="st0" d="M449.1,209.7c2.1,0.1,2.8,1.1,2.9,2.9C451,211.6,450.2,210.8,449.1,209.7z"/>
<path class="st0" d="M353,127.8c0,0.3,0,0.7,0,1c-0.5,0.3-1,0.6-1.8,1c0-1,0-2,0-3C352,127.2,352.5,127.5,353,127.8z"/>
<path class="st0" d="M70,229.8c0.3-0.3,0.7-0.7,1-1c1.4,0.3,1.3,1.2,0.5,1.9C71,231.1,70,231,70,229.8z"/>
<path class="st0" d="M0,252.9c0.8,0,1.2,0,1.8,0c0.1,0.5,0.2,1,0.3,1.5C0.7,255.1-0.1,255.1,0,252.9z"/>
<path class="st0" d="M463.1,190.7c-0.9,0-1.4,0-1.6,0c0.4-0.5,0.8-1.1,1.3-1.9C462.9,189.4,463,189.8,463.1,190.7z"/>
<path class="st0" d="M154.2,139.3c0.4,0.4,0.9,0.9,1.3,1.3c-0.2,0-0.6,0.1-1.3,0.2C154.2,140.1,154.2,139.5,154.2,139.3z"/>
<path class="st0" d="M357.2,82.8c0-1-0.1-1.9-0.1-2.9c0.2,0,0.4,0,0.7-0.1c0.1,1,0.3,2,0.4,2.9C357.8,82.8,357.5,82.8,357.2,82.8z"
	/>
<path class="st0" d="M480.5,207.5c0.2-0.5,0.6-1.2,1.2-2.6c0.2,1.4,0.3,1.9,0.4,2.6C481.3,207.5,480.7,207.5,480.5,207.5z"/>
<path class="st0" d="M36.2,209.5c-0.8,0.2-1.3,0.2-1.9,0.4c-0.1-0.6-0.2-1.2-0.6-2.8C35,208.3,35.5,208.8,36.2,209.5z"/>
<path class="st0" d="M411.2,10.6c0-0.9,0-1.8,0-2.7c0.2,0,0.3,0,0.5-0.1c0.1,0.9,0.3,1.7,0.4,2.6C411.8,10.6,411.5,10.6,411.2,10.6z
	"/>
<path class="st0" d="M451.6,243.5c-0.5-0.3-1.1-0.7-2.1-1.3C451.9,242,451.9,242,451.6,243.5z"/>
<path class="st0" d="M104,67.8c0,0.3,0,0.7,0,1c-0.6,0-1.2,0-1.8,0c0-0.2,0-0.4-0.1-0.7C102.7,68,103.4,67.9,104,67.8z"/>
<path class="st0" d="M432.8,246.9c0,0.6,0,1.1,0,1.7c-0.2,0-0.3,0.1-0.5,0.1c-0.1-0.5-0.3-1.1-0.4-1.6
	C432.2,247,432.5,247,432.8,246.9z"/>
<path class="st0" d="M20.8,246.9c0,0.6,0,1.1,0,1.7c-0.2,0-0.3,0.1-0.5,0.1c-0.1-0.5-0.3-1.1-0.4-1.6C20.2,247,20.5,247,20.8,246.9z
	"/>
<path class="st0" d="M424.2,211c0.6,0,1.1,0,1.7,0c0,0.2,0.1,0.3,0.1,0.5c-0.5,0.1-1.1,0.3-1.6,0.4
	C424.2,211.5,424.2,211.2,424.2,211z"/>
<path class="st0" d="M389,17.8c0.4-0.3,0.8-0.7,1.2-1c0.3,0.3,0.5,0.7,0.8,1C390.3,17.8,389.7,17.8,389,17.8z"/>
<path class="st0" d="M454.8,213.6c-0.6,0-1.1,0-1.7,0c0-0.2,0-0.3-0.1-0.5c0.6-0.1,1.1-0.2,1.7-0.4
	C454.8,213,454.8,213.3,454.8,213.6z"/>
<path class="st0" d="M338.2,24.8c-0.1-0.6-0.1-1.3-0.2-1.9c0.2,0,0.4-0.1,0.6-0.1c0.1,0.7,0.3,1.3,0.4,2
	C338.8,24.8,338.5,24.8,338.2,24.8z"/>
<path class="st0" d="M399.8,225.6c-0.6,0-1.1,0-1.7,0c0-0.2,0-0.3-0.1-0.5c0.6-0.1,1.1-0.2,1.7-0.4
	C399.8,225,399.8,225.3,399.8,225.6z"/>
<path class="st0" d="M92.2,159.8c-0.1-0.6-0.1-1.3-0.2-1.9c0.2,0,0.4-0.1,0.6-0.1c0.1,0.7,0.3,1.3,0.4,2
	C92.8,159.8,92.5,159.8,92.2,159.8z"/>
<path class="st0" d="M470.8,159.6c-0.6,0-1.1,0-1.7,0c0-0.2,0-0.3-0.1-0.5c0.6-0.1,1.1-0.2,1.7-0.4
	C470.8,159,470.8,159.3,470.8,159.6z"/>
<path class="st0" d="M81.7,161.8c0,0.7,0,1.3,0,2c-0.2,0-0.3,0-0.5,0c0-0.7,0-1.3,0-2C81.4,161.8,81.6,161.8,81.7,161.8z"/>
<path class="st0" d="M349.2,143c0.6,0,1.1,0,1.7,0c0,0.2,0.1,0.3,0.1,0.5c-0.5,0.1-1.1,0.3-1.6,0.4
	C349.2,143.5,349.2,143.2,349.2,143z"/>
<path class="st0" d="M440.2,166.8c0-0.7,0-1.3,0-2c0.2,0,0.3,0,0.5,0c0,0.7,0,1.3,0,2C440.6,166.8,440.4,166.8,440.2,166.8z"/>
<path class="st0" d="M85.8,166.6c-0.6,0-1.1,0-1.7,0c0-0.2-0.1-0.3-0.1-0.5c0.5-0.1,1.1-0.3,1.6-0.4C85.8,166,85.8,166.3,85.8,166.6
	z"/>
<path class="st0" d="M465.2,186c0.6,0,1.1,0,1.7,0c0,0.2,0,0.3,0.1,0.5c-0.6,0.1-1.1,0.2-1.7,0.4C465.2,186.5,465.2,186.2,465.2,186
	z"/>
<path class="st0" d="M474.8,186.6c-0.6,0-1.1,0-1.7,0c0-0.2,0-0.3-0.1-0.5c0.6-0.1,1.1-0.2,1.7-0.4
	C474.8,186,474.8,186.3,474.8,186.6z"/>
<path class="st0" d="M475,188c0.6-0.1,1.3-0.1,1.9-0.2c0,0.2,0.1,0.4,0.1,0.6c-0.7,0.1-1.3,0.3-2,0.4C475,188.6,475,188.3,475,188z"
	/>
<path class="st0" d="M462.7,191.8c0,0.7,0,1.3,0,2c-0.2,0-0.3,0-0.5,0c0-0.7,0-1.3,0-2C462.4,191.8,462.6,191.8,462.7,191.8z"/>
<path class="st0" d="M158.8,123.9c0,0.6,0,1.1,0,1.7c-0.2,0-0.3,0.1-0.5,0.1c-0.1-0.5-0.3-1.1-0.4-1.6
	C158.2,124,158.5,124,158.8,123.9z"/>
<path class="st0" d="M244.2,97.8c0-0.7,0-1.3,0-2c0.2,0,0.3,0,0.5,0c0,0.7,0,1.3,0,2C244.6,97.8,244.4,97.8,244.2,97.8z"/>
<path class="st0" d="M455,200c0.7,0,1.3,0,2,0c0,0.2,0,0.3,0,0.5c-0.7,0-1.3,0-2,0C455,200.4,455,200.2,455,200z"/>
<path class="st0" d="M275.9,145.9c-1.2-0.9-2.1-1.6-1.7-3.3C275.4,143.5,276.2,144.2,275.9,145.9z"/>
<path class="st0" d="M270.2,174c0.6,0,1.1,0,1.7,0c0,0.2,0.1,0.3,0.1,0.5c-0.5,0.1-1.1,0.3-1.6,0.4
	C270.2,174.5,270.2,174.2,270.2,174z"/>
<path class="st0" d="M306.8,59c1.1-0.1,1.9-0.1,3-0.2c0,1.1,0,2,0,3C307.8,61.9,307.2,60.8,306.8,59z"/>
<path class="st0" d="M295,66.5c-0.7,0-1.3,0-2,0c0-0.2,0-0.3,0-0.5c0.7,0,1.3,0,2,0C295,66.2,295,66.4,295,66.5z"/>
<path class="st0" d="M291.7,75.8c0,0.7,0,1.3,0,2c-0.2,0-0.3,0-0.5,0c0-0.7,0-1.3,0-2C291.4,75.8,291.6,75.8,291.7,75.8z"/>
</svg>
